<?xml version="1.0" encoding="utf-8"?>
<!-- Generator: Adobe Illustrator 28.0.0, SVG Export Plug-In . SVG Version: 6.00 Build 0)  -->
<svg version="1.1" id="Слой_1" xmlns="http://www.w3.org/2000/svg" xmlns:xlink="http://www.w3.org/1999/xlink" x="0px" y="0px"
	 viewBox="0 0 680 640" style="enable-background:new 0 0 680 640;" xml:space="preserve">
<style type="text/css">
	.st0{fill:#333333;}
	.st1{fill:#FFDB4D;}
	.st2{fill:#FFFFFF;stroke:#000000;stroke-miterlimit:10;}
	.st3{fill:#F5F5F5;}
	.st4{fill:none;stroke:#333333;stroke-width:0.97;stroke-miterlimit:10;}
	.st5{fill:none;stroke:#333333;stroke-width:0.5;stroke-miterlimit:10;}
	.st6{fill:none;stroke:#333333;stroke-width:0.5;stroke-miterlimit:10;stroke-dasharray:2,3;}
	.st7{opacity:0.8;}
	.st8{fill:none;stroke:#FFFFFF;stroke-width:3.5;stroke-miterlimit:10;}
	.st9{fill:#FFFFFF;}
	.st10{fill:none;stroke:#F5F5F5;stroke-width:3.5;stroke-miterlimit:10;}
</style>
<symbol  id="Black" viewBox="-10 -10 20 20">
	<circle class="st0" cx="0" cy="0" r="10"/>
</symbol>
<symbol  id="dark_circle" viewBox="-10 -10 20 20">
	<circle class="st1" cx="0" cy="0" r="10"/>
</symbol>
<g id="Light_grey_rows">
	<rect class="st2" width="680" height="640"/>
	<rect y="320" class="st3" width="680" height="60"/>
	<rect y="440" class="st3" width="680" height="100"/>
	<rect class="st3" width="680" height="100"/>
	<rect y="160" class="st3" width="680" height="80"/>
</g>
<g id="Layer_1">
	<path class="st0" d="M249.1,21h3.7c1.1-0.1,2.1,0.2,3,0.8c0.8,0.6,1.2,1.6,1.1,2.5c0,0.6-0.1,1.1-0.3,1.7c-0.2,0.4-0.5,0.8-0.9,1.1
		c-0.4,0.3-0.9,0.5-1.3,0.7c-0.6,0.1-1.1,0.2-1.7,0.2h-2v4.5h-1.5V21z M250.6,22.4v4.3h2c0.4,0,0.7,0,1.1-0.1
		c0.3-0.1,0.6-0.2,0.9-0.4c0.2-0.2,0.4-0.4,0.6-0.7c0.1-0.3,0.2-0.7,0.2-1.1c0.1-0.6-0.2-1.1-0.7-1.5c-0.6-0.4-1.2-0.5-1.9-0.5
		L250.6,22.4z"/>
	<path class="st0" d="M265,31.8c-0.1,0.1-0.3,0.2-0.4,0.3c-0.2,0.1-0.4,0.2-0.6,0.3c-0.3,0.1-0.5,0.2-0.8,0.2
		c-0.3,0.1-0.7,0.1-1,0.1c-1.2,0.1-2.3-0.3-3.2-1.1c-0.8-0.9-1.2-2-1.1-3.2c0-0.6,0.1-1.2,0.3-1.8c0.2-0.5,0.5-1,0.8-1.4
		c0.4-0.4,0.8-0.7,1.2-0.9c0.5-0.2,1-0.3,1.6-0.3c0.5,0,1.1,0.1,1.6,0.3c0.5,0.2,0.9,0.5,1.2,0.9c0.3,0.4,0.5,0.9,0.6,1.5
		c0.1,0.7,0.1,1.3,0,2h-5.9c0,0.7,0.3,1.5,0.8,2c0.6,0.5,1.4,0.7,2.1,0.7c0.6,0,1.1-0.1,1.6-0.3c0.4-0.2,0.8-0.4,1.1-0.6L265,31.8z
		 M261.7,25.3c-0.6,0-1.1,0.2-1.6,0.6c-0.5,0.4-0.8,1-0.8,1.7h4.5c0.1-0.6-0.1-1.2-0.5-1.7C262.8,25.4,262.3,25.2,261.7,25.3
		L261.7,25.3z"/>
	<path class="st0" d="M267.6,29.9c0.2-0.7,0.3-1.5,0.3-2.2c0-0.9,0.1-2.1,0.1-3.5h5.6v8.3h-1.4v-7.1h-2.8c0,1.1,0,2.1-0.1,3
		c0,0.8-0.2,1.5-0.4,2.2c-0.1,0.5-0.4,1-0.8,1.4c-0.4,0.3-0.9,0.5-1.4,0.5h-0.3v-1.4h0.2C267.1,31.1,267.4,30.7,267.6,29.9z"/>
	<path class="st0" d="M277.2,30.5l4.4-6.4h1.4v8.3h-1.4v-6.4l-4.4,6.4h-1.4v-8.3h1.4V30.5z"/>
	<path class="st0" d="M291.3,30c0,0.4-0.1,0.8-0.3,1.2c-0.2,0.3-0.4,0.6-0.8,0.8c-0.3,0.2-0.7,0.4-1.1,0.5c-0.4,0.1-0.9,0.1-1.3,0.1
		c-0.5,0-1.1-0.1-1.6-0.2c-0.4-0.1-0.8-0.2-1.1-0.5v-1.3c0.4,0.2,0.8,0.4,1.2,0.5c0.5,0.1,1,0.2,1.5,0.2c0.5,0,1-0.1,1.5-0.3
		c0.4-0.2,0.6-0.6,0.6-1c0-0.4-0.2-0.8-0.5-1c-0.5-0.2-1-0.3-1.6-0.3h-1.1v-1.1h1.1c0.5,0,0.9-0.1,1.3-0.3c0.3-0.2,0.5-0.6,0.5-0.9
		c0-0.2,0-0.4-0.1-0.5c-0.1-0.2-0.2-0.3-0.4-0.4c-0.2-0.1-0.4-0.2-0.6-0.2c-0.2,0-0.5,0-0.7,0c-0.5,0-0.9,0.1-1.4,0.2
		c-0.4,0.1-0.8,0.3-1.1,0.5v-1.3c0.3-0.2,0.7-0.4,1.1-0.5c0.5-0.1,1-0.2,1.5-0.2c0.8-0.1,1.6,0.1,2.3,0.6c0.5,0.4,0.8,1,0.8,1.7
		c0,0.5-0.1,0.9-0.4,1.3c-0.3,0.3-0.8,0.6-1.2,0.6c0.6,0,1.1,0.3,1.5,0.6C291.1,29.1,291.3,29.6,291.3,30z"/>
	<path class="st0" d="M258,50.5h-1.5v-9.7l-3.2,2.4v-1.6l3.4-2.6h1.3V50.5z"/>
	<path class="st0" d="M263.2,50.6c-0.6,0-1-0.4-1-1c0-0.3,0.1-0.5,0.3-0.7c0.4-0.4,1.1-0.4,1.5,0c0.2,0.2,0.3,0.5,0.3,0.7
		c0,0.3-0.1,0.5-0.3,0.7C263.8,50.5,263.5,50.6,263.2,50.6z"/>
	<path class="st0" d="M273.7,50.5h-7.3V49c1-0.8,1.8-1.5,2.5-2.1c0.6-0.5,1.2-1.1,1.8-1.7c0.4-0.4,0.7-0.9,1-1.5
		c0.2-0.5,0.3-0.9,0.3-1.5c0-0.6-0.2-1.1-0.6-1.5c-0.4-0.4-1.1-0.6-1.7-0.6c-0.6,0-1.2,0.2-1.7,0.5c-0.5,0.3-1,0.7-1.4,1.1v-1.6
		c0.4-0.4,0.9-0.8,1.4-1c0.6-0.2,1.2-0.4,1.8-0.3c0.5,0,1.1,0.1,1.6,0.2c0.4,0.1,0.8,0.4,1.2,0.7c0.3,0.3,0.6,0.6,0.7,1
		c0.2,0.4,0.3,0.9,0.2,1.3c0,0.6-0.1,1.2-0.4,1.8c-0.3,0.6-0.6,1.1-1.1,1.6c-0.5,0.6-1.1,1.2-1.7,1.7c-0.7,0.6-1.5,1.2-2.4,1.9h5.6
		L273.7,50.5z"/>
	<path class="st0" d="M276.8,50.6c-0.6,0-1-0.4-1-1c0-0.3,0.1-0.5,0.3-0.7c0.4-0.4,1.1-0.4,1.5,0c0.2,0.2,0.3,0.5,0.3,0.7
		c0,0.3-0.1,0.5-0.3,0.7C277.4,50.5,277.1,50.6,276.8,50.6z"/>
	<path class="st0" d="M283.6,50.6c-0.5,0-1-0.1-1.5-0.3c-0.5-0.2-0.9-0.6-1.2-1.1c-0.4-0.6-0.6-1.2-0.8-1.8
		c-0.2-0.9-0.3-1.8-0.3-2.7c0-0.9,0.1-1.8,0.3-2.7c0.2-0.7,0.4-1.3,0.8-1.8c0.3-0.5,0.7-0.8,1.2-1.1c0.5-0.2,1-0.3,1.5-0.3
		c0.5,0,1,0.1,1.5,0.3c0.5,0.2,0.9,0.6,1.2,1c0.4,0.6,0.6,1.2,0.8,1.8c0.2,0.9,0.3,1.8,0.3,2.6c0,0.9-0.1,1.8-0.3,2.6
		c-0.2,0.7-0.4,1.3-0.8,1.8c-0.3,0.5-0.7,0.8-1.2,1.1C284.7,50.5,284.2,50.6,283.6,50.6z M283.6,49.4c0.7,0,1.4-0.4,1.7-1
		c0.2-0.5,0.4-0.9,0.4-1.4c0.1-0.7,0.2-1.4,0.1-2.2c0-0.7,0-1.4-0.1-2.2c-0.1-0.5-0.2-1-0.4-1.4c-0.2-0.3-0.4-0.6-0.7-0.8
		c-0.3-0.2-0.7-0.3-1-0.2c-0.7,0-1.4,0.4-1.7,1c-0.2,0.5-0.4,0.9-0.4,1.4c-0.2,1.4-0.2,2.9,0,4.3c0.1,0.5,0.2,1,0.4,1.4
		c0.2,0.3,0.4,0.6,0.7,0.8C282.9,49.3,283.3,49.4,283.6,49.4L283.6,49.4z"/>
	
		<use xlink:href="#dark_circle"  width="20" height="20" x="-10" y="-10" transform="matrix(1 0 0 1 530 470)" style="overflow:visible;"/>
	
		<use xlink:href="#dark_circle"  width="20" height="20" x="-10" y="-10" transform="matrix(1 0 0 1 465 470)" style="overflow:visible;"/>
	<circle class="st1" cx="83" cy="584" r="7.5"/>
	
		<use xlink:href="#dark_circle"  width="20" height="20" x="-10" y="-10" transform="matrix(1 0 0 1 350 470)" style="overflow:visible;"/>
	
		<use xlink:href="#dark_circle"  width="20" height="20" x="-10" y="-10" transform="matrix(1 0 0 1 250 470)" style="overflow:visible;"/>
	
		<use xlink:href="#dark_circle"  width="20" height="20" x="-10" y="-10" transform="matrix(1 0 0 1 305 470)" style="overflow:visible;"/>
	
		<use xlink:href="#dark_circle"  width="20" height="20" x="-10" y="-10" transform="matrix(1 0 0 1 320 410)" style="overflow:visible;"/>
	
		<use xlink:href="#dark_circle"  width="20" height="20" x="-10" y="-10" transform="matrix(1 0 0 1 400 350)" style="overflow:visible;"/>
	<circle class="st1" cx="230" cy="200" r="10"/>
	
		<use xlink:href="#dark_circle"  width="20" height="20" x="-10" y="-10" transform="matrix(1 0 0 1 300 350)" style="overflow:visible;"/>
	
		<use xlink:href="#dark_circle"  width="20" height="20" x="-10" y="-10" transform="matrix(1 0 0 1 200 350)" style="overflow:visible;"/>
	
		<use xlink:href="#Black"  width="20" height="20" x="-10" y="-10" transform="matrix(1 0 0 1 350 350)" style="overflow:visible;"/>
	
		<use xlink:href="#dark_circle"  width="20" height="20" x="-10" y="-10" transform="matrix(1 0 0 1 330 200)" style="overflow:visible;"/>
	
		<use xlink:href="#dark_circle"  width="20" height="20" x="-10" y="-10" transform="matrix(1 0 0 1 200 70)" style="overflow:visible;"/>
	<path class="st0" d="M66.6,185.6c-0.8,0-1.6-0.1-2.3-0.4c-0.7-0.3-1.3-0.7-1.8-1.2c-0.5-0.5-0.9-1.2-1.1-1.9
		c-0.3-0.8-0.4-1.6-0.4-2.5c0-0.8,0.1-1.7,0.4-2.5c0.2-0.7,0.6-1.3,1.1-1.8c0.5-0.5,1.1-0.9,1.8-1.2c0.8-0.3,1.6-0.4,2.4-0.4
		c0.7,0,1.3,0.1,2,0.2c0.5,0.1,1,0.3,1.4,0.6v1.4c-0.5-0.3-1.1-0.6-1.7-0.7c-0.6-0.1-1.2-0.2-1.8-0.2c-1.1-0.1-2.2,0.3-3,1.1
		c-0.7,1-1.1,2.2-1,3.4c-0.1,1.2,0.3,2.4,1,3.4c0.8,0.8,1.9,1.2,3.1,1.1c0.6,0,1.2-0.1,1.7-0.2c0.6-0.2,1.1-0.4,1.6-0.8v1.4
		c-0.4,0.3-0.9,0.5-1.3,0.7C68,185.5,67.3,185.6,66.6,185.6z"/>
	<path class="st0" d="M76.3,185.6c-0.6,0-1.2-0.1-1.7-0.4c-0.5-0.3-0.8-0.7-1.1-1.2v4.4h-1.4v-11.2h1.2l0.2,1.6
		c0.3-0.5,0.6-1,1.1-1.3c0.5-0.3,1.1-0.5,1.7-0.5c0.5,0,0.9,0.1,1.4,0.3c0.4,0.2,0.8,0.4,1.2,0.8c0.4,0.4,0.6,0.8,0.8,1.4
		c0.4,1.2,0.4,2.6,0,3.8c-0.2,0.5-0.5,1-0.8,1.4c-0.3,0.3-0.7,0.6-1.2,0.8C77.2,185.5,76.7,185.6,76.3,185.6z M76.1,184.4
		c0.7,0,1.3-0.3,1.8-0.8c0.9-1.4,0.9-3.2,0-4.6c-0.4-0.5-1.1-0.8-1.8-0.8c-0.3,0-0.7,0.1-1,0.2c-0.3,0.1-0.6,0.3-0.8,0.6
		c-0.2,0.3-0.4,0.6-0.6,0.9c-0.3,0.9-0.3,1.8,0,2.7c0.1,0.4,0.3,0.7,0.6,1c0.2,0.3,0.5,0.4,0.8,0.6
		C75.4,184.3,75.7,184.4,76.1,184.4z"/>
	<path class="st0" d="M85.1,185.6c-0.5,0-1.1-0.1-1.6-0.3c-0.5-0.2-0.9-0.5-1.3-0.8c-0.4-0.4-0.7-0.8-0.8-1.4
		c-0.4-1.2-0.4-2.5,0-3.7c0.2-0.5,0.5-1,0.8-1.4c0.4-0.4,0.8-0.6,1.3-0.8c1-0.4,2.2-0.4,3.2,0c0.5,0.2,0.9,0.5,1.3,0.8
		c0.4,0.4,0.7,0.8,0.8,1.4c0.4,1.2,0.4,2.5,0,3.7c-0.2,0.5-0.4,1-0.8,1.3c-0.4,0.4-0.8,0.7-1.3,0.8
		C86.2,185.5,85.7,185.6,85.1,185.6z M85.1,184.4c0.3,0,0.7-0.1,1-0.2c0.3-0.1,0.6-0.3,0.8-0.6c0.3-0.3,0.4-0.6,0.5-1
		c0.3-0.9,0.3-1.8,0-2.7c-0.1-0.4-0.3-0.7-0.5-1c-0.2-0.2-0.5-0.4-0.8-0.6c-0.3-0.1-0.7-0.2-1-0.2c-0.3,0-0.7,0.1-1,0.2
		c-0.3,0.1-0.6,0.3-0.8,0.6c-0.3,0.3-0.4,0.6-0.5,1c-0.3,0.9-0.3,1.8,0,2.7c0.1,0.4,0.3,0.7,0.5,1c0.2,0.2,0.5,0.4,0.8,0.6
		C84.4,184.3,84.7,184.4,85.1,184.4z"/>
	<path class="st0" d="M97,185.5h-1.4v-3.6c-0.3,0.2-0.6,0.4-1,0.5c-0.4,0.1-0.9,0.2-1.3,0.2c-0.8,0.1-1.6-0.2-2.2-0.7
		c-0.6-0.6-0.8-1.4-0.8-2.2v-2.4h1.4v2.4c-0.1,0.5,0.1,1,0.4,1.4c0.4,0.3,0.8,0.4,1.3,0.4c0.4,0,0.7-0.1,1.1-0.2
		c0.4-0.1,0.7-0.3,1-0.5v-3.5H97V185.5z"/>
	<path class="st0" d="M104.8,181.8h-4v3.7h-1.4v-8.3h1.4v3.4h4v-3.4h1.4v8.3h-1.4L104.8,181.8z"/>
	<path class="st0" d="M114.6,182.7c0,0.4-0.1,0.9-0.3,1.2c-0.2,0.3-0.4,0.6-0.7,0.9c-0.3,0.2-0.7,0.4-1.1,0.5
		c-0.5,0.1-0.9,0.2-1.4,0.2h-2.7v-8.3h1.4v2.9h1.4c0.9-0.1,1.7,0.2,2.5,0.6C114.3,181.2,114.7,181.9,114.6,182.7z M109.9,181.3v3
		h1.3c0.5,0,1-0.1,1.5-0.3c0.4-0.2,0.6-0.7,0.6-1.1c0-0.5-0.2-0.9-0.5-1.2c-0.4-0.3-0.9-0.4-1.4-0.4L109.9,181.3z M117.2,185.5h-1.4
		v-8.3h1.4V185.5z"/>
	<path class="st0" d="M126.1,184.8c-0.1,0.1-0.3,0.2-0.4,0.3c-0.2,0.1-0.4,0.2-0.6,0.3c-0.3,0.1-0.5,0.2-0.8,0.2
		c-0.3,0.1-0.7,0.1-1,0.1c-1.2,0.1-2.4-0.3-3.2-1.1c-0.8-0.9-1.2-2-1.1-3.2c0-0.6,0.1-1.2,0.3-1.8c0.2-0.5,0.5-1,0.8-1.4
		c0.4-0.4,0.8-0.7,1.2-0.9c0.5-0.2,1-0.3,1.6-0.3c0.5,0,1.1,0.1,1.6,0.3c0.5,0.2,0.9,0.5,1.2,0.9c0.3,0.4,0.5,0.9,0.6,1.5
		c0.1,0.7,0.1,1.3,0,2h-5.9c0,0.7,0.3,1.5,0.8,2c0.6,0.5,1.4,0.7,2.1,0.7c0.6,0,1.1-0.1,1.7-0.3c0.4-0.2,0.8-0.4,1.2-0.6
		L126.1,184.8z M122.8,178.3c-0.6,0-1.1,0.2-1.6,0.6c-0.5,0.4-0.8,1-0.8,1.7h4.5c0.1-0.6-0.1-1.2-0.5-1.7
		C123.9,178.4,123.4,178.2,122.8,178.3L122.8,178.3z"/>
	<path class="st0" d="M62.8,202.6l4.4-6.4h1.4v8.3h-1.4v-6.4l-4.4,6.4h-1.4v-8.3h1.4V202.6z"/>
	<path class="st0" d="M74.6,204.6c-0.6,0-1.2-0.1-1.7-0.3c-0.5-0.2-0.9-0.5-1.3-0.9c-0.4-0.4-0.7-0.8-0.8-1.4
		c-0.2-0.6-0.3-1.2-0.3-1.8c0-0.6,0.1-1.2,0.3-1.8c0.2-0.5,0.5-1,0.8-1.4c0.4-0.4,0.8-0.7,1.3-0.9c0.6-0.2,1.2-0.3,1.8-0.3
		c0.5,0,0.9,0,1.4,0.2c0.4,0.1,0.7,0.3,1.1,0.5v1.3c-0.4-0.2-0.7-0.4-1.2-0.5c-0.4-0.1-0.9-0.2-1.3-0.2c-0.8-0.1-1.6,0.2-2.1,0.8
		c-0.5,0.7-0.7,1.5-0.7,2.3c-0.1,0.8,0.2,1.6,0.7,2.3c0.5,0.5,1.3,0.8,2.1,0.8c0.5,0,1-0.1,1.4-0.2c0.4-0.1,0.8-0.3,1.2-0.5v1.3
		c-0.3,0.2-0.7,0.4-1.1,0.5C75.6,204.6,75.1,204.6,74.6,204.6z"/>
	<path class="st0" d="M79,196.2h6.7v8.3h-1.4v-7.1h-3.8v7.1H79V196.2z"/>
	<path class="st0" d="M92.1,204.6c-0.6,0-1.2-0.1-1.7-0.4c-0.5-0.3-0.8-0.7-1.1-1.2v4.4H88v-11.2h1.2l0.1,1.6c0.3-0.5,0.6-1,1.1-1.3
		c0.5-0.3,1.1-0.5,1.7-0.5c0.5,0,0.9,0.1,1.4,0.3c0.4,0.2,0.8,0.5,1.2,0.8c0.4,0.4,0.6,0.9,0.8,1.4c0.2,0.6,0.3,1.2,0.3,1.9
		c0,0.6-0.1,1.3-0.3,1.9c-0.2,0.5-0.5,1-0.8,1.4c-0.3,0.3-0.7,0.6-1.2,0.8C93.1,204.5,92.6,204.6,92.1,204.6z M91.9,203.4
		c0.7,0,1.3-0.3,1.8-0.8c0.9-1.4,0.9-3.2,0-4.6c-0.5-0.5-1.1-0.8-1.8-0.8c-0.3,0-0.7,0.1-1,0.2c-0.3,0.1-0.6,0.3-0.8,0.6
		c-0.2,0.3-0.4,0.6-0.5,0.9c-0.3,0.9-0.3,1.8,0,2.7c0.1,0.4,0.3,0.7,0.5,1c0.2,0.3,0.5,0.5,0.8,0.6
		C91.2,203.3,91.6,203.4,91.9,203.4z"/>
	<path class="st0" d="M102.3,202.9c-0.1,0.2-0.2,0.4-0.4,0.6c-0.2,0.2-0.3,0.4-0.6,0.6c-0.2,0.2-0.5,0.3-0.8,0.4
		c-0.3,0.1-0.7,0.2-1.1,0.2c-0.7,0-1.3-0.2-1.8-0.6c-0.5-0.5-0.7-1.1-0.7-1.8c0-0.8,0.3-1.6,1-2c0.8-0.5,1.8-0.7,2.7-0.6h1.6v-0.7
		c0-0.5-0.1-0.9-0.4-1.2c-0.5-0.3-1-0.4-1.5-0.4c-0.5,0-1,0.1-1.5,0.2c-0.4,0.2-0.8,0.3-1.2,0.6v-1.3c0.4-0.2,0.8-0.4,1.2-0.5
		c0.5-0.2,1.1-0.3,1.7-0.3c0.8-0.1,1.7,0.2,2.4,0.6c0.6,0.5,0.9,1.2,0.8,2v4.5c0,0.1,0,0.2,0,0.3s0,0.2,0,0.4s0,0.2,0,0.4
		s0,0.2,0,0.3h-1.3c0-0.1,0-0.4-0.1-0.6c0-0.3,0-0.5,0-0.7L102.3,202.9z M99.9,203.4c0.4,0,0.8-0.1,1.1-0.3c0.3-0.2,0.5-0.4,0.8-0.6
		c0.2-0.2,0.3-0.4,0.4-0.7c0.1-0.2,0.1-0.3,0.1-0.5v-0.6h-1.4c-0.6-0.1-1.3,0.1-1.9,0.3c-0.4,0.2-0.6,0.6-0.6,1.1
		c0,0.3,0.1,0.7,0.3,0.9C99.1,203.3,99.5,203.4,99.9,203.4z"/>
	<path class="st0" d="M105.9,196.2h3.1c0.8-0.1,1.6,0.1,2.3,0.5c0.5,0.4,0.8,1,0.8,1.6c0,0.4-0.1,0.8-0.4,1.2
		c-0.3,0.3-0.7,0.5-1.1,0.6c1,0,1.8,0.9,1.8,1.9c0,0,0,0.1,0,0.1c0,0.4-0.1,0.8-0.3,1.1c-0.2,0.3-0.4,0.6-0.7,0.8
		c-0.3,0.2-0.7,0.3-1.1,0.4c-0.5,0.1-0.9,0.1-1.4,0.1h-3.1L105.9,196.2z M107.3,197.4v2.2h1.6c0.4,0,0.9-0.1,1.3-0.3
		c0.5-0.3,0.7-0.9,0.4-1.4c-0.1-0.2-0.2-0.3-0.4-0.4c-0.4-0.2-0.8-0.3-1.2-0.2H107.3z M107.3,200.7v2.5h1.7c0.3,0,0.5,0,0.8-0.1
		c0.2,0,0.4-0.1,0.6-0.2c0.2-0.1,0.3-0.2,0.4-0.4c0.1-0.2,0.1-0.4,0.1-0.6c0-0.4-0.2-0.8-0.5-1c-0.5-0.2-1-0.3-1.5-0.3L107.3,200.7z
		"/>
	<path class="st0" d="M115,201.9c0.2-0.7,0.3-1.5,0.3-2.2c0-0.9,0.1-2.1,0.1-3.5h5.7v8.3h-1.4v-7.1h-2.8c0,1.1,0,2.1-0.1,3
		c0,0.8-0.2,1.5-0.4,2.2c-0.1,0.5-0.4,1-0.8,1.4c-0.4,0.3-0.9,0.5-1.4,0.5h-0.3v-1.4h0.2C114.5,203.1,114.8,202.7,115,201.9z"/>
	<path class="st0" d="M129.9,203.8c-0.1,0.1-0.3,0.2-0.4,0.3c-0.2,0.1-0.4,0.2-0.6,0.3c-0.3,0.1-0.5,0.2-0.8,0.2
		c-0.3,0.1-0.7,0.1-1,0.1c-1.2,0.1-2.3-0.3-3.2-1.1c-0.8-0.9-1.2-2-1.1-3.2c0-0.6,0.1-1.2,0.3-1.8c0.2-0.5,0.5-1,0.8-1.4
		c0.4-0.4,0.8-0.7,1.2-0.9c0.5-0.2,1-0.3,1.6-0.3c0.5,0,1.1,0.1,1.6,0.3c0.5,0.2,0.9,0.5,1.2,0.9c0.3,0.4,0.5,0.9,0.6,1.5
		c0.1,0.7,0.1,1.3,0,2h-5.9c0,0.7,0.3,1.5,0.8,2c0.6,0.5,1.4,0.7,2.1,0.7c0.6,0,1.1-0.1,1.6-0.3c0.4-0.2,0.8-0.4,1.1-0.6
		L129.9,203.8z M126.6,197.3c-0.6,0-1.1,0.2-1.6,0.6c-0.5,0.4-0.8,1-0.8,1.7h4.5c0.1-0.6-0.1-1.2-0.5-1.7
		C127.7,197.4,127.1,197.2,126.6,197.3L126.6,197.3z"/>
	<path class="st0" d="M137.3,200.8h-4v3.7h-1.4v-8.3h1.4v3.4h4v-3.4h1.4v8.3h-1.4V200.8z"/>
	<path class="st0" d="M142.4,202.6l4.4-6.4h1.4v8.3h-1.4v-6.4l-4.4,6.4H141v-8.3h1.4L142.4,202.6z"/>
	<path class="st0" d="M150.6,198.9c0-0.4,0.1-0.8,0.2-1.2c0.2-0.3,0.4-0.6,0.7-0.8c0.3-0.2,0.7-0.4,1.1-0.5c0.5-0.1,0.9-0.2,1.4-0.2
		h2.7v8.3h-1.4v-3h-1.5l-2.1,3H150l2.4-3.4c-0.5-0.1-1-0.4-1.3-0.8C150.7,199.9,150.5,199.4,150.6,198.9z M155.3,200.3v-2.9h-1.3
		c-0.5,0-1,0.1-1.5,0.3c-0.4,0.2-0.6,0.6-0.6,1.1c0,0.4,0.2,0.9,0.5,1.1c0.4,0.3,1,0.4,1.5,0.3H155.3z"/>
	<path class="st0" d="M64,225.7c-0.8-1-1.5-2.1-1.9-3.3c-0.4-1.3-0.6-2.6-0.6-3.9c0-0.7,0.1-1.3,0.2-2c0.1-0.7,0.2-1.3,0.5-1.9
		c0.2-0.6,0.5-1.2,0.8-1.8c0.3-0.5,0.7-1,1.1-1.5h1.4c-0.4,0.4-0.8,0.9-1.1,1.4c-0.3,0.6-0.6,1.1-0.8,1.7c-0.2,0.6-0.4,1.3-0.5,1.9
		c-0.1,0.7-0.1,1.3-0.2,2c0,1.3,0.2,2.6,0.6,3.9c0.4,1.2,1,2.3,1.9,3.3L64,225.7z"/>
	<path class="st0" d="M71,216.3c-0.6,0-1.1,0.1-1.6,0.4c-0.4,0.3-0.8,0.7-1,1.1v5.6h-1.4V212h1.4v3.2v1.5l0,0c0.2-0.5,0.6-0.9,1-1.2
		c0.6-0.3,1.2-0.5,1.8-0.5c0.7-0.1,1.4,0.2,2,0.6c0.5,0.5,0.8,1.3,0.7,2v5.8h-1.4v-5.7c0-0.4-0.1-0.9-0.4-1.2
		C71.9,216.4,71.4,216.2,71,216.3z"/>
	<path class="st0" d="M79.7,223.6c-0.5,0-1.1-0.1-1.6-0.3c-0.5-0.2-0.9-0.5-1.3-0.8c-0.4-0.4-0.7-0.8-0.8-1.4
		c-0.4-1.2-0.4-2.5,0-3.7c0.2-0.5,0.5-1,0.8-1.4c0.4-0.4,0.8-0.6,1.3-0.8c1-0.4,2.2-0.4,3.2,0c0.5,0.2,0.9,0.5,1.3,0.8
		c0.4,0.4,0.7,0.8,0.8,1.4c0.4,1.2,0.4,2.5,0,3.7c-0.2,0.5-0.5,1-0.8,1.4c-0.4,0.4-0.8,0.7-1.3,0.8
		C80.8,223.5,80.2,223.6,79.7,223.6z M79.7,222.4c0.3,0,0.7-0.1,1-0.2c0.3-0.1,0.6-0.3,0.8-0.6c0.3-0.3,0.4-0.6,0.6-1
		c0.3-0.9,0.3-1.8,0-2.7c-0.1-0.4-0.3-0.7-0.6-1c-0.2-0.2-0.5-0.4-0.8-0.6c-0.7-0.2-1.4-0.2-2.1,0c-0.3,0.1-0.6,0.3-0.8,0.6
		c-0.3,0.3-0.4,0.6-0.5,1c-0.3,0.9-0.3,1.8,0,2.7c0.1,0.4,0.3,0.7,0.5,1c0.2,0.2,0.5,0.4,0.8,0.6C79,222.3,79.3,222.4,79.7,222.4z"
		/>
	<path class="st0" d="M88.8,223.5c-0.3,0.1-0.6,0.1-0.8,0.1c-0.3,0-0.7-0.1-1-0.2c-0.3-0.1-0.5-0.3-0.7-0.5
		c-0.2-0.2-0.3-0.4-0.4-0.7c-0.1-0.2-0.1-0.5-0.1-0.8v-5.2h-1v-1.2h1v-1.8h1.4v1.8h2.4v1.2h-2.4v5c0,0.3,0.1,0.6,0.3,0.8
		c0.3,0.2,0.6,0.3,0.9,0.2c0.4,0,0.8-0.1,1.1-0.4v1.3C89.3,223.4,89.1,223.5,88.8,223.5z"/>
	<path class="st0" d="M93.2,216.4v7.1h-1.4v-7.1h-1v-1.2h1V215c0-0.8,0.2-1.7,0.8-2.3c0.6-0.6,1.3-0.9,2.1-0.8c0.4,0,0.7,0,1.1,0.1
		v1.3c-0.1-0.1-0.3-0.1-0.4-0.1c-0.2,0-0.4,0-0.6-0.1c-0.4,0-0.9,0.1-1.2,0.5c-0.3,0.4-0.5,0.9-0.4,1.4v0.2h2.4v1.2L93.2,216.4z"/>
	<path class="st0" d="M98,214c-0.3,0-0.5-0.1-0.7-0.3c-0.2-0.2-0.3-0.5-0.3-0.7c0-0.2,0.1-0.5,0.2-0.7c0.2-0.2,0.4-0.3,0.7-0.3
		c0.2,0,0.5,0.1,0.7,0.3c0.2,0.2,0.2,0.4,0.2,0.7c0,0.2-0.1,0.5-0.2,0.6C98.5,213.8,98.2,214,98,214z M98.7,215.2v8.3h-1.4v-8.3
		H98.7z"/>
	<path class="st0" d="M103.8,220.2l-2.2,3.3H100l3-4.3l-2.7-4h1.7l2,2.9l2-2.9h1.5l-2.8,4l2.9,4.3H106L103.8,220.2z"/>
	<path class="st0" d="M107.8,225.4l5.1-14h1.3l-5.1,14H107.8z"/>
	<path class="st0" d="M115.3,218.8v-1.5l6.6-3v1.3l-5.4,2.5l5.4,2.5v1.3L115.3,218.8z"/>
	<path class="st0" d="M127,220.2l-2.2,3.3h-1.5l3-4.3l-2.7-4h1.6l2,2.9l2-2.9h1.5l-2.8,4l2.9,4.3h-1.6L127,220.2z"/>
	<path class="st0" d="M135,220.2l-2.2,3.3h-1.5l3-4.3l-2.7-4h1.6l2,2.9l2-2.9h1.5l-2.8,4l2.9,4.3h-1.6L135,220.2z"/>
	<path class="st0" d="M143,220.2l-2.2,3.3h-1.5l3-4.3l-2.7-4h1.6l2,2.9l2-2.9h1.4l-2.8,4l2.9,4.3h-1.6L143,220.2z"/>
	<path class="st0" d="M148.3,220.6l5.4-2.5l-5.4-2.5v-1.3l6.6,3v1.5l-6.6,3V220.6z"/>
	<path class="st0" d="M156,225.7c1-0.9,1.7-2,2.2-3.2c0.4-1.3,0.6-2.6,0.6-4c0-0.7,0-1.4-0.1-2.1c-0.1-0.7-0.3-1.3-0.5-1.9
		c-0.2-0.6-0.5-1.2-0.9-1.7c-0.4-0.5-0.8-1-1.3-1.4h1.4c1,0.8,1.7,1.9,2.1,3.1c0.5,1.3,0.7,2.7,0.7,4.1c0,1.4-0.2,2.7-0.7,4
		c-0.5,1.2-1.2,2.3-2.1,3.2L156,225.7z"/>
	<path class="st0" d="M179.1,21h3.7c1.1-0.1,2.1,0.2,3,0.8c0.8,0.6,1.2,1.6,1.1,2.5c0,0.6-0.1,1.1-0.3,1.7c-0.2,0.4-0.5,0.8-0.9,1.1
		c-0.4,0.3-0.9,0.5-1.3,0.7c-0.6,0.1-1.1,0.2-1.7,0.2h-2v4.5h-1.5L179.1,21z M180.6,22.4v4.3h2c0.4,0,0.7,0,1.1-0.1
		c0.3-0.1,0.6-0.2,0.9-0.4c0.2-0.2,0.4-0.4,0.6-0.7c0.1-0.3,0.2-0.7,0.2-1.1c0.1-0.6-0.2-1.1-0.7-1.5c-0.6-0.4-1.2-0.5-1.9-0.5
		L180.6,22.4z"/>
	<path class="st0" d="M195,31.8c-0.1,0.1-0.3,0.2-0.4,0.3c-0.2,0.1-0.4,0.2-0.6,0.3c-0.3,0.1-0.5,0.2-0.8,0.2
		c-0.3,0.1-0.7,0.1-1,0.1c-1.2,0.1-2.3-0.3-3.2-1.1c-0.8-0.9-1.2-2-1.1-3.2c0-0.6,0.1-1.2,0.3-1.8c0.2-0.5,0.5-1,0.8-1.4
		c0.4-0.4,0.8-0.7,1.2-0.9c0.5-0.2,1-0.3,1.6-0.3c0.5,0,1.1,0.1,1.6,0.3c0.5,0.2,0.9,0.5,1.2,0.9c0.3,0.4,0.5,0.9,0.6,1.5
		c0.1,0.7,0.1,1.3,0,2h-5.9c0,0.7,0.3,1.5,0.8,2c0.6,0.5,1.4,0.7,2.1,0.7c0.6,0,1.1-0.1,1.6-0.3c0.4-0.2,0.8-0.4,1.1-0.6L195,31.8z
		 M191.7,25.3c-0.6,0-1.1,0.2-1.6,0.6c-0.5,0.4-0.8,1-0.8,1.7h4.5c0.1-0.6-0.1-1.2-0.5-1.7C192.8,25.4,192.3,25.2,191.7,25.3
		L191.7,25.3z"/>
	<path class="st0" d="M197.6,29.9c0.2-0.7,0.3-1.5,0.3-2.2c0-0.9,0.1-2.1,0.1-3.5h5.6v8.3h-1.4v-7.1h-2.8c0,1.1,0,2.1-0.1,3
		c0,0.8-0.2,1.5-0.4,2.2c-0.1,0.5-0.4,1-0.8,1.4c-0.4,0.3-0.9,0.5-1.4,0.5h-0.3v-1.4h0.2C197.1,31.1,197.4,30.7,197.6,29.9z"/>
	<path class="st0" d="M207.2,30.5l4.4-6.4h1.4v8.3h-1.4v-6.4l-4.4,6.4h-1.4v-8.3h1.4L207.2,30.5z"/>
	<path class="st0" d="M221.3,30c0,0.4-0.1,0.8-0.3,1.2c-0.2,0.3-0.4,0.6-0.8,0.8c-0.3,0.2-0.7,0.4-1.1,0.5c-0.4,0.1-0.9,0.1-1.3,0.1
		c-0.5,0-1.1-0.1-1.6-0.2c-0.4-0.1-0.8-0.2-1.1-0.5v-1.3c0.4,0.2,0.8,0.4,1.2,0.5c0.5,0.1,1,0.2,1.5,0.2c0.5,0,1-0.1,1.5-0.3
		c0.4-0.2,0.6-0.6,0.6-1c0-0.4-0.2-0.8-0.5-1c-0.5-0.2-1-0.3-1.6-0.3h-1.1v-1.1h1.1c0.5,0,0.9-0.1,1.3-0.3c0.3-0.2,0.5-0.6,0.5-0.9
		c0-0.2,0-0.4-0.1-0.5c-0.1-0.2-0.2-0.3-0.4-0.4c-0.2-0.1-0.4-0.2-0.6-0.2c-0.2,0-0.5,0-0.7,0c-0.5,0-0.9,0.1-1.4,0.2
		c-0.4,0.1-0.8,0.3-1.1,0.5v-1.3c0.3-0.2,0.7-0.4,1.1-0.5c0.5-0.1,1-0.2,1.5-0.2c0.8-0.1,1.6,0.1,2.3,0.6c0.5,0.4,0.8,1,0.8,1.7
		c0,0.5-0.1,0.9-0.4,1.3c-0.3,0.3-0.8,0.6-1.2,0.6c0.6,0,1.1,0.3,1.5,0.6C221.1,29.1,221.3,29.6,221.3,30z"/>
	<path class="st0" d="M188,50.5h-1.5v-9.7l-3.2,2.4v-1.6l3.4-2.6h1.3V50.5z"/>
	<path class="st0" d="M193.2,50.6c-0.6,0-1-0.4-1-1c0-0.3,0.1-0.5,0.3-0.7c0.4-0.4,1.1-0.4,1.5,0c0.2,0.2,0.3,0.5,0.3,0.7
		c0,0.3-0.1,0.5-0.3,0.7C193.8,50.5,193.5,50.6,193.2,50.6z"/>
	<path class="st0" d="M201.6,50.5h-1.4v-9.7l-3.2,2.4v-1.6l3.4-2.6h1.2V50.5z"/>
	<path class="st0" d="M206.8,50.6c-0.6,0-1-0.4-1-1c0-0.3,0.1-0.5,0.3-0.7c0.4-0.4,1.1-0.4,1.5,0c0.2,0.2,0.3,0.5,0.3,0.7
		c0,0.3-0.1,0.5-0.3,0.7C207.4,50.5,207.1,50.6,206.8,50.6z"/>
	<path class="st0" d="M213.6,50.6c-0.5,0-1-0.1-1.5-0.3c-0.5-0.2-0.9-0.6-1.2-1.1c-0.4-0.6-0.6-1.2-0.8-1.8
		c-0.2-0.9-0.3-1.8-0.3-2.7c0-0.9,0.1-1.8,0.3-2.7c0.2-0.7,0.4-1.3,0.8-1.8c0.3-0.5,0.7-0.8,1.2-1.1c0.5-0.2,1-0.3,1.5-0.3
		c0.5,0,1,0.1,1.5,0.3c0.5,0.2,0.9,0.6,1.2,1c0.4,0.6,0.6,1.2,0.8,1.8c0.2,0.9,0.3,1.8,0.3,2.6c0,0.9-0.1,1.8-0.3,2.6
		c-0.2,0.7-0.4,1.3-0.8,1.8c-0.3,0.5-0.7,0.8-1.2,1.1C214.7,50.5,214.2,50.6,213.6,50.6z M213.6,49.4c0.7,0,1.4-0.4,1.7-1
		c0.2-0.5,0.4-0.9,0.4-1.4c0.1-0.7,0.2-1.4,0.1-2.2c0-0.7,0-1.4-0.1-2.2c-0.1-0.5-0.2-1-0.4-1.4c-0.2-0.3-0.4-0.6-0.7-0.8
		c-0.3-0.2-0.7-0.3-1-0.2c-0.7,0-1.4,0.4-1.7,1c-0.2,0.5-0.4,0.9-0.4,1.4c-0.2,1.4-0.2,2.9,0,4.3c0.1,0.5,0.2,1,0.4,1.4
		c0.2,0.3,0.4,0.6,0.7,0.8C212.9,49.3,213.3,49.4,213.6,49.4L213.6,49.4z"/>
	<path class="st0" d="M62.8,75.5h-1.4v-8.3h1.2l0.1,1.5l0,0c0.2-0.5,0.6-0.9,1-1.2c0.5-0.3,1.2-0.5,1.8-0.5c0.6,0,1.1,0.1,1.6,0.4
		c0.4,0.3,0.7,0.8,0.8,1.4c0.2-0.5,0.6-1,1.1-1.3c0.5-0.3,1.1-0.5,1.8-0.5c0.7,0,1.3,0.2,1.8,0.7c0.5,0.5,0.7,1.3,0.7,2v5.8h-1.4
		v-5.7c0-0.4-0.1-0.9-0.4-1.2c-0.3-0.3-0.7-0.4-1.1-0.4c-0.3,0-0.6,0-0.8,0.1c-0.2,0.1-0.4,0.2-0.6,0.4c-0.2,0.2-0.4,0.4-0.5,0.6
		c-0.2,0.2-0.3,0.4-0.4,0.7v5.5h-1.4v-5.8c0.1-0.4-0.1-0.8-0.4-1.1c-0.3-0.2-0.7-0.3-1.1-0.3c-0.3,0-0.5,0-0.8,0.1
		c-0.2,0.1-0.4,0.2-0.6,0.3c-0.2,0.1-0.4,0.3-0.5,0.5c-0.2,0.2-0.3,0.4-0.4,0.7L62.8,75.5z"/>
	<path class="st0" d="M80.4,73.9c-0.1,0.2-0.2,0.4-0.4,0.6c-0.2,0.2-0.3,0.4-0.6,0.6c-0.2,0.2-0.5,0.3-0.8,0.4
		c-0.3,0.1-0.7,0.2-1.1,0.2c-0.7,0-1.3-0.2-1.8-0.6c-0.5-0.5-0.7-1.1-0.7-1.8c0-0.8,0.3-1.6,1-2c0.8-0.5,1.8-0.7,2.7-0.6h1.6v-0.7
		c0-0.5-0.1-0.9-0.4-1.2c-0.5-0.3-1-0.4-1.5-0.4c-0.5,0-1,0.1-1.5,0.2c-0.4,0.2-0.8,0.3-1.2,0.6v-1.3c0.4-0.2,0.8-0.4,1.2-0.5
		c0.5-0.2,1.1-0.3,1.6-0.3c0.8-0.1,1.7,0.2,2.4,0.7c0.6,0.5,0.9,1.2,0.8,2v4.5c0,0.1,0,0.2,0,0.3s0,0.2,0,0.4s0,0.2,0,0.4
		s0,0.2,0,0.3h-1.2c0-0.2,0-0.4-0.1-0.6c0-0.3,0-0.5,0-0.7L80.4,73.9z M77.9,74.4c0.4,0,0.8-0.1,1.1-0.3c0.3-0.2,0.5-0.4,0.8-0.6
		c0.2-0.2,0.3-0.4,0.4-0.7c0.1-0.2,0.1-0.3,0.1-0.5v-0.6H79c-0.6,0-1.3,0.1-1.8,0.4c-0.4,0.2-0.6,0.6-0.6,1.1c0,0.3,0.1,0.7,0.3,0.9
		C77.2,74.3,77.6,74.4,77.9,74.4z"/>
	<path class="st0" d="M86.6,75.6c-0.4,0-0.8,0-1.2-0.1c-0.3-0.1-0.6-0.1-0.9-0.3c-0.2-0.1-0.4-0.2-0.6-0.3c-0.1-0.1-0.3-0.2-0.4-0.3
		v-1.3c0.1,0.1,0.3,0.2,0.4,0.3c0.2,0.1,0.4,0.2,0.7,0.3c0.3,0.1,0.6,0.2,0.9,0.3c0.4,0.1,0.7,0.1,1.1,0.1c0.5,0,0.9-0.1,1.3-0.3
		c0.4-0.2,0.6-0.6,0.5-1c0-0.2,0-0.4-0.2-0.6c-0.1-0.2-0.3-0.3-0.4-0.4c-0.2-0.1-0.4-0.2-0.7-0.2l-0.8-0.2l-1-0.2
		c-0.3-0.1-0.6-0.2-0.9-0.4c-0.3-0.2-0.5-0.4-0.7-0.7c-0.2-0.3-0.3-0.7-0.2-1.1c0-0.7,0.3-1.4,0.9-1.8c0.7-0.5,1.6-0.7,2.4-0.6
		c0.5,0,1,0.1,1.6,0.2c0.4,0.1,0.7,0.2,1.1,0.4v1.3c-0.3-0.2-0.6-0.3-1-0.4c-0.5-0.1-1-0.2-1.5-0.2c-0.5,0-1,0.1-1.4,0.3
		C85.2,68.6,85,69,85,69.4c0,0.2,0,0.4,0.2,0.5c0.1,0.1,0.2,0.2,0.4,0.3c0.2,0.1,0.4,0.1,0.6,0.2l0.7,0.1l1.1,0.2
		c0.4,0.1,0.7,0.2,1,0.4c0.3,0.2,0.6,0.4,0.8,0.7c0.2,0.4,0.3,0.8,0.3,1.2c0,0.4-0.1,0.8-0.3,1.2c-0.2,0.3-0.4,0.6-0.8,0.8
		c-0.3,0.2-0.7,0.3-1.1,0.4C87.5,75.6,87,75.6,86.6,75.6z"/>
	<path class="st0" d="M95.1,75.5c-0.3,0.1-0.6,0.1-0.8,0.1c-0.3,0-0.7-0.1-1-0.2c-0.3-0.1-0.5-0.3-0.7-0.5c-0.2-0.2-0.3-0.4-0.4-0.7
		c-0.1-0.2-0.1-0.5-0.1-0.8v-5.2H91v-1.2h1v-1.8h1.4v1.8h2.4v1.2h-2.4v5c0,0.3,0.1,0.6,0.3,0.8c0.3,0.2,0.6,0.3,0.9,0.2
		c0.4,0,0.8-0.1,1.1-0.4v1.3C95.6,75.4,95.3,75.5,95.1,75.5z"/>
	<path class="st0" d="M104.2,74.8c-0.1,0.1-0.3,0.2-0.4,0.3c-0.2,0.1-0.4,0.2-0.6,0.3c-0.3,0.1-0.6,0.2-0.8,0.2
		c-0.3,0.1-0.7,0.1-1,0.1c-1.2,0.1-2.3-0.3-3.2-1.1c-0.8-0.9-1.2-2-1.1-3.2c0-0.6,0.1-1.2,0.3-1.8c0.2-0.5,0.5-1,0.8-1.3
		c0.4-0.4,0.8-0.7,1.2-0.8c0.5-0.2,1-0.3,1.5-0.3c0.5,0,1.1,0.1,1.6,0.3c0.5,0.2,0.9,0.5,1.2,0.9c0.3,0.4,0.5,0.9,0.6,1.5
		c0.1,0.7,0.1,1.3,0,2h-5.9c0,0.7,0.3,1.5,0.8,2c0.6,0.5,1.4,0.7,2.1,0.7c0.6,0,1.1-0.1,1.7-0.3c0.4-0.2,0.8-0.4,1.2-0.6V74.8z
		 M100.9,68.3c-0.6,0-1.1,0.2-1.6,0.6c-0.5,0.4-0.8,1-0.8,1.7h4.5c0.1-0.6-0.1-1.2-0.5-1.7C102,68.4,101.4,68.2,100.9,68.3z"/>
	<path class="st0" d="M108.5,69c-0.5,0.3-0.9,0.7-1.1,1.2v5.3H106v-8.3h1.2l0.2,1.8l0,0c0.2-0.5,0.6-0.9,1-1.3
		c0.5-0.4,1.1-0.6,1.7-0.7v1.6C109.5,68.6,109,68.8,108.5,69z"/>
	<path class="st0" d="M309.1,21h3.7c1.1-0.1,2.1,0.2,3,0.8c0.8,0.6,1.2,1.6,1.1,2.5c0,0.6-0.1,1.1-0.3,1.7c-0.2,0.4-0.5,0.8-0.9,1.1
		c-0.4,0.3-0.9,0.5-1.3,0.7c-0.6,0.1-1.1,0.2-1.7,0.2h-2v4.5h-1.5V21z M310.6,22.4v4.3h2c0.4,0,0.7,0,1.1-0.1
		c0.3-0.1,0.6-0.2,0.9-0.4c0.2-0.2,0.4-0.4,0.6-0.7c0.1-0.3,0.2-0.7,0.2-1.1c0.1-0.6-0.2-1.1-0.7-1.5c-0.6-0.4-1.2-0.5-1.9-0.5
		L310.6,22.4z"/>
	<path class="st0" d="M325,31.8c-0.1,0.1-0.3,0.2-0.4,0.3c-0.2,0.1-0.4,0.2-0.6,0.3c-0.3,0.1-0.5,0.2-0.8,0.2
		c-0.3,0.1-0.7,0.1-1,0.1c-1.2,0.1-2.3-0.3-3.2-1.1c-0.8-0.9-1.2-2-1.1-3.2c0-0.6,0.1-1.2,0.3-1.8c0.2-0.5,0.5-1,0.8-1.4
		c0.4-0.4,0.8-0.7,1.2-0.9c0.5-0.2,1-0.3,1.6-0.3c0.5,0,1.1,0.1,1.6,0.3c0.5,0.2,0.9,0.5,1.2,0.9c0.3,0.4,0.5,0.9,0.6,1.5
		c0.1,0.7,0.1,1.3,0,2h-5.9c0,0.7,0.3,1.5,0.8,2c0.6,0.5,1.4,0.7,2.1,0.7c0.6,0,1.1-0.1,1.6-0.3c0.4-0.2,0.8-0.4,1.1-0.6L325,31.8z
		 M321.7,25.3c-0.6,0-1.1,0.2-1.6,0.6c-0.5,0.4-0.8,1-0.8,1.7h4.5c0.1-0.6-0.1-1.2-0.5-1.7C322.8,25.4,322.3,25.2,321.7,25.3
		L321.7,25.3z"/>
	<path class="st0" d="M327.6,29.9c0.2-0.7,0.3-1.5,0.3-2.2c0-0.9,0.1-2.1,0.1-3.5h5.6v8.3h-1.4v-7.1h-2.8c0,1.1,0,2.1-0.1,3
		c0,0.8-0.2,1.5-0.4,2.2c-0.1,0.5-0.4,1-0.8,1.4c-0.4,0.3-0.9,0.5-1.4,0.5h-0.3v-1.4h0.2C327.1,31.1,327.4,30.7,327.6,29.9z"/>
	<path class="st0" d="M337.2,30.5l4.4-6.4h1.4v8.3h-1.4v-6.4l-4.4,6.4h-1.4v-8.3h1.4V30.5z"/>
	<path class="st0" d="M351.3,30c0,0.4-0.1,0.8-0.3,1.2c-0.2,0.3-0.4,0.6-0.8,0.8c-0.3,0.2-0.7,0.4-1.1,0.5c-0.4,0.1-0.9,0.1-1.3,0.1
		c-0.5,0-1.1-0.1-1.6-0.2c-0.4-0.1-0.8-0.2-1.1-0.5v-1.3c0.4,0.2,0.8,0.4,1.2,0.5c0.5,0.1,1,0.2,1.5,0.2c0.5,0,1-0.1,1.5-0.3
		c0.4-0.2,0.6-0.6,0.6-1c0-0.4-0.2-0.8-0.5-1c-0.5-0.2-1-0.3-1.6-0.3h-1.1v-1.1h1.1c0.5,0,0.9-0.1,1.3-0.3c0.3-0.2,0.5-0.6,0.5-0.9
		c0-0.2,0-0.4-0.1-0.5c-0.1-0.2-0.2-0.3-0.4-0.4c-0.2-0.1-0.4-0.2-0.6-0.2c-0.2,0-0.5,0-0.7,0c-0.5,0-0.9,0.1-1.4,0.2
		c-0.4,0.1-0.8,0.3-1.1,0.5v-1.3c0.3-0.2,0.7-0.4,1.1-0.5c0.5-0.1,1-0.2,1.5-0.2c0.8-0.1,1.6,0.1,2.3,0.6c0.5,0.4,0.8,1,0.8,1.7
		c0,0.5-0.1,0.9-0.4,1.3c-0.3,0.3-0.8,0.6-1.2,0.6c0.6,0,1.1,0.3,1.5,0.6C351.1,29.1,351.3,29.6,351.3,30z"/>
	<path class="st0" d="M318,50.5h-1.5v-9.7l-3.2,2.4v-1.6l3.4-2.6h1.3V50.5z"/>
	<path class="st0" d="M323.2,50.6c-0.6,0-1-0.4-1-1c0-0.3,0.1-0.5,0.3-0.7c0.4-0.4,1.1-0.4,1.5,0c0.2,0.2,0.3,0.5,0.3,0.7
		c0,0.3-0.1,0.5-0.3,0.7C323.8,50.5,323.5,50.6,323.2,50.6z"/>
	<path class="st0" d="M333.7,50.5h-7.3V49c1-0.8,1.8-1.5,2.5-2.1c0.6-0.5,1.2-1.1,1.8-1.7c0.4-0.4,0.7-0.9,1-1.5
		c0.2-0.5,0.3-0.9,0.3-1.5c0-0.6-0.2-1.1-0.6-1.5c-0.4-0.4-1.1-0.6-1.7-0.6c-0.6,0-1.2,0.2-1.7,0.5c-0.5,0.3-1,0.7-1.4,1.1v-1.6
		c0.4-0.4,0.9-0.8,1.4-1c0.6-0.2,1.2-0.4,1.8-0.3c0.5,0,1.1,0.1,1.6,0.2c0.4,0.1,0.8,0.4,1.2,0.7c0.3,0.3,0.6,0.6,0.7,1
		c0.2,0.4,0.3,0.9,0.2,1.3c0,0.6-0.1,1.2-0.4,1.8c-0.3,0.6-0.6,1.1-1.1,1.6c-0.5,0.6-1.1,1.2-1.7,1.7c-0.7,0.6-1.5,1.2-2.4,1.9h5.6
		L333.7,50.5z"/>
	<path class="st0" d="M336.8,50.6c-0.6,0-1-0.4-1-1c0-0.3,0.1-0.5,0.3-0.7c0.4-0.4,1.1-0.4,1.5,0c0.2,0.2,0.3,0.5,0.3,0.7
		c0,0.3-0.1,0.5-0.3,0.7C337.4,50.5,337.1,50.6,336.8,50.6z"/>
	<path class="st0" d="M345.1,50.5h-1.4v-9.7l-3.2,2.4v-1.6l3.4-2.6h1.2V50.5z"/>
	<path class="st0" d="M508.1,21h3.7c1.1-0.1,2.1,0.2,3,0.8c0.8,0.6,1.2,1.6,1.1,2.5c0,0.6-0.1,1.1-0.3,1.7c-0.2,0.4-0.5,0.8-0.9,1.1
		c-0.4,0.3-0.9,0.5-1.3,0.7c-0.6,0.1-1.1,0.2-1.7,0.2h-2v4.5h-1.5L508.1,21z M509.6,22.4v4.3h2c0.4,0,0.7,0,1.1-0.1
		c0.3-0.1,0.6-0.2,0.8-0.4c0.2-0.2,0.4-0.4,0.6-0.7c0.1-0.3,0.2-0.7,0.2-1.1c0.1-0.6-0.2-1.1-0.7-1.5c-0.6-0.4-1.2-0.5-1.9-0.5
		L509.6,22.4z"/>
	<path class="st0" d="M524,31.8c-0.1,0.1-0.3,0.2-0.4,0.3c-0.2,0.1-0.4,0.2-0.6,0.3c-0.3,0.1-0.5,0.2-0.8,0.2
		c-0.3,0.1-0.7,0.1-1,0.1c-1.2,0.1-2.3-0.3-3.2-1.1c-0.8-0.9-1.2-2-1.1-3.2c0-0.6,0.1-1.2,0.3-1.8c0.2-0.5,0.5-1,0.8-1.4
		c0.4-0.4,0.8-0.7,1.2-0.9c0.5-0.2,1-0.3,1.6-0.3c0.5,0,1.1,0.1,1.6,0.3c0.5,0.2,0.9,0.5,1.2,0.9c0.3,0.4,0.5,0.9,0.6,1.5
		c0.1,0.7,0.1,1.3,0,2h-5.9c0,0.7,0.3,1.5,0.8,2c0.6,0.5,1.4,0.7,2.1,0.7c0.6,0,1.1-0.1,1.7-0.3c0.4-0.2,0.8-0.4,1.2-0.6L524,31.8z
		 M520.7,25.3c-0.6,0-1.1,0.2-1.6,0.6c-0.5,0.4-0.8,1-0.8,1.7h4.5c0.1-0.6-0.1-1.2-0.5-1.7C521.8,25.4,521.3,25.2,520.7,25.3
		L520.7,25.3z"/>
	<path class="st0" d="M526.6,29.9c0.2-0.7,0.3-1.5,0.3-2.2c0-0.9,0.1-2.1,0.1-3.5h5.6v8.3h-1.4v-7.1h-2.8c0,1.1,0,2.1-0.1,3
		c0,0.8-0.2,1.5-0.4,2.2c-0.1,0.5-0.4,1-0.8,1.4c-0.4,0.3-0.9,0.5-1.4,0.5h-0.3v-1.4h0.2C526.1,31.1,526.4,30.7,526.6,29.9z"/>
	<path class="st0" d="M536.2,30.5l4.4-6.4h1.4v8.3h-1.4v-6.4l-4.4,6.4h-1.4v-8.3h1.4L536.2,30.5z"/>
	<path class="st0" d="M550.3,30c0,0.4-0.1,0.8-0.3,1.2c-0.2,0.3-0.4,0.6-0.8,0.8c-0.3,0.2-0.7,0.4-1.1,0.5c-0.4,0.1-0.9,0.1-1.3,0.1
		c-0.5,0-1.1-0.1-1.6-0.2c-0.4-0.1-0.8-0.2-1.1-0.5v-1.3c0.4,0.2,0.8,0.4,1.2,0.5c0.5,0.1,1,0.2,1.5,0.2c0.5,0,1-0.1,1.5-0.3
		c0.4-0.2,0.6-0.6,0.6-1c0-0.4-0.2-0.8-0.5-1c-0.5-0.2-1-0.3-1.6-0.3h-1.1v-1.1h1.2c0.5,0,0.9-0.1,1.3-0.3c0.3-0.2,0.5-0.6,0.5-0.9
		c0-0.2,0-0.4-0.2-0.5c-0.1-0.2-0.2-0.3-0.4-0.4c-0.2-0.1-0.4-0.2-0.6-0.2c-0.2,0-0.5,0-0.7,0c-0.5,0-0.9,0.1-1.4,0.2
		c-0.4,0.1-0.8,0.3-1.1,0.5v-1.3c0.3-0.2,0.7-0.4,1.1-0.5c0.5-0.1,1-0.2,1.5-0.2c0.8-0.1,1.6,0.1,2.3,0.6c0.5,0.4,0.8,1,0.8,1.7
		c0,0.5-0.1,0.9-0.4,1.3c-0.3,0.3-0.8,0.6-1.2,0.6c0.6,0,1.1,0.3,1.5,0.6C550.1,29.1,550.3,29.6,550.3,30z"/>
	<path class="st0" d="M517,50.5h-1.5v-9.7l-3.2,2.4v-1.6l3.4-2.6h1.3V50.5z"/>
	<path class="st0" d="M522.2,50.6c-0.6,0-1-0.4-1-1c0-0.3,0.1-0.5,0.3-0.7c0.4-0.4,1.1-0.4,1.5,0c0.2,0.2,0.3,0.5,0.3,0.7
		c0,0.3-0.1,0.5-0.3,0.7C522.8,50.5,522.5,50.6,522.2,50.6z"/>
	<path class="st0" d="M532.5,46.7c0,0.6-0.1,1.1-0.3,1.6c-0.2,0.5-0.4,0.9-0.8,1.2c-0.4,0.4-0.8,0.6-1.3,0.8
		c-0.5,0.2-1.1,0.3-1.7,0.3c-0.6,0-1.2-0.1-1.8-0.2c-0.5-0.1-0.9-0.3-1.3-0.6v-1.6c0.4,0.3,0.8,0.6,1.2,0.8c0.6,0.2,1.2,0.3,1.8,0.3
		c0.7,0,1.4-0.2,1.8-0.7c0.4-0.5,0.7-1.2,0.6-1.9c0.1-0.7-0.2-1.3-0.6-1.8c-0.4-0.4-1-0.6-1.6-0.6c-0.4,0-0.8,0.1-1.2,0.2
		c-0.2,0.1-0.5,0.3-0.6,0.5h-1.2v-6h6.2v1.4h-4.9v3.3c0.2-0.2,0.5-0.3,0.8-0.4c0.4-0.1,0.7-0.2,1.1-0.2c0.5,0,0.9,0.1,1.4,0.2
		c0.4,0.1,0.8,0.4,1.1,0.7c0.3,0.3,0.6,0.7,0.8,1.1C532.4,45.6,532.5,46.1,532.5,46.7z"/>
	<path class="st0" d="M535.8,50.6c-0.6,0-1-0.4-1-1c0-0.3,0.1-0.5,0.3-0.7c0.4-0.4,1.1-0.4,1.5,0c0.2,0.2,0.3,0.5,0.3,0.7
		c0,0.3-0.1,0.5-0.3,0.7C536.4,50.5,536.1,50.6,535.8,50.6z"/>
	<path class="st0" d="M542.6,50.6c-0.5,0-1-0.1-1.5-0.3c-0.5-0.2-0.9-0.6-1.2-1.1c-0.4-0.6-0.6-1.2-0.8-1.8
		c-0.2-0.9-0.3-1.8-0.3-2.7c0-0.9,0.1-1.8,0.3-2.7c0.2-0.7,0.4-1.3,0.8-1.8c0.3-0.5,0.7-0.8,1.2-1.1c0.5-0.2,1-0.3,1.5-0.3
		c0.5,0,1,0.1,1.5,0.3c0.5,0.2,0.9,0.6,1.2,1c0.4,0.6,0.6,1.2,0.8,1.8c0.2,0.9,0.3,1.8,0.3,2.6c0,0.9-0.1,1.8-0.3,2.6
		c-0.2,0.7-0.4,1.3-0.8,1.8c-0.3,0.5-0.7,0.8-1.2,1.1C543.7,50.5,543.2,50.6,542.6,50.6z M542.6,49.4c0.7,0,1.4-0.4,1.7-1
		c0.2-0.5,0.4-0.9,0.4-1.4c0.1-0.7,0.2-1.4,0.2-2.2c0-0.7,0-1.4-0.1-2.2c-0.1-0.5-0.2-1-0.4-1.4c-0.2-0.3-0.4-0.6-0.7-0.8
		c-0.3-0.2-0.7-0.3-1-0.2c-0.7,0-1.4,0.4-1.7,1c-0.2,0.5-0.4,0.9-0.4,1.4c-0.2,1.4-0.2,2.9,0,4.3c0.1,0.5,0.2,1,0.4,1.4
		c0.2,0.3,0.4,0.6,0.7,0.8C541.9,49.3,542.3,49.4,542.6,49.4L542.6,49.4z"/>
	<path class="st0" d="M102.3,585.3h-1v4h-1.2V580h1.2v4.2h0.9l3.3-4.2h1.4l-3.7,4.7l3.8,4.7h-1.5L102.3,585.3z"/>
	<path class="st0" d="M110.7,589.5c-0.4,0-0.9-0.1-1.3-0.2c-0.4-0.2-0.7-0.4-1-0.7c-0.3-0.3-0.5-0.7-0.7-1.1c-0.3-1-0.3-2,0-3
		c0.1-0.4,0.4-0.8,0.7-1.1c0.3-0.3,0.6-0.5,1-0.7c0.4-0.2,0.8-0.2,1.3-0.2c0.4,0,0.9,0.1,1.3,0.2c0.4,0.2,0.7,0.4,1,0.7
		c0.3,0.3,0.5,0.7,0.7,1.1c0.3,1,0.3,2,0,3c-0.2,0.4-0.4,0.8-0.7,1.1c-0.3,0.3-0.6,0.5-1,0.7C111.6,589.4,111.2,589.5,110.7,589.5z
		 M110.7,588.5c0.3,0,0.6,0,0.8-0.2c0.3-0.1,0.5-0.3,0.7-0.5c0.2-0.2,0.4-0.5,0.4-0.8c0.1-0.4,0.2-0.7,0.2-1.1c0-0.4,0-0.8-0.2-1.1
		c-0.1-0.3-0.2-0.6-0.4-0.8c-0.2-0.2-0.4-0.4-0.7-0.5c-0.5-0.2-1.1-0.2-1.7,0c-0.3,0.1-0.5,0.3-0.7,0.5c-0.2,0.2-0.3,0.5-0.4,0.8
		c-0.1,0.4-0.2,0.7-0.2,1.1c0,0.4,0,0.8,0.2,1.1c0.1,0.3,0.2,0.5,0.4,0.8c0.2,0.2,0.4,0.4,0.7,0.5
		C110.1,588.4,110.4,588.4,110.7,588.5L110.7,588.5z"/>
	<path class="st0" d="M121.8,583.9l-2.3,4.7h-0.9l-2.2-4.7v5.5h-1.1v-6.8h1.7l2.1,4.5l2.2-4.5h1.6v6.8h-1.1L121.8,583.9z"/>
	<path class="st0" d="M131.2,583.9l-2.2,4.7h-0.9l-2.2-4.7v5.5h-1.1v-6.8h1.7l2.1,4.5l2.2-4.5h1.6v6.8h-1.1L131.2,583.9z"/>
	<path class="st0" d="M135.4,587.8l3.6-5.2h1.2v6.8H139v-5.2l-3.6,5.2h-1.2v-6.8h1.1L135.4,587.8z"/>
	<path class="st0" d="M144.8,583.5v5.8h-1.1v-5.8h-2.1v-1h5.4v1H144.8z"/>
	<path class="st4" d="M210.1,74.1h17.9c1.1,0,2,0.9,2,2L230,182"/>
	<circle class="st0" cx="210.1" cy="74.1" r="2.2"/>
	<polygon class="st0" points="226.6,181 230,186.9 233.4,181 	"/>
	<path class="st0" d="M67.6,333.9v1.5c0.7,0,1.3,0.1,2,0.3c0.6,0.2,1.1,0.4,1.6,0.8c0.5,0.4,0.8,0.8,1.1,1.4c0.5,1.2,0.5,2.6,0,3.8
		c-0.2,0.5-0.6,1-1.1,1.4c-0.5,0.4-1,0.7-1.6,0.8c-0.6,0.2-1.3,0.3-2,0.3v1.5h-1.5v-1.5c-0.7,0-1.4-0.1-2-0.3
		c-0.6-0.2-1.1-0.5-1.6-0.8c-0.5-0.4-0.8-0.8-1.1-1.3c-0.5-1.2-0.5-2.6,0-3.8c0.2-0.5,0.6-1,1.1-1.4c0.5-0.4,1-0.7,1.6-0.9
		c0.6-0.2,1.3-0.3,2-0.3v-1.5L67.6,333.9z M62.5,339.7c0,0.5,0.1,1,0.3,1.5c0.2,0.4,0.4,0.7,0.8,1c0.3,0.3,0.7,0.4,1.1,0.5
		c0.5,0.1,0.9,0.2,1.4,0.2v-6.4c-0.5,0-0.9,0.1-1.4,0.2c-0.4,0.1-0.8,0.3-1.1,0.5c-0.3,0.3-0.6,0.6-0.8,1
		C62.6,338.8,62.5,339.2,62.5,339.7L62.5,339.7z M71.1,339.7c0-0.5-0.1-1-0.3-1.5c-0.2-0.4-0.4-0.7-0.7-1c-0.3-0.3-0.7-0.4-1.1-0.5
		c-0.5-0.1-0.9-0.2-1.4-0.2v6.4c0.5,0,0.9-0.1,1.4-0.2c0.4-0.1,0.8-0.3,1.1-0.6c0.3-0.3,0.6-0.6,0.7-1
		C71,340.7,71.1,340.2,71.1,339.7L71.1,339.7z"/>
	<path class="st0" d="M75.9,343.5l4.4-6.4h1.4v8.3h-1.4v-6.4l-4.4,6.4h-1.5v-8.3h1.4V343.5z"/>
	<path class="st0" d="M90.5,345.5h-1.4v-3.6c-0.3,0.2-0.6,0.4-1,0.5c-0.4,0.1-0.9,0.2-1.3,0.2c-0.8,0.1-1.6-0.2-2.2-0.7
		c-0.5-0.6-0.8-1.4-0.7-2.2v-2.4h1.4v2.5c-0.1,0.5,0.1,1,0.4,1.4c0.4,0.3,0.8,0.4,1.3,0.4c0.4,0,0.7-0.1,1.1-0.2
		c0.4-0.1,0.7-0.3,1-0.5v-3.5h1.4L90.5,345.5z"/>
	<path class="st0" d="M97.7,343.9c-0.1,0.2-0.2,0.4-0.4,0.6c-0.2,0.2-0.3,0.4-0.6,0.6c-0.2,0.2-0.5,0.3-0.8,0.4
		c-0.3,0.1-0.7,0.2-1.1,0.2c-0.7,0-1.3-0.2-1.8-0.6c-0.5-0.5-0.7-1.1-0.7-1.8c0-0.8,0.3-1.6,1-2c0.8-0.5,1.8-0.7,2.7-0.6h1.6v-0.7
		c0-0.5-0.1-0.9-0.4-1.2c-0.5-0.3-1-0.4-1.5-0.4c-0.5,0-1,0.1-1.5,0.2c-0.4,0.2-0.8,0.3-1.2,0.6v-1.3c0.4-0.2,0.8-0.4,1.2-0.5
		c0.5-0.2,1.1-0.3,1.7-0.3c0.8-0.1,1.7,0.2,2.4,0.6c0.6,0.5,0.9,1.2,0.8,2v4.5c0,0.1,0,0.2,0,0.3s0,0.2,0,0.4s0,0.2,0,0.4
		s0,0.2,0,0.3h-1.2c0-0.2,0-0.4-0.1-0.6c0-0.3,0-0.5,0-0.7L97.7,343.9z M95.2,344.4c0.4,0,0.8-0.1,1.1-0.3c0.3-0.2,0.5-0.4,0.8-0.6
		c0.2-0.2,0.3-0.4,0.4-0.7c0.1-0.2,0.1-0.3,0.1-0.5v-0.6h-1.4c-0.6,0-1.3,0.1-1.8,0.4c-0.4,0.2-0.6,0.6-0.6,1.1
		c0,0.3,0.1,0.7,0.3,0.9C94.4,344.3,94.8,344.4,95.2,344.4z"/>
	<path class="st0" d="M104.8,337.2h3.1c0.8-0.1,1.6,0.1,2.3,0.5c0.5,0.4,0.8,1,0.8,1.6c0,0.4-0.1,0.8-0.4,1.2
		c-0.3,0.3-0.7,0.5-1.1,0.6c1,0,1.8,0.9,1.8,1.9c0,0,0,0.1,0,0.1c0,0.4-0.1,0.8-0.3,1.1c-0.2,0.3-0.4,0.6-0.7,0.8
		c-0.3,0.2-0.7,0.3-1.1,0.4c-0.5,0.1-0.9,0.1-1.4,0.1h-3.1L104.8,337.2z M106.2,338.4v2.2h1.6c0.4,0,0.9-0.1,1.3-0.3
		c0.5-0.3,0.7-0.9,0.4-1.4c-0.1-0.2-0.2-0.3-0.4-0.4c-0.4-0.2-0.8-0.3-1.2-0.2H106.2z M106.2,341.7v2.5h1.7c0.3,0,0.5,0,0.8,0
		c0.2,0,0.4-0.1,0.6-0.2c0.2-0.1,0.3-0.2,0.4-0.4c0.1-0.2,0.1-0.4,0.1-0.6c0-0.4-0.2-0.8-0.5-1c-0.5-0.2-1-0.3-1.5-0.3L106.2,341.7z
		"/>
	<path class="st0" d="M120,344.8c-0.1,0.1-0.3,0.2-0.4,0.3c-0.2,0.1-0.4,0.2-0.6,0.3c-0.3,0.1-0.5,0.2-0.8,0.2
		c-0.3,0.1-0.7,0.1-1,0.1c-1.2,0.1-2.3-0.3-3.2-1.1c-0.8-0.9-1.2-2-1.1-3.2c0-0.6,0.1-1.2,0.3-1.8c0.2-0.5,0.5-1,0.8-1.4
		c0.4-0.4,0.8-0.7,1.2-0.9c0.5-0.2,1-0.3,1.6-0.3c0.5,0,1.1,0.1,1.6,0.3c0.5,0.2,0.9,0.5,1.2,0.9c0.3,0.4,0.5,0.9,0.6,1.5
		c0.1,0.7,0.1,1.3,0,2h-5.9c0,0.7,0.3,1.5,0.8,2c0.6,0.5,1.4,0.7,2.1,0.7c0.6,0,1.1-0.1,1.7-0.3c0.4-0.2,0.8-0.4,1.2-0.6L120,344.8z
		 M116.7,338.3c-0.6,0-1.1,0.2-1.6,0.6c-0.5,0.4-0.8,1-0.8,1.7h4.5c0.1-0.6-0.1-1.2-0.5-1.7C117.8,338.4,117.2,338.2,116.7,338.3
		L116.7,338.3z"/>
	<path class="st0" d="M125.2,338.4v7.1h-1.4v-7.1h-2.6v-1.2h6.7v1.2H125.2z"/>
	<path class="st0" d="M131.7,341.9h-0.7v3.5h-1.4v-8.3h1.4v3.6h0.8l2.9-3.6h1.6l-3.4,4.1l3.5,4.2h-1.7L131.7,341.9z"/>
	<path class="st0" d="M139.2,343.5l4.4-6.4h1.4v8.3h-1.4v-6.4l-4.4,6.4h-1.4v-8.3h1.4L139.2,343.5z"/>
	<path class="st0" d="M64,366.7c-0.8-1-1.5-2.1-1.9-3.3c-0.4-1.3-0.6-2.6-0.6-3.9c0-0.7,0.1-1.3,0.2-2c0.1-0.7,0.2-1.3,0.5-1.9
		c0.2-0.6,0.5-1.2,0.8-1.8c0.3-0.5,0.7-1,1.1-1.5h1.4c-0.4,0.4-0.8,0.9-1.1,1.4c-0.3,0.6-0.6,1.1-0.8,1.7c-0.2,0.6-0.4,1.3-0.5,1.9
		c-0.1,0.7-0.1,1.3-0.2,2c0,1.3,0.2,2.6,0.6,3.9c0.4,1.2,1,2.3,1.9,3.3L64,366.7z"/>
	<path class="st0" d="M68.8,357.4v7.1h-1.4v-7.1h-1v-1.2h1V356c-0.1-0.8,0.2-1.7,0.8-2.3c0.6-0.6,1.3-0.9,2.1-0.8
		c0.4,0,0.7,0,1.1,0.1v1.3c-0.1-0.1-0.3-0.1-0.4-0.1c-0.2,0-0.4,0-0.6,0c-0.4,0-0.9,0.1-1.2,0.5c-0.3,0.4-0.5,0.9-0.4,1.4v0.2h2.4
		v1.2L68.8,357.4z"/>
	<path class="st0" d="M79.2,363.8c-0.1,0.1-0.3,0.2-0.4,0.3c-0.2,0.1-0.4,0.2-0.6,0.3c-0.3,0.1-0.6,0.2-0.8,0.2
		c-0.3,0.1-0.7,0.1-1,0.1c-1.2,0.1-2.3-0.3-3.2-1.1c-0.8-0.9-1.2-2-1.1-3.2c0-0.6,0.1-1.2,0.3-1.8c0.2-0.5,0.5-1,0.8-1.4
		c0.4-0.4,0.8-0.7,1.2-0.9c0.5-0.2,1-0.3,1.6-0.3c0.5,0,1.1,0.1,1.6,0.3c0.5,0.2,0.9,0.5,1.2,0.9c0.3,0.4,0.5,0.9,0.6,1.5
		c0.1,0.7,0.1,1.3,0,2h-5.9c0,0.7,0.3,1.5,0.8,2c0.6,0.5,1.4,0.7,2.1,0.7c0.6,0,1.1-0.1,1.7-0.3c0.4-0.2,0.8-0.4,1.2-0.6L79.2,363.8
		z M75.9,357.3c-0.6,0-1.1,0.2-1.6,0.6c-0.5,0.4-0.8,1-0.8,1.7h4.5c0.1-0.6-0.1-1.2-0.5-1.7C77,357.4,76.4,357.2,75.9,357.3
		L75.9,357.3z"/>
	<path class="st0" d="M85.9,362.9c-0.1,0.2-0.2,0.4-0.4,0.6c-0.2,0.2-0.3,0.4-0.6,0.6c-0.2,0.2-0.5,0.3-0.8,0.4
		c-0.3,0.1-0.7,0.2-1.1,0.2c-0.7,0-1.3-0.2-1.8-0.6c-0.5-0.5-0.7-1.1-0.7-1.8c0-0.8,0.3-1.6,1-2c0.8-0.5,1.8-0.7,2.7-0.6h1.6v-0.7
		c0-0.5-0.1-0.9-0.4-1.2c-0.5-0.3-1-0.4-1.5-0.4c-0.5,0-1,0.1-1.5,0.2c-0.4,0.2-0.8,0.3-1.2,0.6v-1.3c0.4-0.2,0.8-0.4,1.2-0.5
		c0.5-0.2,1.1-0.3,1.7-0.3c0.8-0.1,1.7,0.2,2.4,0.6c0.6,0.5,0.9,1.2,0.8,2v4.5c0,0.1,0,0.2,0,0.3s0,0.2,0,0.4s0,0.2,0,0.4
		s0,0.2,0,0.3h-1.2c0-0.2,0-0.4-0.1-0.6c0-0.3,0-0.5,0-0.7L85.9,362.9z M83.4,363.4c0.4,0,0.8-0.1,1.1-0.3c0.3-0.2,0.5-0.4,0.8-0.6
		c0.2-0.2,0.3-0.4,0.4-0.7c0.1-0.2,0.1-0.3,0.1-0.5v-0.6h-1.4c-0.6,0-1.3,0.1-1.8,0.4c-0.4,0.2-0.6,0.6-0.6,1.1
		c0,0.3,0.1,0.7,0.3,0.9C82.7,363.3,83,363.4,83.4,363.4z"/>
	<path class="st0" d="M92.9,364.5c-0.3,0.1-0.6,0.1-0.8,0.1c-0.3,0-0.7-0.1-1-0.2c-0.3-0.1-0.5-0.3-0.7-0.5
		c-0.2-0.2-0.3-0.4-0.4-0.7c-0.1-0.2-0.1-0.5-0.1-0.8v-5.2h-1v-1.2h1v-1.8h1.4v1.8h2.4v1.2h-2.4v5c0,0.3,0.1,0.6,0.3,0.8
		c0.3,0.2,0.6,0.3,0.9,0.2c0.4,0,0.8-0.1,1.1-0.4v1.3C93.3,364.4,93.1,364.5,92.9,364.5z"/>
	<path class="st0" d="M99.7,364.2c-0.5,0.3-1.2,0.5-1.8,0.5c-0.7,0-1.4-0.2-1.9-0.6c-0.5-0.5-0.8-1.3-0.7-2v-5.8h1.4v5.8
		c0,0.2,0,0.5,0.1,0.7c0.1,0.2,0.2,0.3,0.3,0.4c0.1,0.1,0.3,0.2,0.5,0.2c0.2,0,0.4,0.1,0.6,0.1c0.5,0,1-0.1,1.5-0.4
		c0.4-0.3,0.8-0.7,1-1.1v-5.7h1.4v8.3h-1.2l-0.1-1.5l0,0C100.5,363.5,100.2,363.9,99.7,364.2z"/>
	<path class="st0" d="M106.9,358c-0.5,0.3-0.9,0.7-1.1,1.2v5.3h-1.4v-8.3h1.2l0.1,1.8l0,0c0.2-0.5,0.6-0.9,1-1.3
		c0.5-0.4,1.1-0.6,1.7-0.7v1.6C107.9,357.6,107.4,357.8,106.9,358z"/>
	<path class="st0" d="M116.6,363.8c-0.1,0.1-0.3,0.2-0.4,0.3c-0.2,0.1-0.4,0.2-0.6,0.3c-0.3,0.1-0.5,0.2-0.8,0.2
		c-0.3,0.1-0.7,0.1-1,0.1c-1.2,0.1-2.3-0.3-3.2-1.1c-0.8-0.9-1.2-2-1.1-3.2c0-0.6,0.1-1.2,0.3-1.8c0.2-0.5,0.5-1,0.8-1.4
		c0.4-0.4,0.8-0.7,1.2-0.9c0.5-0.2,1-0.3,1.6-0.3c0.5,0,1.1,0.1,1.6,0.3c0.5,0.2,0.9,0.5,1.2,0.9c0.3,0.4,0.5,0.9,0.6,1.5
		c0.1,0.7,0.1,1.3,0,2h-5.9c0,0.7,0.3,1.5,0.8,2c0.6,0.5,1.4,0.7,2.2,0.7c0.6,0,1.1-0.1,1.7-0.3c0.4-0.2,0.8-0.4,1.2-0.6
		L116.6,363.8z M113.3,357.3c-0.6,0-1.1,0.2-1.6,0.6c-0.5,0.4-0.8,1-0.8,1.7h4.5c0.1-0.6-0.1-1.2-0.5-1.7
		C114.4,357.4,113.9,357.2,113.3,357.3L113.3,357.3z"/>
	<path class="st0" d="M117.3,366.4l5.1-14h1.3l-5.1,14H117.3z"/>
	<path class="st0" d="M124.8,359.8v-1.5l6.6-3v1.3l-5.4,2.5l5.4,2.5v1.3L124.8,359.8z"/>
	<path class="st0" d="M136.4,361.2l-2.2,3.3h-1.5l3-4.3l-2.7-4h1.6l2,2.9l2-2.9h1.4l-2.8,4l2.9,4.3h-1.6L136.4,361.2z"/>
	<path class="st0" d="M144.5,361.2l-2.2,3.3h-1.5l3-4.3l-2.6-4h1.6l2,2.9l2-2.9h1.5l-2.8,4l2.9,4.3h-1.6L144.5,361.2z"/>
	<path class="st0" d="M152.6,361.2l-2.2,3.3h-1.5l3-4.3l-2.6-4h1.6l2,2.9l2-2.9h1.5l-2.8,4l2.9,4.3h-1.6L152.6,361.2z"/>
	<path class="st0" d="M162.6,364.5h-1.4v-9.7l-3.1,2.4v-1.6l3.4-2.6h1.2L162.6,364.5z"/>
	<path class="st0" d="M166.6,361.6l5.4-2.5l-5.4-2.5v-1.3l6.6,3v1.5l-6.6,3V361.6z"/>
	<path class="st0" d="M174.3,366.7c1-0.9,1.7-2,2.2-3.2c0.4-1.3,0.6-2.6,0.6-4c0-0.7,0-1.4-0.1-2.1c-0.1-0.7-0.3-1.3-0.5-1.9
		c-0.2-0.6-0.5-1.2-0.9-1.7c-0.4-0.5-0.8-1-1.3-1.4h1.4c1,0.8,1.7,1.9,2.1,3.1c0.5,1.3,0.7,2.7,0.7,4c0,1.4-0.2,2.7-0.7,4
		c-0.5,1.2-1.2,2.3-2.1,3.2L174.3,366.7z"/>
	<path class="st0" d="M63.3,408.4v7.1h-1.4v-7.1h-1v-1.2h1V407c-0.1-0.8,0.2-1.7,0.8-2.3c0.6-0.6,1.3-0.9,2.1-0.8
		c0.4,0,0.7,0,1.1,0.1v1.3c-0.1-0.1-0.3-0.1-0.4-0.1c-0.2,0-0.4,0-0.6,0c-0.4,0-0.9,0.1-1.2,0.5c-0.3,0.4-0.5,0.9-0.4,1.4v0.2h2.4
		v1.2L63.3,408.4z"/>
	<path class="st0" d="M73.7,414.8c-0.1,0.1-0.3,0.2-0.4,0.3c-0.2,0.1-0.4,0.2-0.6,0.3c-0.3,0.1-0.5,0.2-0.8,0.2
		c-0.3,0.1-0.7,0.1-1,0.1c-1.2,0.1-2.3-0.3-3.2-1.1c-0.8-0.9-1.2-2-1.1-3.2c0-0.6,0.1-1.2,0.3-1.8c0.2-0.5,0.5-1,0.8-1.4
		c0.3-0.4,0.8-0.7,1.2-0.9c0.5-0.2,1-0.3,1.5-0.3c0.5,0,1.1,0.1,1.6,0.3c0.5,0.2,0.9,0.5,1.2,0.9c0.3,0.4,0.5,0.9,0.6,1.5
		c0.1,0.7,0.1,1.3,0,2h-5.9c0,0.7,0.3,1.5,0.8,2c0.6,0.5,1.4,0.7,2.2,0.7c0.6,0,1.1-0.1,1.6-0.3c0.4-0.2,0.8-0.4,1.2-0.6L73.7,414.8
		z M70.4,408.3c-0.6,0-1.1,0.2-1.6,0.6c-0.5,0.4-0.8,1-0.8,1.7h4.5c0.1-0.6-0.1-1.2-0.5-1.7C71.5,408.4,70.9,408.2,70.4,408.3
		L70.4,408.3z"/>
	<path class="st0" d="M80.4,413.9c-0.1,0.2-0.2,0.4-0.4,0.6c-0.2,0.2-0.4,0.4-0.6,0.6c-0.2,0.2-0.5,0.3-0.8,0.4
		c-0.3,0.1-0.7,0.2-1.1,0.2c-0.7,0-1.3-0.2-1.8-0.6c-0.5-0.5-0.7-1.1-0.7-1.8c0-0.8,0.3-1.6,1-2c0.8-0.5,1.8-0.7,2.7-0.6h1.6v-0.7
		c0-0.5-0.1-0.9-0.4-1.2c-0.5-0.3-1-0.4-1.5-0.4c-0.5,0-1,0.1-1.4,0.2c-0.4,0.2-0.8,0.3-1.2,0.6v-1.3c0.4-0.2,0.8-0.4,1.2-0.5
		c0.5-0.2,1.1-0.3,1.7-0.3c0.8-0.1,1.7,0.2,2.4,0.6c0.6,0.5,0.9,1.2,0.8,2v4.8c0,0.1,0,0.2,0,0.4s0,0.2,0,0.4s0,0.2,0,0.3h-1.2
		c0-0.2-0.1-0.4-0.1-0.6c0-0.2,0-0.5,0-0.7L80.4,413.9z M77.9,414.4c0.4,0,0.8-0.1,1.1-0.3c0.3-0.2,0.5-0.4,0.8-0.6
		c0.2-0.2,0.3-0.4,0.4-0.7c0.1-0.2,0.1-0.3,0.1-0.5v-0.6h-1.4c-0.6,0-1.3,0.1-1.8,0.4c-0.4,0.2-0.6,0.6-0.6,1.1
		c0,0.3,0.1,0.7,0.3,0.9C77.2,414.3,77.5,414.4,77.9,414.4z"/>
	<path class="st0" d="M87.4,415.5c-0.3,0.1-0.6,0.1-0.8,0.1c-0.3,0-0.7-0.1-1-0.2c-0.3-0.1-0.5-0.3-0.7-0.5
		c-0.2-0.2-0.3-0.4-0.4-0.7c-0.1-0.2-0.1-0.5-0.1-0.8v-5.2h-1v-1.2h1v-1.8h1.4v1.8h2.4v1.2h-2.4v5c0,0.3,0.1,0.6,0.3,0.8
		c0.3,0.2,0.6,0.3,0.9,0.2c0.4,0,0.8-0.1,1.1-0.4v1.3C87.8,415.4,87.6,415.5,87.4,415.5z"/>
	<path class="st0" d="M94.2,415.2c-0.5,0.3-1.2,0.5-1.8,0.5c-0.7,0-1.3-0.2-1.9-0.6c-0.5-0.5-0.8-1.3-0.7-2v-5.8h1.4v5.8
		c0,0.2,0,0.5,0.1,0.7c0.1,0.2,0.2,0.3,0.3,0.4c0.1,0.1,0.3,0.2,0.5,0.2c0.2,0,0.4,0.1,0.6,0.1c0.5,0,1.1-0.1,1.5-0.4
		c0.4-0.3,0.8-0.7,1-1.1v-5.7h1.4v8.3h-1.3l-0.1-1.5l0,0C95,414.5,94.6,414.9,94.2,415.2z"/>
	<path class="st0" d="M101.4,409c-0.5,0.2-0.9,0.7-1.1,1.2v5.3h-1.4v-8.3h1.2l0.2,1.8l0,0c0.2-0.5,0.6-0.9,1-1.3
		c0.5-0.4,1.1-0.6,1.7-0.7v1.6C102.5,408.6,101.9,408.8,101.4,409z"/>
	<path class="st0" d="M111.1,414.8c-0.1,0.1-0.3,0.2-0.4,0.3c-0.2,0.1-0.4,0.2-0.6,0.3c-0.3,0.1-0.5,0.2-0.8,0.2
		c-0.3,0.1-0.7,0.1-1,0.1c-1.2,0.1-2.4-0.3-3.2-1.1c-0.8-0.9-1.2-2-1.1-3.2c0-0.6,0.1-1.2,0.3-1.8c0.2-0.5,0.5-1,0.8-1.4
		c0.4-0.4,0.8-0.7,1.2-0.9c0.5-0.2,1-0.3,1.6-0.3c0.5,0,1.1,0.1,1.6,0.3c0.5,0.2,0.9,0.5,1.2,0.9c0.3,0.4,0.5,0.9,0.6,1.5
		c0.1,0.7,0.1,1.3,0,2h-5.9c0,0.7,0.3,1.5,0.8,2c0.6,0.5,1.4,0.7,2.1,0.7c0.6,0,1.1-0.1,1.7-0.3c0.4-0.2,0.8-0.4,1.2-0.6
		L111.1,414.8z M107.8,408.3c-0.6,0-1.1,0.2-1.6,0.6c-0.5,0.4-0.8,1-0.8,1.7h4.5c0.1-0.6-0.1-1.2-0.5-1.7
		C108.9,408.4,108.4,408.2,107.8,408.3L107.8,408.3z"/>
	<path class="st0" d="M111.8,417.4l5.1-14h1.3l-5.1,14H111.8z"/>
	<path class="st0" d="M119.3,410.8v-1.5l6.6-3v1.3l-5.4,2.5l5.4,2.5v1.3L119.3,410.8z"/>
	<path class="st0" d="M131,412.2l-2.2,3.3h-1.5l3-4.3l-2.7-4h1.6l2,2.9l2-2.9h1.5l-2.8,4l2.9,4.3h-1.6L131,412.2z"/>
	<path class="st0" d="M139,412.2l-2.2,3.3h-1.5l3-4.3l-2.7-4h1.6l2,2.9l2-2.9h1.5l-2.8,4l2.9,4.3h-1.6L139,412.2z"/>
	<path class="st0" d="M147,412.2l-2.2,3.3h-1.5l3-4.3l-2.7-4h1.6l2,2.9l2-2.9h1.4l-2.8,4l2.9,4.3h-1.6L147,412.2z"/>
	<path class="st0" d="M159.2,415.5h-7.3V414c1-0.8,1.8-1.5,2.5-2.1c0.6-0.5,1.2-1.1,1.8-1.7c0.4-0.4,0.7-0.9,1-1.5
		c0.2-0.5,0.3-0.9,0.3-1.5c0-0.6-0.2-1.1-0.6-1.5c-0.4-0.4-1.1-0.6-1.7-0.6c-0.6,0-1.2,0.2-1.7,0.5c-0.5,0.3-1,0.7-1.4,1.1v-1.6
		c0.4-0.4,0.9-0.7,1.4-1c0.6-0.2,1.2-0.4,1.8-0.4c0.5,0,1.1,0.1,1.6,0.2c0.4,0.1,0.8,0.4,1.2,0.7c0.3,0.3,0.6,0.6,0.7,1
		c0.2,0.4,0.3,0.9,0.2,1.4c0,0.6-0.1,1.2-0.4,1.8c-0.3,0.6-0.6,1.1-1.1,1.6c-0.5,0.6-1.1,1.2-1.7,1.7c-0.7,0.6-1.5,1.2-2.4,1.9h5.6
		L159.2,415.5z"/>
	<path class="st0" d="M161.1,412.6l5.4-2.5l-5.4-2.5v-1.3l6.6,3v1.5l-6.6,3V412.6z"/>
	<path class="st0" d="M63.3,469.4v7.1h-1.4v-7.1h-1v-1.2h1V468c-0.1-0.8,0.2-1.7,0.8-2.3c0.6-0.6,1.3-0.9,2.1-0.8
		c0.4,0,0.7,0,1.1,0.1v1.3c-0.1-0.1-0.3-0.1-0.4-0.1c-0.2,0-0.4,0-0.6,0c-0.4,0-0.9,0.1-1.2,0.5c-0.3,0.4-0.5,0.9-0.4,1.4v0.2h2.4
		v1.2L63.3,469.4z"/>
	<path class="st0" d="M73.7,475.8c-0.1,0.1-0.3,0.2-0.4,0.3c-0.2,0.1-0.4,0.2-0.6,0.3c-0.3,0.1-0.5,0.2-0.8,0.2
		c-0.3,0.1-0.7,0.1-1,0.1c-1.2,0.1-2.3-0.3-3.2-1.1c-0.8-0.9-1.2-2-1.1-3.2c0-0.6,0.1-1.2,0.3-1.8c0.2-0.5,0.5-1,0.8-1.4
		c0.3-0.4,0.8-0.7,1.2-0.9c0.5-0.2,1-0.3,1.5-0.3c0.5,0,1.1,0.1,1.6,0.3c0.5,0.2,0.9,0.5,1.2,0.9c0.3,0.4,0.5,0.9,0.6,1.5
		c0.1,0.7,0.1,1.3,0,2h-5.9c0,0.7,0.3,1.5,0.8,2c0.6,0.5,1.4,0.7,2.2,0.7c0.6,0,1.1-0.1,1.6-0.3c0.4-0.2,0.8-0.4,1.2-0.6L73.7,475.8
		z M70.4,469.3c-0.6,0-1.1,0.2-1.6,0.6c-0.5,0.4-0.8,1-0.8,1.7h4.5c0.1-0.6-0.1-1.2-0.5-1.7C71.5,469.4,70.9,469.2,70.4,469.3
		L70.4,469.3z"/>
	<path class="st0" d="M80.4,474.9c-0.1,0.2-0.2,0.4-0.4,0.6c-0.2,0.2-0.4,0.4-0.6,0.6c-0.2,0.2-0.5,0.3-0.8,0.4
		c-0.3,0.1-0.7,0.2-1.1,0.2c-0.7,0-1.3-0.2-1.8-0.6c-0.5-0.5-0.7-1.1-0.7-1.8c0-0.8,0.3-1.6,1-2c0.8-0.5,1.8-0.7,2.7-0.6h1.6v-0.7
		c0-0.5-0.1-0.9-0.4-1.2c-0.5-0.3-1-0.4-1.5-0.4c-0.5,0-1,0.1-1.4,0.2c-0.4,0.2-0.8,0.3-1.2,0.6v-1.3c0.4-0.2,0.8-0.4,1.2-0.5
		c0.5-0.2,1.1-0.3,1.7-0.3c0.8-0.1,1.7,0.2,2.4,0.6c0.6,0.5,0.9,1.2,0.8,2v4.8c0,0.1,0,0.2,0,0.4s0,0.2,0,0.4s0,0.2,0,0.3h-1.2
		c0-0.2-0.1-0.4-0.1-0.6c0-0.2,0-0.5,0-0.7L80.4,474.9z M77.9,475.4c0.4,0,0.8-0.1,1.1-0.3c0.3-0.2,0.5-0.4,0.8-0.6
		c0.2-0.2,0.3-0.4,0.4-0.7c0.1-0.2,0.1-0.3,0.1-0.5v-0.6h-1.4c-0.6,0-1.3,0.1-1.8,0.4c-0.4,0.2-0.6,0.6-0.6,1.1
		c0,0.3,0.1,0.7,0.3,0.9C77.2,475.3,77.5,475.4,77.9,475.4z"/>
	<path class="st0" d="M87.4,476.5c-0.3,0.1-0.6,0.1-0.8,0.1c-0.3,0-0.7-0.1-1-0.2c-0.3-0.1-0.5-0.3-0.7-0.5
		c-0.2-0.2-0.3-0.4-0.4-0.7c-0.1-0.2-0.1-0.5-0.1-0.8v-5.2h-1v-1.2h1v-1.8h1.4v1.8h2.4v1.2h-2.4v5c0,0.3,0.1,0.6,0.3,0.8
		c0.3,0.2,0.6,0.3,0.9,0.2c0.4,0,0.8-0.1,1.1-0.4v1.3C87.8,476.4,87.6,476.5,87.4,476.5z"/>
	<path class="st0" d="M94.2,476.2c-0.5,0.3-1.2,0.5-1.8,0.5c-0.7,0-1.3-0.2-1.9-0.6c-0.5-0.5-0.8-1.3-0.7-2v-5.8h1.4v5.8
		c0,0.2,0,0.5,0.1,0.7c0.1,0.2,0.2,0.3,0.3,0.4c0.1,0.1,0.3,0.2,0.5,0.2c0.2,0,0.4,0.1,0.6,0.1c0.5,0,1.1-0.1,1.5-0.4
		c0.4-0.3,0.8-0.7,1-1.1v-5.7h1.4v8.3h-1.3l-0.1-1.5l0,0C95,475.5,94.6,475.9,94.2,476.2z"/>
	<path class="st0" d="M101.4,470c-0.5,0.2-0.9,0.7-1.1,1.2v5.3h-1.4v-8.3h1.2l0.2,1.8l0,0c0.2-0.5,0.6-0.9,1-1.3
		c0.5-0.4,1.1-0.6,1.7-0.7v1.6C102.5,469.6,101.9,469.8,101.4,470z"/>
	<path class="st0" d="M111.1,475.8c-0.1,0.1-0.3,0.2-0.4,0.3c-0.2,0.1-0.4,0.2-0.6,0.3c-0.3,0.1-0.5,0.2-0.8,0.2
		c-0.3,0.1-0.7,0.1-1,0.1c-1.2,0.1-2.4-0.3-3.2-1.1c-0.8-0.9-1.2-2-1.1-3.2c0-0.6,0.1-1.2,0.3-1.8c0.2-0.5,0.5-1,0.8-1.4
		c0.4-0.4,0.8-0.7,1.2-0.9c0.5-0.2,1-0.3,1.6-0.3c0.5,0,1.1,0.1,1.6,0.3c0.5,0.2,0.9,0.5,1.2,0.9c0.3,0.4,0.5,0.9,0.6,1.5
		c0.1,0.7,0.1,1.3,0,2h-5.9c0,0.7,0.3,1.5,0.8,2c0.6,0.5,1.4,0.7,2.1,0.7c0.6,0,1.1-0.1,1.7-0.3c0.4-0.2,0.8-0.4,1.2-0.6
		L111.1,475.8z M107.8,469.3c-0.6,0-1.1,0.2-1.6,0.6c-0.5,0.4-0.8,1-0.8,1.7h4.5c0.1-0.6-0.1-1.2-0.5-1.7
		C108.9,469.4,108.4,469.2,107.8,469.3L107.8,469.3z"/>
	<path class="st0" d="M111.8,478.4l5.1-14h1.3l-5.1,14H111.8z"/>
	<path class="st0" d="M119.3,471.8v-1.5l6.6-3v1.3l-5.4,2.5l5.4,2.5v1.3L119.3,471.8z"/>
	<path class="st0" d="M131,473.2l-2.2,3.3h-1.5l3-4.3l-2.7-4h1.6l2,2.9l2-2.9h1.5l-2.8,4l2.9,4.3h-1.6L131,473.2z"/>
	<path class="st0" d="M139,473.2l-2.2,3.3h-1.5l3-4.3l-2.7-4h1.6l2,2.9l2-2.9h1.5l-2.8,4l2.9,4.3h-1.6L139,473.2z"/>
	<path class="st0" d="M147,473.2l-2.2,3.3h-1.5l3-4.3l-2.7-4h1.6l2,2.9l2-2.9h1.4l-2.8,4l2.9,4.3h-1.6L147,473.2z"/>
	<path class="st0" d="M159.3,473.2c0,1-0.4,1.9-1.1,2.5c-0.4,0.3-0.8,0.5-1.3,0.7c-0.5,0.2-1.1,0.2-1.7,0.2c-0.7,0-1.3-0.1-1.9-0.3
		c-0.5-0.2-0.9-0.4-1.3-0.7v-1.6c0.4,0.4,0.9,0.7,1.4,0.9c0.6,0.3,1.3,0.4,1.9,0.4c0.7,0,1.3-0.2,1.9-0.6c0.5-0.4,0.7-1,0.7-1.6
		c0-0.6-0.2-1.1-0.6-1.5c-0.5-0.4-1.2-0.6-1.9-0.5h-1.5v-1.4h1.5c0.5,0,1.1-0.1,1.5-0.5c0.4-0.4,0.6-0.9,0.6-1.4
		c0-0.5-0.2-1-0.5-1.3c-0.4-0.3-1-0.5-1.5-0.5c-0.6,0-1.2,0.1-1.8,0.4c-0.5,0.3-0.9,0.6-1.3,0.9v-1.6c0.4-0.3,0.8-0.6,1.3-0.8
		c0.6-0.2,1.2-0.3,1.8-0.3c0.5,0,1,0.1,1.5,0.2c0.4,0.1,0.8,0.3,1.1,0.6c0.3,0.3,0.5,0.6,0.7,1c0.2,0.4,0.2,0.8,0.2,1.2
		c0,0.3,0,0.7-0.2,1c-0.1,0.3-0.2,0.5-0.4,0.8c-0.2,0.2-0.4,0.4-0.6,0.5c-0.2,0.1-0.5,0.3-0.8,0.3c0.3,0.1,0.7,0.2,1,0.3
		c0.3,0.1,0.6,0.3,0.8,0.6c0.2,0.2,0.4,0.5,0.6,0.8C159.3,472.5,159.3,472.8,159.3,473.2z"/>
	<path class="st0" d="M161.1,473.6l5.4-2.5l-5.4-2.5v-1.3l6.6,3v1.5l-6.6,3V473.6z"/>
	<path class="st0" d="M228.8,490.7h3.7c1.1-0.1,2.1,0.2,3,0.8c0.8,0.6,1.2,1.6,1.1,2.5c0,0.6-0.1,1.1-0.3,1.7
		c-0.2,0.4-0.5,0.8-0.9,1.1c-0.4,0.3-0.8,0.5-1.3,0.7c-0.6,0.1-1.1,0.2-1.7,0.2h-2v4.5h-1.5V490.7z M230.3,492.1v4.3h2
		c0.4,0,0.7,0,1.1-0.1c0.3-0.1,0.6-0.2,0.9-0.4c0.2-0.2,0.4-0.4,0.6-0.7c0.2-0.3,0.2-0.7,0.2-1.1c0.1-0.6-0.2-1.2-0.7-1.5
		c-0.6-0.4-1.2-0.5-1.9-0.5L230.3,492.1z"/>
	<path class="st0" d="M243,500.6c-0.1,0.2-0.2,0.4-0.4,0.6c-0.2,0.2-0.4,0.4-0.6,0.6c-0.2,0.2-0.5,0.3-0.8,0.4
		c-0.3,0.1-0.7,0.2-1.1,0.2c-0.7,0-1.3-0.2-1.8-0.6c-0.5-0.5-0.7-1.1-0.7-1.8c0-0.8,0.3-1.6,1-2c0.8-0.5,1.8-0.7,2.7-0.6h1.6v-0.7
		c0-0.5-0.1-0.9-0.4-1.2c-0.5-0.3-1-0.4-1.6-0.3c-0.5,0-1,0.1-1.4,0.2c-0.4,0.2-0.8,0.3-1.2,0.6v-1.3c0.4-0.2,0.8-0.4,1.2-0.5
		c0.5-0.2,1.1-0.3,1.7-0.3c0.8-0.1,1.7,0.2,2.4,0.6c0.6,0.5,0.9,1.2,0.8,2v4.8c0,0.1,0,0.2,0,0.4s0,0.2,0,0.4s0,0.2,0,0.3h-1.3
		c0-0.2-0.1-0.4-0.1-0.6c0-0.2,0-0.5,0-0.7L243,500.6z M240.5,501.1c0.4,0,0.8-0.1,1.1-0.3c0.5-0.3,0.9-0.8,1.2-1.3
		c0.1-0.1,0.2-0.3,0.2-0.5v-0.6h-1.4c-0.6,0-1.3,0.1-1.8,0.4c-0.4,0.2-0.6,0.6-0.6,1.1c0,0.3,0.1,0.7,0.3,0.9
		C239.8,501,240.2,501.1,240.5,501.1L240.5,501.1z"/>
	<path class="st0" d="M254.1,498c0,0.6-0.1,1.3-0.3,1.8c-0.2,0.5-0.5,1-0.9,1.4c-0.4,0.4-0.8,0.7-1.3,0.8c-0.5,0.2-1.1,0.3-1.6,0.3
		c-0.6,0-1.1-0.1-1.6-0.3c-0.5-0.2-0.9-0.5-1.3-0.9c-0.4-0.4-0.7-1-0.8-1.5c-0.2-0.7-0.3-1.5-0.3-2.2c0-0.7,0-1.3,0.1-2
		c0-0.6,0.1-1.2,0.3-1.8c0.1-0.5,0.4-1,0.6-1.5c0.3-0.4,0.7-0.8,1.1-1.1c0.3-0.2,0.5-0.3,0.8-0.4c0.3-0.1,0.6-0.1,0.9-0.2
		c0.3,0,0.6-0.1,0.9-0.1h0.9c0.4,0,0.7-0.1,1.1-0.2c0.3-0.1,0.5-0.2,0.8-0.3v1.3c-0.2,0.1-0.5,0.2-0.8,0.3c-0.3,0.1-0.6,0.1-0.9,0.2
		l-1.7,0.1c-0.5,0-1,0.1-1.4,0.4c-0.5,0.3-0.9,0.8-1.1,1.3c-0.2,0.7-0.4,1.4-0.4,2.1c0.5-1.3,1.8-2,3.1-1.9c0.5,0,1,0.1,1.5,0.3
		c0.5,0.2,0.9,0.5,1.2,0.8c0.4,0.4,0.6,0.8,0.8,1.3C254,496.8,254.1,497.4,254.1,498z M250.1,501.1c0.3,0,0.7-0.1,1-0.2
		c0.3-0.1,0.6-0.3,0.8-0.6c0.3-0.3,0.4-0.6,0.5-1c0.3-0.9,0.3-1.8,0-2.7c-0.1-0.4-0.3-0.7-0.5-1c-0.2-0.2-0.5-0.4-0.8-0.6
		c-0.3-0.1-0.7-0.2-1-0.2c-0.7,0-1.3,0.2-1.8,0.7c-0.5,0.6-0.8,1.5-0.7,2.3c0,0.5,0.1,0.9,0.2,1.4c0.1,0.4,0.3,0.7,0.5,1
		c0.2,0.3,0.5,0.4,0.8,0.6C249.4,501,249.7,501.1,250.1,501.1L250.1,501.1z"/>
	<path class="st0" d="M259.2,502.3c-0.5,0-1.1-0.1-1.6-0.3c-0.5-0.2-0.9-0.5-1.3-0.8c-0.4-0.4-0.7-0.8-0.8-1.4
		c-0.2-0.6-0.3-1.2-0.3-1.8c0-0.6,0.1-1.2,0.3-1.8c0.2-0.5,0.5-1,0.8-1.4c0.4-0.4,0.8-0.6,1.3-0.8c0.5-0.2,1-0.3,1.6-0.3
		c0.5,0,1.1,0.1,1.6,0.3c0.5,0.2,0.9,0.5,1.3,0.8c0.4,0.4,0.7,0.8,0.9,1.4c0.2,0.6,0.3,1.2,0.3,1.8c0,0.6-0.1,1.3-0.3,1.8
		c-0.2,0.5-0.5,1-0.9,1.4c-0.4,0.4-0.8,0.7-1.3,0.8C260.3,502.2,259.8,502.3,259.2,502.3z M259.2,501.1c0.3,0,0.7-0.1,1-0.2
		c0.3-0.1,0.6-0.3,0.8-0.6c0.3-0.3,0.4-0.6,0.5-1c0.3-0.9,0.3-1.8,0-2.7c-0.1-0.4-0.3-0.7-0.5-1c-0.2-0.2-0.5-0.4-0.8-0.6
		c-0.3-0.1-0.7-0.2-1-0.2c-0.3,0-0.7,0.1-1,0.2c-0.3,0.1-0.6,0.3-0.8,0.6c-0.3,0.3-0.4,0.6-0.5,1c-0.3,0.9-0.3,1.8,0,2.7
		c0.1,0.4,0.3,0.7,0.5,1c0.2,0.2,0.5,0.4,0.8,0.6C258.6,501,258.9,501.1,259.2,501.1z"/>
	<path class="st0" d="M268.1,495.1v7.1h-1.4v-7.1h-2.6v-1.2h6.7v1.2H268.1z"/>
	<path class="st0" d="M277,500.6c-0.1,0.2-0.2,0.4-0.4,0.6c-0.2,0.2-0.3,0.4-0.6,0.6c-0.2,0.2-0.5,0.3-0.8,0.4
		c-0.3,0.1-0.7,0.2-1.1,0.2c-0.7,0-1.3-0.2-1.8-0.6c-0.5-0.5-0.7-1.1-0.7-1.8c-0.1-0.8,0.3-1.5,1-2c0.8-0.5,1.8-0.7,2.7-0.6h1.6
		v-0.7c0-0.5-0.1-0.9-0.5-1.2c-0.5-0.3-1-0.4-1.5-0.3c-0.5,0-1,0.1-1.5,0.2c-0.4,0.2-0.8,0.3-1.2,0.6v-1.3c0.4-0.2,0.8-0.4,1.2-0.5
		c0.5-0.2,1.1-0.3,1.7-0.3c0.8-0.1,1.7,0.2,2.4,0.6c0.6,0.5,0.9,1.2,0.8,2v4.5c0,0.1,0,0.2,0,0.3s0,0.2,0,0.4s0,0.2,0,0.4
		s0,0.2,0,0.3h-1.3c0-0.2-0.1-0.4-0.1-0.6c0-0.2,0-0.5,0-0.7L277,500.6z M274.5,501.1c0.4,0,0.8-0.1,1.1-0.3
		c0.3-0.2,0.5-0.4,0.8-0.6c0.2-0.2,0.3-0.4,0.4-0.7c0.1-0.2,0.1-0.3,0.1-0.5v-0.6h-1.4c-0.6,0-1.3,0.1-1.8,0.4
		c-0.4,0.2-0.6,0.6-0.6,1.1c0,0.3,0.1,0.7,0.3,0.9C273.7,501,274.1,501.1,274.5,501.1z"/>
	<path class="st0" d="M289.5,498.5h-4v3.7h-1.4v-8.3h1.4v3.4h4v-3.4h1.4v8.3h-1.4V498.5z"/>
	<path class="st0" d="M298.1,500.6c-0.1,0.2-0.2,0.4-0.4,0.6c-0.2,0.2-0.3,0.4-0.6,0.6c-0.2,0.2-0.5,0.3-0.8,0.4
		c-0.3,0.1-0.7,0.2-1.1,0.2c-0.7,0-1.3-0.2-1.8-0.6c-0.5-0.5-0.7-1.1-0.7-1.8c-0.1-0.8,0.3-1.5,1-2c0.8-0.5,1.8-0.7,2.7-0.6h1.5
		v-0.7c0-0.5-0.1-0.9-0.5-1.2c-0.5-0.3-1-0.4-1.5-0.3c-0.5,0-1,0.1-1.5,0.2c-0.4,0.2-0.8,0.3-1.2,0.6v-1.3c0.4-0.2,0.8-0.4,1.2-0.5
		c0.5-0.2,1.1-0.3,1.7-0.3c0.8-0.1,1.7,0.2,2.4,0.6c0.6,0.5,0.9,1.2,0.8,2v4.8c0,0.1,0,0.2,0,0.4s0,0.2,0,0.4s0,0.2,0,0.3h-1.3
		c0-0.2-0.1-0.4-0.1-0.6c0-0.2,0-0.5,0-0.7L298.1,500.6z M295.6,501.1c0.4,0,0.8-0.1,1.1-0.3c0.5-0.3,0.9-0.8,1.2-1.3
		c0.1-0.2,0.1-0.3,0.1-0.5v-0.6h-1.4c-0.6,0-1.3,0.1-1.8,0.4c-0.4,0.2-0.6,0.6-0.6,1.1c0,0.3,0.1,0.7,0.3,0.9
		C294.8,501,295.2,501.1,295.6,501.1z"/>
	<path class="st0" d="M301.2,501c0.3-0.2,0.6-0.5,0.7-0.9c0.2-0.5,0.3-1,0.4-1.5c0.1-0.7,0.2-1.4,0.2-2.1c0-0.8,0.1-1.7,0.1-2.7h5.7
		v7.1h1.2v3.6h-1.2l-0.2-2.4H302l-0.1,2.4h-1.3V501H301.2z M307,501v-5.9h-3c0,1.3-0.1,2.5-0.3,3.8c-0.1,0.8-0.3,1.5-0.7,2.1H307z"
		/>
	<path class="st0" d="M320,498.5h-4v3.7h-1.4v-8.3h1.4v3.4h4v-3.4h1.4v8.3H320V498.5z"/>
	<path class="st0" d="M327.2,502.3c-0.5,0-1.1-0.1-1.6-0.3c-0.5-0.2-0.9-0.5-1.3-0.8c-0.4-0.4-0.7-0.8-0.8-1.4
		c-0.2-0.6-0.3-1.2-0.3-1.8c0-0.6,0.1-1.2,0.3-1.8c0.2-0.5,0.5-1,0.8-1.4c0.4-0.4,0.8-0.6,1.3-0.8c0.5-0.2,1-0.3,1.6-0.3
		c0.5,0,1.1,0.1,1.6,0.3c0.5,0.2,0.9,0.5,1.3,0.8c0.4,0.4,0.7,0.8,0.9,1.4c0.2,0.6,0.3,1.2,0.3,1.8c0,0.6-0.1,1.3-0.3,1.8
		c-0.2,0.5-0.5,1-0.9,1.4c-0.4,0.4-0.8,0.7-1.3,0.8C328.3,502.2,327.7,502.3,327.2,502.3z M327.2,501.1c0.3,0,0.7-0.1,1-0.2
		c0.3-0.1,0.6-0.3,0.8-0.6c0.3-0.3,0.4-0.6,0.5-1c0.3-0.9,0.3-1.8,0-2.7c-0.1-0.4-0.3-0.7-0.5-1c-0.2-0.2-0.5-0.4-0.8-0.6
		c-0.3-0.1-0.7-0.2-1-0.2c-0.3,0-0.7,0.1-1,0.2c-0.3,0.1-0.6,0.3-0.8,0.6c-0.3,0.3-0.4,0.6-0.5,1c-0.3,0.9-0.3,1.8,0,2.7
		c0.1,0.4,0.3,0.7,0.5,1c0.2,0.2,0.5,0.4,0.8,0.6C326.5,501,326.8,501.1,327.2,501.1z"/>
	<path class="st0" d="M332.9,493.9h3.1c0.8-0.1,1.6,0.1,2.3,0.5c0.5,0.4,0.8,1,0.8,1.6c0,0.4-0.1,0.8-0.4,1.2
		c-0.3,0.3-0.7,0.5-1.1,0.6c1,0,1.8,0.9,1.8,1.9c0,0,0,0.1,0,0.1c0,0.4-0.1,0.8-0.2,1.1c-0.2,0.3-0.4,0.6-0.7,0.8
		c-0.3,0.2-0.7,0.3-1.1,0.4c-0.5,0.1-0.9,0.1-1.4,0.1h-3.1V493.9z M334.3,495.1v2.2h1.6c0.4,0,0.9-0.1,1.3-0.3
		c0.5-0.3,0.7-0.9,0.4-1.4c-0.1-0.2-0.2-0.3-0.4-0.4c-0.4-0.2-0.8-0.3-1.2-0.2H334.3z M334.3,498.4v2.6h1.7c0.3,0,0.5,0,0.8,0
		c0.2,0,0.4-0.1,0.6-0.2c0.2-0.1,0.3-0.2,0.4-0.4c0.1-0.2,0.1-0.4,0.1-0.6c0-0.4-0.2-0.8-0.5-1c-0.5-0.2-1-0.3-1.5-0.3L334.3,498.4z
		"/>
	<path class="st0" d="M347.6,499.4c0,0.4-0.1,0.9-0.3,1.2c-0.2,0.3-0.4,0.6-0.7,0.9c-0.3,0.2-0.7,0.4-1.1,0.5
		c-0.5,0.1-0.9,0.2-1.4,0.2h-2.7v-8.3h1.4v2.9h1.4c0.9,0,1.7,0.2,2.5,0.6C347.4,497.9,347.7,498.6,347.6,499.4z M342.9,498v3h1.3
		c0.5,0,1-0.1,1.5-0.3c0.4-0.3,0.6-0.7,0.6-1.1c0-0.4-0.2-0.9-0.5-1.2c-0.4-0.3-0.9-0.4-1.4-0.4L342.9,498z M350.2,502.2h-1.4v-8.3
		h1.4V502.2z"/>
	<path class="st0" d="M360.5,495.5l-2.8,5.7h-1.1l-2.6-5.8v6.7h-1.3v-8.3h2.1l2.5,5.6l2.7-5.6h2v8.3h-1.4L360.5,495.5z"/>
	<path class="st0" d="M365.6,500.2l4.4-6.4h1.4v8.3H370v-6.4l-4.4,6.4h-1.4v-8.3h1.4L365.6,500.2z"/>
	<path class="st0" d="M267.8,515c0,0.6-0.1,1.3-0.4,1.8c-0.2,0.5-0.6,1-1,1.3c-0.4,0.4-0.9,0.7-1.4,0.8c-0.6,0.2-1.1,0.3-1.7,0.3
		v2.7H262v-2.7c-0.6,0-1.2-0.1-1.8-0.3c-0.5-0.2-1-0.5-1.4-0.8c-0.4-0.4-0.7-0.8-1-1.3c-0.2-0.6-0.4-1.2-0.4-1.8
		c0-0.6,0.1-1.2,0.4-1.8c0.2-0.5,0.6-1,1-1.3c0.4-0.4,0.9-0.6,1.4-0.8c0.6-0.2,1.1-0.3,1.7-0.3v-3.2h1.4v3.2c0.6,0,1.2,0.1,1.7,0.3
		c0.5,0.2,1,0.5,1.4,0.8c0.4,0.4,0.8,0.8,1,1.3C267.8,513.8,267.9,514.4,267.8,515z M259,515c0,0.5,0.1,0.9,0.2,1.3
		c0.1,0.4,0.4,0.7,0.6,0.9c0.3,0.3,0.6,0.4,1,0.6c0.4,0.1,0.8,0.2,1.2,0.2v-6c-0.4,0-0.8,0.1-1.2,0.2c-0.4,0.1-0.7,0.3-1,0.6
		c-0.3,0.3-0.5,0.6-0.6,0.9C259.1,514.1,259,514.6,259,515z M266.4,515c0-0.5-0.1-0.9-0.2-1.3c-0.1-0.4-0.4-0.7-0.6-0.9
		c-0.3-0.2-0.6-0.4-1-0.6c-0.4-0.1-0.8-0.2-1.2-0.2v6.1c0.4,0,0.8-0.1,1.2-0.2c0.4-0.1,0.7-0.3,1-0.6c0.3-0.3,0.5-0.6,0.6-0.9
		C266.4,515.9,266.4,515.5,266.4,515L266.4,515z"/>
	<path class="st0" d="M272.9,520.4c-0.2,0.4-0.4,0.7-0.7,1c-0.2,0.3-0.6,0.5-0.9,0.6c-0.4,0.1-0.8,0.2-1.1,0.2c-0.2,0-0.4,0-0.6,0
		c-0.2,0-0.3-0.1-0.5-0.1v-1.3c0.1,0.1,0.3,0.2,0.5,0.2c0.2,0.1,0.4,0.1,0.6,0.1c0.4,0,0.7-0.1,1-0.3c0.3-0.2,0.5-0.6,0.7-0.9
		l-3.4-8.9h1.6l2.6,7l2.6-7h1.4l-3.1,8.2C273.3,519.6,273.1,520,272.9,520.4z"/>
	<path class="st0" d="M283.4,515.5h-4v3.7H278v-8.3h1.4v3.4h4v-3.4h1.4v8.3h-1.4V515.5z"/>
	<path class="st0" d="M289.3,515.6h-0.7v3.5h-1.4v-8.3h1.4v3.6h0.8l2.9-3.6h1.6l-3.4,4.1l3.5,4.2h-1.7L289.3,515.6z"/>
	<path class="st0" d="M302.1,519.2h-6.8v-8.3h1.4v7.1h4.1v-7.1h1.4v7.1h1.2v3.6h-1.2L302.1,519.2z"/>
	<path class="st0" d="M306.4,517.2l4.4-6.4h1.4v8.3h-1.4v-6.4l-4.4,6.4H305v-8.3h1.4V517.2z"/>
	<path class="st0" d="M314.6,513.6c0-0.4,0.1-0.8,0.2-1.2c0.2-0.3,0.4-0.6,0.7-0.8c0.3-0.2,0.7-0.4,1.1-0.5c0.5-0.1,0.9-0.2,1.4-0.2
		h2.7v8.3h-1.4v-3h-1.5l-2.1,3H314l2.4-3.4c-0.5-0.1-1-0.4-1.4-0.8C314.7,514.6,314.5,514.1,314.6,513.6z M319.3,515v-2.9H318
		c-0.5,0-1,0.1-1.5,0.3c-0.4,0.2-0.6,0.6-0.6,1.1c0,0.4,0.2,0.9,0.5,1.1c0.5,0.3,1,0.4,1.5,0.4L319.3,515z"/>
	<path class="st0" d="M330.9,512.5l-2.8,5.7H327l-2.7-5.8v6.7H323v-8.3h2.1l2.5,5.6l2.7-5.6h2v8.3h-1.4L330.9,512.5z"/>
	<path class="st0" d="M336,517.2l4.4-6.4h1.4v8.3h-1.4v-6.4l-4.4,6.4h-1.4v-8.3h1.4V517.2z"/>
	<line class="st4" x1="309.2" y1="350.5" x2="331.2" y2="350.5"/>
	<circle class="st0" cx="309.2" cy="350.5" r="2.2"/>
	<polygon class="st0" points="330.3,353.9 336.1,350.5 330.3,347.1 	"/>
	<line class="st4" x1="475" y1="470" x2="511" y2="470"/>
	<circle class="st0" cx="475" cy="470" r="2.2"/>
	<polygon class="st0" points="510,473.4 515.9,470 510,466.6 	"/>
	<line class="st4" x1="360" y1="470" x2="377" y2="470"/>
	<circle class="st0" cx="360" cy="470" r="2.2"/>
	<polygon class="st0" points="376,473.4 381.9,470 376,466.6 	"/>
	<line class="st4" x1="315" y1="470" x2="332" y2="470"/>
	<circle class="st0" cx="315" cy="470" r="2.2"/>
	<polygon class="st0" points="331,473.4 336.9,470 331,466.6 	"/>
	<line class="st4" x1="260" y1="470" x2="287" y2="470"/>
	<circle class="st0" cx="260" cy="470" r="2.2"/>
	<polygon class="st0" points="286,473.4 291.9,470 286,466.6 	"/>
	<line class="st4" x1="530.2" y1="460.5" x2="530.5" y2="88.5"/>
	<path class="st0" d="M532.4,460.5c0,1.2-1,2.2-2.2,2.2s-2.2-1-2.2-2.2s1-2.2,2.2-2.2C531.5,458.3,532.4,459.3,532.4,460.5
		L532.4,460.5z"/>
	<polygon class="st0" points="533.9,89.5 530.5,83.6 527.1,89.5 	"/>
	<line class="st4" x1="329.2" y1="410.5" x2="351.2" y2="410.5"/>
	<circle class="st0" cx="329.2" cy="410.5" r="2.2"/>
	<polygon class="st0" points="350.3,413.9 356.1,410.5 350.3,407.1 	"/>
	<line class="st4" x1="400.2" y1="340.5" x2="400.2" y2="88"/>
	<path class="st0" d="M402.4,340.5c0,1.2-1,2.2-2.2,2.2s-2.2-1-2.2-2.2s1-2.2,2.2-2.2S402.4,339.3,402.4,340.5L402.4,340.5z"/>
	<polygon class="st0" points="403.6,89 400.2,83.1 396.9,89 	"/>
	<polyline class="st5" points="290.5,560.5 290.5,559.5 289.5,559.5 	"/>
	<line class="st6" x1="286.5" y1="559.5" x2="63" y2="559.5"/>
	<polyline class="st5" points="61.5,559.5 60.5,559.5 60.5,560.5 	"/>
	<line class="st6" x1="60.5" y1="563.5" x2="60.5" y2="607"/>
	<polyline class="st5" points="60.5,608.5 60.5,609.5 61.5,609.5 	"/>
	<line class="st6" x1="64.5" y1="609.5" x2="288" y2="609.5"/>
	<polyline class="st5" points="289.5,609.5 290.5,609.5 290.5,608.5 	"/>
	<line class="st6" x1="290.5" y1="605.5" x2="290.5" y2="562"/>
	<line class="st4" x1="209.5" y1="350" x2="221.2" y2="350"/>
	<circle class="st0" cx="209.5" cy="350" r="2.2"/>
	<polygon class="st0" points="220.3,353.4 226.1,350 220.3,346.6 	"/>
	<line class="st4" x1="330" y1="190" x2="330" y2="88"/>
	<path class="st0" d="M332.2,190c0,1.2-1,2.2-2.2,2.2s-2.2-1-2.2-2.2s1-2.2,2.2-2.2S332.2,188.8,332.2,190L332.2,190z"/>
	<polygon class="st0" points="333.4,89 330,83.1 326.6,89 	"/>
	
		<use xlink:href="#dark_circle"  width="20" height="20" x="-10" y="-10" transform="matrix(1 0 0 1 330 70)" style="overflow:visible;"/>
	
		<use xlink:href="#dark_circle"  width="20" height="20" x="-10" y="-10" transform="matrix(1 0 0 1 530 70)" style="overflow:visible;"/>
	<circle class="st0" cx="189" cy="584" r="7.5"/>
	<path class="st0" d="M206.1,580h3c0.9-0.1,1.7,0.2,2.5,0.7c0.6,0.5,0.9,1.2,0.9,2c0,0.5-0.1,0.9-0.2,1.4c-0.2,0.4-0.4,0.7-0.7,0.9
		c-0.3,0.3-0.7,0.4-1.1,0.5c-0.5,0.1-0.9,0.2-1.4,0.2h-1.6v3.6h-1.2L206.1,580z M207.3,581.1v3.5h1.7c0.3,0,0.6,0,0.9-0.1
		c0.3-0.1,0.5-0.2,0.7-0.3c0.2-0.2,0.3-0.4,0.4-0.6c0.1-0.3,0.2-0.6,0.2-0.9c0-0.5-0.2-0.9-0.5-1.2c-0.5-0.3-1-0.4-1.6-0.4H207.3z"
		/>
	<path class="st0" d="M217.4,589.1c-0.4,0.3-1,0.4-1.5,0.4c-0.6,0-1.1-0.2-1.5-0.5c-0.4-0.4-0.6-1-0.6-1.6v-4.7h1.1v4.7
		c0,0.2,0,0.4,0.1,0.6c0.1,0.1,0.2,0.2,0.3,0.3c0.1,0.1,0.3,0.2,0.4,0.2c0.2,0,0.3,0.1,0.5,0c0.4,0,0.9-0.1,1.2-0.3
		c0.3-0.3,0.6-0.6,0.8-0.9v-4.6h1.1v6.8h-1l-0.1-1.2l0,0C218,588.5,217.7,588.8,217.4,589.1z"/>
	<path class="st0" d="M222.4,580v9.3h-1.1V580H222.4z"/>
	<path class="st0" d="M225.4,580v9.3h-1.1V580H225.4z"/>
	<path class="st0" d="M232.1,584.1c-0.4,0.2-0.7,0.5-0.9,0.9v4.3h-1.1v-6.8h1l0.1,1.5l0,0c0.2-0.4,0.5-0.7,0.8-1
		c0.4-0.3,0.9-0.5,1.4-0.6v1.3C232.9,583.8,232.5,583.9,232.1,584.1z"/>
	<path class="st0" d="M240,588.8c-0.1,0.1-0.2,0.2-0.4,0.2c-0.2,0.1-0.3,0.2-0.5,0.2c-0.2,0.1-0.4,0.1-0.7,0.2
		c-0.3,0.1-0.6,0.1-0.9,0.1c-1,0.1-1.9-0.3-2.6-0.9c-0.6-0.7-0.9-1.6-0.9-2.6c0-0.5,0.1-1,0.2-1.5c0.7-1.7,2.6-2.5,4.2-1.8
		c0,0,0,0,0,0c0.4,0.2,0.7,0.4,0.9,0.7c0.3,0.4,0.4,0.8,0.5,1.2c0.1,0.5,0.1,1.1,0,1.6h-4.8c0,0.6,0.2,1.2,0.6,1.6
		c0.5,0.4,1.1,0.6,1.8,0.5c0.5,0,0.9-0.1,1.3-0.2c0.3-0.1,0.6-0.3,0.9-0.5L240,588.8z M237.3,583.5c-0.5,0-0.9,0.1-1.3,0.5
		c-0.4,0.4-0.6,0.9-0.7,1.4h3.6c0.1-0.5-0.1-1-0.4-1.4C238.2,583.6,237.8,583.4,237.3,583.5L237.3,583.5z"/>
	<path class="st0" d="M247.4,591.6h-1.1v-3.5c-0.2,0.4-0.5,0.7-0.9,1c-0.4,0.3-0.9,0.4-1.4,0.4c-0.4,0-0.8-0.1-1.2-0.2
		c-0.4-0.1-0.7-0.4-1-0.7c-0.3-0.3-0.5-0.7-0.7-1.1c-0.2-0.5-0.3-1-0.2-1.6c0-0.5,0.1-1,0.2-1.5c0.1-0.4,0.4-0.8,0.7-1.1
		c0.3-0.3,0.6-0.5,1-0.7c0.4-0.1,0.8-0.2,1.2-0.2c0.5,0,1,0.1,1.4,0.3c0.4,0.2,0.7,0.6,0.9,1v-0.1c0-0.2,0-0.3,0-0.6
		c0-0.2,0-0.3,0.1-0.5h1.1c0,0.2,0,0.3-0.1,0.5c0,0.2,0,0.4,0,0.6L247.4,591.6z M244.2,588.4c0.3,0,0.6,0,0.8-0.2
		c0.3-0.1,0.5-0.3,0.7-0.5c0.2-0.2,0.3-0.5,0.4-0.8c0.1-0.4,0.2-0.7,0.2-1.1c0-0.4,0-0.7-0.2-1.1c-0.1-0.3-0.2-0.5-0.4-0.8
		c-0.2-0.2-0.4-0.4-0.7-0.5c-0.3-0.1-0.5-0.2-0.8-0.2c-0.6,0-1.1,0.2-1.5,0.6c-0.8,1.1-0.8,2.6,0,3.7
		C243.1,588.2,243.7,588.5,244.2,588.4L244.2,588.4z"/>
	<path class="st0" d="M252.8,589.1c-0.4,0.3-1,0.4-1.5,0.4c-0.6,0-1.1-0.2-1.5-0.5c-0.4-0.4-0.6-1-0.6-1.6v-4.7h1.2v4.7
		c0,0.2,0,0.4,0.1,0.6c0.1,0.1,0.1,0.3,0.3,0.3c0.1,0.1,0.2,0.2,0.4,0.2c0.2,0,0.3,0,0.5,0c0.4,0,0.9-0.1,1.2-0.3
		c0.3-0.3,0.6-0.6,0.8-0.9v-4.6h1.1v6.8h-1l-0.1-1.2l0,0C253.5,588.5,253.2,588.8,252.8,589.1z"/>
	<path class="st0" d="M262,588.8c-0.1,0.1-0.2,0.2-0.4,0.2c-0.2,0.1-0.3,0.2-0.5,0.2c-0.2,0.1-0.4,0.1-0.7,0.2
		c-0.3,0.1-0.6,0.1-0.8,0.1c-1,0.1-1.9-0.3-2.6-0.9c-0.6-0.7-0.9-1.6-0.9-2.6c0-0.5,0.1-1,0.2-1.5c0.3-0.8,0.9-1.5,1.7-1.8
		c0.8-0.3,1.7-0.3,2.6,0c0.4,0.2,0.7,0.4,1,0.7c0.3,0.4,0.4,0.8,0.5,1.2c0.1,0.5,0.1,1.1,0,1.6h-4.8c0,0.6,0.2,1.2,0.6,1.6
		c0.5,0.4,1.1,0.6,1.7,0.5c0.5,0,0.9-0.1,1.3-0.2c0.3-0.1,0.6-0.3,0.9-0.5L262,588.8z M259.3,583.5c-0.5,0-0.9,0.1-1.3,0.5
		c-0.4,0.4-0.6,0.9-0.7,1.4h3.6c0.1-0.5-0.1-1-0.4-1.4C260.2,583.6,259.8,583.4,259.3,583.5L259.3,583.5z"/>
	<path class="st0" d="M265.7,589.5c-0.3,0-0.6,0-0.9-0.1c-0.2-0.1-0.5-0.1-0.7-0.2c-0.2-0.1-0.4-0.2-0.5-0.3
		c-0.1-0.1-0.2-0.2-0.3-0.2v-1c0.1,0.1,0.2,0.2,0.4,0.3c0.2,0.1,0.3,0.2,0.5,0.3c0.2,0.1,0.5,0.2,0.7,0.2c0.3,0.1,0.6,0.1,0.9,0.1
		c0.4,0,0.8-0.1,1.2-0.2c0.3-0.2,0.5-0.5,0.4-0.8c0-0.2,0-0.3-0.1-0.5c-0.1-0.1-0.2-0.2-0.4-0.3c-0.2-0.1-0.4-0.1-0.5-0.2l-0.6-0.1
		c-0.3-0.1-0.6-0.1-0.9-0.2c-0.3-0.1-0.5-0.2-0.8-0.3c-0.5-0.3-0.8-0.9-0.8-1.5c0-0.6,0.3-1.1,0.7-1.4c0.6-0.4,1.3-0.6,2-0.5
		c0.4,0,0.8,0,1.3,0.2c0.3,0.1,0.6,0.2,0.9,0.3v1c-0.3-0.2-0.5-0.3-0.8-0.4c-0.4-0.1-0.8-0.2-1.2-0.2c-0.4,0-0.8,0-1.2,0.2
		c-0.3,0.1-0.4,0.4-0.4,0.8c0,0.2,0,0.3,0.1,0.4c0.1,0.1,0.2,0.2,0.3,0.3c0.1,0.1,0.3,0.1,0.5,0.2l0.5,0.1l0.9,0.2
		c0.3,0.1,0.6,0.2,0.8,0.3c0.6,0.3,0.9,0.9,0.9,1.6c0,0.3-0.1,0.7-0.2,1c-0.2,0.3-0.4,0.5-0.6,0.6c-0.3,0.2-0.6,0.3-0.9,0.3
		C266.4,589.4,266,589.5,265.7,589.5z"/>
	<path class="st0" d="M272.6,589.4c-0.2,0.1-0.5,0.1-0.7,0.1c-0.3,0-0.6,0-0.8-0.1c-0.2-0.1-0.4-0.2-0.6-0.4
		c-0.1-0.2-0.3-0.3-0.3-0.5c-0.1-0.2-0.1-0.4-0.1-0.6v-4.2h-0.8v-1h0.8v-1.4h1.1v1.4h2v1h-2v4.1c0,0.2,0.1,0.5,0.2,0.6
		c0.2,0.2,0.5,0.2,0.8,0.2c0.3,0,0.6-0.1,0.9-0.3v1C273,589.2,272.8,589.3,272.6,589.4z"/>
	
		<use xlink:href="#Black"  width="20" height="20" x="-10" y="-10" transform="matrix(1 0 0 1 395 470)" style="overflow:visible;"/>
	<g class="st7">
		<line class="st8" x1="405.1" y1="470" x2="446.9" y2="470"/>
		<circle class="st9" cx="405.1" cy="470" r="3.7"/>
		<polygon class="st9" points="446.6,470.9 448.1,470 446.6,469.1 		"/>
	</g>
	<line class="st4" x1="405.1" y1="470" x2="446.9" y2="470"/>
	<circle class="st0" cx="405.1" cy="470" r="2.2"/>
	<polygon class="st0" points="445.9,473.4 451.8,470 445.9,466.6 	"/>
	
		<use xlink:href="#Black"  width="20" height="20" x="-10" y="-10" transform="matrix(1 0 0 1 370 410)" style="overflow:visible;"/>
	<g class="st7">
		<polyline class="st8" points="379.5,410.5 459.5,410.5 460.5,85.5 		"/>
		<circle class="st9" cx="379.5" cy="410.5" r="3.7"/>
		<polygon class="st9" points="461.4,85.8 460.5,84.2 459.6,85.8 		"/>
	</g>
	<path class="st4" d="M379.5,410.5h78c1.1,0,2-0.9,2-2l1-323"/>
	<circle class="st0" cx="379.5" cy="410.5" r="2.2"/>
	<polygon class="st0" points="463.9,86.5 460.5,80.6 457.1,86.5 	"/>
	
		<use xlink:href="#dark_circle"  width="20" height="20" x="-10" y="-10" transform="matrix(1 0 0 1 240 350)" style="overflow:visible;"/>
	<g class="st7">
		<line class="st8" x1="359.2" y1="350.5" x2="382.2" y2="350.5"/>
		<circle class="st9" cx="359.2" cy="350.5" r="3.7"/>
		<polygon class="st9" points="382,351.4 383.5,350.5 382,349.6 		"/>
	</g>
	<line class="st4" x1="359.2" y1="350.5" x2="382.2" y2="350.5"/>
	<circle class="st0" cx="359.2" cy="350.5" r="2.2"/>
	<polygon class="st0" points="381.3,353.9 387.1,350.5 381.3,347.1 	"/>
	
		<use xlink:href="#dark_circle"  width="20" height="20" x="-10" y="-10" transform="matrix(1 0 0 1 270 70)" style="overflow:visible;"/>
	<path class="st4" d="M270,80v328c0,1.1,0.9,2,2,2h29"/>
	<path class="st0" d="M267.8,80c0-1.2,1-2.2,2.2-2.2c1.2,0,2.2,1,2.2,2.2c0,1.2-1,2.2-2.2,2.2S267.8,81.2,267.8,80
		C267.8,80,267.8,80,267.8,80z"/>
	<polygon class="st0" points="300,413.4 305.9,410 300,406.6 	"/>
	<line class="st4" x1="200" y1="80" x2="200" y2="330"/>
	<path class="st0" d="M197.8,80c0-1.2,1-2.2,2.2-2.2c1.2,0,2.2,1,2.2,2.2c0,1.2-1,2.2-2.2,2.2S197.8,81.2,197.8,80
		C197.8,80,197.8,80,197.8,80z"/>
	<polygon class="st0" points="196.6,329 200,334.9 203.4,329 	"/>
	<path class="st0" d="M379.1,21h3.7c1.1-0.1,2.1,0.2,3,0.8c0.8,0.6,1.2,1.6,1.1,2.5c0,0.6-0.1,1.1-0.3,1.7c-0.2,0.4-0.5,0.8-0.9,1.1
		c-0.4,0.3-0.9,0.5-1.3,0.7c-0.6,0.1-1.1,0.2-1.7,0.2h-2v4.5h-1.5V21z M380.6,22.4v4.3h2c0.4,0,0.7,0,1.1-0.1
		c0.3-0.1,0.6-0.2,0.9-0.4c0.2-0.2,0.4-0.4,0.6-0.7c0.1-0.3,0.2-0.7,0.2-1.1c0.1-0.6-0.2-1.1-0.7-1.5c-0.6-0.4-1.2-0.5-1.9-0.5
		L380.6,22.4z"/>
	<path class="st0" d="M395,31.8c-0.1,0.1-0.3,0.2-0.4,0.3c-0.2,0.1-0.4,0.2-0.6,0.3c-0.3,0.1-0.5,0.2-0.8,0.2
		c-0.3,0.1-0.7,0.1-1,0.1c-1.2,0.1-2.3-0.3-3.2-1.1c-0.8-0.9-1.2-2-1.1-3.2c0-0.6,0.1-1.2,0.3-1.8c0.2-0.5,0.5-1,0.8-1.4
		c0.4-0.4,0.8-0.7,1.2-0.9c0.5-0.2,1-0.3,1.6-0.3c0.5,0,1.1,0.1,1.6,0.3c0.5,0.2,0.9,0.5,1.2,0.9c0.3,0.4,0.5,0.9,0.6,1.5
		c0.1,0.7,0.1,1.3,0,2h-5.9c0,0.7,0.3,1.5,0.8,2c0.6,0.5,1.4,0.7,2.1,0.7c0.6,0,1.1-0.1,1.6-0.3c0.4-0.2,0.8-0.4,1.1-0.6L395,31.8z
		 M391.7,25.3c-0.6,0-1.1,0.2-1.6,0.6c-0.5,0.4-0.8,1-0.8,1.7h4.5c0.1-0.6-0.1-1.2-0.5-1.7C392.8,25.4,392.3,25.2,391.7,25.3
		L391.7,25.3z"/>
	<path class="st0" d="M397.6,29.9c0.2-0.7,0.3-1.5,0.3-2.2c0-0.9,0.1-2.1,0.1-3.5h5.6v8.3h-1.4v-7.1h-2.8c0,1.1,0,2.1-0.1,3
		c0,0.8-0.2,1.5-0.4,2.2c-0.1,0.5-0.4,1-0.8,1.4c-0.4,0.3-0.9,0.5-1.4,0.5h-0.3v-1.4h0.2C397.1,31.1,397.4,30.7,397.6,29.9z"/>
	<path class="st0" d="M407.2,30.5l4.4-6.4h1.4v8.3h-1.4v-6.4l-4.4,6.4h-1.4v-8.3h1.4V30.5z"/>
	<path class="st0" d="M421.3,30c0,0.4-0.1,0.8-0.3,1.2c-0.2,0.3-0.4,0.6-0.8,0.8c-0.3,0.2-0.7,0.4-1.1,0.5c-0.4,0.1-0.9,0.1-1.3,0.1
		c-0.5,0-1.1-0.1-1.6-0.2c-0.4-0.1-0.8-0.2-1.1-0.5v-1.3c0.4,0.2,0.8,0.4,1.2,0.5c0.5,0.1,1,0.2,1.5,0.2c0.5,0,1-0.1,1.5-0.3
		c0.4-0.2,0.6-0.6,0.6-1c0-0.4-0.2-0.8-0.5-1c-0.5-0.2-1-0.3-1.6-0.3h-1.1v-1.1h1.1c0.5,0,0.9-0.1,1.3-0.3c0.3-0.2,0.5-0.6,0.5-0.9
		c0-0.2,0-0.4-0.1-0.5c-0.1-0.2-0.2-0.3-0.4-0.4c-0.2-0.1-0.4-0.2-0.6-0.2c-0.2,0-0.5,0-0.7,0c-0.5,0-0.9,0.1-1.4,0.2
		c-0.4,0.1-0.8,0.3-1.1,0.5v-1.3c0.3-0.2,0.7-0.4,1.1-0.5c0.5-0.1,1-0.2,1.5-0.2c0.8-0.1,1.6,0.1,2.3,0.6c0.5,0.4,0.8,1,0.8,1.7
		c0,0.5-0.1,0.9-0.4,1.3c-0.3,0.3-0.8,0.6-1.2,0.6c0.6,0,1.1,0.3,1.5,0.6C421.1,29.1,421.3,29.6,421.3,30z"/>
	<path class="st0" d="M388,50.5h-1.5v-9.7l-3.2,2.4v-1.6l3.4-2.6h1.3V50.5z"/>
	<path class="st0" d="M393.2,50.6c-0.6,0-1-0.4-1-1c0-0.3,0.1-0.5,0.3-0.7c0.4-0.4,1.1-0.4,1.5,0c0.2,0.2,0.3,0.5,0.3,0.7
		c0,0.3-0.1,0.5-0.3,0.7C393.8,50.5,393.5,50.6,393.2,50.6z"/>
	<path class="st0" d="M403.8,47.2c0,0.5-0.1,1-0.3,1.4c-0.2,0.4-0.5,0.8-0.9,1.1c-0.4,0.3-0.8,0.5-1.3,0.7c-0.5,0.2-1.1,0.2-1.7,0.2
		c-0.7,0-1.3-0.1-1.9-0.3c-0.5-0.2-0.9-0.4-1.3-0.7v-1.6c0.4,0.4,0.8,0.7,1.3,0.9c0.6,0.3,1.3,0.4,1.9,0.4c0.7,0,1.3-0.2,1.9-0.6
		c0.5-0.4,0.7-1,0.7-1.6c0-0.6-0.2-1.1-0.6-1.5c-0.5-0.4-1.2-0.6-1.9-0.5h-1.5v-1.4h1.5c0.5,0,1.1-0.1,1.5-0.5
		c0.4-0.4,0.6-0.9,0.6-1.4c0-0.5-0.2-1-0.5-1.3c-0.4-0.3-1-0.5-1.5-0.5c-0.6,0-1.2,0.1-1.8,0.4c-0.5,0.3-0.9,0.6-1.3,0.9v-1.6
		c0.4-0.3,0.8-0.6,1.3-0.8c0.6-0.2,1.2-0.3,1.8-0.3c0.5,0,1,0.1,1.5,0.2c0.4,0.1,0.8,0.3,1.1,0.6c0.3,0.3,0.5,0.6,0.7,1
		c0.2,0.4,0.2,0.8,0.2,1.2c0,0.3,0,0.7-0.2,1c-0.1,0.3-0.2,0.5-0.4,0.8c-0.2,0.2-0.4,0.4-0.6,0.5c-0.2,0.1-0.5,0.3-0.8,0.3
		c0.3,0.1,0.7,0.2,1,0.3c0.3,0.1,0.6,0.3,0.8,0.6c0.2,0.2,0.4,0.5,0.5,0.8C403.8,46.5,403.8,46.8,403.8,47.2z"/>
	<path class="st0" d="M406.8,50.6c-0.6,0-1-0.4-1-1c0-0.3,0.1-0.5,0.3-0.7c0.4-0.4,1.1-0.4,1.5,0c0.2,0.2,0.3,0.5,0.3,0.7
		c0,0.3-0.1,0.5-0.3,0.7C407.4,50.5,407.1,50.6,406.8,50.6z"/>
	<path class="st0" d="M413.6,50.6c-0.5,0-1-0.1-1.5-0.3c-0.5-0.2-0.9-0.6-1.2-1.1c-0.4-0.6-0.6-1.2-0.8-1.8
		c-0.2-0.9-0.3-1.8-0.3-2.7c0-0.9,0.1-1.8,0.3-2.7c0.2-0.7,0.4-1.3,0.8-1.8c0.3-0.5,0.7-0.8,1.2-1.1c0.5-0.2,1-0.3,1.5-0.3
		c0.5,0,1,0.1,1.5,0.3c0.5,0.2,0.9,0.6,1.2,1c0.4,0.6,0.6,1.2,0.8,1.8c0.2,0.9,0.3,1.8,0.3,2.6c0,0.9-0.1,1.8-0.3,2.6
		c-0.2,0.7-0.4,1.3-0.8,1.8c-0.3,0.5-0.7,0.8-1.2,1.1C414.7,50.5,414.2,50.6,413.6,50.6z M413.6,49.4c0.7,0,1.4-0.4,1.7-1
		c0.2-0.5,0.4-0.9,0.4-1.4c0.1-0.7,0.2-1.4,0.1-2.2c0-0.7,0-1.4-0.1-2.2c-0.1-0.5-0.2-1-0.4-1.4c-0.2-0.3-0.4-0.6-0.7-0.8
		c-0.3-0.2-0.7-0.3-1-0.2c-0.7,0-1.4,0.4-1.7,1c-0.2,0.5-0.4,0.9-0.4,1.4c-0.2,1.4-0.2,2.9,0,4.3c0.1,0.5,0.2,1,0.4,1.4
		c0.2,0.3,0.4,0.6,0.7,0.8C412.9,49.3,413.3,49.4,413.6,49.4L413.6,49.4z"/>
	
		<use xlink:href="#dark_circle"  width="20" height="20" x="-10" y="-10" transform="matrix(1 0 0 1 400 70)" style="overflow:visible;"/>
	<path class="st0" d="M449.1,21h3.7c1.1-0.1,2.1,0.2,3,0.8c0.8,0.6,1.2,1.6,1.1,2.5c0,0.6-0.1,1.1-0.3,1.7c-0.2,0.4-0.5,0.8-0.9,1.1
		c-0.4,0.3-0.9,0.5-1.3,0.7c-0.6,0.1-1.1,0.2-1.7,0.2h-2v4.5h-1.5V21z M450.6,22.4v4.3h2c0.4,0,0.7,0,1.1-0.1
		c0.3-0.1,0.6-0.2,0.9-0.4c0.2-0.2,0.4-0.4,0.6-0.7c0.1-0.3,0.2-0.7,0.2-1.1c0.1-0.6-0.2-1.1-0.7-1.5c-0.6-0.4-1.2-0.5-1.9-0.5
		L450.6,22.4z"/>
	<path class="st0" d="M465,31.8c-0.1,0.1-0.3,0.2-0.4,0.3c-0.2,0.1-0.4,0.2-0.6,0.3c-0.3,0.1-0.5,0.2-0.8,0.2
		c-0.3,0.1-0.7,0.1-1,0.1c-1.2,0.1-2.3-0.3-3.2-1.1c-0.8-0.9-1.2-2-1.1-3.2c0-0.6,0.1-1.2,0.3-1.8c0.2-0.5,0.5-1,0.8-1.4
		c0.4-0.4,0.8-0.7,1.2-0.9c0.5-0.2,1-0.3,1.6-0.3c0.5,0,1.1,0.1,1.6,0.3c0.5,0.2,0.9,0.5,1.2,0.9c0.3,0.4,0.5,0.9,0.6,1.5
		c0.1,0.7,0.1,1.3,0,2h-5.9c0,0.7,0.3,1.5,0.8,2c0.6,0.5,1.4,0.7,2.1,0.7c0.6,0,1.1-0.1,1.6-0.3c0.4-0.2,0.8-0.4,1.1-0.6L465,31.8z
		 M461.7,25.3c-0.6,0-1.1,0.2-1.6,0.6c-0.5,0.4-0.8,1-0.8,1.7h4.5c0.1-0.6-0.1-1.2-0.5-1.7C462.8,25.4,462.3,25.2,461.7,25.3
		L461.7,25.3z"/>
	<path class="st0" d="M467.6,29.9c0.2-0.7,0.3-1.5,0.3-2.2c0-0.9,0.1-2.1,0.1-3.5h5.6v8.3h-1.4v-7.1h-2.8c0,1.1,0,2.1-0.1,3
		c0,0.8-0.2,1.5-0.4,2.2c-0.1,0.5-0.4,1-0.8,1.4c-0.4,0.3-0.9,0.5-1.4,0.5h-0.3v-1.4h0.2C467.1,31.1,467.4,30.7,467.6,29.9z"/>
	<path class="st0" d="M477.2,30.5l4.4-6.4h1.4v8.3h-1.4v-6.4l-4.4,6.4h-1.4v-8.3h1.4V30.5z"/>
	<path class="st0" d="M491.3,30c0,0.4-0.1,0.8-0.3,1.2c-0.2,0.3-0.4,0.6-0.8,0.8c-0.3,0.2-0.7,0.4-1.1,0.5c-0.4,0.1-0.9,0.1-1.3,0.1
		c-0.5,0-1.1-0.1-1.6-0.2c-0.4-0.1-0.8-0.2-1.1-0.5v-1.3c0.4,0.2,0.8,0.4,1.2,0.5c0.5,0.1,1,0.2,1.5,0.2c0.5,0,1-0.1,1.5-0.3
		c0.4-0.2,0.6-0.6,0.6-1c0-0.4-0.2-0.8-0.5-1c-0.5-0.2-1-0.3-1.6-0.3h-1.1v-1.1h1.1c0.5,0,0.9-0.1,1.3-0.3c0.3-0.2,0.5-0.6,0.5-0.9
		c0-0.2,0-0.4-0.1-0.5c-0.1-0.2-0.2-0.3-0.4-0.4c-0.2-0.1-0.4-0.2-0.6-0.2c-0.2,0-0.5,0-0.7,0c-0.5,0-0.9,0.1-1.4,0.2
		c-0.4,0.1-0.8,0.3-1.1,0.5v-1.3c0.3-0.2,0.7-0.4,1.1-0.5c0.5-0.1,1-0.2,1.5-0.2c0.8-0.1,1.6,0.1,2.3,0.6c0.5,0.4,0.8,1,0.8,1.7
		c0,0.5-0.1,0.9-0.4,1.3c-0.3,0.3-0.8,0.6-1.2,0.6c0.6,0,1.1,0.3,1.5,0.6C491.1,29.1,491.3,29.6,491.3,30z"/>
	<path class="st0" d="M458,50.5h-1.5v-9.7l-3.2,2.4v-1.6l3.4-2.6h1.3V50.5z"/>
	<path class="st0" d="M463.2,50.6c-0.6,0-1-0.4-1-1c0-0.3,0.1-0.5,0.3-0.7c0.4-0.4,1.1-0.4,1.5,0c0.2,0.2,0.3,0.5,0.3,0.7
		c0,0.3-0.1,0.5-0.3,0.7C463.8,50.5,463.5,50.6,463.2,50.6z"/>
	<path class="st0" d="M472.4,47.8v2.7H471v-2.7h-5v-1l4.5-7.8h1.9v7.5h1.6v1.2H472.4z M471,46.5v-6l-3.5,6H471z"/>
	<path class="st0" d="M476.8,50.6c-0.6,0-1-0.4-1-1c0-0.3,0.1-0.5,0.3-0.7c0.4-0.4,1.1-0.4,1.5,0c0.2,0.2,0.3,0.5,0.3,0.7
		c0,0.3-0.1,0.5-0.3,0.7C477.4,50.5,477.1,50.6,476.8,50.6z"/>
	<path class="st0" d="M483.6,50.6c-0.5,0-1-0.1-1.5-0.3c-0.5-0.2-0.9-0.6-1.2-1.1c-0.4-0.6-0.6-1.2-0.8-1.8
		c-0.2-0.9-0.3-1.8-0.3-2.7c0-0.9,0.1-1.8,0.3-2.7c0.2-0.7,0.4-1.3,0.8-1.8c0.3-0.5,0.7-0.8,1.2-1.1c0.5-0.2,1-0.3,1.5-0.3
		c0.5,0,1,0.1,1.5,0.3c0.5,0.2,0.9,0.6,1.2,1c0.4,0.6,0.6,1.2,0.8,1.8c0.2,0.9,0.3,1.8,0.3,2.6c0,0.9-0.1,1.8-0.3,2.6
		c-0.2,0.7-0.4,1.3-0.8,1.8c-0.3,0.5-0.7,0.8-1.2,1.1C484.7,50.5,484.2,50.6,483.6,50.6z M483.6,49.4c0.7,0,1.4-0.4,1.7-1
		c0.2-0.5,0.4-0.9,0.4-1.4c0.1-0.7,0.2-1.4,0.1-2.2c0-0.7,0-1.4-0.1-2.2c-0.1-0.5-0.2-1-0.4-1.4c-0.2-0.3-0.4-0.6-0.7-0.8
		c-0.3-0.2-0.7-0.3-1-0.2c-0.7,0-1.4,0.4-1.7,1c-0.2,0.5-0.4,0.9-0.4,1.4c-0.2,1.4-0.2,2.9,0,4.3c0.1,0.5,0.2,1,0.4,1.4
		c0.2,0.3,0.4,0.6,0.7,0.8C482.9,49.3,483.3,49.4,483.6,49.4L483.6,49.4z"/>
	
		<use xlink:href="#dark_circle"  width="20" height="20" x="-10" y="-10" transform="matrix(1 0 0 1 470 70)" style="overflow:visible;"/>
	<path class="st0" d="M578.1,21h3.7c1.1-0.1,2.1,0.2,3,0.8c0.8,0.6,1.2,1.6,1.1,2.5c0,0.6-0.1,1.1-0.3,1.7c-0.2,0.4-0.5,0.8-0.9,1.1
		c-0.4,0.3-0.9,0.5-1.3,0.7c-0.6,0.1-1.1,0.2-1.7,0.2h-2v4.5h-1.5V21z M579.6,22.4v4.3h2c0.4,0,0.7,0,1.1-0.1
		c0.3-0.1,0.6-0.2,0.8-0.4c0.2-0.2,0.4-0.4,0.6-0.7c0.1-0.3,0.2-0.7,0.2-1.1c0.1-0.6-0.2-1.1-0.7-1.5c-0.6-0.4-1.2-0.5-1.9-0.5
		L579.6,22.4z"/>
	<path class="st0" d="M594,31.8c-0.1,0.1-0.3,0.2-0.4,0.3c-0.2,0.1-0.4,0.2-0.6,0.3c-0.3,0.1-0.5,0.2-0.8,0.2
		c-0.3,0.1-0.7,0.1-1,0.1c-1.2,0.1-2.3-0.3-3.2-1.1c-0.8-0.9-1.2-2-1.1-3.2c0-0.6,0.1-1.2,0.3-1.8c0.2-0.5,0.5-1,0.8-1.4
		c0.4-0.4,0.8-0.7,1.2-0.9c0.5-0.2,1-0.3,1.6-0.3c0.5,0,1.1,0.1,1.6,0.3c0.5,0.2,0.9,0.5,1.2,0.9c0.3,0.4,0.5,0.9,0.6,1.5
		c0.1,0.7,0.1,1.3,0,2h-5.9c0,0.7,0.3,1.5,0.8,2c0.6,0.5,1.4,0.7,2.1,0.7c0.6,0,1.1-0.1,1.7-0.3c0.4-0.2,0.8-0.4,1.2-0.6L594,31.8z
		 M590.7,25.3c-0.6,0-1.1,0.2-1.6,0.6c-0.5,0.4-0.8,1-0.8,1.7h4.5c0.1-0.6-0.1-1.2-0.5-1.7C591.8,25.4,591.3,25.2,590.7,25.3
		L590.7,25.3z"/>
	<path class="st0" d="M596.6,29.9c0.2-0.7,0.3-1.5,0.3-2.2c0-0.9,0.1-2.1,0.1-3.5h5.6v8.3h-1.4v-7.1h-2.8c0,1.1,0,2.1-0.1,3
		c0,0.8-0.2,1.5-0.4,2.2c-0.1,0.5-0.4,1-0.8,1.4c-0.4,0.3-0.9,0.5-1.4,0.5h-0.3v-1.4h0.2C596.1,31.1,596.4,30.7,596.6,29.9z"/>
	<path class="st0" d="M606.2,30.5l4.4-6.4h1.4v8.3h-1.4v-6.4l-4.4,6.4h-1.4v-8.3h1.4L606.2,30.5z"/>
	<path class="st0" d="M620.3,30c0,0.4-0.1,0.8-0.3,1.2c-0.2,0.3-0.4,0.6-0.8,0.8c-0.3,0.2-0.7,0.4-1.1,0.5c-0.4,0.1-0.9,0.1-1.3,0.1
		c-0.5,0-1.1-0.1-1.6-0.2c-0.4-0.1-0.8-0.2-1.1-0.5v-1.3c0.4,0.2,0.8,0.4,1.2,0.5c0.5,0.1,1,0.2,1.5,0.2c0.5,0,1-0.1,1.5-0.3
		c0.4-0.2,0.6-0.6,0.6-1c0-0.4-0.2-0.8-0.5-1c-0.5-0.2-1-0.3-1.6-0.3h-1.1v-1.1h1.2c0.5,0,0.9-0.1,1.3-0.3c0.3-0.2,0.5-0.6,0.5-0.9
		c0-0.2,0-0.4-0.2-0.5c-0.1-0.2-0.2-0.3-0.4-0.4c-0.2-0.1-0.4-0.2-0.6-0.2c-0.2,0-0.5,0-0.7,0c-0.5,0-0.9,0.1-1.4,0.2
		c-0.4,0.1-0.8,0.3-1.1,0.5v-1.3c0.3-0.2,0.7-0.4,1.1-0.5c0.5-0.1,1-0.2,1.5-0.2c0.8-0.1,1.6,0.1,2.3,0.6c0.5,0.4,0.8,1,0.8,1.7
		c0,0.5-0.1,0.9-0.4,1.3c-0.3,0.3-0.8,0.6-1.2,0.6c0.6,0,1.1,0.3,1.5,0.6C620.1,29.1,620.3,29.6,620.3,30z"/>
	<path class="st0" d="M587,50.5h-1.5v-9.7l-3.2,2.4v-1.6l3.4-2.6h1.3V50.5z"/>
	<path class="st0" d="M592.2,50.6c-0.6,0-1-0.4-1-1c0-0.3,0.1-0.5,0.3-0.7c0.4-0.4,1.1-0.4,1.5,0c0.2,0.2,0.3,0.5,0.3,0.7
		c0,0.3-0.1,0.5-0.3,0.7C592.8,50.5,592.5,50.6,592.2,50.6z"/>
	<path class="st0" d="M603,46.7c0,0.5-0.1,1.1-0.3,1.6c-0.2,0.5-0.5,0.9-0.8,1.2c-0.3,0.4-0.8,0.6-1.2,0.8c-0.5,0.2-1,0.3-1.5,0.3
		c-0.6,0-1.3-0.1-1.8-0.4c-0.5-0.2-0.9-0.6-1.2-1c-0.3-0.5-0.6-1-0.7-1.6c-0.2-0.7-0.2-1.3-0.2-2c0-0.9,0.1-1.8,0.3-2.8
		c0.1-0.8,0.4-1.5,0.8-2.1c0.4-0.6,0.8-1,1.4-1.4c0.6-0.3,1.4-0.5,2.1-0.5c0.5,0,1,0,1.4,0.2c0.3,0.1,0.7,0.2,1,0.4v1.4
		c-0.7-0.5-1.6-0.7-2.4-0.7c-0.5,0-0.9,0.1-1.3,0.3c-0.4,0.2-0.7,0.5-1,0.9c-0.3,0.4-0.5,0.8-0.6,1.3c-0.2,0.5-0.3,1.1-0.3,1.6
		c0.3-0.4,0.7-0.8,1.2-1.1c0.5-0.2,1-0.4,1.5-0.3c0.5,0,1,0.1,1.4,0.2c0.4,0.2,0.8,0.4,1.2,0.8c0.3,0.3,0.6,0.8,0.8,1.2
		C602.9,45.6,603,46.2,603,46.7z M599.2,49.3c0.6,0,1.2-0.2,1.6-0.7c0.2-0.2,0.4-0.5,0.5-0.8c0.1-0.4,0.2-0.8,0.2-1.2
		c0-0.4-0.1-0.8-0.2-1.1c-0.1-0.3-0.3-0.6-0.5-0.8c-0.2-0.2-0.4-0.4-0.7-0.5c-0.2-0.1-0.5-0.2-0.8-0.2c-0.3,0-0.7,0.1-1,0.2
		c-0.3,0.1-0.6,0.3-0.8,0.5c-0.2,0.2-0.4,0.5-0.5,0.8c-0.1,0.4-0.2,0.8-0.2,1.2c0,0.7,0.2,1.3,0.6,1.9
		C597.9,49.1,598.5,49.4,599.2,49.3L599.2,49.3z"/>
	<path class="st0" d="M605.8,50.6c-0.6,0-1-0.4-1-1c0-0.3,0.1-0.5,0.3-0.7c0.4-0.4,1.1-0.4,1.5,0c0.2,0.2,0.3,0.5,0.3,0.7
		c0,0.3-0.1,0.5-0.3,0.7C606.4,50.5,606.1,50.6,605.8,50.6z"/>
	<path class="st0" d="M612.6,50.6c-0.5,0-1-0.1-1.5-0.3c-0.5-0.2-0.9-0.6-1.2-1.1c-0.4-0.6-0.6-1.2-0.8-1.8
		c-0.2-0.9-0.3-1.8-0.3-2.7c0-0.9,0.1-1.8,0.3-2.7c0.2-0.7,0.4-1.3,0.8-1.8c0.3-0.5,0.7-0.8,1.2-1.1c0.5-0.2,1-0.3,1.5-0.3
		c0.5,0,1,0.1,1.5,0.3c0.5,0.2,0.9,0.6,1.2,1c0.4,0.6,0.6,1.2,0.8,1.8c0.2,0.9,0.3,1.8,0.3,2.6c0,0.9-0.1,1.8-0.3,2.6
		c-0.2,0.7-0.4,1.3-0.8,1.8c-0.3,0.5-0.7,0.8-1.2,1.1C613.7,50.5,613.2,50.6,612.6,50.6z M612.6,49.4c0.7,0,1.4-0.4,1.7-1
		c0.2-0.5,0.4-0.9,0.4-1.4c0.1-0.7,0.2-1.4,0.2-2.2c0-0.7,0-1.4-0.1-2.2c-0.1-0.5-0.2-1-0.4-1.4c-0.2-0.3-0.4-0.6-0.7-0.8
		c-0.3-0.2-0.7-0.3-1-0.2c-0.7,0-1.4,0.4-1.7,1c-0.2,0.5-0.4,0.9-0.4,1.4c-0.2,1.4-0.2,2.9,0,4.3c0.1,0.5,0.2,1,0.4,1.4
		c0.2,0.3,0.4,0.6,0.7,0.8C611.9,49.3,612.3,49.4,612.6,49.4L612.6,49.4z"/>
	
		<use xlink:href="#dark_circle"  width="20" height="20" x="-10" y="-10" transform="matrix(1 0 0 1 600 70)" style="overflow:visible;"/>
	<path class="st0" d="M452,498.2l6.3-9.5h1.6v11.5h-1.5v-9.4l-6.3,9.4h-1.6v-11.5h1.5V498.2z"/>
	<path class="st0" d="M466,500.3c-0.6,0-1.2-0.1-1.7-0.3c-0.5-0.2-0.9-0.5-1.3-0.9c-0.4-0.4-0.7-0.8-0.8-1.4
		c-0.2-0.6-0.3-1.2-0.3-1.8c0-0.6,0.1-1.2,0.3-1.8c0.2-0.5,0.5-1,0.8-1.4c0.4-0.4,0.8-0.7,1.3-0.9c1-0.3,2.1-0.4,3.2-0.1
		c0.4,0.1,0.7,0.3,1.1,0.5v1.3c-0.4-0.2-0.7-0.4-1.1-0.5c-0.5-0.1-0.9-0.1-1.4-0.1c-0.8-0.1-1.6,0.2-2.1,0.8
		c-0.5,0.7-0.7,1.5-0.7,2.3c-0.1,0.8,0.2,1.6,0.7,2.3c0.5,0.5,1.3,0.8,2.1,0.8c0.5,0,0.9-0.1,1.4-0.2c0.4-0.1,0.8-0.3,1.1-0.5v1.2
		C467.7,500.2,466.8,500.4,466,500.3L466,500.3z"/>
	<path class="st0" d="M470.4,491.9h6.6v8.3h-1.4v-7.1h-3.9v7.1h-1.4L470.4,491.9z"/>
	<path class="st0" d="M483.5,500.3c-0.6,0-1.2-0.1-1.6-0.5c-0.5-0.3-0.9-0.7-1.1-1.2v4.4h-1.4v-11.1h1.2l0.1,1.6
		c0.3-0.5,0.6-1,1.1-1.3c0.5-0.3,1.1-0.5,1.8-0.5c0.5,0,1,0.1,1.4,0.3c0.4,0.2,0.8,0.5,1.2,0.8c0.4,0.4,0.6,0.9,0.8,1.4
		c0.4,1.2,0.4,2.6,0,3.8c-0.2,0.5-0.5,1-0.8,1.4c-0.3,0.4-0.7,0.6-1.2,0.8C484.5,500.3,484,500.3,483.5,500.3z M483.3,499.1
		c0.7,0,1.3-0.3,1.8-0.8c0.9-1.4,0.9-3.2,0-4.6c-0.5-0.5-1.1-0.8-1.8-0.8c-0.3,0-0.7,0.1-1,0.2c-0.3,0.1-0.6,0.3-0.8,0.6
		c-0.2,0.3-0.4,0.6-0.5,1c-0.3,0.9-0.3,1.8,0,2.7c0.1,0.4,0.3,0.7,0.5,1c0.2,0.3,0.5,0.5,0.8,0.6C482.6,499,483,499.1,483.3,499.1
		L483.3,499.1z"/>
	<path class="st0" d="M493.7,498.6c-0.1,0.2-0.2,0.4-0.4,0.6c-0.2,0.2-0.3,0.4-0.6,0.6c-0.2,0.2-0.5,0.3-0.8,0.4
		c-0.3,0.1-0.7,0.2-1.1,0.2c-0.7,0-1.3-0.2-1.8-0.6c-0.5-0.5-0.7-1.1-0.7-1.8c-0.1-0.8,0.3-1.5,1-2c0.8-0.5,1.8-0.7,2.7-0.6h1.6
		v-0.7c0-0.5-0.1-0.9-0.5-1.2c-0.5-0.3-1-0.4-1.5-0.4c-0.5,0-1,0.1-1.5,0.2c-0.4,0.2-0.8,0.3-1.2,0.6v-1.3c0.4-0.2,0.8-0.4,1.2-0.5
		c0.5-0.2,1.1-0.3,1.7-0.3c0.8-0.1,1.7,0.2,2.4,0.6c0.6,0.5,0.9,1.2,0.8,2v4.5c0,0.1,0,0.2,0,0.3s0,0.2,0,0.4s0,0.2,0,0.4
		s0,0.2,0,0.3h-1.3c0-0.2-0.1-0.4-0.1-0.6c0-0.2,0-0.5,0-0.7L493.7,498.6z M491.2,499.1c0.4,0,0.8-0.1,1.1-0.3
		c0.3-0.2,0.5-0.4,0.8-0.6c0.2-0.2,0.3-0.4,0.4-0.7c0.1-0.2,0.1-0.3,0.1-0.5v-0.6h-1.4c-0.6,0-1.3,0.1-1.8,0.4
		c-0.4,0.2-0.6,0.6-0.6,1.1c0,0.3,0.1,0.7,0.3,0.9C490.5,499,490.9,499.1,491.2,499.1z"/>
	<path class="st0" d="M497.3,491.9h3.1c0.8-0.1,1.6,0.1,2.3,0.5c0.5,0.4,0.8,1,0.8,1.6c0,0.4-0.1,0.8-0.4,1.2
		c-0.3,0.3-0.7,0.5-1.1,0.6c1,0,1.8,0.9,1.8,1.9c0,0,0,0.1,0,0.1c0,0.4-0.1,0.8-0.2,1.1c-0.2,0.3-0.4,0.6-0.7,0.8
		c-0.3,0.2-0.7,0.3-1.1,0.4c-0.5,0.1-0.9,0.1-1.4,0.1h-3.1L497.3,491.9z M498.7,493.1v2.2h1.6c0.4,0,0.9-0.1,1.3-0.3
		c0.5-0.3,0.6-0.9,0.4-1.4c-0.1-0.2-0.2-0.3-0.4-0.4c-0.4-0.2-0.8-0.3-1.2-0.2H498.7z M498.7,496.4v2.6h1.6c0.3,0,0.5,0,0.8,0
		c0.2,0,0.4-0.1,0.6-0.2c0.2-0.1,0.3-0.2,0.4-0.4c0.1-0.2,0.1-0.4,0.1-0.6c0-0.4-0.2-0.8-0.5-1c-0.5-0.2-1-0.3-1.5-0.3L498.7,496.4z
		"/>
	<path class="st0" d="M506.4,497.6c0.2-0.7,0.3-1.5,0.3-2.2c0-0.9,0.1-2.1,0.1-3.5h5.6v8.3h-1.4v-7.1h-2.8c0,1.1,0,2.1-0.1,3
		c0,0.8-0.2,1.5-0.4,2.2c-0.1,0.5-0.4,1-0.8,1.4c-0.4,0.3-0.9,0.5-1.4,0.5h-0.3v-1.4h0.2C505.9,498.8,506.2,498.4,506.4,497.6z"/>
	<path class="st0" d="M521.3,499.5c-0.1,0.1-0.3,0.2-0.4,0.3c-0.2,0.1-0.4,0.2-0.6,0.3c-0.3,0.1-0.5,0.2-0.8,0.2
		c-0.3,0.1-0.7,0.1-1,0.1c-1.2,0.1-2.3-0.3-3.2-1.1c-0.8-0.9-1.2-2-1.1-3.2c0-0.6,0.1-1.2,0.3-1.8c0.2-0.5,0.5-1,0.8-1.4
		c0.3-0.4,0.8-0.7,1.2-0.9c0.5-0.2,1-0.3,1.6-0.3c0.5,0,1.1,0.1,1.6,0.3c0.5,0.2,0.9,0.5,1.2,0.9c0.3,0.4,0.5,0.9,0.6,1.5
		c0.1,0.7,0.1,1.3,0,2h-5.9c0,0.7,0.3,1.5,0.8,2c0.6,0.5,1.4,0.7,2.2,0.7c0.6,0,1.1-0.1,1.6-0.3c0.4-0.2,0.8-0.4,1.2-0.6
		L521.3,499.5z M518,493c-0.6,0-1.1,0.2-1.6,0.6c-0.5,0.4-0.8,1-0.8,1.7h4.4c0.1-0.6-0.1-1.2-0.5-1.7C519.1,493.2,518.5,493,518,493
		z"/>
	<path class="st0" d="M528.7,496.5h-4v3.7h-1.4v-8.3h1.4v3.4h4v-3.4h1.4v8.3h-1.4V496.5z"/>
	<path class="st0" d="M533.8,498.2l4.4-6.4h1.4v8.3h-1.4v-6.4l-4.4,6.4h-1.4v-8.3h1.4V498.2z"/>
	<path class="st0" d="M542,494.6c0-0.4,0.1-0.8,0.2-1.2c0.2-0.3,0.4-0.6,0.7-0.8c0.3-0.2,0.7-0.4,1-0.5c0.5-0.1,0.9-0.2,1.4-0.2h2.7
		v8.3h-1.4v-3h-1.5l-2.1,3h-1.7l2.4-3.4c-0.5-0.1-1-0.4-1.3-0.8C542.1,495.6,542,495.1,542,494.6z M546.7,496v-2.9h-1.3
		c-0.5,0-1,0.1-1.5,0.3c-0.4,0.2-0.6,0.6-0.6,1.1c0,0.4,0.2,0.9,0.5,1.1c0.4,0.3,1,0.4,1.5,0.3L546.7,496z"/>
	<path class="st0" d="M553.9,491.9h6.7v8.3h-1.4v-7.1h-3.8v7.1h-1.4V491.9z"/>
	<path class="st0" d="M566.3,500.3c-0.5,0-1.1-0.1-1.6-0.3c-0.5-0.2-0.9-0.5-1.3-0.8c-0.4-0.4-0.7-0.8-0.8-1.4
		c-0.2-0.6-0.3-1.2-0.3-1.8c0-0.6,0.1-1.2,0.3-1.8c0.2-0.5,0.5-1,0.8-1.4c0.4-0.4,0.8-0.6,1.3-0.8c1-0.4,2.2-0.4,3.2,0
		c0.5,0.2,0.9,0.5,1.3,0.8c0.4,0.4,0.7,0.8,0.8,1.4c0.2,0.6,0.3,1.2,0.3,1.8c0,0.6-0.1,1.3-0.3,1.8c-0.2,0.5-0.5,1-0.8,1.4
		c-0.4,0.4-0.8,0.7-1.3,0.8C567.4,500.2,566.8,500.3,566.3,500.3z M566.3,499.1c0.3,0,0.7-0.1,1-0.2c0.3-0.1,0.6-0.3,0.8-0.6
		c0.3-0.3,0.4-0.6,0.5-1c0.3-0.9,0.3-1.8,0-2.7c-0.1-0.4-0.3-0.7-0.5-1c-0.2-0.2-0.5-0.4-0.8-0.6c-0.3-0.1-0.7-0.2-1-0.2
		c-0.3,0-0.7,0.1-1,0.2c-0.3,0.1-0.6,0.3-0.8,0.6c-0.3,0.3-0.4,0.6-0.5,1c-0.3,0.9-0.3,1.8,0,2.7c0.1,0.4,0.3,0.7,0.5,1
		c0.2,0.2,0.5,0.4,0.8,0.6C565.6,499,565.9,499.1,566.3,499.1z"/>
	<path class="st0" d="M427.4,517.3c-0.6,0-1.2-0.1-1.6-0.5c-0.5-0.3-0.9-0.7-1.1-1.2v4.3h-1.4v-11.1h1.2l0.1,1.6
		c0.3-0.5,0.6-1,1.1-1.3c0.5-0.3,1.1-0.5,1.7-0.5c0.5,0,0.9,0.1,1.4,0.3c0.4,0.2,0.8,0.5,1.2,0.8c0.4,0.4,0.6,0.9,0.8,1.4
		c0.2,0.6,0.3,1.2,0.3,1.9c0,0.6-0.1,1.3-0.3,1.9c-0.2,0.5-0.5,1-0.8,1.3c-0.3,0.4-0.7,0.6-1.2,0.8
		C428.4,517.2,427.9,517.3,427.4,517.3z M427.2,516.1c0.7,0,1.3-0.3,1.8-0.8c0.9-1.4,0.9-3.2,0-4.6c-0.5-0.5-1.1-0.8-1.8-0.8
		c-0.3,0-0.7,0.1-1,0.2c-0.3,0.1-0.6,0.3-0.8,0.6c-0.2,0.3-0.4,0.6-0.5,1c-0.3,0.9-0.3,1.8,0,2.7c0.1,0.4,0.3,0.7,0.5,1
		c0.2,0.3,0.5,0.5,0.8,0.6C426.6,516,426.9,516.1,427.2,516.1z"/>
	<path class="st0" d="M439.5,516.5c-0.1,0.1-0.3,0.2-0.4,0.3c-0.2,0.1-0.4,0.2-0.6,0.3c-0.3,0.1-0.6,0.2-0.8,0.2
		c-0.3,0.1-0.7,0.1-1,0.1c-1.2,0.1-2.3-0.3-3.2-1.1c-0.8-0.9-1.2-2-1.1-3.2c0-0.6,0.1-1.2,0.3-1.8c0.2-0.5,0.5-1,0.8-1.4
		c0.4-0.4,0.8-0.7,1.2-0.9c0.5-0.2,1-0.3,1.6-0.3c0.5,0,1.1,0.1,1.6,0.3c0.5,0.2,0.9,0.5,1.2,0.9c0.3,0.4,0.5,0.9,0.6,1.5
		c0.1,0.7,0.1,1.3,0,2h-5.9c0,0.7,0.3,1.5,0.8,2c0.6,0.5,1.4,0.7,2.1,0.7c0.6,0,1.1-0.1,1.6-0.3c0.4-0.2,0.8-0.4,1.1-0.6
		L439.5,516.5z M436.2,510c-0.6,0-1.1,0.2-1.6,0.6c-0.5,0.4-0.8,1-0.8,1.7h4.5c0.1-0.6-0.1-1.2-0.5-1.7
		C437.3,510.2,436.7,510,436.2,510z"/>
	<path class="st0" d="M447.4,514.8c0,0.4-0.1,0.8-0.3,1.2c-0.2,0.3-0.4,0.6-0.8,0.8c-0.3,0.2-0.7,0.4-1.1,0.5
		c-0.4,0.1-0.9,0.1-1.3,0.1c-0.5,0-1.1-0.1-1.6-0.2c-0.4-0.1-0.8-0.3-1.1-0.5v-1.3c0.4,0.2,0.8,0.4,1.2,0.5c0.5,0.1,1,0.2,1.5,0.2
		c0.5,0,1-0.1,1.5-0.3c0.6-0.3,0.8-1.1,0.4-1.6c-0.1-0.1-0.2-0.3-0.3-0.4c-0.5-0.2-1-0.3-1.6-0.3h-1.1v-1.1h1.2
		c0.5,0,0.9-0.1,1.3-0.3c0.3-0.2,0.5-0.6,0.5-0.9c0-0.2,0-0.4-0.1-0.5c-0.1-0.2-0.2-0.3-0.4-0.4c-0.2-0.1-0.4-0.2-0.6-0.2
		c-0.2,0-0.5-0.1-0.7,0c-0.5,0-0.9,0.1-1.4,0.2c-0.4,0.1-0.8,0.3-1.1,0.5v-1.3c0.3-0.2,0.7-0.4,1.1-0.5c0.5-0.1,1-0.2,1.5-0.2
		c0.8-0.1,1.6,0.1,2.3,0.6c0.5,0.4,0.8,1,0.8,1.7c0,0.5-0.1,0.9-0.4,1.3c-0.3,0.3-0.8,0.6-1.2,0.6c0.6,0,1.1,0.3,1.5,0.6
		C447.2,513.8,447.4,514.3,447.4,514.8z"/>
	<path class="st0" d="M452.7,518.4c-0.2,0.4-0.4,0.7-0.7,1c-0.3,0.3-0.6,0.5-0.9,0.6c-0.4,0.1-0.8,0.2-1.1,0.2c-0.2,0-0.4,0-0.6,0
		c-0.2,0-0.3-0.1-0.5-0.1v-1.3c0.1,0.1,0.3,0.2,0.4,0.2c0.2,0.1,0.4,0.1,0.6,0.1c0.4,0,0.7-0.1,1-0.3c0.3-0.2,0.6-0.6,0.7-0.9
		l-3.4-8.9h1.5l2.6,7l2.6-7h1.4l-3.1,8.2C453.2,517.6,453,518,452.7,518.4z"/>
	<path class="st0" d="M457.8,514.6c0.2-0.7,0.3-1.5,0.3-2.2c0-0.9,0.1-2.1,0.1-3.5h5.6v8.3h-1.4v-7.1h-2.8c0,1.1,0,2.1-0.1,3
		c0,0.8-0.2,1.5-0.4,2.2c-0.1,0.5-0.4,1-0.8,1.4c-0.4,0.3-0.9,0.5-1.4,0.5h-0.3v-1.4h0.2C457.3,515.8,457.6,515.4,457.8,514.6z"/>
	<path class="st0" d="M472.2,514.4c0,0.4-0.1,0.9-0.2,1.2c-0.2,0.3-0.4,0.6-0.7,0.9c-0.3,0.2-0.7,0.4-1.1,0.5
		c-0.5,0.1-0.9,0.2-1.4,0.2H466v-8.3h1.4v2.9h1.5c0.9,0,1.7,0.2,2.5,0.6C472,512.9,472.3,513.6,472.2,514.4z M467.4,513v3h1.4
		c0.5,0,1-0.1,1.5-0.3c0.4-0.2,0.6-0.7,0.6-1.2c0-0.5-0.2-0.9-0.5-1.2c-0.4-0.3-0.9-0.4-1.4-0.4L467.4,513z"/>
	<path class="st0" d="M476.6,510.1v7.1h-1.4v-7.1h-2.6v-1.2h6.7v1.2L476.6,510.1z"/>
	<path class="st0" d="M485.5,515.6c-0.1,0.2-0.2,0.4-0.4,0.6c-0.2,0.2-0.3,0.4-0.6,0.6c-0.2,0.2-0.5,0.3-0.8,0.4
		c-0.3,0.1-0.7,0.2-1.1,0.2c-0.7,0-1.3-0.2-1.8-0.6c-0.5-0.5-0.7-1.1-0.7-1.8c0-0.8,0.3-1.6,1-2c0.8-0.5,1.8-0.7,2.7-0.6h1.5v-0.7
		c0-0.5-0.1-0.9-0.4-1.2c-0.5-0.3-1-0.4-1.5-0.4c-0.5,0-1,0.1-1.5,0.2c-0.4,0.2-0.8,0.3-1.2,0.6v-1.3c0.4-0.2,0.8-0.4,1.2-0.5
		c0.5-0.2,1.1-0.3,1.7-0.3c0.8-0.1,1.7,0.2,2.4,0.6c0.6,0.5,0.9,1.2,0.8,2v4.5c0,0.1,0,0.2,0,0.3s0,0.2,0,0.4s0,0.2,0,0.4
		s0,0.2,0,0.3h-1.3c0-0.2,0-0.4-0.1-0.6c0-0.3,0-0.5,0-0.7L485.5,515.6z M483,516.1c0.4,0,0.8-0.1,1.1-0.3c0.3-0.2,0.5-0.4,0.8-0.6
		c0.2-0.2,0.3-0.4,0.4-0.7c0.1-0.2,0.1-0.3,0.1-0.5v-0.6H484c-0.6,0-1.3,0.1-1.8,0.4c-0.4,0.2-0.6,0.6-0.6,1.1
		c0,0.3,0.1,0.7,0.3,0.9C482.2,516,482.6,516.1,483,516.1L483,516.1z"/>
	<path class="st0" d="M492.3,510.1v7.1h-1.4v-7.1h-2.6v-1.2h6.7v1.2L492.3,510.1z"/>
	<path class="st0" d="M501.2,515.6c-0.1,0.2-0.2,0.4-0.4,0.6c-0.2,0.2-0.3,0.4-0.6,0.6c-0.2,0.2-0.5,0.3-0.8,0.4
		c-0.3,0.1-0.7,0.2-1.1,0.2c-0.7,0-1.3-0.2-1.8-0.6c-0.5-0.5-0.7-1.1-0.7-1.8c-0.1-0.8,0.3-1.5,1-2c0.8-0.5,1.8-0.7,2.7-0.6h1.5
		v-0.7c0-0.5-0.1-0.9-0.4-1.2c-0.5-0.3-1-0.4-1.5-0.4c-0.5,0-1,0.1-1.5,0.2c-0.4,0.2-0.8,0.3-1.2,0.6v-1.3c0.4-0.2,0.8-0.4,1.2-0.5
		c0.5-0.2,1.1-0.3,1.7-0.3c0.8-0.1,1.7,0.2,2.4,0.6c0.6,0.5,0.9,1.2,0.8,2v4.5c0,0.1,0,0.2,0,0.3s0,0.2,0,0.4s0,0.2,0,0.4
		s0,0.2,0,0.3h-1.3c0-0.2,0-0.4-0.1-0.6c0-0.3,0-0.5,0-0.7L501.2,515.6z M498.7,516.1c0.4,0,0.8-0.1,1.1-0.3
		c0.3-0.2,0.5-0.4,0.8-0.6c0.2-0.2,0.3-0.4,0.4-0.7c0.1-0.2,0.1-0.3,0.1-0.5v-0.6h-1.4c-0.6,0-1.3,0.1-1.8,0.4
		c-0.4,0.2-0.6,0.6-0.6,1.1c0,0.3,0.1,0.7,0.3,0.9C498,516,498.4,516.1,498.7,516.1z"/>
	<path class="st0" d="M512.7,510.5l-2.8,5.7h-1.1l-2.6-5.8v6.7h-1.3v-8.3h2.1l2.5,5.6l2.7-5.6h2v8.3h-1.4L512.7,510.5z"/>
	<path class="st0" d="M522,513.6h-0.7v3.5h-1.4v-8.3h1.4v3.6h0.8l2.9-3.6h1.6l-3.4,4.1l3.5,4.2H525L522,513.6z"/>
	<path class="st0" d="M531.3,517.3c-0.5,0-1.1-0.1-1.6-0.3c-0.5-0.2-0.9-0.5-1.3-0.8c-0.4-0.4-0.7-0.8-0.8-1.3
		c-0.2-0.6-0.3-1.2-0.3-1.8c0-0.6,0.1-1.2,0.3-1.8c0.2-0.5,0.5-1,0.8-1.4c0.4-0.4,0.8-0.6,1.3-0.8c1-0.4,2.2-0.4,3.2,0
		c0.5,0.2,0.9,0.5,1.3,0.8c0.4,0.4,0.7,0.8,0.8,1.4c0.2,0.6,0.3,1.2,0.3,1.8c0,0.6-0.1,1.3-0.3,1.8c-0.2,0.5-0.5,1-0.8,1.3
		c-0.4,0.4-0.8,0.7-1.3,0.8C532.4,517.2,531.8,517.3,531.3,517.3z M531.3,516.1c0.3,0,0.7-0.1,1-0.2c0.3-0.1,0.6-0.3,0.8-0.6
		c0.3-0.3,0.4-0.6,0.5-1c0.3-0.9,0.3-1.8,0-2.7c-0.1-0.4-0.3-0.7-0.5-1c-0.2-0.2-0.5-0.4-0.8-0.6c-0.3-0.1-0.7-0.2-1-0.2
		c-0.3,0-0.7,0.1-1,0.2c-0.3,0.1-0.6,0.3-0.8,0.6c-0.3,0.3-0.4,0.6-0.5,1c-0.3,0.9-0.3,1.8,0,2.7c0.1,0.4,0.3,0.7,0.5,1
		c0.2,0.2,0.5,0.4,0.8,0.6C530.6,516,530.9,516.1,531.3,516.1z"/>
	<path class="st0" d="M536.5,516c0.3-0.2,0.6-0.5,0.7-0.8c0.2-0.5,0.3-1,0.4-1.5c0.1-0.7,0.2-1.4,0.2-2.1c0-0.8,0.1-1.7,0.1-2.7h5.7
		v7.1h1.2v3.6h-1.2l-0.2-2.4h-6.2l-0.2,2.4h-1.3V516H536.5z M542.2,516v-5.9h-3c0,1.3-0.1,2.5-0.3,3.8c-0.1,0.8-0.3,1.5-0.8,2.1
		H542.2z"/>
	<path class="st0" d="M546.1,511.6h3.9v1.3h-3.8L546.1,511.6z"/>
	<path class="st0" d="M556.3,517.3c-0.6,0-1.2-0.1-1.7-0.5c-0.5-0.3-0.9-0.7-1.1-1.2v4.3h-1.4v-11.1h1.2l0.2,1.6
		c0.3-0.5,0.6-1,1.1-1.3c0.5-0.3,1.1-0.5,1.7-0.5c0.5,0,0.9,0.1,1.4,0.3c0.4,0.2,0.8,0.5,1.2,0.8c0.4,0.4,0.6,0.9,0.8,1.4
		c0.2,0.6,0.3,1.2,0.3,1.9c0,0.7-0.1,1.3-0.3,1.9c-0.2,0.5-0.5,1-0.8,1.3c-0.3,0.4-0.7,0.6-1.2,0.8
		C557.2,517.2,556.7,517.3,556.3,517.3z M556,516.1c0.7,0,1.3-0.3,1.8-0.8c0.9-1.4,0.9-3.2,0-4.6c-0.4-0.5-1.1-0.8-1.8-0.8
		c-0.3,0-0.7,0.1-1,0.2c-0.3,0.1-0.6,0.3-0.8,0.6c-0.2,0.3-0.4,0.6-0.5,1c-0.3,0.9-0.3,1.8,0,2.7c0.1,0.4,0.3,0.7,0.5,1
		c0.2,0.3,0.5,0.4,0.8,0.6C555.4,516,555.7,516.1,556,516.1z"/>
	<path class="st0" d="M568.3,516.5c-0.1,0.1-0.3,0.2-0.4,0.3c-0.2,0.1-0.4,0.2-0.6,0.3c-0.3,0.1-0.5,0.2-0.8,0.2
		c-0.3,0.1-0.7,0.1-1,0.1c-1.2,0.1-2.3-0.3-3.2-1.1c-0.8-0.9-1.2-2-1.1-3.2c0-0.6,0.1-1.2,0.3-1.8c0.2-0.5,0.5-1,0.8-1.4
		c0.4-0.4,0.8-0.7,1.2-0.9c0.5-0.2,1-0.3,1.6-0.3c0.5,0,1.1,0.1,1.6,0.3c0.5,0.2,0.9,0.5,1.2,0.9c0.3,0.4,0.5,0.9,0.6,1.5
		c0.1,0.7,0.1,1.3,0,2h-5.9c0,0.7,0.3,1.5,0.8,2c0.6,0.5,1.4,0.7,2.2,0.7c0.6,0,1.1-0.1,1.7-0.3c0.4-0.2,0.8-0.4,1.2-0.6
		L568.3,516.5z M565,510c-0.6,0-1.1,0.2-1.6,0.6c-0.5,0.4-0.8,1-0.8,1.7h4.5c0.1-0.6-0.1-1.2-0.5-1.7C566.1,510.2,565.6,510,565,510
		z"/>
	<path class="st0" d="M570.3,508.9h3.1c0.8-0.1,1.6,0.1,2.3,0.5c0.5,0.4,0.8,1,0.8,1.6c0,0.4-0.1,0.8-0.4,1.2
		c-0.3,0.3-0.7,0.5-1.1,0.6c1,0,1.8,0.9,1.8,1.9c0,0,0,0.1,0,0.1c0,0.4-0.1,0.8-0.3,1.1c-0.2,0.3-0.4,0.6-0.7,0.8
		c-0.3,0.2-0.7,0.3-1.1,0.4c-0.5,0.1-0.9,0.1-1.4,0.1h-3.1V508.9z M571.7,510.1v2.2h1.6c0.4,0,0.9-0.1,1.3-0.3
		c0.5-0.3,0.7-0.9,0.4-1.4c-0.1-0.2-0.2-0.3-0.4-0.4c-0.4-0.2-0.8-0.3-1.2-0.2L571.7,510.1z M571.7,513.4v2.6h1.6c0.3,0,0.5,0,0.8,0
		c0.2,0,0.4-0.1,0.6-0.2c0.2-0.1,0.3-0.2,0.4-0.4c0.1-0.2,0.2-0.4,0.2-0.6c0-0.4-0.2-0.8-0.5-1c-0.5-0.2-1-0.3-1.5-0.3L571.7,513.4z
		"/>
	<path class="st0" d="M585.1,514.4c0,0.4-0.1,0.9-0.3,1.2c-0.2,0.3-0.4,0.6-0.7,0.9c-0.3,0.2-0.7,0.4-1.1,0.5
		c-0.5,0.1-0.9,0.2-1.4,0.2h-2.8v-8.3h1.4v2.9h1.4c0.9,0,1.7,0.2,2.5,0.6C584.8,512.9,585.1,513.6,585.1,514.4z M580.2,513v3h1.3
		c0.5,0,1-0.1,1.5-0.3c0.4-0.2,0.6-0.7,0.6-1.2c0-0.4-0.2-0.9-0.5-1.2c-0.4-0.3-0.9-0.4-1.4-0.4L580.2,513z"/>
	<path class="st0" d="M597.3,513c0,0.6-0.1,1.2-0.3,1.8c-0.2,0.5-0.5,1-0.8,1.3c-0.3,0.4-0.8,0.6-1.2,0.8c-0.5,0.2-1,0.3-1.5,0.3
		c-0.5,0-1-0.1-1.4-0.2c-0.4-0.2-0.8-0.4-1.2-0.8c-0.4-0.3-0.6-0.8-0.8-1.2c-0.2-0.5-0.4-1.1-0.4-1.6h-1.4v3.7h-1.4v-8.3h1.4v3.4
		h1.4c0.1-0.5,0.2-1,0.4-1.5c0.2-0.4,0.5-0.8,0.8-1.1c0.3-0.3,0.7-0.5,1.2-0.7c0.4-0.2,0.9-0.2,1.4-0.2c0.5,0,1,0.1,1.5,0.3
		c0.5,0.2,0.9,0.5,1.2,0.8c0.4,0.4,0.6,0.8,0.8,1.4C597.2,511.8,597.3,512.4,597.3,513z M593.5,516.1c0.3,0,0.7-0.1,1-0.2
		c0.3-0.1,0.6-0.3,0.8-0.6c0.2-0.3,0.4-0.6,0.5-1c0.2-0.9,0.2-1.8,0-2.7c-0.1-0.4-0.3-0.7-0.5-1c-0.2-0.2-0.5-0.4-0.8-0.6
		c-0.3-0.1-0.7-0.2-1-0.2c-0.3,0-0.7,0.1-1,0.2c-0.3,0.1-0.6,0.3-0.8,0.6c-0.2,0.3-0.4,0.6-0.5,1c-0.2,0.9-0.2,1.8,0,2.7
		c0.1,0.4,0.3,0.7,0.5,1c0.2,0.2,0.5,0.4,0.8,0.6C592.8,516,593.1,516.1,593.5,516.1L593.5,516.1z"/>
	<line class="st4" x1="210" y1="67.5" x2="252" y2="67.5"/>
	<circle class="st0" cx="210" cy="67.5" r="2.2"/>
	<polygon class="st0" points="251,70.9 256.9,67.5 251,64.1 	"/>
	<line class="st4" x1="280" y1="70" x2="312" y2="70"/>
	<circle class="st0" cx="280" cy="70" r="2.2"/>
	<polygon class="st0" points="311,73.4 316.9,70 311,66.6 	"/>
	<line class="st4" x1="340" y1="70" x2="382" y2="70"/>
	<circle class="st0" cx="340" cy="70" r="2.2"/>
	<polygon class="st0" points="381,73.4 386.9,70 381,66.6 	"/>
	<line class="st4" x1="410" y1="70" x2="452" y2="70"/>
	<circle class="st0" cx="410" cy="70" r="2.2"/>
	<polygon class="st0" points="451,73.4 456.9,70 451,66.6 	"/>
	<line class="st4" x1="480" y1="70" x2="512" y2="70"/>
	<circle class="st0" cx="480" cy="70" r="2.2"/>
	<polygon class="st0" points="511,73.4 516.9,70 511,66.6 	"/>
	<line class="st4" x1="540" y1="70" x2="582" y2="70"/>
	<circle class="st0" cx="540" cy="70" r="2.2"/>
	<polygon class="st0" points="581,73.4 586.9,70 581,66.6 	"/>
	<g class="st7">
		<line class="st10" x1="240.2" y1="200.5" x2="310.7" y2="200.5"/>
		<polygon class="st3" points="310.5,201.4 312,200.5 310.5,199.6 		"/>
	</g>
	<line class="st4" x1="240.2" y1="200.5" x2="312" y2="200.5"/>
	<circle class="st0" cx="240.2" cy="200.5" r="2.2"/>
	<polygon class="st0" points="311,203.9 316.9,200.5 311,197.1 	"/>
	<g class="st7">
		<line class="st10" x1="249.2" y1="350.5" x2="280" y2="350.5"/>
		<polygon class="st3" points="279.7,351.4 281.2,350.5 279.7,349.6 		"/>
	</g>
	<line class="st4" x1="249.2" y1="350.5" x2="281.2" y2="350.5"/>
	<circle class="st0" cx="249.2" cy="350.5" r="2.2"/>
	<polygon class="st0" points="280.3,353.9 286.1,350.5 280.3,347.1 	"/>
</g>
</svg>
