<svg xmlns="http://www.w3.org/2000/svg" xmlns:xlink="http://www.w3.org/1999/xlink" viewBox="0 0 680 640"><defs><style>.cls-1{fill:#333;}.cls-2{fill:#ffdb4d;}.cls-3{fill:#f5f5f5;}.cls-10,.cls-4,.cls-5,.cls-6,.cls-8{fill:none;stroke-miterlimit:10;}.cls-4,.cls-5,.cls-6{stroke:#333;}.cls-4{stroke-width:0.97px;}.cls-5,.cls-6{stroke-width:0.5px;}.cls-6{stroke-dasharray:2 3;}.cls-7{opacity:0.8;}.cls-8{stroke:#fff;}.cls-10,.cls-8{stroke-width:3.5px;}.cls-9{fill:#fff;}.cls-10{stroke:#f5f5f5;}</style><symbol id="dark_circle" data-name="dark_circle" viewBox="0 0 20 20"><circle class="cls-2" cx="10" cy="10" r="10"/></symbol><symbol id="Black" data-name="Black" viewBox="0 0 20 20"><circle class="cls-1" cx="10" cy="10" r="10"/></symbol></defs><title>s14 копия</title><g id="Light_grey_rows" data-name="Light grey rows"><rect class="cls-3" y="320" width="680" height="60"/><rect class="cls-3" y="440" width="680" height="100"/><rect class="cls-3" width="680" height="100"/><rect class="cls-3" y="160" width="680" height="80"/></g><g id="Layer_1" data-name="Layer 1"><path class="cls-1" d="M249.13,21h3.66a5,5,0,0,1,3,.81,2.94,2.94,0,0,1,1.08,2.52,4,4,0,0,1-.31,1.67,3.1,3.1,0,0,1-.87,1.14,3.58,3.58,0,0,1-1.34.66,6.54,6.54,0,0,1-1.72.21h-2v4.46h-1.5Zm1.5,1.36v4.29h2a4.7,4.7,0,0,0,1.11-.13,2.48,2.48,0,0,0,.85-.4,1.76,1.76,0,0,0,.56-.72,2.46,2.46,0,0,0,.2-1.07,1.69,1.69,0,0,0-.67-1.5,3.28,3.28,0,0,0-1.92-.47Z"/><path class="cls-1" d="M265,31.77a2.68,2.68,0,0,1-.43.27,4.06,4.06,0,0,1-.62.28,4.55,4.55,0,0,1-.83.22,5.52,5.52,0,0,1-1,.09,4.25,4.25,0,0,1-3.19-1.13,4.45,4.45,0,0,1-1.09-3.19,5.17,5.17,0,0,1,.3-1.81,4,4,0,0,1,.82-1.35,3.7,3.7,0,0,1,1.25-.85,4.26,4.26,0,0,1,1.57-.29,4,4,0,0,1,1.6.3,2.79,2.79,0,0,1,1.16.9,3.41,3.41,0,0,1,.62,1.46,6,6,0,0,1,0,2h-5.86a2.87,2.87,0,0,0,.8,2,3.08,3.08,0,0,0,2.14.66,4.53,4.53,0,0,0,1.65-.27,5.35,5.35,0,0,0,1.15-.6Zm-3.29-6.51a2.31,2.31,0,0,0-1.57.56,2.64,2.64,0,0,0-.83,1.69h4.46a2,2,0,0,0-.53-1.7A2.13,2.13,0,0,0,261.69,25.26Z"/><path class="cls-1" d="M267.62,29.9a10.32,10.32,0,0,0,.29-2.21c0-.93.07-2.1.07-3.52h5.58v8.3h-1.42v-7.1H269.3c0,1.14,0,2.15-.1,3a9.94,9.94,0,0,1-.37,2.24A2.9,2.9,0,0,1,268,32a2.08,2.08,0,0,1-1.44.47h-.27V31.1h.21C267.06,31.11,267.43,30.71,267.62,29.9Z"/><path class="cls-1" d="M277.25,30.55l4.44-6.38h1.42v8.3H281.7V26.1l-4.41,6.37h-1.44v-8.3h1.4Z"/><path class="cls-1" d="M291.3,30.05a2.37,2.37,0,0,1-.28,1.2,2.32,2.32,0,0,1-.76.8,3.69,3.69,0,0,1-1.11.45,6.29,6.29,0,0,1-1.32.13,6,6,0,0,1-1.61-.19,3.75,3.75,0,0,1-1.09-.46V30.72a4.41,4.41,0,0,0,1.18.49,6.41,6.41,0,0,0,1.49.17,3.48,3.48,0,0,0,1.53-.3,1,1,0,0,0,.61-1,1.06,1.06,0,0,0-.52-1,3.38,3.38,0,0,0-1.59-.29h-1.1V27.64h1.15a2.37,2.37,0,0,0,1.34-.32,1.05,1.05,0,0,0,.47-.93.9.9,0,0,0-.15-.53,1.19,1.19,0,0,0-.41-.36,2,2,0,0,0-.6-.19,4.26,4.26,0,0,0-.73,0,5,5,0,0,0-1.37.17,4.2,4.2,0,0,0-1.14.5V24.66a3.93,3.93,0,0,1,1.08-.46,5.5,5.5,0,0,1,1.54-.19,3.88,3.88,0,0,1,2.3.57,2,2,0,0,1,.77,1.66,1.75,1.75,0,0,1-.44,1.28,2.33,2.33,0,0,1-1.24.64,2.54,2.54,0,0,1,1.5.63A1.67,1.67,0,0,1,291.3,30.05Z"/><path class="cls-1" d="M258,50.47H256.5V40.81l-3.17,2.43V41.62L256.74,39H258Z"/><path class="cls-1" d="M263.23,50.57a1,1,0,0,1-1-1,1,1,0,0,1,.29-.74,1.13,1.13,0,0,1,1.49,0,1,1,0,0,1,.29.74,1,1,0,0,1-.29.71A1,1,0,0,1,263.23,50.57Z"/><path class="cls-1" d="M273.7,50.47h-7.32V49c1-.78,1.81-1.48,2.52-2.09a18.27,18.27,0,0,0,1.76-1.68,6.42,6.42,0,0,0,1-1.47,3.32,3.32,0,0,0,.34-1.45,2.1,2.1,0,0,0-.57-1.53,2.21,2.21,0,0,0-1.66-.58,3.32,3.32,0,0,0-1.69.45,5.28,5.28,0,0,0-1.41,1.13V40.14a4.81,4.81,0,0,1,1.37-1,4.35,4.35,0,0,1,1.78-.35,4.83,4.83,0,0,1,1.59.24,3.18,3.18,0,0,1,1.17.67,3,3,0,0,1,.72,1,3.68,3.68,0,0,1,.25,1.35,4.32,4.32,0,0,1-.36,1.75,6.61,6.61,0,0,1-1.07,1.63,14.72,14.72,0,0,1-1.73,1.69c-.69.58-1.48,1.22-2.36,1.9h5.65Z"/><path class="cls-1" d="M276.83,50.57a1,1,0,0,1-1-1,1,1,0,0,1,.29-.74,1.13,1.13,0,0,1,1.49,0,1,1,0,0,1,.29.74,1,1,0,0,1-.29.71A1,1,0,0,1,276.83,50.57Z"/><path class="cls-1" d="M283.63,50.63a3.35,3.35,0,0,1-1.51-.34,3.2,3.2,0,0,1-1.2-1.07,5.67,5.67,0,0,1-.79-1.84,10.84,10.84,0,0,1-.29-2.65,10.73,10.73,0,0,1,.29-2.65,5.52,5.52,0,0,1,.79-1.83,3.17,3.17,0,0,1,1.2-1.06,3.48,3.48,0,0,1,1.51-.33,3.4,3.4,0,0,1,1.5.33,3.2,3.2,0,0,1,1.19,1.05,5.58,5.58,0,0,1,.78,1.82,11.12,11.12,0,0,1,.28,2.64,11.25,11.25,0,0,1-.28,2.64,6,6,0,0,1-.78,1.85,3.24,3.24,0,0,1-1.19,1.09A3.28,3.28,0,0,1,283.63,50.63Zm0-1.26a1.73,1.73,0,0,0,1.66-1,4.84,4.84,0,0,0,.44-1.43,13.24,13.24,0,0,0,.15-2.17,14.55,14.55,0,0,0-.14-2.16,4.63,4.63,0,0,0-.44-1.44,1.86,1.86,0,0,0-.7-.78,1.9,1.9,0,0,0-1-.24,1.79,1.79,0,0,0-1.69,1,4.91,4.91,0,0,0-.44,1.44,14.73,14.73,0,0,0,0,4.33,4.56,4.56,0,0,0,.44,1.43,1.78,1.78,0,0,0,.71.79A1.91,1.91,0,0,0,283.62,49.37Z"/><use width="20" height="20" transform="translate(520 460)" xlink:href="#dark_circle"/><use width="20" height="20" transform="translate(455 460)" xlink:href="#dark_circle"/><circle class="cls-2" cx="83" cy="584" r="7.5"/><use width="20" height="20" transform="translate(340 460)" xlink:href="#dark_circle"/><use width="20" height="20" transform="translate(240 460)" xlink:href="#dark_circle"/><use width="20" height="20" transform="translate(295 460)" xlink:href="#dark_circle"/><use width="20" height="20" transform="translate(310 400)" xlink:href="#dark_circle"/><use width="20" height="20" transform="translate(390 340)" xlink:href="#dark_circle"/><circle class="cls-2" cx="230" cy="200" r="10"/><use width="20" height="20" transform="translate(290 340)" xlink:href="#dark_circle"/><use width="20" height="20" transform="translate(190 340)" xlink:href="#dark_circle"/><use width="20" height="20" transform="translate(340 340)" xlink:href="#Black"/><use width="20" height="20" transform="translate(320 190)" xlink:href="#dark_circle"/><use width="20" height="20" transform="translate(190 60)" xlink:href="#dark_circle"/><path class="cls-1" d="M66.59,185.63a6.38,6.38,0,0,1-2.32-.4,5,5,0,0,1-1.78-1.16,4.9,4.9,0,0,1-1.14-1.85,7.13,7.13,0,0,1-.4-2.48,7.94,7.94,0,0,1,.36-2.48,5,5,0,0,1,1.09-1.84,4.59,4.59,0,0,1,1.77-1.16,6.62,6.62,0,0,1,2.39-.4,7.85,7.85,0,0,1,2,.24,5.79,5.79,0,0,1,1.44.59v1.44a5.28,5.28,0,0,0-1.66-.69,7.84,7.84,0,0,0-1.84-.22,3.73,3.73,0,0,0-3,1.12,5.11,5.11,0,0,0-1,3.4,4.82,4.82,0,0,0,1.05,3.41,4,4,0,0,0,3.09,1.12,6.21,6.21,0,0,0,1.72-.24,5,5,0,0,0,1.61-.81v1.44a4.69,4.69,0,0,1-1.35.67A6.58,6.58,0,0,1,66.59,185.63Z"/><path class="cls-1" d="M76.26,185.63a3,3,0,0,1-1.66-.45A3.31,3.31,0,0,1,73.49,184v4.35H72.08V177.17h1.23l.15,1.61a3.43,3.43,0,0,1,1.12-1.29,3,3,0,0,1,1.74-.48,3.89,3.89,0,0,1,1.39.26,3.18,3.18,0,0,1,1.16.8,3.75,3.75,0,0,1,.8,1.35,6.17,6.17,0,0,1,0,3.8,4.1,4.1,0,0,1-.82,1.35,3.48,3.48,0,0,1-1.18.8A4,4,0,0,1,76.26,185.63Zm-.21-1.25a2.25,2.25,0,0,0,1.78-.76,4.21,4.21,0,0,0,0-4.59,2.26,2.26,0,0,0-1.78-.77,2.68,2.68,0,0,0-1,.19,2.3,2.3,0,0,0-.81.57,2.83,2.83,0,0,0-.55.95,4.66,4.66,0,0,0,0,2.7,3,3,0,0,0,.55,1,2.07,2.07,0,0,0,.81.57A2.88,2.88,0,0,0,76.05,184.38Z"/><path class="cls-1" d="M85.09,185.63a4.2,4.2,0,0,1-1.59-.29,3.53,3.53,0,0,1-1.27-.84,4,4,0,0,1-.84-1.35,5.76,5.76,0,0,1,0-3.67,4,4,0,0,1,.84-1.35,3.63,3.63,0,0,1,1.27-.83,4.53,4.53,0,0,1,3.19,0,3.63,3.63,0,0,1,1.27.83,3.84,3.84,0,0,1,.85,1.35,5.59,5.59,0,0,1,0,3.67A3.84,3.84,0,0,1,88,184.5a3.53,3.53,0,0,1-1.27.84A4.18,4.18,0,0,1,85.09,185.63Zm0-1.25a2.86,2.86,0,0,0,1-.18,2.22,2.22,0,0,0,.83-.56,2.62,2.62,0,0,0,.54-1,5,5,0,0,0,0-2.72,2.62,2.62,0,0,0-.54-1,2.22,2.22,0,0,0-.83-.56,2.86,2.86,0,0,0-1-.18,2.8,2.8,0,0,0-1,.18,2.15,2.15,0,0,0-.81.56,2.62,2.62,0,0,0-.54,1,5,5,0,0,0,0,2.72,2.62,2.62,0,0,0,.54,1,2.15,2.15,0,0,0,.81.56A2.8,2.8,0,0,0,85.09,184.38Z"/><path class="cls-1" d="M97,185.47H95.62v-3.65a3.07,3.07,0,0,1-1,.52,4,4,0,0,1-1.29.19,3,3,0,0,1-2.15-.7,2.91,2.91,0,0,1-.75-2.23v-2.43h1.43v2.45a1.72,1.72,0,0,0,.45,1.36,1.9,1.9,0,0,0,1.26.38,3.64,3.64,0,0,0,1.09-.16,2.94,2.94,0,0,0,1-.5v-3.53H97Z"/><path class="cls-1" d="M104.75,181.79h-4v3.68H99.33v-8.3h1.41v3.42h4v-3.42h1.41v8.3h-1.41Z"/><path class="cls-1" d="M114.61,182.7a2.71,2.71,0,0,1-.26,1.25,2.34,2.34,0,0,1-.72.87,3,3,0,0,1-1.1.49,5.58,5.58,0,0,1-1.39.16h-2.67v-8.3h1.4v2.89h1.36a4.23,4.23,0,0,1,2.48.63A2.27,2.27,0,0,1,114.61,182.7Zm-4.74-1.44v3h1.27a2.82,2.82,0,0,0,1.48-.34,1.23,1.23,0,0,0,.57-1.15,1.28,1.28,0,0,0-.52-1.16,2.47,2.47,0,0,0-1.44-.36Zm7.35,4.21h-1.41v-8.3h1.41Z"/><path class="cls-1" d="M126.13,184.77a3.22,3.22,0,0,1-.43.27,3.79,3.79,0,0,1-.63.28,4.34,4.34,0,0,1-.83.22,5.52,5.52,0,0,1-1,.09A4.21,4.21,0,0,1,120,184.5a4.41,4.41,0,0,1-1.09-3.19,5.17,5.17,0,0,1,.3-1.81,3.82,3.82,0,0,1,.82-1.35,3.6,3.6,0,0,1,1.25-.85,4.22,4.22,0,0,1,1.57-.29,4,4,0,0,1,1.59.3,2.88,2.88,0,0,1,1.17.9,3.41,3.41,0,0,1,.62,1.46,6,6,0,0,1,0,2h-5.86a2.92,2.92,0,0,0,.81,2,3.06,3.06,0,0,0,2.14.66,4.53,4.53,0,0,0,1.65-.27,5.35,5.35,0,0,0,1.15-.6Zm-3.3-6.51a2.28,2.28,0,0,0-1.56.56,2.65,2.65,0,0,0-.84,1.69h4.47a2.07,2.07,0,0,0-.53-1.7A2.17,2.17,0,0,0,122.83,178.26Z"/><path class="cls-1" d="M62.83,202.55l4.44-6.38h1.42v8.3H67.28V198.1l-4.41,6.37H61.43v-8.3h1.4Z"/><path class="cls-1" d="M74.58,204.63a5,5,0,0,1-1.74-.29,3.62,3.62,0,0,1-1.32-.85,3.7,3.7,0,0,1-.83-1.35,5.49,5.49,0,0,1-.29-1.83,5.17,5.17,0,0,1,.3-1.81,3.72,3.72,0,0,1,.84-1.35,3.58,3.58,0,0,1,1.33-.85,5.13,5.13,0,0,1,1.77-.29,5.24,5.24,0,0,1,1.41.17,3,3,0,0,1,1.06.48v1.27a4.12,4.12,0,0,0-1.15-.51,5.09,5.09,0,0,0-1.3-.16,2.75,2.75,0,0,0-2.14.75,3.37,3.37,0,0,0-.68,2.31,3.43,3.43,0,0,0,.66,2.31,2.61,2.61,0,0,0,2.08.75A5,5,0,0,0,76,203.2a5.65,5.65,0,0,0,1.15-.47V204a4.94,4.94,0,0,1-1.08.46A5,5,0,0,1,74.58,204.63Z"/><path class="cls-1" d="M79,196.17h6.66v8.3H84.24v-7.1H80.4v7.1H79Z"/><path class="cls-1" d="M92.13,204.63a3,3,0,0,1-1.66-.45A3.31,3.31,0,0,1,89.36,203v4.35H88V196.17h1.24l.14,1.61a3.43,3.43,0,0,1,1.12-1.29,3,3,0,0,1,1.74-.48,3.89,3.89,0,0,1,1.39.26,3.3,3.3,0,0,1,1.17.8,4.06,4.06,0,0,1,.8,1.35,5.65,5.65,0,0,1,.29,1.89,5.43,5.43,0,0,1-.3,1.91,4.1,4.1,0,0,1-.82,1.35,3.38,3.38,0,0,1-1.18.8A4,4,0,0,1,92.13,204.63Zm-.21-1.25a2.29,2.29,0,0,0,1.79-.76,4.21,4.21,0,0,0,0-4.59,2.29,2.29,0,0,0-1.79-.77,2.59,2.59,0,0,0-1,.19,2.25,2.25,0,0,0-.82.57,2.66,2.66,0,0,0-.54.95,4.66,4.66,0,0,0,0,2.7,2.79,2.79,0,0,0,.54,1,2,2,0,0,0,.82.57A2.79,2.79,0,0,0,91.92,203.38Z"/><path class="cls-1" d="M102.34,202.89a5.16,5.16,0,0,1-.37.6,3,3,0,0,1-.56.57,2.68,2.68,0,0,1-.79.41,3.17,3.17,0,0,1-1.07.16,2.55,2.55,0,0,1-1.8-.63,2.34,2.34,0,0,1-.69-1.82,2.26,2.26,0,0,1,1-2,4.89,4.89,0,0,1,2.71-.64h1.55v-.68a1.56,1.56,0,0,0-.44-1.24,2.53,2.53,0,0,0-1.54-.36,4.43,4.43,0,0,0-1.46.24,8.27,8.27,0,0,0-1.23.57v-1.26a6.77,6.77,0,0,1,1.21-.54,5.22,5.22,0,0,1,1.67-.26,3.74,3.74,0,0,1,2.39.65,2.41,2.41,0,0,1,.81,2v4.47c0,.09,0,.2,0,.33s0,.24,0,.37,0,.25,0,.36,0,.21,0,.28h-1.28q0-.22-.09-.63c0-.27,0-.51,0-.71Zm-2.48.49a2.21,2.21,0,0,0,1.12-.27,2.49,2.49,0,0,0,.75-.64,2.76,2.76,0,0,0,.42-.7,1.82,1.82,0,0,0,.12-.49v-.62h-1.4A3.45,3.45,0,0,0,99,201a1.19,1.19,0,0,0-.57,1.08,1.3,1.3,0,0,0,.34.92A1.4,1.4,0,0,0,99.86,203.38Z"/><path class="cls-1" d="M105.89,196.17H109a4.07,4.07,0,0,1,2.28.52,1.81,1.81,0,0,1,.76,1.62,1.77,1.77,0,0,1-.37,1.18,2.14,2.14,0,0,1-1.07.63,1.84,1.84,0,0,1,1.78,2,2.2,2.2,0,0,1-.26,1.09,2,2,0,0,1-.7.75,3.08,3.08,0,0,1-1.08.41,6.57,6.57,0,0,1-1.37.13h-3.07Zm1.41,1.2v2.25h1.57a2.5,2.5,0,0,0,1.28-.28,1,1,0,0,0,.06-1.73,2.58,2.58,0,0,0-1.23-.24Zm0,3.37v2.53H109a6.47,6.47,0,0,0,.8-.05,2.22,2.22,0,0,0,.63-.2,1.18,1.18,0,0,0,.41-.39,1.2,1.2,0,0,0,.14-.59,1.07,1.07,0,0,0-.5-1,3,3,0,0,0-1.48-.29Z"/><path class="cls-1" d="M115,201.9a10.32,10.32,0,0,0,.29-2.21c0-.93.06-2.1.06-3.52H121v8.3h-1.43v-7.1h-2.83c0,1.14,0,2.15-.1,3a9.94,9.94,0,0,1-.37,2.24,2.91,2.91,0,0,1-.82,1.38,2,2,0,0,1-1.43.47h-.27V203.1h.21C114.48,203.11,114.85,202.71,115,201.9Z"/><path class="cls-1" d="M129.87,203.77a2.68,2.68,0,0,1-.43.27,4.06,4.06,0,0,1-.62.28,4.78,4.78,0,0,1-.83.22,5.52,5.52,0,0,1-1,.09,4.25,4.25,0,0,1-3.19-1.13,4.45,4.45,0,0,1-1.09-3.19,5.17,5.17,0,0,1,.3-1.81,4,4,0,0,1,.82-1.35,3.7,3.7,0,0,1,1.25-.85,4.22,4.22,0,0,1,1.57-.29,4,4,0,0,1,1.6.3,2.79,2.79,0,0,1,1.16.9,3.41,3.41,0,0,1,.62,1.46,6,6,0,0,1,0,2h-5.86a2.87,2.87,0,0,0,.8,2,3.06,3.06,0,0,0,2.14.66,4.53,4.53,0,0,0,1.65-.27,5.35,5.35,0,0,0,1.15-.6Zm-3.29-6.51a2.31,2.31,0,0,0-1.57.56,2.6,2.6,0,0,0-.83,1.69h4.46a2,2,0,0,0-.53-1.7A2.13,2.13,0,0,0,126.58,197.26Z"/><path class="cls-1" d="M137.3,200.79h-4v3.68h-1.41v-8.3h1.41v3.42h4v-3.42h1.41v8.3H137.3Z"/><path class="cls-1" d="M142.42,202.55l4.43-6.38h1.42v8.3h-1.4V198.1l-4.42,6.37H141v-8.3h1.41Z"/><path class="cls-1" d="M150.58,198.86a2.64,2.64,0,0,1,.25-1.21,2.14,2.14,0,0,1,.72-.83,3.13,3.13,0,0,1,1.11-.49,5.53,5.53,0,0,1,1.39-.16h2.67v8.3h-1.41v-3h-1.52l-2.13,3H150l2.4-3.36a2.81,2.81,0,0,1-1.33-.78A2.1,2.1,0,0,1,150.58,198.86Zm4.73,1.4v-2.89h-1.26a2.91,2.91,0,0,0-1.47.33,1.17,1.17,0,0,0-.58,1.09,1.27,1.27,0,0,0,.51,1.13,2.61,2.61,0,0,0,1.46.34Z"/><path class="cls-1" d="M64,225.7a9.51,9.51,0,0,1-1.86-3.26,12.41,12.41,0,0,1-.61-3.88,12.59,12.59,0,0,1,.16-2,11.2,11.2,0,0,1,.46-1.94,9.87,9.87,0,0,1,.77-1.75A6.64,6.64,0,0,1,64,211.38h1.39a5.92,5.92,0,0,0-1.12,1.44,9.8,9.8,0,0,0-.78,1.74,11,11,0,0,0-.45,1.94,13.6,13.6,0,0,0-.15,2,12.47,12.47,0,0,0,.6,3.89,9.33,9.33,0,0,0,1.9,3.3Z"/><path class="cls-1" d="M71,216.26a2.53,2.53,0,0,0-1.56.44,3.28,3.28,0,0,0-1,1.12v5.65H67.09V212H68.5v3.17l0,1.49h0a2.82,2.82,0,0,1,1-1.18,3.31,3.31,0,0,1,1.83-.47,2.81,2.81,0,0,1,2,.65,2.54,2.54,0,0,1,.73,2v5.82H72.66v-5.68a1.48,1.48,0,0,0-.43-1.2A1.94,1.94,0,0,0,71,216.26Z"/><path class="cls-1" d="M79.7,223.63a4.2,4.2,0,0,1-1.59-.29,3.53,3.53,0,0,1-1.27-.84,4,4,0,0,1-.84-1.35,5.76,5.76,0,0,1,0-3.67,4,4,0,0,1,.84-1.35,3.63,3.63,0,0,1,1.27-.83,4.53,4.53,0,0,1,3.19,0,3.63,3.63,0,0,1,1.27.83,3.84,3.84,0,0,1,.85,1.35,5.59,5.59,0,0,1,0,3.67,3.84,3.84,0,0,1-.85,1.35,3.53,3.53,0,0,1-1.27.84A4.21,4.21,0,0,1,79.7,223.63Zm0-1.25a2.86,2.86,0,0,0,1-.18,2.18,2.18,0,0,0,.82-.56,2.5,2.5,0,0,0,.55-1,5,5,0,0,0,0-2.72,2.5,2.5,0,0,0-.55-1,2.18,2.18,0,0,0-.82-.56,3,3,0,0,0-2.06,0,2.19,2.19,0,0,0-.8.56,2.62,2.62,0,0,0-.54,1,5,5,0,0,0,0,2.72,2.62,2.62,0,0,0,.54,1,2.19,2.19,0,0,0,.8.56A2.86,2.86,0,0,0,79.7,222.38Z"/><path class="cls-1" d="M88.85,223.54a3.89,3.89,0,0,1-.85.09,2.85,2.85,0,0,1-1-.17,1.94,1.94,0,0,1-.69-.48,1.64,1.64,0,0,1-.4-.67,2.53,2.53,0,0,1-.12-.77v-5.17h-1v-1.2h1v-1.75h1.41v1.75h2.42v1.2H87.17v5a1,1,0,0,0,.26.77,1.42,1.42,0,0,0,.94.24,1.92,1.92,0,0,0,1.14-.35v1.27A3.09,3.09,0,0,1,88.85,223.54Z"/><path class="cls-1" d="M93.2,216.37v7.1H91.79v-7.1h-1v-1.2h1V215a3.2,3.2,0,0,1,.79-2.29,2.84,2.84,0,0,1,2.14-.81,3.45,3.45,0,0,1,1.06.14v1.26a2.07,2.07,0,0,0-.42-.11,3.45,3.45,0,0,0-.57-.05,1.49,1.49,0,0,0-1.16.46,1.94,1.94,0,0,0-.43,1.4v.21h2.4v1.2Z"/><path class="cls-1" d="M98,214a.94.94,0,0,1-.69-.26A.9.9,0,0,1,97,213a.94.94,0,0,1,.25-.66.9.9,0,0,1,.69-.27.84.84,0,0,1,.66.27,1,1,0,0,1,.24.66.93.93,0,0,1-.24.65A.87.87,0,0,1,98,214Zm.69,1.22v8.3H97.25v-8.3Z"/><path class="cls-1" d="M103.75,220.18l-2.24,3.29H100l3-4.3-2.65-4H102l2,2.93,2-2.93h1.46l-2.75,4,2.89,4.33H106Z"/><path class="cls-1" d="M107.84,225.39l5.08-14h1.27l-5.07,14Z"/><path class="cls-1" d="M115.31,218.8v-1.46l6.6-3v1.28l-5.38,2.48,5.38,2.48v1.28Z"/><path class="cls-1" d="M127,220.18l-2.24,3.29h-1.48l3-4.3-2.65-4h1.63l2,2.93,2-2.93h1.46l-2.75,4,2.89,4.33h-1.63Z"/><path class="cls-1" d="M135,220.18l-2.24,3.29h-1.47l3-4.3-2.66-4h1.64l2,2.93,2-2.93h1.46l-2.76,4,2.9,4.33h-1.63Z"/><path class="cls-1" d="M143,220.18l-2.24,3.29h-1.47l3-4.3-2.66-4h1.63l2,2.93,2-2.93h1.45l-2.75,4,2.9,4.33h-1.63Z"/><path class="cls-1" d="M148.26,220.56l5.37-2.48-5.37-2.48v-1.28l6.59,3v1.46l-6.59,3Z"/><path class="cls-1" d="M156,225.7a8.13,8.13,0,0,0,2.18-3.22,12.07,12.07,0,0,0,.62-4,16.18,16.18,0,0,0-.14-2.12,9.63,9.63,0,0,0-.48-1.92,8.22,8.22,0,0,0-.88-1.69,6.37,6.37,0,0,0-1.3-1.4h1.39a7.48,7.48,0,0,1,2.13,3.13,12,12,0,0,1,.66,4.05,11.19,11.19,0,0,1-.66,4,8.65,8.65,0,0,1-2.13,3.18Z"/><path class="cls-1" d="M179.13,21h3.66a5,5,0,0,1,3,.81,2.94,2.94,0,0,1,1.08,2.52,4,4,0,0,1-.31,1.67,3.1,3.1,0,0,1-.87,1.14,3.58,3.58,0,0,1-1.34.66,6.54,6.54,0,0,1-1.72.21h-2v4.46h-1.5Zm1.5,1.36v4.29h2a4.7,4.7,0,0,0,1.11-.13,2.48,2.48,0,0,0,.85-.4,1.76,1.76,0,0,0,.56-.72,2.46,2.46,0,0,0,.2-1.07,1.69,1.69,0,0,0-.67-1.5,3.28,3.28,0,0,0-1.92-.47Z"/><path class="cls-1" d="M195,31.77a2.68,2.68,0,0,1-.43.27,4.06,4.06,0,0,1-.62.28,4.55,4.55,0,0,1-.83.22,5.52,5.52,0,0,1-1,.09,4.25,4.25,0,0,1-3.19-1.13,4.45,4.45,0,0,1-1.09-3.19,5.17,5.17,0,0,1,.3-1.81,4,4,0,0,1,.82-1.35,3.7,3.7,0,0,1,1.25-.85,4.26,4.26,0,0,1,1.57-.29,4,4,0,0,1,1.6.3,2.79,2.79,0,0,1,1.16.9,3.41,3.41,0,0,1,.62,1.46,6,6,0,0,1,0,2h-5.86a2.87,2.87,0,0,0,.8,2,3.08,3.08,0,0,0,2.14.66,4.53,4.53,0,0,0,1.65-.27,5.35,5.35,0,0,0,1.15-.6Zm-3.29-6.51a2.31,2.31,0,0,0-1.57.56,2.64,2.64,0,0,0-.83,1.69h4.46a2,2,0,0,0-.53-1.7A2.13,2.13,0,0,0,191.69,25.26Z"/><path class="cls-1" d="M197.62,29.9a10.32,10.32,0,0,0,.29-2.21c0-.93.07-2.1.07-3.52h5.58v8.3h-1.42v-7.1H199.3c0,1.14,0,2.15-.1,3a9.94,9.94,0,0,1-.37,2.24A2.9,2.9,0,0,1,198,32a2.08,2.08,0,0,1-1.44.47h-.27V31.1h.21C197.06,31.11,197.43,30.71,197.62,29.9Z"/><path class="cls-1" d="M207.25,30.55l4.44-6.38h1.42v8.3H211.7V26.1l-4.41,6.37h-1.44v-8.3h1.4Z"/><path class="cls-1" d="M221.3,30.05a2.37,2.37,0,0,1-.28,1.2,2.32,2.32,0,0,1-.76.8,3.69,3.69,0,0,1-1.11.45,6.29,6.29,0,0,1-1.32.13,6,6,0,0,1-1.61-.19,3.75,3.75,0,0,1-1.09-.46V30.72a4.41,4.41,0,0,0,1.18.49,6.41,6.41,0,0,0,1.49.17,3.48,3.48,0,0,0,1.53-.3,1,1,0,0,0,.61-1,1.06,1.06,0,0,0-.52-1,3.38,3.38,0,0,0-1.59-.29h-1.1V27.64h1.15a2.37,2.37,0,0,0,1.34-.32,1.05,1.05,0,0,0,.47-.93.9.9,0,0,0-.15-.53,1.19,1.19,0,0,0-.41-.36,2,2,0,0,0-.6-.19,4.26,4.26,0,0,0-.73,0,5,5,0,0,0-1.37.17,4.2,4.2,0,0,0-1.14.5V24.66a3.93,3.93,0,0,1,1.08-.46,5.5,5.5,0,0,1,1.54-.19,3.88,3.88,0,0,1,2.3.57,2,2,0,0,1,.77,1.66,1.75,1.75,0,0,1-.44,1.28,2.33,2.33,0,0,1-1.24.64,2.54,2.54,0,0,1,1.5.63A1.67,1.67,0,0,1,221.3,30.05Z"/><path class="cls-1" d="M188,50.47H186.5V40.81l-3.17,2.43V41.62L186.74,39H188Z"/><path class="cls-1" d="M193.23,50.57a1,1,0,0,1-1-1,1,1,0,0,1,.29-.74,1.13,1.13,0,0,1,1.49,0,1,1,0,0,1,.29.74,1,1,0,0,1-.29.71A1,1,0,0,1,193.23,50.57Z"/><path class="cls-1" d="M201.55,50.47H200.1V40.81l-3.17,2.43V41.62L200.34,39h1.21Z"/><path class="cls-1" d="M206.83,50.57a1,1,0,0,1-1-1,1,1,0,0,1,.29-.74,1.13,1.13,0,0,1,1.49,0,1,1,0,0,1,.29.74,1,1,0,0,1-.29.71A1,1,0,0,1,206.83,50.57Z"/><path class="cls-1" d="M213.63,50.63a3.35,3.35,0,0,1-1.51-.34,3.2,3.2,0,0,1-1.2-1.07,5.67,5.67,0,0,1-.79-1.84,10.84,10.84,0,0,1-.29-2.65,10.73,10.73,0,0,1,.29-2.65,5.52,5.52,0,0,1,.79-1.83,3.17,3.17,0,0,1,1.2-1.06,3.48,3.48,0,0,1,1.51-.33,3.4,3.4,0,0,1,1.5.33,3.2,3.2,0,0,1,1.19,1.05,5.58,5.58,0,0,1,.78,1.82,11.12,11.12,0,0,1,.28,2.64,11.25,11.25,0,0,1-.28,2.64,6,6,0,0,1-.78,1.85,3.24,3.24,0,0,1-1.19,1.09A3.28,3.28,0,0,1,213.63,50.63Zm0-1.26a1.73,1.73,0,0,0,1.66-1,4.84,4.84,0,0,0,.44-1.43,13.24,13.24,0,0,0,.15-2.17,14.55,14.55,0,0,0-.14-2.16,4.63,4.63,0,0,0-.44-1.44,1.86,1.86,0,0,0-.7-.78,1.9,1.9,0,0,0-1-.24,1.79,1.79,0,0,0-1.69,1,4.91,4.91,0,0,0-.44,1.44,14.73,14.73,0,0,0,0,4.33,4.56,4.56,0,0,0,.44,1.43,1.78,1.78,0,0,0,.71.79A1.91,1.91,0,0,0,213.62,49.37Z"/><path class="cls-1" d="M62.83,75.47h-1.4v-8.3h1.23l.14,1.49h0a3,3,0,0,1,1-1.18A3,3,0,0,1,65.6,67a2.62,2.62,0,0,1,1.58.45A2.27,2.27,0,0,1,68,68.83a3,3,0,0,1,1.08-1.33A3.09,3.09,0,0,1,70.85,67a2.46,2.46,0,0,1,1.82.65,2.63,2.63,0,0,1,.68,2v5.82H71.92V69.82a1.56,1.56,0,0,0-.4-1.19,1.52,1.52,0,0,0-1.09-.37,2.26,2.26,0,0,0-.81.13,2.12,2.12,0,0,0-.63.38,3,3,0,0,0-.49.56,7.57,7.57,0,0,0-.42.67v5.47H66.67V69.66a1.29,1.29,0,0,0-.4-1.1,1.75,1.75,0,0,0-1.08-.3,2.46,2.46,0,0,0-.8.11,2,2,0,0,0-.64.32,2.63,2.63,0,0,0-.5.5,6,6,0,0,0-.42.65Z"/><path class="cls-1" d="M80.42,73.89a5.16,5.16,0,0,1-.37.6,3,3,0,0,1-.56.57,2.68,2.68,0,0,1-.79.41,3.17,3.17,0,0,1-1.07.16,2.57,2.57,0,0,1-1.8-.63,2.34,2.34,0,0,1-.69-1.82,2.26,2.26,0,0,1,1-2,4.89,4.89,0,0,1,2.71-.64h1.55v-.68a1.52,1.52,0,0,0-.44-1.24,2.51,2.51,0,0,0-1.54-.36,4.43,4.43,0,0,0-1.46.24,8.27,8.27,0,0,0-1.23.57V67.81a6.77,6.77,0,0,1,1.21-.54A5.22,5.22,0,0,1,78.56,67a3.74,3.74,0,0,1,2.39.65,2.41,2.41,0,0,1,.81,2v4.47c0,.09,0,.2,0,.33s0,.24,0,.37,0,.25,0,.36,0,.21,0,.28H80.56q0-.23-.09-.63c0-.27,0-.51,0-.71Zm-2.48.49a2.19,2.19,0,0,0,1.12-.27,2.49,2.49,0,0,0,.75-.64,2.76,2.76,0,0,0,.42-.7,1.82,1.82,0,0,0,.12-.49v-.62H79a3.45,3.45,0,0,0-1.84.37,1.21,1.21,0,0,0-.56,1.08,1.3,1.3,0,0,0,.33.92A1.4,1.4,0,0,0,77.94,74.38Z"/><path class="cls-1" d="M86.63,75.63a5.7,5.7,0,0,1-1.16-.1,5.16,5.16,0,0,1-.88-.26A4.23,4.23,0,0,1,84,75a4.79,4.79,0,0,1-.4-.29V73.39a3.06,3.06,0,0,0,.44.35,4.34,4.34,0,0,0,.65.34,5,5,0,0,0,.87.26,5.32,5.32,0,0,0,1.1.11A3,3,0,0,0,88,74.16a1,1,0,0,0,.53-1,.92.92,0,0,0-.17-.59,1.16,1.16,0,0,0-.45-.36,2.93,2.93,0,0,0-.67-.21l-.79-.16-1-.25a3.53,3.53,0,0,1-.93-.4,2.21,2.21,0,0,1-.67-.69,2.12,2.12,0,0,1-.25-1.11,2.05,2.05,0,0,1,.87-1.76A4,4,0,0,1,86.9,67a6.71,6.71,0,0,1,1.56.17,4.68,4.68,0,0,1,1.05.39v1.26a4,4,0,0,0-1-.45A5.12,5.12,0,0,0,87,68.19a3.27,3.27,0,0,0-1.45.26,1,1,0,0,0-.51.93.86.86,0,0,0,.15.53,1,1,0,0,0,.39.32,2.72,2.72,0,0,0,.57.19l.67.14,1.12.24a3.35,3.35,0,0,1,1,.4,2.1,2.1,0,0,1,.75.73,2.18,2.18,0,0,1,.3,1.22,2.32,2.32,0,0,1-.29,1.2,2.13,2.13,0,0,1-.76.76,3.26,3.26,0,0,1-1.07.4A6.23,6.23,0,0,1,86.63,75.63Z"/><path class="cls-1" d="M95.11,75.54a3.89,3.89,0,0,1-.85.09,2.81,2.81,0,0,1-1-.17,1.89,1.89,0,0,1-.7-.48,1.74,1.74,0,0,1-.39-.67,2.53,2.53,0,0,1-.12-.77V68.37H91v-1.2h1V65.42h1.41v1.75h2.41v1.2H93.43v5a1,1,0,0,0,.26.77,1.42,1.42,0,0,0,.94.24A1.91,1.91,0,0,0,95.76,74V75.3A3.19,3.19,0,0,1,95.11,75.54Z"/><path class="cls-1" d="M104.16,74.77a3.22,3.22,0,0,1-.43.27,4.06,4.06,0,0,1-.62.28,4.67,4.67,0,0,1-.84.22,5.44,5.44,0,0,1-1,.09,4.23,4.23,0,0,1-3.18-1.13A4.41,4.41,0,0,1,97,71.31a5.17,5.17,0,0,1,.3-1.81,4,4,0,0,1,.82-1.35,3.6,3.6,0,0,1,1.25-.85A4.22,4.22,0,0,1,100.9,67a4.07,4.07,0,0,1,1.6.3,2.85,2.85,0,0,1,1.16.9,3.41,3.41,0,0,1,.62,1.46,6,6,0,0,1,0,2H98.42a2.87,2.87,0,0,0,.8,2,3.06,3.06,0,0,0,2.14.66,4.53,4.53,0,0,0,1.65-.27,5.35,5.35,0,0,0,1.15-.6Zm-3.29-6.51a2.29,2.29,0,0,0-1.57.56,2.6,2.6,0,0,0-.83,1.69h4.46a2,2,0,0,0-.53-1.7A2.14,2.14,0,0,0,100.87,68.26Z"/><path class="cls-1" d="M108.52,69a2.4,2.4,0,0,0-1.08,1.16v5.28H106v-8.3h1.23l.15,1.81h0a3.81,3.81,0,0,1,1-1.29,3.11,3.11,0,0,1,1.68-.68v1.57A4.33,4.33,0,0,0,108.52,69Z"/><path class="cls-1" d="M309.13,21h3.66a5,5,0,0,1,3,.81,2.94,2.94,0,0,1,1.08,2.52,4,4,0,0,1-.31,1.67,3.1,3.1,0,0,1-.87,1.14,3.58,3.58,0,0,1-1.34.66,6.54,6.54,0,0,1-1.72.21h-2v4.46h-1.5Zm1.5,1.36v4.29h2a4.7,4.7,0,0,0,1.11-.13,2.48,2.48,0,0,0,.85-.4,1.76,1.76,0,0,0,.56-.72,2.46,2.46,0,0,0,.2-1.07,1.69,1.69,0,0,0-.67-1.5,3.28,3.28,0,0,0-1.92-.47Z"/><path class="cls-1" d="M325,31.77a2.68,2.68,0,0,1-.43.27,4.06,4.06,0,0,1-.62.28,4.55,4.55,0,0,1-.83.22,5.52,5.52,0,0,1-1,.09,4.25,4.25,0,0,1-3.19-1.13,4.45,4.45,0,0,1-1.09-3.19,5.17,5.17,0,0,1,.3-1.81,4,4,0,0,1,.82-1.35,3.7,3.7,0,0,1,1.25-.85,4.26,4.26,0,0,1,1.57-.29,4,4,0,0,1,1.6.3,2.79,2.79,0,0,1,1.16.9,3.41,3.41,0,0,1,.62,1.46,6,6,0,0,1,0,2h-5.86a2.87,2.87,0,0,0,.8,2,3.08,3.08,0,0,0,2.14.66,4.53,4.53,0,0,0,1.65-.27,5.35,5.35,0,0,0,1.15-.6Zm-3.29-6.51a2.31,2.31,0,0,0-1.57.56,2.64,2.64,0,0,0-.83,1.69h4.46a2,2,0,0,0-.53-1.7A2.13,2.13,0,0,0,321.69,25.26Z"/><path class="cls-1" d="M327.62,29.9a10.32,10.32,0,0,0,.29-2.21c0-.93.07-2.1.07-3.52h5.58v8.3h-1.42v-7.1H329.3c0,1.14,0,2.15-.1,3a9.94,9.94,0,0,1-.37,2.24A2.9,2.9,0,0,1,328,32a2.08,2.08,0,0,1-1.44.47h-.27V31.1h.21C327.06,31.11,327.43,30.71,327.62,29.9Z"/><path class="cls-1" d="M337.25,30.55l4.44-6.38h1.42v8.3H341.7V26.1l-4.41,6.37h-1.44v-8.3h1.4Z"/><path class="cls-1" d="M351.3,30.05a2.37,2.37,0,0,1-.28,1.2,2.32,2.32,0,0,1-.76.8,3.69,3.69,0,0,1-1.11.45,6.29,6.29,0,0,1-1.32.13,6,6,0,0,1-1.61-.19,3.75,3.75,0,0,1-1.09-.46V30.72a4.41,4.41,0,0,0,1.18.49,6.41,6.41,0,0,0,1.49.17,3.48,3.48,0,0,0,1.53-.3,1,1,0,0,0,.61-1,1.06,1.06,0,0,0-.52-1,3.38,3.38,0,0,0-1.59-.29h-1.1V27.64h1.15a2.37,2.37,0,0,0,1.34-.32,1.05,1.05,0,0,0,.47-.93.9.9,0,0,0-.15-.53,1.19,1.19,0,0,0-.41-.36,2,2,0,0,0-.6-.19,4.26,4.26,0,0,0-.73,0,5,5,0,0,0-1.37.17,4.2,4.2,0,0,0-1.14.5V24.66a3.93,3.93,0,0,1,1.08-.46,5.5,5.5,0,0,1,1.54-.19,3.88,3.88,0,0,1,2.3.57,2,2,0,0,1,.77,1.66,1.75,1.75,0,0,1-.44,1.28,2.33,2.33,0,0,1-1.24.64,2.54,2.54,0,0,1,1.5.63A1.67,1.67,0,0,1,351.3,30.05Z"/><path class="cls-1" d="M318,50.47H316.5V40.81l-3.17,2.43V41.62L316.74,39H318Z"/><path class="cls-1" d="M323.23,50.57a1,1,0,0,1-1-1,1,1,0,0,1,.29-.74,1.13,1.13,0,0,1,1.49,0,1,1,0,0,1,.29.74,1,1,0,0,1-.29.71A1,1,0,0,1,323.23,50.57Z"/><path class="cls-1" d="M333.7,50.47h-7.32V49c1-.78,1.81-1.48,2.52-2.09a18.27,18.27,0,0,0,1.76-1.68,6.42,6.42,0,0,0,1-1.47,3.32,3.32,0,0,0,.34-1.45,2.1,2.1,0,0,0-.57-1.53,2.21,2.21,0,0,0-1.66-.58,3.32,3.32,0,0,0-1.69.45,5.28,5.28,0,0,0-1.41,1.13V40.14a4.81,4.81,0,0,1,1.37-1,4.35,4.35,0,0,1,1.78-.35,4.83,4.83,0,0,1,1.59.24,3.18,3.18,0,0,1,1.17.67,3,3,0,0,1,.72,1,3.68,3.68,0,0,1,.25,1.35,4.32,4.32,0,0,1-.36,1.75,6.61,6.61,0,0,1-1.07,1.63,14.72,14.72,0,0,1-1.73,1.69c-.69.58-1.48,1.22-2.36,1.9h5.65Z"/><path class="cls-1" d="M336.83,50.57a1,1,0,0,1-1-1,1,1,0,0,1,.29-.74,1.13,1.13,0,0,1,1.49,0,1,1,0,0,1,.29.74,1,1,0,0,1-.29.71A1,1,0,0,1,336.83,50.57Z"/><path class="cls-1" d="M345.15,50.47H343.7V40.81l-3.17,2.43V41.62L343.94,39h1.21Z"/><path class="cls-1" d="M508.13,21h3.66a5,5,0,0,1,3,.81,2.94,2.94,0,0,1,1.08,2.52,4,4,0,0,1-.31,1.67,3.1,3.1,0,0,1-.87,1.14,3.58,3.58,0,0,1-1.34.66,6.54,6.54,0,0,1-1.72.21h-2v4.46h-1.5Zm1.5,1.36v4.29h2a4.7,4.7,0,0,0,1.11-.13,2.48,2.48,0,0,0,.85-.4,1.76,1.76,0,0,0,.56-.72,2.46,2.46,0,0,0,.2-1.07,1.69,1.69,0,0,0-.67-1.5,3.28,3.28,0,0,0-1.92-.47Z"/><path class="cls-1" d="M524,31.77a2.68,2.68,0,0,1-.43.27,4.06,4.06,0,0,1-.62.28,4.55,4.55,0,0,1-.83.22,5.52,5.52,0,0,1-1,.09,4.25,4.25,0,0,1-3.19-1.13,4.45,4.45,0,0,1-1.09-3.19,5.17,5.17,0,0,1,.3-1.81,4,4,0,0,1,.82-1.35,3.7,3.7,0,0,1,1.25-.85,4.26,4.26,0,0,1,1.57-.29,4,4,0,0,1,1.6.3,2.79,2.79,0,0,1,1.16.9,3.41,3.41,0,0,1,.62,1.46,6,6,0,0,1,0,2h-5.86a2.87,2.87,0,0,0,.8,2,3.08,3.08,0,0,0,2.14.66,4.53,4.53,0,0,0,1.65-.27,5.35,5.35,0,0,0,1.15-.6Zm-3.29-6.51a2.31,2.31,0,0,0-1.57.56,2.64,2.64,0,0,0-.83,1.69h4.46a2,2,0,0,0-.53-1.7A2.13,2.13,0,0,0,520.69,25.26Z"/><path class="cls-1" d="M526.62,29.9a10.32,10.32,0,0,0,.29-2.21c0-.93.07-2.1.07-3.52h5.58v8.3h-1.42v-7.1H528.3c0,1.14,0,2.15-.1,3a9.94,9.94,0,0,1-.37,2.24A2.9,2.9,0,0,1,527,32a2.08,2.08,0,0,1-1.44.47h-.27V31.1h.21C526.06,31.11,526.43,30.71,526.62,29.9Z"/><path class="cls-1" d="M536.25,30.55l4.44-6.38h1.42v8.3H540.7V26.1l-4.41,6.37h-1.44v-8.3h1.4Z"/><path class="cls-1" d="M550.3,30.05a2.37,2.37,0,0,1-.28,1.2,2.32,2.32,0,0,1-.76.8,3.69,3.69,0,0,1-1.11.45,6.29,6.29,0,0,1-1.32.13,6,6,0,0,1-1.61-.19,3.75,3.75,0,0,1-1.09-.46V30.72a4.41,4.41,0,0,0,1.18.49,6.41,6.41,0,0,0,1.49.17,3.48,3.48,0,0,0,1.53-.3,1,1,0,0,0,.61-1,1.06,1.06,0,0,0-.52-1,3.38,3.38,0,0,0-1.59-.29h-1.1V27.64h1.15a2.37,2.37,0,0,0,1.34-.32,1.05,1.05,0,0,0,.47-.93.9.9,0,0,0-.15-.53,1.19,1.19,0,0,0-.41-.36,2,2,0,0,0-.6-.19,4.26,4.26,0,0,0-.73,0,5,5,0,0,0-1.37.17,4.2,4.2,0,0,0-1.14.5V24.66a3.93,3.93,0,0,1,1.08-.46,5.5,5.5,0,0,1,1.54-.19,3.88,3.88,0,0,1,2.3.57,2,2,0,0,1,.77,1.66,1.75,1.75,0,0,1-.44,1.28,2.33,2.33,0,0,1-1.24.64,2.54,2.54,0,0,1,1.5.63A1.67,1.67,0,0,1,550.3,30.05Z"/><path class="cls-1" d="M517,50.47H515.5V40.81l-3.17,2.43V41.62L515.74,39H517Z"/><path class="cls-1" d="M522.23,50.57a1,1,0,0,1-1-1,1,1,0,0,1,.29-.74,1.13,1.13,0,0,1,1.49,0,1,1,0,0,1,.29.74,1,1,0,0,1-.29.71A1,1,0,0,1,522.23,50.57Z"/><path class="cls-1" d="M532.5,46.68a4.37,4.37,0,0,1-.28,1.62,3.32,3.32,0,0,1-.8,1.25,3.28,3.28,0,0,1-1.26.8,4.63,4.63,0,0,1-1.66.28,6.61,6.61,0,0,1-1.77-.21,4.34,4.34,0,0,1-1.28-.6V48.25a5.34,5.34,0,0,0,1.25.76,4.51,4.51,0,0,0,1.8.31,2.37,2.37,0,0,0,1.84-.72,2.72,2.72,0,0,0,.64-1.89,2.32,2.32,0,0,0-.64-1.82,2.27,2.27,0,0,0-1.61-.58,2.5,2.5,0,0,0-1.15.23,2.32,2.32,0,0,0-.64.49h-1.17V39H532v1.36h-4.9v3.3a3.18,3.18,0,0,1,.78-.43,3.07,3.07,0,0,1,1.11-.18,4.16,4.16,0,0,1,1.38.23,3.05,3.05,0,0,1,1.13.69,3.11,3.11,0,0,1,.75,1.13A4.29,4.29,0,0,1,532.5,46.68Z"/><path class="cls-1" d="M535.83,50.57a1,1,0,0,1-1-1,1,1,0,0,1,.29-.74,1.13,1.13,0,0,1,1.49,0,1,1,0,0,1,.29.74,1,1,0,0,1-.29.71A1,1,0,0,1,535.83,50.57Z"/><path class="cls-1" d="M542.63,50.63a3.35,3.35,0,0,1-1.51-.34,3.2,3.2,0,0,1-1.2-1.07,5.67,5.67,0,0,1-.79-1.84,10.84,10.84,0,0,1-.29-2.65,10.73,10.73,0,0,1,.29-2.65,5.52,5.52,0,0,1,.79-1.83,3.17,3.17,0,0,1,1.2-1.06,3.48,3.48,0,0,1,1.51-.33,3.4,3.4,0,0,1,1.5.33,3.2,3.2,0,0,1,1.19,1.05,5.58,5.58,0,0,1,.78,1.82,11.12,11.12,0,0,1,.28,2.64,11.25,11.25,0,0,1-.28,2.64,6,6,0,0,1-.78,1.85,3.24,3.24,0,0,1-1.19,1.09A3.28,3.28,0,0,1,542.63,50.63Zm0-1.26a1.73,1.73,0,0,0,1.66-1,4.84,4.84,0,0,0,.44-1.43,13.24,13.24,0,0,0,.15-2.17,14.55,14.55,0,0,0-.14-2.16,4.63,4.63,0,0,0-.44-1.44,1.86,1.86,0,0,0-.7-.78,1.9,1.9,0,0,0-1-.24,1.79,1.79,0,0,0-1.69,1,4.91,4.91,0,0,0-.44,1.44,14.73,14.73,0,0,0,0,4.33,4.56,4.56,0,0,0,.44,1.43,1.78,1.78,0,0,0,.71.79A1.91,1.91,0,0,0,542.62,49.37Z"/><path class="cls-1" d="M102.3,585.33h-1v4h-1.22V580h1.22v4.23h.91l3.33-4.23h1.38l-3.68,4.65,3.82,4.67h-1.52Z"/><path class="cls-1" d="M110.71,589.45a3.55,3.55,0,0,1-1.28-.23,3.08,3.08,0,0,1-1-.68,3.15,3.15,0,0,1-.68-1.1,4.6,4.6,0,0,1,0-3,3.15,3.15,0,0,1,.68-1.1,2.91,2.91,0,0,1,1-.67,3.35,3.35,0,0,1,1.28-.24,3.46,3.46,0,0,1,1.3.24,2.91,2.91,0,0,1,1,.67,3.32,3.32,0,0,1,.69,1.1,4.6,4.6,0,0,1,0,3,3.32,3.32,0,0,1-.69,1.1,3.08,3.08,0,0,1-1,.68A3.66,3.66,0,0,1,110.71,589.45Zm0-1a2.24,2.24,0,0,0,.84-.15,1.71,1.71,0,0,0,.67-.46,2,2,0,0,0,.44-.77,3.42,3.42,0,0,0,.16-1.11,3.34,3.34,0,0,0-.16-1.11,2.12,2.12,0,0,0-.44-.78,1.8,1.8,0,0,0-.67-.45,2.4,2.4,0,0,0-1.67,0,1.85,1.85,0,0,0-.66.45,2.25,2.25,0,0,0-.43.78,3.34,3.34,0,0,0-.16,1.11,3.42,3.42,0,0,0,.16,1.11,2.12,2.12,0,0,0,.43.77,1.76,1.76,0,0,0,.66.46A2.23,2.23,0,0,0,110.71,588.44Z"/><path class="cls-1" d="M121.81,583.9l-2.28,4.67h-.91l-2.16-4.7v5.45h-1.08v-6.75h1.7l2.07,4.53,2.21-4.53H123v6.75h-1.14Z"/><path class="cls-1" d="M131.25,583.9,129,588.57h-.91l-2.15-4.7v5.45h-1.08v-6.75h1.7l2.07,4.53,2.21-4.53h1.58v6.75h-1.13Z"/><path class="cls-1" d="M135.4,587.76l3.6-5.19h1.16v6.75H139v-5.17l-3.59,5.17h-1.17v-6.75h1.15Z"/><path class="cls-1" d="M144.75,583.55v5.77H143.6v-5.77h-2.12v-1h5.42v1Z"/><path class="cls-4" d="M210.06,74.06h17.88a2,2,0,0,1,2,2L230,182"/><circle class="cls-1" cx="210.06" cy="74.06" r="2.19" transform="translate(128.6 281.37) rotate(-87.97)"/><polygon class="cls-1" points="226.61 181.01 230 186.87 233.38 181.01 226.61 181.01"/><path class="cls-1" d="M67.59,333.87v1.47a8.05,8.05,0,0,1,2,.32,4.67,4.67,0,0,1,1.62.82,3.76,3.76,0,0,1,1.08,1.35,4.64,4.64,0,0,1,0,3.77A3.92,3.92,0,0,1,71.23,343a4.7,4.7,0,0,1-1.62.84,7.63,7.63,0,0,1-2,.32v1.5H66.07v-1.5a7,7,0,0,1-2-.31,5,5,0,0,1-1.62-.82,3.81,3.81,0,0,1-1.08-1.34,4.75,4.75,0,0,1,0-3.77,3.83,3.83,0,0,1,1.08-1.37,5,5,0,0,1,1.62-.85,7.7,7.7,0,0,1,2-.33v-1.47Zm-5.06,5.86a3.56,3.56,0,0,0,.27,1.46,2.55,2.55,0,0,0,.75,1,3,3,0,0,0,1.12.55,6,6,0,0,0,1.4.21v-6.39a6.62,6.62,0,0,0-1.4.22,3.17,3.17,0,0,0-1.12.55,2.55,2.55,0,0,0-.75,1A3.52,3.52,0,0,0,62.53,339.73Zm8.59,0a3.52,3.52,0,0,0-.27-1.46,2.62,2.62,0,0,0-.74-1,3,3,0,0,0-1.12-.55,6.21,6.21,0,0,0-1.4-.21v6.38a6.85,6.85,0,0,0,1.4-.2,3.19,3.19,0,0,0,1.12-.56,2.63,2.63,0,0,0,.74-1A3.52,3.52,0,0,0,71.12,339.76Z"/><path class="cls-1" d="M75.94,343.55l4.43-6.38h1.42v8.3h-1.4V339.1L76,345.47H74.53v-8.3h1.41Z"/><path class="cls-1" d="M90.53,345.47H89.12v-3.65a3.07,3.07,0,0,1-1,.52,4,4,0,0,1-1.29.19,3,3,0,0,1-2.15-.7,3,3,0,0,1-.74-2.23v-2.43h1.42v2.45a1.72,1.72,0,0,0,.45,1.36,1.91,1.91,0,0,0,1.26.38,3.6,3.6,0,0,0,1.09-.16,2.94,2.94,0,0,0,1-.5v-3.53h1.41Z"/><path class="cls-1" d="M97.7,343.89a5.16,5.16,0,0,1-.37.6,3,3,0,0,1-.56.57,2.68,2.68,0,0,1-.79.41,3.17,3.17,0,0,1-1.07.16,2.55,2.55,0,0,1-1.8-.63,2.34,2.34,0,0,1-.69-1.82,2.26,2.26,0,0,1,1-2,4.89,4.89,0,0,1,2.71-.64h1.55v-.68a1.56,1.56,0,0,0-.44-1.24,2.51,2.51,0,0,0-1.54-.36,4.43,4.43,0,0,0-1.46.24,8.27,8.27,0,0,0-1.23.57v-1.26a6.77,6.77,0,0,1,1.21-.54,5.22,5.22,0,0,1,1.67-.26,3.74,3.74,0,0,1,2.39.65,2.41,2.41,0,0,1,.81,2v4.47c0,.09,0,.2,0,.33s0,.24,0,.37,0,.25,0,.36,0,.21,0,.28H97.84q0-.23-.09-.63c0-.27,0-.51,0-.71Zm-2.48.49a2.19,2.19,0,0,0,1.12-.27,2.49,2.49,0,0,0,.75-.64,2.76,2.76,0,0,0,.42-.7,1.82,1.82,0,0,0,.12-.49v-.62h-1.4a3.45,3.45,0,0,0-1.84.37,1.19,1.19,0,0,0-.56,1.08,1.3,1.3,0,0,0,.33.92A1.4,1.4,0,0,0,95.22,344.38Z"/><path class="cls-1" d="M104.77,337.17h3.1a4.07,4.07,0,0,1,2.28.52,1.81,1.81,0,0,1,.76,1.62,1.77,1.77,0,0,1-.37,1.18,2.14,2.14,0,0,1-1.07.63,1.84,1.84,0,0,1,1.78,2,2.2,2.2,0,0,1-.26,1.09,2,2,0,0,1-.7.75,3.08,3.08,0,0,1-1.08.41,6.57,6.57,0,0,1-1.37.13h-3.07Zm1.41,1.2v2.25h1.57a2.5,2.5,0,0,0,1.28-.28,1,1,0,0,0,.06-1.73,2.58,2.58,0,0,0-1.23-.24Zm0,3.37v2.53h1.65a6.47,6.47,0,0,0,.8,0,2.22,2.22,0,0,0,.63-.2,1.18,1.18,0,0,0,.41-.39,1.2,1.2,0,0,0,.14-.59,1.07,1.07,0,0,0-.5-1,3,3,0,0,0-1.48-.29Z"/><path class="cls-1" d="M120,344.77a3.22,3.22,0,0,1-.43.27,3.79,3.79,0,0,1-.63.28,4.34,4.34,0,0,1-.83.22,5.52,5.52,0,0,1-1,.09,4.21,4.21,0,0,1-3.18-1.13,4.41,4.41,0,0,1-1.09-3.19,5.17,5.17,0,0,1,.3-1.81,3.82,3.82,0,0,1,.82-1.35,3.6,3.6,0,0,1,1.25-.85,4.22,4.22,0,0,1,1.57-.29,4,4,0,0,1,1.59.3,2.79,2.79,0,0,1,1.16.9,3.3,3.3,0,0,1,.63,1.46,6,6,0,0,1,0,2h-5.86a2.87,2.87,0,0,0,.81,2,3,3,0,0,0,2.14.66,4.53,4.53,0,0,0,1.65-.27,5.35,5.35,0,0,0,1.15-.6Zm-3.3-6.51a2.28,2.28,0,0,0-1.56.56,2.65,2.65,0,0,0-.84,1.69h4.47a2.07,2.07,0,0,0-.53-1.7A2.17,2.17,0,0,0,116.67,338.26Z"/><path class="cls-1" d="M125.23,338.37v7.1h-1.41v-7.1h-2.6v-1.2h6.67v1.2Z"/><path class="cls-1" d="M131.66,341.94h-.73v3.53h-1.41v-8.3h1.41v3.57h.8l2.91-3.57h1.6l-3.41,4.09,3.47,4.21h-1.71Z"/><path class="cls-1" d="M139.2,343.55l4.43-6.38h1.43v8.3h-1.41V339.1l-4.42,6.37h-1.44v-8.3h1.41Z"/><path class="cls-1" d="M64,366.7a9.51,9.51,0,0,1-1.86-3.26,12.41,12.41,0,0,1-.61-3.88,12.59,12.59,0,0,1,.16-2,11.2,11.2,0,0,1,.46-1.94,9.87,9.87,0,0,1,.77-1.75A6.64,6.64,0,0,1,64,352.38h1.39a5.92,5.92,0,0,0-1.12,1.44,9.8,9.8,0,0,0-.78,1.74,11,11,0,0,0-.45,1.94,13.6,13.6,0,0,0-.15,2,12.47,12.47,0,0,0,.6,3.89,9.33,9.33,0,0,0,1.9,3.3Z"/><path class="cls-1" d="M68.83,357.37v7.1h-1.4v-7.1h-1v-1.2h1V356a3.19,3.19,0,0,1,.78-2.29,2.84,2.84,0,0,1,2.14-.81,3.45,3.45,0,0,1,1.06.14v1.26a1.9,1.9,0,0,0-.42-.11,3.45,3.45,0,0,0-.57,0,1.49,1.49,0,0,0-1.16.46,2,2,0,0,0-.43,1.4v.21h2.4v1.2Z"/><path class="cls-1" d="M79.17,363.77a3.22,3.22,0,0,1-.43.27,4.06,4.06,0,0,1-.62.28,4.67,4.67,0,0,1-.84.22,5.44,5.44,0,0,1-1,.09,4.23,4.23,0,0,1-3.18-1.13A4.41,4.41,0,0,1,72,360.31a5.17,5.17,0,0,1,.3-1.81,3.82,3.82,0,0,1,.82-1.35,3.6,3.6,0,0,1,1.25-.85,4.22,4.22,0,0,1,1.57-.29,4.07,4.07,0,0,1,1.6.3,2.85,2.85,0,0,1,1.16.9,3.41,3.41,0,0,1,.62,1.46,6,6,0,0,1,0,2H73.43a2.87,2.87,0,0,0,.8,2,3.06,3.06,0,0,0,2.14.66,4.53,4.53,0,0,0,1.65-.27,5.35,5.35,0,0,0,1.15-.6Zm-3.29-6.51a2.29,2.29,0,0,0-1.57.56,2.6,2.6,0,0,0-.83,1.69h4.46a2,2,0,0,0-.53-1.7A2.14,2.14,0,0,0,75.88,357.26Z"/><path class="cls-1" d="M85.91,362.89a5.16,5.16,0,0,1-.37.6,3,3,0,0,1-.56.57,2.68,2.68,0,0,1-.79.41,3.17,3.17,0,0,1-1.07.16,2.55,2.55,0,0,1-1.8-.63,2.34,2.34,0,0,1-.69-1.82,2.26,2.26,0,0,1,1-2,4.89,4.89,0,0,1,2.71-.64h1.55v-.68a1.56,1.56,0,0,0-.44-1.24,2.53,2.53,0,0,0-1.54-.36,4.43,4.43,0,0,0-1.46.24,8.27,8.27,0,0,0-1.23.57v-1.26a6.77,6.77,0,0,1,1.21-.54,5.22,5.22,0,0,1,1.67-.26,3.74,3.74,0,0,1,2.39.65,2.41,2.41,0,0,1,.81,2v4.47c0,.09,0,.2,0,.33s0,.24,0,.37,0,.25,0,.36,0,.21,0,.28H86.05q0-.23-.09-.63c0-.27,0-.51,0-.71Zm-2.48.49a2.19,2.19,0,0,0,1.12-.27,2.49,2.49,0,0,0,.75-.64,2.76,2.76,0,0,0,.42-.7,1.82,1.82,0,0,0,.12-.49v-.62h-1.4a3.45,3.45,0,0,0-1.84.37,1.19,1.19,0,0,0-.56,1.08,1.3,1.3,0,0,0,.33.92A1.4,1.4,0,0,0,83.43,363.38Z"/><path class="cls-1" d="M92.87,364.54a3.89,3.89,0,0,1-.85.09,2.81,2.81,0,0,1-1-.17,2,2,0,0,1-.7-.48,1.74,1.74,0,0,1-.39-.67,2.53,2.53,0,0,1-.12-.77v-5.17h-1v-1.2h1v-1.75h1.41v1.75H93.6v1.2H91.19v5a1,1,0,0,0,.26.77,1.42,1.42,0,0,0,.94.24,1.91,1.91,0,0,0,1.13-.35v1.27A3.19,3.19,0,0,1,92.87,364.54Z"/><path class="cls-1" d="M99.69,364.16a3.2,3.2,0,0,1-1.81.47A2.65,2.65,0,0,1,96,364a2.59,2.59,0,0,1-.71-2v-5.81h1.42V362a1.66,1.66,0,0,0,.12.68,1,1,0,0,0,.33.42,1.17,1.17,0,0,0,.49.23,3,3,0,0,0,.62.06,2.4,2.4,0,0,0,1.48-.41,3.39,3.39,0,0,0,1-1.14v-5.66h1.41v8.3h-1.25l-.13-1.49h0A2.9,2.9,0,0,1,99.69,364.16Z"/><path class="cls-1" d="M106.92,358a2.4,2.4,0,0,0-1.08,1.16v5.28h-1.4v-8.3h1.23l.14,1.81h0a3.94,3.94,0,0,1,1-1.29,3.11,3.11,0,0,1,1.69-.68v1.57A4.33,4.33,0,0,0,106.92,358Z"/><path class="cls-1" d="M116.63,363.77a3.22,3.22,0,0,1-.43.27,4.21,4.21,0,0,1-.63.28,4.34,4.34,0,0,1-.83.22,5.52,5.52,0,0,1-1,.09,4.21,4.21,0,0,1-3.18-1.13,4.41,4.41,0,0,1-1.09-3.19,5.41,5.41,0,0,1,.29-1.81,4,4,0,0,1,.83-1.35,3.66,3.66,0,0,1,1.24-.85,4.29,4.29,0,0,1,1.57-.29,4,4,0,0,1,1.6.3,2.79,2.79,0,0,1,1.16.9,3.41,3.41,0,0,1,.63,1.46,6,6,0,0,1,0,2h-5.86a2.91,2.91,0,0,0,.8,2,3.09,3.09,0,0,0,2.15.66,4.53,4.53,0,0,0,1.65-.27,5.59,5.59,0,0,0,1.15-.6Zm-3.3-6.51a2.31,2.31,0,0,0-1.57.56,2.69,2.69,0,0,0-.83,1.69h4.47a2.07,2.07,0,0,0-.53-1.7A2.17,2.17,0,0,0,113.33,357.26Z"/><path class="cls-1" d="M117.35,366.39l5.07-14h1.28l-5.07,14Z"/><path class="cls-1" d="M124.82,359.8v-1.46l6.59-3v1.28L126,359.08l5.38,2.48v1.28Z"/><path class="cls-1" d="M136.45,361.18l-2.24,3.29h-1.47l3-4.3-2.66-4h1.63l2,2.93,2-2.93h1.45l-2.75,4,2.9,4.33h-1.64Z"/><path class="cls-1" d="M144.5,361.18l-2.24,3.29h-1.47l3-4.3-2.65-4h1.63l2,2.93,2-2.93h1.46l-2.75,4,2.89,4.33h-1.63Z"/><path class="cls-1" d="M152.55,361.18l-2.24,3.29h-1.48l3-4.3-2.65-4h1.63l2,2.93,2-2.93h1.46l-2.75,4,2.89,4.33h-1.63Z"/><path class="cls-1" d="M162.59,364.47h-1.45v-9.66L158,357.24v-1.62l3.41-2.62h1.21Z"/><path class="cls-1" d="M166.56,361.56l5.38-2.48-5.38-2.48v-1.28l6.59,3v1.46l-6.59,3Z"/><path class="cls-1" d="M174.27,366.7a8,8,0,0,0,2.18-3.22,11.81,11.81,0,0,0,.62-4,14.61,14.61,0,0,0-.14-2.12,9.63,9.63,0,0,0-.48-1.92,8.19,8.19,0,0,0-.87-1.69,6.42,6.42,0,0,0-1.31-1.4h1.4a7.37,7.37,0,0,1,2.12,3.13,12,12,0,0,1,.66,4.05,11.19,11.19,0,0,1-.66,4,8.5,8.5,0,0,1-2.12,3.18Z"/><path class="cls-1" d="M63.33,408.37v7.1H61.92v-7.1h-1v-1.2h1V407a3.16,3.16,0,0,1,.79-2.29,2.83,2.83,0,0,1,2.14-.81,3.45,3.45,0,0,1,1.06.14v1.26a2.07,2.07,0,0,0-.42-.11,3.48,3.48,0,0,0-.58,0,1.5,1.5,0,0,0-1.16.46,2,2,0,0,0-.42,1.4v.21h2.4v1.2Z"/><path class="cls-1" d="M73.67,414.77a3.39,3.39,0,0,1-.44.27,3.66,3.66,0,0,1-.62.28,4.34,4.34,0,0,1-.83.22,5.52,5.52,0,0,1-1,.09,4.25,4.25,0,0,1-3.19-1.13,4.45,4.45,0,0,1-1.08-3.19,5.17,5.17,0,0,1,.29-1.81,3.84,3.84,0,0,1,.83-1.35,3.56,3.56,0,0,1,1.24-.85A4.26,4.26,0,0,1,70.4,407a4,4,0,0,1,1.6.3,2.79,2.79,0,0,1,1.16.9,3.41,3.41,0,0,1,.63,1.46,6,6,0,0,1,0,2H67.92a2.91,2.91,0,0,0,.8,2,3.09,3.09,0,0,0,2.15.66,4.43,4.43,0,0,0,1.64-.27,5.44,5.44,0,0,0,1.16-.6Zm-3.3-6.51a2.31,2.31,0,0,0-1.57.56,2.69,2.69,0,0,0-.83,1.69h4.46a2,2,0,0,0-.52-1.7A2.17,2.17,0,0,0,70.37,408.26Z"/><path class="cls-1" d="M80.4,413.89a5,5,0,0,1-.36.6,3.07,3.07,0,0,1-.57.57,2.56,2.56,0,0,1-.79.41,3.11,3.11,0,0,1-1.06.16,2.57,2.57,0,0,1-1.81-.63,2.34,2.34,0,0,1-.69-1.82,2.24,2.24,0,0,1,1-2,4.87,4.87,0,0,1,2.71-.64h1.55v-.68a1.53,1.53,0,0,0-.45-1.24,2.51,2.51,0,0,0-1.54-.36,4.37,4.37,0,0,0-1.45.24,7.82,7.82,0,0,0-1.23.57v-1.26a6.46,6.46,0,0,1,1.21-.54,5.18,5.18,0,0,1,1.67-.26,3.71,3.71,0,0,1,2.38.65,2.41,2.41,0,0,1,.82,2v4.8c0,.12,0,.24,0,.37s0,.25,0,.36,0,.21,0,.28H80.55a4.93,4.93,0,0,1-.09-.63,6.45,6.45,0,0,1,0-.71Zm-2.48.49a2.19,2.19,0,0,0,1.12-.27,2.49,2.49,0,0,0,.75-.64,2.28,2.28,0,0,0,.42-.7,1.6,1.6,0,0,0,.13-.49v-.62H78.93a3.43,3.43,0,0,0-1.83.37,1.19,1.19,0,0,0-.57,1.08,1.26,1.26,0,0,0,.34.92A1.36,1.36,0,0,0,77.92,414.38Z"/><path class="cls-1" d="M87.36,415.54a3.82,3.82,0,0,1-.85.09,2.88,2.88,0,0,1-1-.17,1.94,1.94,0,0,1-.69-.48,1.76,1.76,0,0,1-.4-.67,2.53,2.53,0,0,1-.12-.77v-5.17h-1v-1.2h1v-1.75h1.41v1.75H88.1v1.2H85.68v5a1,1,0,0,0,.27.77,1.37,1.37,0,0,0,.93.24A1.92,1.92,0,0,0,88,414v1.27A3.09,3.09,0,0,1,87.36,415.54Z"/><path class="cls-1" d="M94.19,415.16a3.23,3.23,0,0,1-1.82.47,2.61,2.61,0,0,1-1.86-.65,2.56,2.56,0,0,1-.72-2v-5.81h1.43V413a1.66,1.66,0,0,0,.12.68,1,1,0,0,0,.33.42,1.13,1.13,0,0,0,.48.23,3,3,0,0,0,.62.06,2.44,2.44,0,0,0,1.49-.41,3.64,3.64,0,0,0,1-1.14v-5.66h1.41v8.3H95.38L95.25,414h0A3.06,3.06,0,0,1,94.19,415.16Z"/><path class="cls-1" d="M101.42,409a2.31,2.31,0,0,0-1.08,1.16v5.28H98.93v-8.3h1.23l.15,1.81h0a3.69,3.69,0,0,1,1-1.29A3.11,3.11,0,0,1,103,407v1.57A4.28,4.28,0,0,0,101.42,409Z"/><path class="cls-1" d="M111.12,414.77a2.68,2.68,0,0,1-.43.27,4.06,4.06,0,0,1-.62.28,4.78,4.78,0,0,1-.83.22,5.52,5.52,0,0,1-1,.09A4.25,4.25,0,0,1,105,414.5a4.45,4.45,0,0,1-1.09-3.19,5.17,5.17,0,0,1,.3-1.81,4,4,0,0,1,.82-1.35,3.7,3.7,0,0,1,1.25-.85,4.22,4.22,0,0,1,1.57-.29,4,4,0,0,1,1.6.3,2.79,2.79,0,0,1,1.16.9,3.41,3.41,0,0,1,.62,1.46,6,6,0,0,1,0,2h-5.86a2.87,2.87,0,0,0,.8,2,3.06,3.06,0,0,0,2.14.66,4.53,4.53,0,0,0,1.65-.27,5.35,5.35,0,0,0,1.15-.6Zm-3.29-6.51a2.31,2.31,0,0,0-1.57.56,2.6,2.6,0,0,0-.83,1.69h4.46a2,2,0,0,0-.53-1.7A2.13,2.13,0,0,0,107.83,408.26Z"/><path class="cls-1" d="M111.84,417.39l5.08-14h1.27l-5.07,14Z"/><path class="cls-1" d="M119.31,410.8v-1.46l6.6-3v1.28l-5.38,2.48,5.38,2.48v1.28Z"/><path class="cls-1" d="M131,412.18l-2.24,3.29h-1.48l3-4.3-2.65-4h1.63l2,2.93,2-2.93h1.46l-2.75,4,2.89,4.33h-1.63Z"/><path class="cls-1" d="M139,412.18l-2.24,3.29h-1.47l3-4.3-2.66-4h1.64l2,2.93,2-2.93h1.46l-2.76,4,2.9,4.33h-1.63Z"/><path class="cls-1" d="M147,412.18l-2.24,3.29h-1.47l3-4.3-2.66-4h1.63l2,2.93,2-2.93h1.45l-2.75,4,2.9,4.33h-1.63Z"/><path class="cls-1" d="M159.23,415.47h-7.31V414c1-.78,1.81-1.48,2.52-2.09a17,17,0,0,0,1.75-1.68,6.49,6.49,0,0,0,1-1.47,3.31,3.31,0,0,0,.33-1.45,2.13,2.13,0,0,0-.56-1.53,2.22,2.22,0,0,0-1.66-.58,3.38,3.38,0,0,0-1.7.45,5.4,5.4,0,0,0-1.4,1.13v-1.61a4.81,4.81,0,0,1,1.37-.95,4.31,4.31,0,0,1,1.78-.35,4.87,4.87,0,0,1,1.59.24,3.35,3.35,0,0,1,1.17.67,3,3,0,0,1,.72,1,3.68,3.68,0,0,1,.25,1.35,4.32,4.32,0,0,1-.36,1.75,6.61,6.61,0,0,1-1.07,1.63,15.54,15.54,0,0,1-1.73,1.69c-.69.58-1.48,1.22-2.36,1.9h5.64Z"/><path class="cls-1" d="M161.06,412.56l5.37-2.48-5.37-2.48v-1.28l6.59,3v1.46l-6.59,3Z"/><path class="cls-1" d="M63.33,469.37v7.1H61.92v-7.1h-1v-1.2h1V468a3.16,3.16,0,0,1,.79-2.29,2.83,2.83,0,0,1,2.14-.81,3.45,3.45,0,0,1,1.06.14v1.26a2.07,2.07,0,0,0-.42-.11,3.48,3.48,0,0,0-.58,0,1.5,1.5,0,0,0-1.16.46,2,2,0,0,0-.42,1.4v.21h2.4v1.2Z"/><path class="cls-1" d="M73.67,475.77a3.39,3.39,0,0,1-.44.27,3.66,3.66,0,0,1-.62.28,4.34,4.34,0,0,1-.83.22,5.52,5.52,0,0,1-1,.09,4.25,4.25,0,0,1-3.19-1.13,4.45,4.45,0,0,1-1.08-3.19,5.17,5.17,0,0,1,.29-1.81,3.84,3.84,0,0,1,.83-1.35,3.56,3.56,0,0,1,1.24-.85A4.26,4.26,0,0,1,70.4,468a4,4,0,0,1,1.6.3,2.79,2.79,0,0,1,1.16.9,3.41,3.41,0,0,1,.63,1.46,6,6,0,0,1,0,2H67.92a2.91,2.91,0,0,0,.8,2,3.09,3.09,0,0,0,2.15.66,4.43,4.43,0,0,0,1.64-.27,5.44,5.44,0,0,0,1.16-.6Zm-3.3-6.51a2.31,2.31,0,0,0-1.57.56,2.69,2.69,0,0,0-.83,1.69h4.46a2,2,0,0,0-.52-1.7A2.17,2.17,0,0,0,70.37,469.26Z"/><path class="cls-1" d="M80.4,474.89a5,5,0,0,1-.36.6,3.07,3.07,0,0,1-.57.57,2.56,2.56,0,0,1-.79.41,3.11,3.11,0,0,1-1.06.16,2.57,2.57,0,0,1-1.81-.63,2.34,2.34,0,0,1-.69-1.82,2.24,2.24,0,0,1,1-2,4.87,4.87,0,0,1,2.71-.64h1.55v-.68a1.53,1.53,0,0,0-.45-1.24,2.51,2.51,0,0,0-1.54-.36,4.37,4.37,0,0,0-1.45.24,7.82,7.82,0,0,0-1.23.57v-1.26a6.46,6.46,0,0,1,1.21-.54,5.18,5.18,0,0,1,1.67-.26,3.71,3.71,0,0,1,2.38.65,2.41,2.41,0,0,1,.82,2v4.8c0,.12,0,.24,0,.37s0,.25,0,.36,0,.21,0,.28H80.55a4.93,4.93,0,0,1-.09-.63,6.45,6.45,0,0,1,0-.71Zm-2.48.49a2.19,2.19,0,0,0,1.12-.27,2.49,2.49,0,0,0,.75-.64,2.28,2.28,0,0,0,.42-.7,1.6,1.6,0,0,0,.13-.49v-.62H78.93a3.43,3.43,0,0,0-1.83.37,1.19,1.19,0,0,0-.57,1.08,1.26,1.26,0,0,0,.34.92A1.36,1.36,0,0,0,77.92,475.38Z"/><path class="cls-1" d="M87.36,476.54a3.82,3.82,0,0,1-.85.09,2.88,2.88,0,0,1-1-.17,1.94,1.94,0,0,1-.69-.48,1.76,1.76,0,0,1-.4-.67,2.53,2.53,0,0,1-.12-.77v-5.17h-1v-1.2h1v-1.75h1.41v1.75H88.1v1.2H85.68v5a1,1,0,0,0,.27.77,1.37,1.37,0,0,0,.93.24A1.92,1.92,0,0,0,88,475v1.27A3.09,3.09,0,0,1,87.36,476.54Z"/><path class="cls-1" d="M94.19,476.16a3.23,3.23,0,0,1-1.82.47,2.61,2.61,0,0,1-1.86-.65,2.56,2.56,0,0,1-.72-2v-5.81h1.43V474a1.66,1.66,0,0,0,.12.68,1,1,0,0,0,.33.42,1.13,1.13,0,0,0,.48.23,3,3,0,0,0,.62.06,2.44,2.44,0,0,0,1.49-.41,3.64,3.64,0,0,0,1-1.14v-5.66h1.41v8.3H95.38L95.25,475h0A3.06,3.06,0,0,1,94.19,476.16Z"/><path class="cls-1" d="M101.42,470a2.31,2.31,0,0,0-1.08,1.16v5.28H98.93v-8.3h1.23l.15,1.81h0a3.69,3.69,0,0,1,1-1.29A3.11,3.11,0,0,1,103,468v1.57A4.28,4.28,0,0,0,101.42,470Z"/><path class="cls-1" d="M111.12,475.77a2.68,2.68,0,0,1-.43.27,4.06,4.06,0,0,1-.62.28,4.78,4.78,0,0,1-.83.22,5.52,5.52,0,0,1-1,.09A4.25,4.25,0,0,1,105,475.5a4.45,4.45,0,0,1-1.09-3.19,5.17,5.17,0,0,1,.3-1.81,4,4,0,0,1,.82-1.35,3.7,3.7,0,0,1,1.25-.85,4.22,4.22,0,0,1,1.57-.29,4,4,0,0,1,1.6.3,2.79,2.79,0,0,1,1.16.9,3.41,3.41,0,0,1,.62,1.46,6,6,0,0,1,0,2h-5.86a2.87,2.87,0,0,0,.8,2,3.06,3.06,0,0,0,2.14.66,4.53,4.53,0,0,0,1.65-.27,5.35,5.35,0,0,0,1.15-.6Zm-3.29-6.51a2.31,2.31,0,0,0-1.57.56,2.6,2.6,0,0,0-.83,1.69h4.46a2,2,0,0,0-.53-1.7A2.13,2.13,0,0,0,107.83,469.26Z"/><path class="cls-1" d="M111.84,478.39l5.08-14h1.27l-5.07,14Z"/><path class="cls-1" d="M119.31,471.8v-1.46l6.6-3v1.28l-5.38,2.48,5.38,2.48v1.28Z"/><path class="cls-1" d="M131,473.18l-2.24,3.29h-1.48l3-4.3-2.65-4h1.63l2,2.93,2-2.93h1.46l-2.75,4,2.89,4.33h-1.63Z"/><path class="cls-1" d="M139,473.18l-2.24,3.29h-1.47l3-4.3-2.66-4h1.64l2,2.93,2-2.93h1.46l-2.76,4,2.9,4.33h-1.63Z"/><path class="cls-1" d="M147,473.18l-2.24,3.29h-1.47l3-4.3-2.66-4h1.63l2,2.93,2-2.93h1.45l-2.75,4,2.9,4.33h-1.63Z"/><path class="cls-1" d="M159.33,473.16a3.19,3.19,0,0,1-1.15,2.54,3.85,3.85,0,0,1-1.3.69,5.41,5.41,0,0,1-1.66.24,6.22,6.22,0,0,1-1.94-.27,4.16,4.16,0,0,1-1.33-.7v-1.6a4.45,4.45,0,0,0,1.35.88,4.65,4.65,0,0,0,1.93.38,2.9,2.9,0,0,0,1.87-.56,1.93,1.93,0,0,0,.68-1.57,1.85,1.85,0,0,0-.61-1.49,2.82,2.82,0,0,0-1.9-.54h-1.48V469.8h1.54a2.17,2.17,0,0,0,1.47-.48,1.74,1.74,0,0,0,.56-1.39,1.61,1.61,0,0,0-.53-1.29,2.23,2.23,0,0,0-1.52-.47,3.8,3.8,0,0,0-1.75.38,7.67,7.67,0,0,0-1.32.9v-1.57a4.64,4.64,0,0,1,1.33-.75,5,5,0,0,1,1.76-.29,4.54,4.54,0,0,1,1.47.22,3.13,3.13,0,0,1,1.11.61,2.7,2.7,0,0,1,.7.95,3.07,3.07,0,0,1,.24,1.23,2.67,2.67,0,0,1-.16,1,2.48,2.48,0,0,1-.44.76,2.56,2.56,0,0,1-.65.53,2.5,2.5,0,0,1-.78.31,3.53,3.53,0,0,1,1,.31,3.29,3.29,0,0,1,.81.57,2.53,2.53,0,0,1,.55.81A2.77,2.77,0,0,1,159.33,473.16Z"/><path class="cls-1" d="M161.06,473.56l5.37-2.48-5.37-2.48v-1.28l6.59,3v1.46l-6.59,3Z"/><path class="cls-1" d="M228.76,490.7h3.66a5,5,0,0,1,3,.81,2.94,2.94,0,0,1,1.08,2.52,4,4,0,0,1-.32,1.67,2.9,2.9,0,0,1-.87,1.14,3.61,3.61,0,0,1-1.33.66,6.59,6.59,0,0,1-1.72.21h-2v4.46h-1.5Zm1.5,1.36v4.29h2a4.67,4.67,0,0,0,1.1-.13,2.53,2.53,0,0,0,.86-.4,1.84,1.84,0,0,0,.56-.72A2.6,2.6,0,0,0,235,494a1.7,1.7,0,0,0-.68-1.51,3.24,3.24,0,0,0-1.92-.47Z"/><path class="cls-1" d="M243,500.59a5,5,0,0,1-.36.6,3.07,3.07,0,0,1-.57.57,2.56,2.56,0,0,1-.79.41,3.11,3.11,0,0,1-1.06.16,2.57,2.57,0,0,1-1.81-.63,2.34,2.34,0,0,1-.69-1.82,2.24,2.24,0,0,1,1-2,4.87,4.87,0,0,1,2.71-.64H243v-.68a1.53,1.53,0,0,0-.45-1.24A2.51,2.51,0,0,0,241,495a4.37,4.37,0,0,0-1.45.24,7.82,7.82,0,0,0-1.23.57v-1.26a6.63,6.63,0,0,1,1.2-.54,5.28,5.28,0,0,1,1.68-.26,3.71,3.71,0,0,1,2.38.65,2.41,2.41,0,0,1,.82,2v4.8c0,.12,0,.24,0,.37s0,.25,0,.36,0,.21,0,.28h-1.28a4.93,4.93,0,0,1-.09-.63,6.45,6.45,0,0,1,0-.71Zm-2.48.49a2.19,2.19,0,0,0,1.12-.27,2.79,2.79,0,0,0,1.17-1.34A1.6,1.6,0,0,0,243,499v-.62h-1.41a3.43,3.43,0,0,0-1.83.37,1.19,1.19,0,0,0-.57,1.08,1.26,1.26,0,0,0,.34.92A1.36,1.36,0,0,0,240.55,501.08Z"/><path class="cls-1" d="M254.07,498a5,5,0,0,1-.31,1.84,3.84,3.84,0,0,1-.85,1.35,3.53,3.53,0,0,1-1.27.84,4.18,4.18,0,0,1-1.6.29,4.49,4.49,0,0,1-1.62-.29,3.24,3.24,0,0,1-1.26-.91,4.22,4.22,0,0,1-.82-1.53,7.18,7.18,0,0,1-.3-2.2q0-1,.06-2a9.26,9.26,0,0,1,.29-1.75,5.24,5.24,0,0,1,.65-1.46,3.58,3.58,0,0,1,1.14-1.08,3.43,3.43,0,0,1,.84-.36,6.09,6.09,0,0,1,.87-.18,6.54,6.54,0,0,1,.89-.08l.88,0a7.93,7.93,0,0,0,1.07-.16,3.35,3.35,0,0,0,.77-.31v1.28a2.43,2.43,0,0,1-.75.31c-.26.06-.58.11-.95.16l-1.67.12a3.22,3.22,0,0,0-1.39.36,2.38,2.38,0,0,0-1.12,1.33,7.38,7.38,0,0,0-.41,2.11,3.1,3.1,0,0,1,3.13-1.92,3.74,3.74,0,0,1,1.47.28,3.22,3.22,0,0,1,1.18.82,3.78,3.78,0,0,1,.79,1.34A5.06,5.06,0,0,1,254.07,498Zm-4,3.07a2.86,2.86,0,0,0,1-.18,2.22,2.22,0,0,0,.83-.56,2.62,2.62,0,0,0,.54-1,5,5,0,0,0,0-2.72,2.62,2.62,0,0,0-.54-1,2.22,2.22,0,0,0-.83-.56,2.86,2.86,0,0,0-1-.18,2.45,2.45,0,0,0-1.83.73,3.14,3.14,0,0,0-.73,2.28,4.41,4.41,0,0,0,.19,1.39,2.75,2.75,0,0,0,.54,1,2.07,2.07,0,0,0,.81.57A2.8,2.8,0,0,0,250,501.08Z"/><path class="cls-1" d="M259.24,502.33a4.11,4.11,0,0,1-1.58-.29,3.56,3.56,0,0,1-1.28-.84,4,4,0,0,1-.84-1.35,5.18,5.18,0,0,1-.3-1.84,5.24,5.24,0,0,1,.3-1.83,4,4,0,0,1,.84-1.35,3.68,3.68,0,0,1,1.28-.83,4.11,4.11,0,0,1,1.58-.29,4.18,4.18,0,0,1,1.6.29,3.63,3.63,0,0,1,1.27.83,3.84,3.84,0,0,1,.85,1.35,5,5,0,0,1,.31,1.83,5,5,0,0,1-.31,1.84,3.84,3.84,0,0,1-.85,1.35,3.53,3.53,0,0,1-1.27.84A4.18,4.18,0,0,1,259.24,502.33Zm0-1.25a2.86,2.86,0,0,0,1-.18,2.22,2.22,0,0,0,.83-.56,2.62,2.62,0,0,0,.54-1,5,5,0,0,0,0-2.72,2.62,2.62,0,0,0-.54-1,2.22,2.22,0,0,0-.83-.56,2.86,2.86,0,0,0-1-.18,2.8,2.8,0,0,0-1,.18,2.15,2.15,0,0,0-.81.56,2.62,2.62,0,0,0-.54,1,5,5,0,0,0,0,2.72,2.62,2.62,0,0,0,.54,1,2.15,2.15,0,0,0,.81.56A2.8,2.8,0,0,0,259.24,501.08Z"/><path class="cls-1" d="M268.09,495.07v7.1h-1.41v-7.1h-2.61v-1.2h6.67v1.2Z"/><path class="cls-1" d="M277,500.59a5.16,5.16,0,0,1-.37.6,2.74,2.74,0,0,1-.56.57,2.68,2.68,0,0,1-.79.41,3.11,3.11,0,0,1-1.06.16,2.57,2.57,0,0,1-1.81-.63,2.34,2.34,0,0,1-.69-1.82,2.26,2.26,0,0,1,.95-2,4.91,4.91,0,0,1,2.71-.64h1.56v-.68a1.53,1.53,0,0,0-.45-1.24A2.51,2.51,0,0,0,275,495a4.37,4.37,0,0,0-1.45.24,8.4,8.4,0,0,0-1.24.57v-1.26a7.12,7.12,0,0,1,1.21-.54,5.27,5.27,0,0,1,1.67-.26,3.74,3.74,0,0,1,2.39.65,2.41,2.41,0,0,1,.81,2v4.47c0,.09,0,.2,0,.33s0,.24,0,.37,0,.25,0,.36,0,.21,0,.28h-1.28a5.27,5.27,0,0,1-.08-.63,6.45,6.45,0,0,1,0-.71Zm-2.48.49a2.19,2.19,0,0,0,1.12-.27,2.49,2.49,0,0,0,.75-.64,2.76,2.76,0,0,0,.42-.7,2,2,0,0,0,.13-.49v-.62h-1.41a3.43,3.43,0,0,0-1.83.37,1.19,1.19,0,0,0-.57,1.08,1.3,1.3,0,0,0,.33.92A1.4,1.4,0,0,0,274.52,501.08Z"/><path class="cls-1" d="M289.5,498.49h-4v3.68h-1.41v-8.3h1.41v3.42h4v-3.42h1.4v8.3h-1.4Z"/><path class="cls-1" d="M298.07,500.59a4.08,4.08,0,0,1-.37.6,2.74,2.74,0,0,1-.56.57,2.56,2.56,0,0,1-.79.41,3.11,3.11,0,0,1-1.06.16,2.57,2.57,0,0,1-1.81-.63,2.34,2.34,0,0,1-.69-1.82,2.26,2.26,0,0,1,.95-2,4.93,4.93,0,0,1,2.72-.64H298v-.68a1.53,1.53,0,0,0-.45-1.24A2.51,2.51,0,0,0,296,495a4.37,4.37,0,0,0-1.45.24,7.82,7.82,0,0,0-1.23.57v-1.26a6.63,6.63,0,0,1,1.2-.54,5.28,5.28,0,0,1,1.68-.26,3.71,3.71,0,0,1,2.38.65,2.41,2.41,0,0,1,.82,2v4.8c0,.12,0,.24,0,.37s0,.25,0,.36,0,.21,0,.28h-1.28a3.61,3.61,0,0,1-.09-.63,6.45,6.45,0,0,1,0-.71Zm-2.48.49a2.19,2.19,0,0,0,1.12-.27,2.79,2.79,0,0,0,1.17-1.34A2,2,0,0,0,298,499v-.62H296.6a3.43,3.43,0,0,0-1.83.37,1.19,1.19,0,0,0-.57,1.08,1.26,1.26,0,0,0,.34.92A1.36,1.36,0,0,0,295.59,501.08Z"/><path class="cls-1" d="M301.25,501a1.78,1.78,0,0,0,.71-.85,6.23,6.23,0,0,0,.4-1.45,18.15,18.15,0,0,0,.2-2.08c0-.8.07-1.71.1-2.72h5.72V501h1.24v3.57h-1.23l-.18-2.37H302l-.15,2.37h-1.26V501Zm5.72,0v-5.9h-3a36.46,36.46,0,0,1-.3,3.77,4.85,4.85,0,0,1-.74,2.13Z"/><path class="cls-1" d="M320,498.49h-4v3.68h-1.4v-8.3H316v3.42h4v-3.42h1.41v8.3H320Z"/><path class="cls-1" d="M327.16,502.33a4.16,4.16,0,0,1-1.59-.29,3.53,3.53,0,0,1-1.27-.84,3.69,3.69,0,0,1-.84-1.35,5.18,5.18,0,0,1-.3-1.84,5.24,5.24,0,0,1,.3-1.83,3.69,3.69,0,0,1,.84-1.35,3.63,3.63,0,0,1,1.27-.83,4.16,4.16,0,0,1,1.59-.29,4.21,4.21,0,0,1,1.6.29,3.63,3.63,0,0,1,1.27.83,3.84,3.84,0,0,1,.85,1.35,5,5,0,0,1,.31,1.83,5,5,0,0,1-.31,1.84,3.84,3.84,0,0,1-.85,1.35,3.53,3.53,0,0,1-1.27.84A4.21,4.21,0,0,1,327.16,502.33Zm0-1.25a2.86,2.86,0,0,0,1-.18,2.18,2.18,0,0,0,.82-.56,2.5,2.5,0,0,0,.55-1,5,5,0,0,0,0-2.72,2.5,2.5,0,0,0-.55-1,2.18,2.18,0,0,0-.82-.56,2.86,2.86,0,0,0-1-.18,2.82,2.82,0,0,0-1,.18,2,2,0,0,0-.8.56,2.62,2.62,0,0,0-.54,1,5,5,0,0,0,0,2.72,2.62,2.62,0,0,0,.54,1,2,2,0,0,0,.8.56A2.82,2.82,0,0,0,327.16,501.08Z"/><path class="cls-1" d="M332.9,493.87H336a4,4,0,0,1,2.27.52,1.82,1.82,0,0,1,.77,1.62,1.78,1.78,0,0,1-.38,1.18,2.15,2.15,0,0,1-1.06.63,1.84,1.84,0,0,1,1.77,2,2.2,2.2,0,0,1-.25,1.09,2,2,0,0,1-.71.75,3.08,3.08,0,0,1-1.08.41,6.57,6.57,0,0,1-1.37.13H332.9Zm1.41,1.2v2.25h1.57a2.57,2.57,0,0,0,1.29-.28,1,1,0,0,0,.05-1.73,2.58,2.58,0,0,0-1.23-.24Zm0,3.37V501H336a6.51,6.51,0,0,0,.81-.05,2.15,2.15,0,0,0,.62-.2,1.1,1.1,0,0,0,.41-.39,1.2,1.2,0,0,0,.14-.59,1.07,1.07,0,0,0-.49-1,3.06,3.06,0,0,0-1.49-.29Z"/><path class="cls-1" d="M347.64,499.4a2.84,2.84,0,0,1-.26,1.25,2.34,2.34,0,0,1-.72.87,3.16,3.16,0,0,1-1.1.49,5.58,5.58,0,0,1-1.39.16h-2.68v-8.3h1.41v2.89h1.36a4.25,4.25,0,0,1,2.48.63A2.27,2.27,0,0,1,347.64,499.4ZM342.9,498v3h1.27a2.85,2.85,0,0,0,1.48-.34,1.25,1.25,0,0,0,.56-1.15,1.3,1.3,0,0,0-.51-1.16,2.47,2.47,0,0,0-1.44-.36Zm7.35,4.21h-1.41v-8.3h1.41Z"/><path class="cls-1" d="M360.47,495.5l-2.82,5.74h-1.12l-2.65-5.77v6.7h-1.33v-8.3h2.1l2.54,5.57,2.72-5.57h1.95v8.3h-1.39Z"/><path class="cls-1" d="M365.57,500.25l4.44-6.38h1.42v8.3H370V495.8l-4.41,6.37h-1.44v-8.3h1.4Z"/><path class="cls-1" d="M267.83,515a4.53,4.53,0,0,1-.35,1.83,3.85,3.85,0,0,1-1,1.32,3.94,3.94,0,0,1-1.42.83,6.09,6.09,0,0,1-1.73.31V522H262v-2.7a5.85,5.85,0,0,1-1.76-.32,4.39,4.39,0,0,1-1.41-.82,3.61,3.61,0,0,1-.95-1.32,4.53,4.53,0,0,1-.35-1.83,4.46,4.46,0,0,1,.35-1.81,4,4,0,0,1,1-1.33,4.26,4.26,0,0,1,1.42-.82,6.1,6.1,0,0,1,1.74-.31v-3.2h1.4v3.2a5.77,5.77,0,0,1,1.74.32,4.29,4.29,0,0,1,1.41.82,3.85,3.85,0,0,1,1,1.32A4.49,4.49,0,0,1,267.83,515ZM259,515a3.56,3.56,0,0,0,.23,1.33,2.71,2.71,0,0,0,.64.93,2.91,2.91,0,0,0,1,.57,4.19,4.19,0,0,0,1.2.22V512a3.88,3.88,0,0,0-1.21.23,2.59,2.59,0,0,0-.95.57,2.66,2.66,0,0,0-.64.94A3.43,3.43,0,0,0,259,515Zm7.44,0a3.5,3.5,0,0,0-.23-1.32,2.58,2.58,0,0,0-.64-.93,2.91,2.91,0,0,0-.95-.56,3.76,3.76,0,0,0-1.19-.23v6.09a4.19,4.19,0,0,0,1.2-.23,2.77,2.77,0,0,0,.95-.57,2.55,2.55,0,0,0,.63-.92A3.56,3.56,0,0,0,266.39,515Z"/><path class="cls-1" d="M272.87,520.4a4.23,4.23,0,0,1-.72,1,2.5,2.5,0,0,1-.89.6,2.9,2.9,0,0,1-1.14.2,3.65,3.65,0,0,1-.59,0,1.93,1.93,0,0,1-.5-.13v-1.35a1.33,1.33,0,0,0,.45.2,2.21,2.21,0,0,0,.59.08,1.61,1.61,0,0,0,1-.29,2.9,2.9,0,0,0,.73-.9l-3.37-8.86H270l2.64,7,2.62-7h1.36l-3.1,8.21A10.28,10.28,0,0,1,272.87,520.4Z"/><path class="cls-1" d="M283.4,515.49h-4v3.68H278v-8.3h1.4v3.42h4v-3.42h1.41v8.3H283.4Z"/><path class="cls-1" d="M289.26,515.64h-.74v3.53h-1.41v-8.3h1.41v3.57h.8l2.91-3.57h1.6L290.42,515l3.48,4.21h-1.72Z"/><path class="cls-1" d="M302.15,519.17h-6.77v-8.3h1.41V518h4.08v-7.1h1.41V518h1.25v3.57h-1.2Z"/><path class="cls-1" d="M306.41,517.25l4.43-6.38h1.42v8.3h-1.4V512.8l-4.42,6.37H305v-8.3h1.41Z"/><path class="cls-1" d="M314.57,513.56a2.64,2.64,0,0,1,.25-1.21,2.14,2.14,0,0,1,.72-.83,3.13,3.13,0,0,1,1.11-.49,5.53,5.53,0,0,1,1.39-.16h2.67v8.3H319.3v-3h-1.52l-2.12,3H314l2.4-3.36A2.79,2.79,0,0,1,315,515,2.14,2.14,0,0,1,314.57,513.56Zm4.73,1.4v-2.89H318a2.91,2.91,0,0,0-1.47.33,1.17,1.17,0,0,0-.58,1.09,1.27,1.27,0,0,0,.51,1.13A2.63,2.63,0,0,0,318,515Z"/><path class="cls-1" d="M330.94,512.5l-2.82,5.74H327l-2.66-5.77v6.7H323v-8.3h2.09l2.55,5.57,2.72-5.57h1.95v8.3h-1.39Z"/><path class="cls-1" d="M336,517.25l4.43-6.38h1.43v8.3h-1.41V512.8l-4.42,6.37h-1.44v-8.3H336Z"/><line class="cls-4" x1="309.25" y1="350.5" x2="331.25" y2="350.5"/><circle class="cls-1" cx="309.25" cy="350.5" r="2.19"/><polygon class="cls-1" points="330.26 353.89 336.12 350.5 330.26 347.11 330.26 353.89"/><line class="cls-4" x1="475" y1="470" x2="511" y2="470"/><circle class="cls-1" cx="475" cy="470" r="2.19"/><polygon class="cls-1" points="510.01 473.39 515.87 470 510.01 466.61 510.01 473.39"/><line class="cls-4" x1="360" y1="470" x2="377" y2="470"/><circle class="cls-1" cx="360" cy="470" r="2.19"/><polygon class="cls-1" points="376.01 473.39 381.87 470 376.01 466.61 376.01 473.39"/><line class="cls-4" x1="315" y1="470" x2="332" y2="470"/><circle class="cls-1" cx="315" cy="470" r="2.19"/><polygon class="cls-1" points="331.01 473.39 336.87 470 331.01 466.61 331.01 473.39"/><line class="cls-4" x1="260" y1="470" x2="287" y2="470"/><circle class="cls-1" cx="260" cy="470" r="2.19"/><polygon class="cls-1" points="286.01 473.39 291.87 470 286.01 466.61 286.01 473.39"/><line class="cls-4" x1="530.25" y1="460.5" x2="530.5" y2="88.5"/><path class="cls-1" d="M532.44,460.5a2.19,2.19,0,1,1-2.19-2.19A2.19,2.19,0,0,1,532.44,460.5Z"/><polygon class="cls-1" points="533.89 89.49 530.5 83.63 527.12 89.49 533.89 89.49"/><line class="cls-4" x1="329.25" y1="410.5" x2="351.25" y2="410.5"/><circle class="cls-1" cx="329.25" cy="410.5" r="2.19"/><polygon class="cls-1" points="350.26 413.89 356.12 410.5 350.26 407.11 350.26 413.89"/><line class="cls-4" x1="400.25" y1="340.5" x2="400.25" y2="88"/><path class="cls-1" d="M402.44,340.5a2.19,2.19,0,1,1-2.19-2.19A2.19,2.19,0,0,1,402.44,340.5Z"/><polygon class="cls-1" points="403.64 88.99 400.25 83.13 396.86 88.99 403.64 88.99"/><polyline class="cls-5" points="290.5 560.5 290.5 559.5 289.5 559.5"/><line class="cls-6" x1="286.5" y1="559.5" x2="63" y2="559.5"/><polyline class="cls-5" points="61.5 559.5 60.5 559.5 60.5 560.5"/><line class="cls-6" x1="60.5" y1="563.5" x2="60.5" y2="607"/><polyline class="cls-5" points="60.5 608.5 60.5 609.5 61.5 609.5"/><line class="cls-6" x1="64.5" y1="609.5" x2="288" y2="609.5"/><polyline class="cls-5" points="289.5 609.5 290.5 609.5 290.5 608.5"/><line class="cls-6" x1="290.5" y1="605.5" x2="290.5" y2="562"/><line class="cls-4" x1="209.5" y1="350" x2="221.25" y2="350"/><circle class="cls-1" cx="209.5" cy="350" r="2.19"/><polygon class="cls-1" points="220.26 353.39 226.12 350 220.26 346.61 220.26 353.39"/><line class="cls-4" x1="330" y1="190" x2="330" y2="88"/><path class="cls-1" d="M332.19,190a2.19,2.19,0,1,1-2.19-2.19A2.19,2.19,0,0,1,332.19,190Z"/><polygon class="cls-1" points="333.39 88.99 330 83.13 326.61 88.99 333.39 88.99"/><use width="20" height="20" transform="translate(320 60)" xlink:href="#dark_circle"/><use width="20" height="20" transform="translate(520 60)" xlink:href="#dark_circle"/><circle class="cls-1" cx="189" cy="584" r="7.5"/><path class="cls-1" d="M206.09,580h3a4,4,0,0,1,2.46.66,2.36,2.36,0,0,1,.88,2,3.27,3.27,0,0,1-.25,1.36,2.46,2.46,0,0,1-.71.93,3,3,0,0,1-1.09.54,5.5,5.5,0,0,1-1.4.16h-1.65v3.63h-1.22Zm1.22,1.11v3.48H209a4.13,4.13,0,0,0,.9-.1,2,2,0,0,0,.7-.33,1.54,1.54,0,0,0,.45-.58,2.08,2.08,0,0,0,.16-.87,1.4,1.4,0,0,0-.54-1.23,2.75,2.75,0,0,0-1.56-.37Z"/><path class="cls-1" d="M217.36,589.07a2.64,2.64,0,0,1-1.48.38,2.11,2.11,0,0,1-1.51-.53,2.08,2.08,0,0,1-.58-1.63v-4.72h1.15v4.73a1.48,1.48,0,0,0,.1.56.93.93,0,0,0,.27.34,1,1,0,0,0,.4.19,2.49,2.49,0,0,0,.5.05,2,2,0,0,0,1.21-.34,2.86,2.86,0,0,0,.77-.93v-4.6h1.15v6.75h-1l-.1-1.21h0A2.46,2.46,0,0,1,217.36,589.07Z"/><path class="cls-1" d="M222.35,580v9.32h-1.14V580Z"/><path class="cls-1" d="M225.36,580v9.32h-1.15V580Z"/><path class="cls-1" d="M232.1,584.09a1.88,1.88,0,0,0-.88.94v4.29h-1.14v-6.75h1l.11,1.47h0a3.15,3.15,0,0,1,.82-1,2.61,2.61,0,0,1,1.38-.56v1.28A3.49,3.49,0,0,0,232.1,584.09Z"/><path class="cls-1" d="M240,588.75a2.13,2.13,0,0,1-.35.22,3.08,3.08,0,0,1-.51.23,5,5,0,0,1-.67.18,4.36,4.36,0,0,1-.85.07,3.43,3.43,0,0,1-2.58-.92,3.6,3.6,0,0,1-.89-2.59,4.28,4.28,0,0,1,.24-1.47,3.25,3.25,0,0,1,4.26-1.78,2.35,2.35,0,0,1,.94.73,2.74,2.74,0,0,1,.51,1.19,4.75,4.75,0,0,1,0,1.64h-4.76a2.38,2.38,0,0,0,.65,1.64,2.47,2.47,0,0,0,1.75.55,3.61,3.61,0,0,0,1.34-.23,4,4,0,0,0,.93-.48Zm-2.68-5.29a1.9,1.9,0,0,0-1.27.45,2.21,2.21,0,0,0-.68,1.38H239a1.65,1.65,0,0,0-.43-1.38A1.74,1.74,0,0,0,237.3,583.46Z"/><path class="cls-1" d="M247.43,591.62h-1.14V588.1a2.53,2.53,0,0,1-.87,1,2.45,2.45,0,0,1-1.37.36,3.22,3.22,0,0,1-1.16-.21,2.82,2.82,0,0,1-1-.65,3.12,3.12,0,0,1-.66-1.09,4.33,4.33,0,0,1-.25-1.56,4.25,4.25,0,0,1,.25-1.54,3,3,0,0,1,.66-1.09,2.63,2.63,0,0,1,1-.65,3.27,3.27,0,0,1,1.16-.22,2.61,2.61,0,0,1,1.37.35,2.46,2.46,0,0,1,.91,1v-.12c0-.15,0-.34,0-.56a4.44,4.44,0,0,1,.06-.52h1.06a4.82,4.82,0,0,0-.05.52c0,.23,0,.42,0,.56Zm-3.21-3.18a2.21,2.21,0,0,0,.82-.15,1.78,1.78,0,0,0,.66-.47,2.24,2.24,0,0,0,.44-.78,3.25,3.25,0,0,0,.16-1.09,3.35,3.35,0,0,0-.16-1.1,2.29,2.29,0,0,0-.44-.77,1.9,1.9,0,0,0-.66-.47,2.21,2.21,0,0,0-.82-.15,1.86,1.86,0,0,0-1.46.63,3.32,3.32,0,0,0,0,3.72A1.89,1.89,0,0,0,244.22,588.44Z"/><path class="cls-1" d="M252.79,589.07a2.61,2.61,0,0,1-1.47.38,2.14,2.14,0,0,1-1.52-.53,2.11,2.11,0,0,1-.58-1.63v-4.72h1.16v4.73a1.31,1.31,0,0,0,.1.56.76.76,0,0,0,.27.34,1,1,0,0,0,.39.19,2.57,2.57,0,0,0,.5.05,2,2,0,0,0,1.21-.34,3,3,0,0,0,.78-.93v-4.6h1.15v6.75h-1l-.1-1.21h0A2.4,2.4,0,0,1,252.79,589.07Z"/><path class="cls-1" d="M262,588.75a3.56,3.56,0,0,1-.35.22,3.08,3.08,0,0,1-.51.23,5.13,5.13,0,0,1-.68.18,4.32,4.32,0,0,1-.84.07,3.44,3.44,0,0,1-2.59-.92,3.6,3.6,0,0,1-.88-2.59,4.28,4.28,0,0,1,.24-1.47,3,3,0,0,1,1.68-1.79,3.49,3.49,0,0,1,2.57,0,2.45,2.45,0,0,1,.95.73,2.86,2.86,0,0,1,.5,1.19,5,5,0,0,1,0,1.64h-4.76a2.3,2.3,0,0,0,.65,1.64,2.44,2.44,0,0,0,1.74.55,3.57,3.57,0,0,0,1.34-.23,4.34,4.34,0,0,0,.94-.48Zm-2.68-5.29a1.92,1.92,0,0,0-1.28.45,2.21,2.21,0,0,0-.67,1.38H261a1.65,1.65,0,0,0-.42-1.38A1.76,1.76,0,0,0,259.34,583.46Z"/><path class="cls-1" d="M265.69,589.45a5.32,5.32,0,0,1-.94-.08,4.67,4.67,0,0,1-.71-.21,2.79,2.79,0,0,1-.52-.26,2.64,2.64,0,0,1-.32-.24v-1a2.24,2.24,0,0,0,.35.28,3.72,3.72,0,0,0,.53.28,4.24,4.24,0,0,0,.71.22,4.82,4.82,0,0,0,.89.08,2.38,2.38,0,0,0,1.16-.24.82.82,0,0,0,.43-.79.78.78,0,0,0-.14-.48.91.91,0,0,0-.37-.29,3.42,3.42,0,0,0-.54-.18l-.64-.13c-.29-.06-.57-.12-.85-.2a2.65,2.65,0,0,1-.75-.32,1.58,1.58,0,0,1-.76-1.47,1.7,1.7,0,0,1,.71-1.43,3.39,3.39,0,0,1,2-.52,4.84,4.84,0,0,1,1.26.15,3.5,3.5,0,0,1,.85.31v1a3,3,0,0,0-.83-.37,4.45,4.45,0,0,0-1.25-.15,2.77,2.77,0,0,0-1.17.2.76.76,0,0,0-.41.76.69.69,0,0,0,.12.43.72.72,0,0,0,.31.26,1.62,1.62,0,0,0,.47.15l.54.12.91.2a2.57,2.57,0,0,1,.84.32,1.68,1.68,0,0,1,.85,1.59,1.91,1.91,0,0,1-.23,1,1.75,1.75,0,0,1-.62.62,2.74,2.74,0,0,1-.87.32A4.78,4.78,0,0,1,265.69,589.45Z"/><path class="cls-1" d="M272.58,589.37a2.49,2.49,0,0,1-.68.08,2.3,2.3,0,0,1-.84-.14,1.69,1.69,0,0,1-.57-.39,1.49,1.49,0,0,1-.32-.54,2.28,2.28,0,0,1-.09-.63v-4.2h-.81v-1h.81v-1.41h1.14v1.41h2v1h-2v4.07a.82.82,0,0,0,.21.62,1.17,1.17,0,0,0,.77.2,1.62,1.62,0,0,0,.92-.29v1A2,2,0,0,1,272.58,589.37Z"/><use width="20" height="20" transform="translate(385 460)" xlink:href="#Black"/><g class="cls-7"><line class="cls-8" x1="405.13" y1="470" x2="446.88" y2="470"/><circle class="cls-9" cx="405.13" cy="470" r="3.68"/><polygon class="cls-9" points="446.62 470.87 448.13 470 446.62 469.13 446.62 470.87"/></g><line class="cls-4" x1="405.13" y1="470" x2="446.88" y2="470"/><circle class="cls-1" cx="405.13" cy="470" r="2.19"/><polygon class="cls-1" points="445.88 473.39 451.75 470 445.88 466.61 445.88 473.39"/><use width="20" height="20" transform="translate(360 400)" xlink:href="#Black"/><g class="cls-7"><polyline class="cls-8" points="379.5 410.5 459.5 410.5 460.5 85.5"/><circle class="cls-9" cx="379.5" cy="410.5" r="3.68"/><polygon class="cls-9" points="461.37 85.76 460.5 84.24 459.63 85.75 461.37 85.76"/></g><path class="cls-4" d="M379.5,410.5h78a2,2,0,0,0,2-2l1-323"/><circle class="cls-1" cx="379.5" cy="410.5" r="2.19"/><polygon class="cls-1" points="463.88 86.5 460.51 80.63 457.11 86.48 463.88 86.5"/><use width="20" height="20" transform="translate(230 340)" xlink:href="#dark_circle"/><g class="cls-7"><line class="cls-8" x1="359.25" y1="350.5" x2="382.25" y2="350.5"/><circle class="cls-9" cx="359.25" cy="350.5" r="3.68"/><polygon class="cls-9" points="382 351.37 383.51 350.5 382 349.63 382 351.37"/></g><line class="cls-4" x1="359.25" y1="350.5" x2="382.25" y2="350.5"/><circle class="cls-1" cx="359.25" cy="350.5" r="2.19"/><polygon class="cls-1" points="381.26 353.89 387.12 350.5 381.26 347.11 381.26 353.89"/><use width="20" height="20" transform="translate(260 60)" xlink:href="#dark_circle"/><path class="cls-4" d="M270,80V408a2,2,0,0,0,2,2h29"/><path class="cls-1" d="M267.81,80A2.19,2.19,0,1,1,270,82.19,2.19,2.19,0,0,1,267.81,80Z"/><polygon class="cls-1" points="300.01 413.39 305.87 410 300.01 406.61 300.01 413.39"/><line class="cls-4" x1="200" y1="80" x2="200" y2="330"/><path class="cls-1" d="M197.81,80A2.19,2.19,0,1,1,200,82.19,2.19,2.19,0,0,1,197.81,80Z"/><polygon class="cls-1" points="196.61 329.01 200 334.87 203.39 329.01 196.61 329.01"/><path class="cls-1" d="M379.13,21h3.66a5,5,0,0,1,3,.81,2.94,2.94,0,0,1,1.08,2.52,4,4,0,0,1-.31,1.67,3.1,3.1,0,0,1-.87,1.14,3.58,3.58,0,0,1-1.34.66,6.54,6.54,0,0,1-1.72.21h-2v4.46h-1.5Zm1.5,1.36v4.29h2a4.7,4.7,0,0,0,1.11-.13,2.48,2.48,0,0,0,.85-.4,1.76,1.76,0,0,0,.56-.72,2.46,2.46,0,0,0,.2-1.07,1.69,1.69,0,0,0-.67-1.5,3.28,3.28,0,0,0-1.92-.47Z"/><path class="cls-1" d="M395,31.77a2.68,2.68,0,0,1-.43.27,4.06,4.06,0,0,1-.62.28,4.55,4.55,0,0,1-.83.22,5.52,5.52,0,0,1-1,.09,4.25,4.25,0,0,1-3.19-1.13,4.45,4.45,0,0,1-1.09-3.19,5.17,5.17,0,0,1,.3-1.81,4,4,0,0,1,.82-1.35,3.7,3.7,0,0,1,1.25-.85,4.26,4.26,0,0,1,1.57-.29,4,4,0,0,1,1.6.3,2.79,2.79,0,0,1,1.16.9,3.41,3.41,0,0,1,.62,1.46,6,6,0,0,1,0,2h-5.86a2.87,2.87,0,0,0,.8,2,3.08,3.08,0,0,0,2.14.66,4.53,4.53,0,0,0,1.65-.27,5.35,5.35,0,0,0,1.15-.6Zm-3.29-6.51a2.31,2.31,0,0,0-1.57.56,2.64,2.64,0,0,0-.83,1.69h4.46a2,2,0,0,0-.53-1.7A2.13,2.13,0,0,0,391.69,25.26Z"/><path class="cls-1" d="M397.62,29.9a10.32,10.32,0,0,0,.29-2.21c0-.93.07-2.1.07-3.52h5.58v8.3h-1.42v-7.1H399.3c0,1.14,0,2.15-.1,3a9.94,9.94,0,0,1-.37,2.24A2.9,2.9,0,0,1,398,32a2.08,2.08,0,0,1-1.44.47h-.27V31.1h.21C397.06,31.11,397.43,30.71,397.62,29.9Z"/><path class="cls-1" d="M407.25,30.55l4.44-6.38h1.42v8.3H411.7V26.1l-4.41,6.37h-1.44v-8.3h1.4Z"/><path class="cls-1" d="M421.3,30.05a2.37,2.37,0,0,1-.28,1.2,2.32,2.32,0,0,1-.76.8,3.69,3.69,0,0,1-1.11.45,6.29,6.29,0,0,1-1.32.13,6,6,0,0,1-1.61-.19,3.75,3.75,0,0,1-1.09-.46V30.72a4.41,4.41,0,0,0,1.18.49,6.41,6.41,0,0,0,1.49.17,3.48,3.48,0,0,0,1.53-.3,1,1,0,0,0,.61-1,1.06,1.06,0,0,0-.52-1,3.38,3.38,0,0,0-1.59-.29h-1.1V27.64h1.15a2.37,2.37,0,0,0,1.34-.32,1.05,1.05,0,0,0,.47-.93.9.9,0,0,0-.15-.53,1.19,1.19,0,0,0-.41-.36,2,2,0,0,0-.6-.19,4.26,4.26,0,0,0-.73,0,5,5,0,0,0-1.37.17,4.2,4.2,0,0,0-1.14.5V24.66a3.93,3.93,0,0,1,1.08-.46,5.5,5.5,0,0,1,1.54-.19,3.88,3.88,0,0,1,2.3.57,2,2,0,0,1,.77,1.66,1.75,1.75,0,0,1-.44,1.28,2.33,2.33,0,0,1-1.24.64,2.54,2.54,0,0,1,1.5.63A1.67,1.67,0,0,1,421.3,30.05Z"/><path class="cls-1" d="M388,50.47H386.5V40.81l-3.17,2.43V41.62L386.74,39H388Z"/><path class="cls-1" d="M393.23,50.57a1,1,0,0,1-1-1,1,1,0,0,1,.29-.74,1.13,1.13,0,0,1,1.49,0,1,1,0,0,1,.29.74,1,1,0,0,1-.29.71A1,1,0,0,1,393.23,50.57Z"/><path class="cls-1" d="M403.79,47.16a3.37,3.37,0,0,1-.3,1.44,3.26,3.26,0,0,1-.85,1.1,3.85,3.85,0,0,1-1.3.69,5.41,5.41,0,0,1-1.66.24,6.22,6.22,0,0,1-1.94-.27,4.1,4.1,0,0,1-1.32-.7v-1.6a4.52,4.52,0,0,0,1.34.88,4.66,4.66,0,0,0,1.94.38,2.87,2.87,0,0,0,1.86-.56,1.93,1.93,0,0,0,.68-1.57,1.85,1.85,0,0,0-.61-1.49,2.8,2.8,0,0,0-1.9-.54h-1.47V43.8h1.53a2.17,2.17,0,0,0,1.47-.48,1.7,1.7,0,0,0,.56-1.39,1.63,1.63,0,0,0-.52-1.29,2.25,2.25,0,0,0-1.52-.47,3.81,3.81,0,0,0-1.76.38,7.67,7.67,0,0,0-1.32.9V39.88a4.64,4.64,0,0,1,1.33-.75,5,5,0,0,1,1.76-.29,4.45,4.45,0,0,1,1.47.22,3.26,3.26,0,0,1,1.12.61,2.8,2.8,0,0,1,.69.95,3.07,3.07,0,0,1,.24,1.23,2.67,2.67,0,0,1-.16,1,2.48,2.48,0,0,1-.44.76,2.56,2.56,0,0,1-.65.53,2.4,2.4,0,0,1-.78.31,3.53,3.53,0,0,1,1,.31,3.11,3.11,0,0,1,.81.57,2.53,2.53,0,0,1,.55.81A2.77,2.77,0,0,1,403.79,47.16Z"/><path class="cls-1" d="M406.83,50.57a1,1,0,0,1-1-1,1,1,0,0,1,.29-.74,1.13,1.13,0,0,1,1.49,0,1,1,0,0,1,.29.74,1,1,0,0,1-.29.71A1,1,0,0,1,406.83,50.57Z"/><path class="cls-1" d="M413.63,50.63a3.35,3.35,0,0,1-1.51-.34,3.2,3.2,0,0,1-1.2-1.07,5.67,5.67,0,0,1-.79-1.84,10.84,10.84,0,0,1-.29-2.65,10.73,10.73,0,0,1,.29-2.65,5.52,5.52,0,0,1,.79-1.83,3.17,3.17,0,0,1,1.2-1.06,3.48,3.48,0,0,1,1.51-.33,3.4,3.4,0,0,1,1.5.33,3.2,3.2,0,0,1,1.19,1.05,5.58,5.58,0,0,1,.78,1.82,11.12,11.12,0,0,1,.28,2.64,11.25,11.25,0,0,1-.28,2.64,6,6,0,0,1-.78,1.85,3.24,3.24,0,0,1-1.19,1.09A3.28,3.28,0,0,1,413.63,50.63Zm0-1.26a1.73,1.73,0,0,0,1.66-1,4.84,4.84,0,0,0,.44-1.43,13.24,13.24,0,0,0,.15-2.17,14.55,14.55,0,0,0-.14-2.16,4.63,4.63,0,0,0-.44-1.44,1.86,1.86,0,0,0-.7-.78,1.9,1.9,0,0,0-1-.24,1.79,1.79,0,0,0-1.69,1,4.91,4.91,0,0,0-.44,1.44,14.73,14.73,0,0,0,0,4.33,4.56,4.56,0,0,0,.44,1.43,1.78,1.78,0,0,0,.71.79A1.91,1.91,0,0,0,413.62,49.37Z"/><use width="20" height="20" transform="translate(390 60)" xlink:href="#dark_circle"/><path class="cls-1" d="M449.13,21h3.66a5,5,0,0,1,3,.81,2.94,2.94,0,0,1,1.08,2.52,4,4,0,0,1-.31,1.67,3.1,3.1,0,0,1-.87,1.14,3.58,3.58,0,0,1-1.34.66,6.54,6.54,0,0,1-1.72.21h-2v4.46h-1.5Zm1.5,1.36v4.29h2a4.7,4.7,0,0,0,1.11-.13,2.48,2.48,0,0,0,.85-.4,1.76,1.76,0,0,0,.56-.72,2.46,2.46,0,0,0,.2-1.07,1.69,1.69,0,0,0-.67-1.5,3.28,3.28,0,0,0-1.92-.47Z"/><path class="cls-1" d="M465,31.77a2.68,2.68,0,0,1-.43.27,4.06,4.06,0,0,1-.62.28,4.55,4.55,0,0,1-.83.22,5.52,5.52,0,0,1-1,.09,4.25,4.25,0,0,1-3.19-1.13,4.45,4.45,0,0,1-1.09-3.19,5.17,5.17,0,0,1,.3-1.81,4,4,0,0,1,.82-1.35,3.7,3.7,0,0,1,1.25-.85,4.26,4.26,0,0,1,1.57-.29,4,4,0,0,1,1.6.3,2.79,2.79,0,0,1,1.16.9,3.41,3.41,0,0,1,.62,1.46,6,6,0,0,1,0,2h-5.86a2.87,2.87,0,0,0,.8,2,3.08,3.08,0,0,0,2.14.66,4.53,4.53,0,0,0,1.65-.27,5.35,5.35,0,0,0,1.15-.6Zm-3.29-6.51a2.31,2.31,0,0,0-1.57.56,2.64,2.64,0,0,0-.83,1.69h4.46a2,2,0,0,0-.53-1.7A2.13,2.13,0,0,0,461.69,25.26Z"/><path class="cls-1" d="M467.62,29.9a10.32,10.32,0,0,0,.29-2.21c0-.93.07-2.1.07-3.52h5.58v8.3h-1.42v-7.1H469.3c0,1.14,0,2.15-.1,3a9.94,9.94,0,0,1-.37,2.24A2.9,2.9,0,0,1,468,32a2.08,2.08,0,0,1-1.44.47h-.27V31.1h.21C467.06,31.11,467.43,30.71,467.62,29.9Z"/><path class="cls-1" d="M477.25,30.55l4.44-6.38h1.42v8.3H481.7V26.1l-4.41,6.37h-1.44v-8.3h1.4Z"/><path class="cls-1" d="M491.3,30.05a2.37,2.37,0,0,1-.28,1.2,2.32,2.32,0,0,1-.76.8,3.69,3.69,0,0,1-1.11.45,6.29,6.29,0,0,1-1.32.13,6,6,0,0,1-1.61-.19,3.75,3.75,0,0,1-1.09-.46V30.72a4.41,4.41,0,0,0,1.18.49,6.41,6.41,0,0,0,1.49.17,3.48,3.48,0,0,0,1.53-.3,1,1,0,0,0,.61-1,1.06,1.06,0,0,0-.52-1,3.38,3.38,0,0,0-1.59-.29h-1.1V27.64h1.15a2.37,2.37,0,0,0,1.34-.32,1.05,1.05,0,0,0,.47-.93.9.9,0,0,0-.15-.53,1.19,1.19,0,0,0-.41-.36,2,2,0,0,0-.6-.19,4.26,4.26,0,0,0-.73,0,5,5,0,0,0-1.37.17,4.2,4.2,0,0,0-1.14.5V24.66a3.93,3.93,0,0,1,1.08-.46,5.5,5.5,0,0,1,1.54-.19,3.88,3.88,0,0,1,2.3.57,2,2,0,0,1,.77,1.66,1.75,1.75,0,0,1-.44,1.28,2.33,2.33,0,0,1-1.24.64,2.54,2.54,0,0,1,1.5.63A1.67,1.67,0,0,1,491.3,30.05Z"/><path class="cls-1" d="M458,50.47H456.5V40.81l-3.17,2.43V41.62L456.74,39H458Z"/><path class="cls-1" d="M463.23,50.57a1,1,0,0,1-1-1,1,1,0,0,1,.29-.74,1.13,1.13,0,0,1,1.49,0,1,1,0,0,1,.29.74,1,1,0,0,1-.29.71A1,1,0,0,1,463.23,50.57Z"/><path class="cls-1" d="M472.4,47.75v2.72H471V47.75h-5v-1L470.51,39h1.89v7.54H474v1.21ZM471,46.54v-6l-3.5,6Z"/><path class="cls-1" d="M476.83,50.57a1,1,0,0,1-1-1,1,1,0,0,1,.29-.74,1.13,1.13,0,0,1,1.49,0,1,1,0,0,1,.29.74,1,1,0,0,1-.29.71A1,1,0,0,1,476.83,50.57Z"/><path class="cls-1" d="M483.63,50.63a3.35,3.35,0,0,1-1.51-.34,3.2,3.2,0,0,1-1.2-1.07,5.67,5.67,0,0,1-.79-1.84,10.84,10.84,0,0,1-.29-2.65,10.73,10.73,0,0,1,.29-2.65,5.52,5.52,0,0,1,.79-1.83,3.17,3.17,0,0,1,1.2-1.06,3.48,3.48,0,0,1,1.51-.33,3.4,3.4,0,0,1,1.5.33,3.2,3.2,0,0,1,1.19,1.05,5.58,5.58,0,0,1,.78,1.82,11.12,11.12,0,0,1,.28,2.64,11.25,11.25,0,0,1-.28,2.64,6,6,0,0,1-.78,1.85,3.24,3.24,0,0,1-1.19,1.09A3.28,3.28,0,0,1,483.63,50.63Zm0-1.26a1.73,1.73,0,0,0,1.66-1,4.84,4.84,0,0,0,.44-1.43,13.24,13.24,0,0,0,.15-2.17,14.55,14.55,0,0,0-.14-2.16,4.63,4.63,0,0,0-.44-1.44,1.86,1.86,0,0,0-.7-.78,1.9,1.9,0,0,0-1-.24,1.79,1.79,0,0,0-1.69,1,4.91,4.91,0,0,0-.44,1.44,14.73,14.73,0,0,0,0,4.33,4.56,4.56,0,0,0,.44,1.43,1.78,1.78,0,0,0,.71.79A1.91,1.91,0,0,0,483.62,49.37Z"/><use width="20" height="20" transform="translate(460 60)" xlink:href="#dark_circle"/><path class="cls-1" d="M578.13,21h3.66a5,5,0,0,1,3,.81,2.94,2.94,0,0,1,1.08,2.52,4,4,0,0,1-.31,1.67,3.1,3.1,0,0,1-.87,1.14,3.58,3.58,0,0,1-1.34.66,6.54,6.54,0,0,1-1.72.21h-2v4.46h-1.5Zm1.5,1.36v4.29h2a4.7,4.7,0,0,0,1.11-.13,2.48,2.48,0,0,0,.85-.4,1.76,1.76,0,0,0,.56-.72,2.46,2.46,0,0,0,.2-1.07,1.69,1.69,0,0,0-.67-1.5,3.28,3.28,0,0,0-1.92-.47Z"/><path class="cls-1" d="M594,31.77a2.68,2.68,0,0,1-.43.27,4.06,4.06,0,0,1-.62.28,4.55,4.55,0,0,1-.83.22,5.52,5.52,0,0,1-1,.09,4.25,4.25,0,0,1-3.19-1.13,4.45,4.45,0,0,1-1.09-3.19,5.17,5.17,0,0,1,.3-1.81,4,4,0,0,1,.82-1.35,3.7,3.7,0,0,1,1.25-.85,4.26,4.26,0,0,1,1.57-.29,4,4,0,0,1,1.6.3,2.79,2.79,0,0,1,1.16.9,3.41,3.41,0,0,1,.62,1.46,6,6,0,0,1,0,2h-5.86a2.87,2.87,0,0,0,.8,2,3.08,3.08,0,0,0,2.14.66,4.53,4.53,0,0,0,1.65-.27,5.35,5.35,0,0,0,1.15-.6Zm-3.29-6.51a2.31,2.31,0,0,0-1.57.56,2.64,2.64,0,0,0-.83,1.69h4.46a2,2,0,0,0-.53-1.7A2.13,2.13,0,0,0,590.69,25.26Z"/><path class="cls-1" d="M596.62,29.9a10.32,10.32,0,0,0,.29-2.21c0-.93.07-2.1.07-3.52h5.58v8.3h-1.42v-7.1H598.3c0,1.14,0,2.15-.1,3a9.94,9.94,0,0,1-.37,2.24A2.9,2.9,0,0,1,597,32a2.08,2.08,0,0,1-1.44.47h-.27V31.1h.21C596.06,31.11,596.43,30.71,596.62,29.9Z"/><path class="cls-1" d="M606.25,30.55l4.44-6.38h1.42v8.3H610.7V26.1l-4.41,6.37h-1.44v-8.3h1.4Z"/><path class="cls-1" d="M620.3,30.05a2.37,2.37,0,0,1-.28,1.2,2.32,2.32,0,0,1-.76.8,3.69,3.69,0,0,1-1.11.45,6.29,6.29,0,0,1-1.32.13,6,6,0,0,1-1.61-.19,3.75,3.75,0,0,1-1.09-.46V30.72a4.41,4.41,0,0,0,1.18.49,6.41,6.41,0,0,0,1.49.17,3.48,3.48,0,0,0,1.53-.3,1,1,0,0,0,.61-1,1.06,1.06,0,0,0-.52-1,3.38,3.38,0,0,0-1.59-.29h-1.1V27.64h1.15a2.37,2.37,0,0,0,1.34-.32,1.05,1.05,0,0,0,.47-.93.9.9,0,0,0-.15-.53,1.19,1.19,0,0,0-.41-.36,2,2,0,0,0-.6-.19,4.26,4.26,0,0,0-.73,0,5,5,0,0,0-1.37.17,4.2,4.2,0,0,0-1.14.5V24.66a3.93,3.93,0,0,1,1.08-.46,5.5,5.5,0,0,1,1.54-.19,3.88,3.88,0,0,1,2.3.57,2,2,0,0,1,.77,1.66,1.75,1.75,0,0,1-.44,1.28,2.33,2.33,0,0,1-1.24.64,2.54,2.54,0,0,1,1.5.63A1.67,1.67,0,0,1,620.3,30.05Z"/><path class="cls-1" d="M587,50.47H585.5V40.81l-3.17,2.43V41.62L585.74,39H587Z"/><path class="cls-1" d="M592.23,50.57a1,1,0,0,1-1-1,1,1,0,0,1,.29-.74,1.13,1.13,0,0,1,1.49,0,1,1,0,0,1,.29.74,1,1,0,0,1-.29.71A1,1,0,0,1,592.23,50.57Z"/><path class="cls-1" d="M603,46.71a4.3,4.3,0,0,1-.29,1.6,3.81,3.81,0,0,1-.81,1.24,3.41,3.41,0,0,1-1.21.8,3.89,3.89,0,0,1-1.5.28,4.11,4.11,0,0,1-1.84-.37,3.2,3.2,0,0,1-1.24-1,4.46,4.46,0,0,1-.71-1.59,8.65,8.65,0,0,1-.22-2,13,13,0,0,1,.27-2.75,6.6,6.6,0,0,1,.83-2.14,4,4,0,0,1,1.43-1.38,4.08,4.08,0,0,1,2.08-.5,4.72,4.72,0,0,1,1.42.18,5,5,0,0,1,1,.41v1.43a4.2,4.2,0,0,0-2.41-.71,2.66,2.66,0,0,0-1.32.32,3.15,3.15,0,0,0-.95.87,4.23,4.23,0,0,0-.61,1.32,7.4,7.4,0,0,0-.29,1.62,3.47,3.47,0,0,1,1.21-1.07,3.2,3.2,0,0,1,1.51-.35,4.27,4.27,0,0,1,1.44.24,3.35,3.35,0,0,1,1.17.75,3.49,3.49,0,0,1,.77,1.21A4.46,4.46,0,0,1,603,46.71Zm-3.85,2.64a2.37,2.37,0,0,0,1.63-.65,2.54,2.54,0,0,0,.51-.81,3.12,3.12,0,0,0,.19-1.15,3.31,3.31,0,0,0-.18-1.13,2.36,2.36,0,0,0-.5-.83,2,2,0,0,0-.7-.51,2,2,0,0,0-.79-.17,2.68,2.68,0,0,0-1,.18,2.29,2.29,0,0,0-.78.51,2.49,2.49,0,0,0-.52.83,3.17,3.17,0,0,0-.19,1.16,2.7,2.7,0,0,0,.62,1.86A2.16,2.16,0,0,0,599.1,49.35Z"/><path class="cls-1" d="M605.83,50.57a1,1,0,0,1-1-1,1,1,0,0,1,.29-.74,1.13,1.13,0,0,1,1.49,0,1,1,0,0,1,.29.74,1,1,0,0,1-.29.71A1,1,0,0,1,605.83,50.57Z"/><path class="cls-1" d="M612.63,50.63a3.35,3.35,0,0,1-1.51-.34,3.2,3.2,0,0,1-1.2-1.07,5.67,5.67,0,0,1-.79-1.84,10.84,10.84,0,0,1-.29-2.65,10.73,10.73,0,0,1,.29-2.65,5.52,5.52,0,0,1,.79-1.83,3.17,3.17,0,0,1,1.2-1.06,3.48,3.48,0,0,1,1.51-.33,3.4,3.4,0,0,1,1.5.33,3.2,3.2,0,0,1,1.19,1.05,5.58,5.58,0,0,1,.78,1.82,11.12,11.12,0,0,1,.28,2.64,11.25,11.25,0,0,1-.28,2.64,6,6,0,0,1-.78,1.85,3.24,3.24,0,0,1-1.19,1.09A3.28,3.28,0,0,1,612.63,50.63Zm0-1.26a1.73,1.73,0,0,0,1.66-1,4.84,4.84,0,0,0,.44-1.43,13.24,13.24,0,0,0,.15-2.17,14.55,14.55,0,0,0-.14-2.16,4.63,4.63,0,0,0-.44-1.44,1.86,1.86,0,0,0-.7-.78,1.9,1.9,0,0,0-1-.24,1.79,1.79,0,0,0-1.69,1,4.91,4.91,0,0,0-.44,1.44,14.73,14.73,0,0,0,0,4.33,4.56,4.56,0,0,0,.44,1.43,1.78,1.78,0,0,0,.71.79A1.91,1.91,0,0,0,612.62,49.37Z"/><use width="20" height="20" transform="translate(590 60)" xlink:href="#dark_circle"/><path class="cls-1" d="M452,498.17l6.3-9.47h1.64v11.47h-1.54v-9.42l-6.27,9.42h-1.63V488.7H452Z"/><path class="cls-1" d="M466,500.33a5,5,0,0,1-1.74-.29,3.8,3.8,0,0,1-1.32-.85,3.7,3.7,0,0,1-.83-1.35,5.49,5.49,0,0,1-.29-1.83,5.17,5.17,0,0,1,.3-1.81,3.86,3.86,0,0,1,.84-1.35,3.66,3.66,0,0,1,1.33-.85,5.71,5.71,0,0,1,3.18-.12,3,3,0,0,1,1.06.48v1.27a3.87,3.87,0,0,0-1.15-.51A5.09,5.09,0,0,0,466,493a2.77,2.77,0,0,0-2.14.75,3.37,3.37,0,0,0-.68,2.31,3.43,3.43,0,0,0,.66,2.31,2.63,2.63,0,0,0,2.08.75,5,5,0,0,0,1.38-.18,5.22,5.22,0,0,0,1.15-.47v1.25a4.86,4.86,0,0,1-2.53.65Z"/><path class="cls-1" d="M470.38,491.87H477v8.3h-1.4v-7.1h-3.85v7.1h-1.4Z"/><path class="cls-1" d="M483.51,500.33a3,3,0,0,1-1.65-.45,3.25,3.25,0,0,1-1.12-1.23V503h-1.4V491.87h1.23l.14,1.61a3.43,3.43,0,0,1,1.12-1.29,3,3,0,0,1,1.75-.48A3.8,3.8,0,0,1,485,492a3.44,3.44,0,0,1,1.17.8,4.06,4.06,0,0,1,.8,1.35,6.27,6.27,0,0,1,0,3.8,3.79,3.79,0,0,1-.82,1.35,3.25,3.25,0,0,1-1.18.8A4,4,0,0,1,483.51,500.33Zm-.21-1.25a2.29,2.29,0,0,0,1.79-.76,4.21,4.21,0,0,0,0-4.59,2.29,2.29,0,0,0-1.79-.77,2.59,2.59,0,0,0-1,.19,2.25,2.25,0,0,0-.82.57,2.66,2.66,0,0,0-.54.95,4.66,4.66,0,0,0,0,2.7,2.79,2.79,0,0,0,.54,1,2,2,0,0,0,.82.57A2.79,2.79,0,0,0,483.3,499.08Z"/><path class="cls-1" d="M493.72,498.59a5.16,5.16,0,0,1-.37.6,2.74,2.74,0,0,1-.56.57,2.68,2.68,0,0,1-.79.41,3.11,3.11,0,0,1-1.06.16,2.57,2.57,0,0,1-1.81-.63,2.34,2.34,0,0,1-.69-1.82,2.26,2.26,0,0,1,.95-2,4.91,4.91,0,0,1,2.71-.64h1.56v-.68a1.53,1.53,0,0,0-.45-1.24,2.51,2.51,0,0,0-1.54-.36,4.33,4.33,0,0,0-1.45.24,8.4,8.4,0,0,0-1.24.57v-1.26a7.12,7.12,0,0,1,1.21-.54,5.27,5.27,0,0,1,1.67-.26,3.74,3.74,0,0,1,2.39.65,2.41,2.41,0,0,1,.81,2v4.47c0,.09,0,.2,0,.33s0,.24,0,.37,0,.25,0,.36,0,.21,0,.28h-1.28a5.27,5.27,0,0,1-.08-.63,6.45,6.45,0,0,1,0-.71Zm-2.48.49a2.19,2.19,0,0,0,1.12-.27,2.49,2.49,0,0,0,.75-.64,2.76,2.76,0,0,0,.42-.7,2,2,0,0,0,.13-.49v-.62h-1.41a3.41,3.41,0,0,0-1.83.37,1.19,1.19,0,0,0-.57,1.08,1.3,1.3,0,0,0,.33.92A1.4,1.4,0,0,0,491.24,499.08Z"/><path class="cls-1" d="M497.27,491.87h3.11a4,4,0,0,1,2.27.52,1.82,1.82,0,0,1,.77,1.62,1.78,1.78,0,0,1-.38,1.18,2.15,2.15,0,0,1-1.06.63,1.84,1.84,0,0,1,1.77,2,2.2,2.2,0,0,1-.25,1.09,2,2,0,0,1-.71.75,3.08,3.08,0,0,1-1.08.41,6.57,6.57,0,0,1-1.37.13h-3.07Zm1.41,1.2v2.25h1.57a2.57,2.57,0,0,0,1.29-.28,1,1,0,0,0,0-1.73,2.58,2.58,0,0,0-1.23-.24Zm0,3.37V499h1.65a6.51,6.51,0,0,0,.81-.05,2.15,2.15,0,0,0,.62-.2,1.1,1.1,0,0,0,.41-.39,1.2,1.2,0,0,0,.14-.59,1.07,1.07,0,0,0-.49-1,3.06,3.06,0,0,0-1.49-.29Z"/><path class="cls-1" d="M506.42,497.6a10.32,10.32,0,0,0,.29-2.21c0-.93.07-2.1.07-3.52h5.58v8.3h-1.42v-7.1H508.1c0,1.14,0,2.15-.1,3a9.94,9.94,0,0,1-.37,2.24,2.9,2.9,0,0,1-.81,1.38,2.08,2.08,0,0,1-1.44.47h-.27V498.8h.21C505.87,498.81,506.23,498.41,506.42,497.6Z"/><path class="cls-1" d="M521.26,499.47a3.39,3.39,0,0,1-.44.27,3.66,3.66,0,0,1-.62.28,4.34,4.34,0,0,1-.83.22,5.52,5.52,0,0,1-1,.09,4.25,4.25,0,0,1-3.19-1.13,4.45,4.45,0,0,1-1.08-3.19,5.17,5.17,0,0,1,.29-1.81,3.84,3.84,0,0,1,.83-1.35,3.56,3.56,0,0,1,1.24-.85,4.26,4.26,0,0,1,1.57-.29,4,4,0,0,1,1.6.3,2.79,2.79,0,0,1,1.16.9,3.41,3.41,0,0,1,.63,1.46,6,6,0,0,1,0,2h-5.86a2.91,2.91,0,0,0,.8,2,3.09,3.09,0,0,0,2.15.66,4.43,4.43,0,0,0,1.64-.27,5.44,5.44,0,0,0,1.16-.6ZM518,493a2.31,2.31,0,0,0-1.57.56,2.72,2.72,0,0,0-.83,1.69H520a2,2,0,0,0-.52-1.7A2.17,2.17,0,0,0,518,493Z"/><path class="cls-1" d="M528.68,496.49h-4v3.68h-1.4v-8.3h1.4v3.42h4v-3.42h1.41v8.3h-1.41Z"/><path class="cls-1" d="M533.8,498.25l4.43-6.38h1.43v8.3h-1.41V493.8l-4.42,6.37h-1.44v-8.3h1.41Z"/><path class="cls-1" d="M542,494.56a2.64,2.64,0,0,1,.25-1.21,2.23,2.23,0,0,1,.72-.83A3.13,3.13,0,0,1,544,492a5.53,5.53,0,0,1,1.39-.16h2.67v8.3h-1.41v-3h-1.52l-2.12,3h-1.68l2.4-3.36a2.84,2.84,0,0,1-1.34-.78A2.14,2.14,0,0,1,542,494.56Zm4.73,1.4v-2.89h-1.26a2.91,2.91,0,0,0-1.47.33,1.17,1.17,0,0,0-.58,1.09,1.27,1.27,0,0,0,.51,1.13,2.63,2.63,0,0,0,1.46.34Z"/><path class="cls-1" d="M553.93,491.87h6.65v8.3h-1.4v-7.1h-3.85v7.1h-1.4Z"/><path class="cls-1" d="M566.29,500.33a4.15,4.15,0,0,1-1.58-.29,3.53,3.53,0,0,1-1.27-.84,3.69,3.69,0,0,1-.84-1.35,5.17,5.17,0,0,1-.31-1.84,5.24,5.24,0,0,1,.31-1.83,3.69,3.69,0,0,1,.84-1.35,3.63,3.63,0,0,1,1.27-.83,4.5,4.5,0,0,1,3.18,0,3.68,3.68,0,0,1,1.28.83,3.83,3.83,0,0,1,.84,1.35,5,5,0,0,1,.32,1.83,5,5,0,0,1-.32,1.84,3.83,3.83,0,0,1-.84,1.35,3.56,3.56,0,0,1-1.28.84A4.18,4.18,0,0,1,566.29,500.33Zm0-1.25a2.91,2.91,0,0,0,1-.18,2.18,2.18,0,0,0,.82-.56,2.48,2.48,0,0,0,.54-1,4.72,4.72,0,0,0,0-2.72,2.48,2.48,0,0,0-.54-1,2.18,2.18,0,0,0-.82-.56,2.91,2.91,0,0,0-1-.18,2.8,2.8,0,0,0-1,.18,2.15,2.15,0,0,0-.81.56,2.47,2.47,0,0,0-.53,1,4.72,4.72,0,0,0,0,2.72,2.47,2.47,0,0,0,.53,1,2.15,2.15,0,0,0,.81.56A2.8,2.8,0,0,0,566.29,499.08Z"/><path class="cls-1" d="M427.44,517.33a3,3,0,0,1-1.65-.45,3.25,3.25,0,0,1-1.12-1.23V520h-1.4V508.87h1.23l.14,1.61a3.43,3.43,0,0,1,1.12-1.29,3,3,0,0,1,1.74-.48,3.81,3.81,0,0,1,1.39.26,3.44,3.44,0,0,1,1.17.8,4.06,4.06,0,0,1,.8,1.35,5.65,5.65,0,0,1,.29,1.89,5.43,5.43,0,0,1-.3,1.91,3.79,3.79,0,0,1-.82,1.35,3.25,3.25,0,0,1-1.18.8A4,4,0,0,1,427.44,517.33Zm-.21-1.25a2.29,2.29,0,0,0,1.79-.76,4.21,4.21,0,0,0,0-4.59,2.29,2.29,0,0,0-1.79-.77,2.59,2.59,0,0,0-1,.19,2.25,2.25,0,0,0-.82.57,2.66,2.66,0,0,0-.54.95,4.66,4.66,0,0,0,0,2.7,2.79,2.79,0,0,0,.54,1,2,2,0,0,0,.82.57A2.79,2.79,0,0,0,427.23,516.08Z"/><path class="cls-1" d="M439.47,516.47a2.68,2.68,0,0,1-.43.27,4.06,4.06,0,0,1-.62.28,4.67,4.67,0,0,1-.84.22,5.37,5.37,0,0,1-1,.09,4.24,4.24,0,0,1-3.18-1.13,4.45,4.45,0,0,1-1.09-3.19,5.17,5.17,0,0,1,.3-1.81,4,4,0,0,1,.82-1.35,3.7,3.7,0,0,1,1.25-.85,4.22,4.22,0,0,1,1.57-.29,4,4,0,0,1,1.6.3,2.79,2.79,0,0,1,1.16.9,3.41,3.41,0,0,1,.62,1.46,5.76,5.76,0,0,1,0,2h-5.85a2.87,2.87,0,0,0,.8,2,3.06,3.06,0,0,0,2.14.66,4.53,4.53,0,0,0,1.65-.27,5.35,5.35,0,0,0,1.15-.6ZM436.18,510a2.31,2.31,0,0,0-1.57.56,2.62,2.62,0,0,0-.83,1.69h4.46a2,2,0,0,0-.53-1.7A2.13,2.13,0,0,0,436.18,510Z"/><path class="cls-1" d="M447.36,514.75a2.37,2.37,0,0,1-.28,1.2,2.42,2.42,0,0,1-.76.8,3.45,3.45,0,0,1-1.11.45,6.29,6.29,0,0,1-1.32.13,6,6,0,0,1-1.61-.19,4,4,0,0,1-1.1-.46v-1.26a4.17,4.17,0,0,0,1.19.49,6.35,6.35,0,0,0,1.49.17,3.46,3.46,0,0,0,1.52-.3,1.19,1.19,0,0,0,.1-2,3.43,3.43,0,0,0-1.59-.29h-1.11v-1.12h1.16a2.39,2.39,0,0,0,1.34-.32,1,1,0,0,0,.46-.93.9.9,0,0,0-.15-.53,1.1,1.1,0,0,0-.41-.36,2,2,0,0,0-.6-.19,4.21,4.21,0,0,0-.72-.05,5,5,0,0,0-1.37.17,4.77,4.77,0,0,0-1.15.5v-1.27a4.22,4.22,0,0,1,1.08-.46,5.57,5.57,0,0,1,1.55-.19,3.83,3.83,0,0,1,2.29.57,2,2,0,0,1,.78,1.66,1.79,1.79,0,0,1-.44,1.28,2.37,2.37,0,0,1-1.24.64,2.54,2.54,0,0,1,1.5.63A1.71,1.71,0,0,1,447.36,514.75Z"/><path class="cls-1" d="M452.74,518.4a4.91,4.91,0,0,1-.72,1,2.63,2.63,0,0,1-.9.6,2.9,2.9,0,0,1-1.14.2,3.65,3.65,0,0,1-.59,0,1.86,1.86,0,0,1-.49-.13v-1.35a1.2,1.2,0,0,0,.44.2,2.29,2.29,0,0,0,.6.08,1.57,1.57,0,0,0,1-.29,2.92,2.92,0,0,0,.74-.9l-3.38-8.86h1.55l2.64,7,2.63-7h1.36l-3.11,8.21A10.31,10.31,0,0,1,452.74,518.4Z"/><path class="cls-1" d="M457.84,514.6a10.32,10.32,0,0,0,.29-2.21c0-.93.06-2.1.06-3.52h5.59v8.3h-1.43v-7.1h-2.83c0,1.14,0,2.15-.1,3a9.94,9.94,0,0,1-.37,2.24,2.91,2.91,0,0,1-.82,1.38,2,2,0,0,1-1.43.47h-.27V515.8h.21C457.28,515.81,457.65,515.41,457.84,514.6Z"/><path class="cls-1" d="M472.24,514.4a2.85,2.85,0,0,1-.25,1.25,2.47,2.47,0,0,1-.73.87,3,3,0,0,1-1.1.49,5.58,5.58,0,0,1-1.39.16H466v-8.3h1.4v2.89h1.45a4.22,4.22,0,0,1,2.47.63A2.27,2.27,0,0,1,472.24,514.4ZM467.42,513v3h1.35a2.82,2.82,0,0,0,1.48-.34,1.23,1.23,0,0,0,.57-1.15,1.28,1.28,0,0,0-.52-1.16,2.46,2.46,0,0,0-1.43-.36Z"/><path class="cls-1" d="M476.58,510.07v7.1h-1.41v-7.1h-2.61v-1.2h6.67v1.2Z"/><path class="cls-1" d="M485.49,515.59a5.16,5.16,0,0,1-.37.6,3,3,0,0,1-.56.57,2.68,2.68,0,0,1-.79.41,3.15,3.15,0,0,1-1.06.16,2.57,2.57,0,0,1-1.81-.63,2.34,2.34,0,0,1-.69-1.82,2.26,2.26,0,0,1,1-2,4.89,4.89,0,0,1,2.71-.64h1.55v-.68a1.52,1.52,0,0,0-.44-1.24,2.51,2.51,0,0,0-1.54-.36,4.43,4.43,0,0,0-1.46.24,8.77,8.77,0,0,0-1.23.57v-1.26A6.77,6.77,0,0,1,482,509a5.22,5.22,0,0,1,1.67-.26,3.74,3.74,0,0,1,2.39.65,2.41,2.41,0,0,1,.81,2v4.47c0,.09,0,.2,0,.33s0,.24,0,.37,0,.25,0,.36,0,.21,0,.28h-1.28q0-.23-.09-.63c0-.27,0-.51,0-.71Zm-2.48.49a2.19,2.19,0,0,0,1.12-.27,2.49,2.49,0,0,0,.75-.64,2.76,2.76,0,0,0,.42-.7,1.82,1.82,0,0,0,.12-.49v-.62H484a3.45,3.45,0,0,0-1.84.37,1.21,1.21,0,0,0-.56,1.08,1.3,1.3,0,0,0,.33.92A1.4,1.4,0,0,0,483,516.08Z"/><path class="cls-1" d="M492.3,510.07v7.1h-1.4v-7.1h-2.61v-1.2H495v1.2Z"/><path class="cls-1" d="M501.22,515.59a5.16,5.16,0,0,1-.37.6,3,3,0,0,1-.56.57,2.68,2.68,0,0,1-.79.41,3.17,3.17,0,0,1-1.07.16,2.55,2.55,0,0,1-1.8-.63,2.34,2.34,0,0,1-.69-1.82,2.24,2.24,0,0,1,.95-2,4.89,4.89,0,0,1,2.71-.64h1.55v-.68a1.56,1.56,0,0,0-.44-1.24,2.53,2.53,0,0,0-1.54-.36,4.43,4.43,0,0,0-1.46.24,7.82,7.82,0,0,0-1.23.57v-1.26a6.77,6.77,0,0,1,1.21-.54,5.22,5.22,0,0,1,1.67-.26,3.74,3.74,0,0,1,2.39.65,2.41,2.41,0,0,1,.81,2v4.47c0,.09,0,.2,0,.33s0,.24,0,.37,0,.25,0,.36,0,.21,0,.28h-1.28q0-.23-.09-.63c0-.27,0-.51,0-.71Zm-2.48.49a2.21,2.21,0,0,0,1.12-.27,2.49,2.49,0,0,0,.75-.64,2.76,2.76,0,0,0,.42-.7,1.82,1.82,0,0,0,.12-.49v-.62h-1.4a3.45,3.45,0,0,0-1.84.37,1.19,1.19,0,0,0-.57,1.08,1.3,1.3,0,0,0,.34.92A1.4,1.4,0,0,0,498.74,516.08Z"/><path class="cls-1" d="M512.69,510.5l-2.82,5.74h-1.12l-2.65-5.77v6.7h-1.33v-8.3h2.1l2.54,5.57,2.72-5.57h2v8.3h-1.39Z"/><path class="cls-1" d="M522.05,513.64h-.74v3.53h-1.4v-8.3h1.4v3.57h.8l2.92-3.57h1.6L523.22,513l3.47,4.21H525Z"/><path class="cls-1" d="M531.26,517.33a4.15,4.15,0,0,1-1.58-.29,3.53,3.53,0,0,1-1.27-.84,3.69,3.69,0,0,1-.84-1.35,5.17,5.17,0,0,1-.31-1.84,5.24,5.24,0,0,1,.31-1.83,3.69,3.69,0,0,1,.84-1.35,3.63,3.63,0,0,1,1.27-.83,4.5,4.5,0,0,1,3.18,0,3.68,3.68,0,0,1,1.28.83,3.83,3.83,0,0,1,.84,1.35,5,5,0,0,1,.32,1.83,5,5,0,0,1-.32,1.84,3.83,3.83,0,0,1-.84,1.35,3.56,3.56,0,0,1-1.28.84A4.18,4.18,0,0,1,531.26,517.33Zm0-1.25a2.91,2.91,0,0,0,1-.18,2.18,2.18,0,0,0,.82-.56,2.48,2.48,0,0,0,.54-1,4.72,4.72,0,0,0,0-2.72,2.48,2.48,0,0,0-.54-1,2.18,2.18,0,0,0-.82-.56,2.91,2.91,0,0,0-1-.18,2.8,2.8,0,0,0-1,.18,2.15,2.15,0,0,0-.81.56,2.47,2.47,0,0,0-.53,1,4.72,4.72,0,0,0,0,2.72,2.47,2.47,0,0,0,.53,1,2.15,2.15,0,0,0,.81.56A2.8,2.8,0,0,0,531.26,516.08Z"/><path class="cls-1" d="M536.48,516a1.84,1.84,0,0,0,.71-.85,5.8,5.8,0,0,0,.39-1.45,18,18,0,0,0,.21-2.08c0-.8.07-1.71.1-2.72h5.71V516h1.25v3.57h-1.23l-.18-2.37h-6.17l-.15,2.37h-1.26V516Zm5.71,0v-5.9h-3a34.23,34.23,0,0,1-.29,3.77,4.84,4.84,0,0,1-.75,2.13Z"/><path class="cls-1" d="M546.13,511.65H550v1.28h-3.84Z"/><path class="cls-1" d="M556.26,517.33a3,3,0,0,1-1.66-.45,3.23,3.23,0,0,1-1.11-1.23V520h-1.41V508.87h1.23l.15,1.61a3.35,3.35,0,0,1,1.12-1.29,3,3,0,0,1,1.74-.48,3.8,3.8,0,0,1,1.38.26,3.26,3.26,0,0,1,1.17.8,3.9,3.9,0,0,1,.8,1.35A5.39,5.39,0,0,1,560,513a5.2,5.2,0,0,1-.31,1.91,3.92,3.92,0,0,1-.81,1.35,3.29,3.29,0,0,1-1.19.8A3.87,3.87,0,0,1,556.26,517.33Zm-.21-1.25a2.26,2.26,0,0,0,1.78-.76,4.21,4.21,0,0,0,0-4.59,2.27,2.27,0,0,0-1.78-.77,2.64,2.64,0,0,0-1,.19,2.3,2.3,0,0,0-.81.57,2.67,2.67,0,0,0-.55.95,4.66,4.66,0,0,0,0,2.7,2.81,2.81,0,0,0,.55,1,2.07,2.07,0,0,0,.81.57A2.84,2.84,0,0,0,556.05,516.08Z"/><path class="cls-1" d="M568.29,516.47a3.22,3.22,0,0,1-.43.27,4.21,4.21,0,0,1-.63.28,4.34,4.34,0,0,1-.83.22,5.52,5.52,0,0,1-1,.09,4.21,4.21,0,0,1-3.18-1.13,4.41,4.41,0,0,1-1.09-3.19,5.41,5.41,0,0,1,.29-1.81,4,4,0,0,1,.83-1.35,3.6,3.6,0,0,1,1.25-.85,4.2,4.2,0,0,1,1.56-.29,4,4,0,0,1,1.6.3,2.79,2.79,0,0,1,1.16.9,3.41,3.41,0,0,1,.63,1.46,6,6,0,0,1,0,2h-5.86a2.91,2.91,0,0,0,.8,2,3.09,3.09,0,0,0,2.15.66,4.53,4.53,0,0,0,1.65-.27,5.59,5.59,0,0,0,1.15-.6ZM565,510a2.31,2.31,0,0,0-1.57.56,2.72,2.72,0,0,0-.83,1.69h4.47a2.07,2.07,0,0,0-.53-1.7A2.17,2.17,0,0,0,565,510Z"/><path class="cls-1" d="M570.29,508.87h3.1a4.07,4.07,0,0,1,2.28.52,1.81,1.81,0,0,1,.76,1.62,1.77,1.77,0,0,1-.37,1.18,2.14,2.14,0,0,1-1.07.63,1.84,1.84,0,0,1,1.78,2,2.2,2.2,0,0,1-.26,1.09,2,2,0,0,1-.7.75,3.08,3.08,0,0,1-1.08.41,6.57,6.57,0,0,1-1.37.13h-3.07Zm1.41,1.2v2.25h1.56a2.52,2.52,0,0,0,1.29-.28,1,1,0,0,0,.06-1.73,2.58,2.58,0,0,0-1.23-.24Zm0,3.37V516h1.64a6.51,6.51,0,0,0,.81-.05,2.22,2.22,0,0,0,.63-.2,1.07,1.07,0,0,0,.4-.39,1.1,1.1,0,0,0,.15-.59,1.07,1.07,0,0,0-.5-1,3,3,0,0,0-1.49-.29Z"/><path class="cls-1" d="M585.06,514.4a2.84,2.84,0,0,1-.26,1.25,2.34,2.34,0,0,1-.72.87,3.16,3.16,0,0,1-1.1.49,5.61,5.61,0,0,1-1.4.16h-2.75v-8.3h1.41v2.89h1.44a4.25,4.25,0,0,1,2.48.63A2.27,2.27,0,0,1,585.06,514.4ZM580.24,513v3h1.34a2.8,2.8,0,0,0,1.48-.34,1.23,1.23,0,0,0,.57-1.15,1.3,1.3,0,0,0-.51-1.16,2.47,2.47,0,0,0-1.44-.36Z"/><path class="cls-1" d="M597.33,513a5.18,5.18,0,0,1-.3,1.84,3.79,3.79,0,0,1-.82,1.35A3.34,3.34,0,0,1,595,517a3.86,3.86,0,0,1-1.53.29,4,4,0,0,1-1.44-.25,3.39,3.39,0,0,1-1.18-.75,3.64,3.64,0,0,1-.82-1.21,4.59,4.59,0,0,1-.39-1.63h-1.38v3.68h-1.4v-8.3h1.4v3.42h1.41a5.06,5.06,0,0,1,.42-1.53,3.73,3.73,0,0,1,.82-1.12,3.57,3.57,0,0,1,1.16-.69,4,4,0,0,1,1.4-.24A3.86,3.86,0,0,1,595,509a3.44,3.44,0,0,1,1.22.83,3.79,3.79,0,0,1,.82,1.35A5.24,5.24,0,0,1,597.33,513Zm-3.87,3.07a2.49,2.49,0,0,0,1-.18,1.91,1.91,0,0,0,.76-.56,2.73,2.73,0,0,0,.51-1,5.23,5.23,0,0,0,0-2.72,2.73,2.73,0,0,0-.51-1,1.91,1.91,0,0,0-.76-.56,2.49,2.49,0,0,0-1-.18,2.52,2.52,0,0,0-1,.18,2.06,2.06,0,0,0-.76.56,2.72,2.72,0,0,0-.5,1,5.23,5.23,0,0,0,0,2.72,2.72,2.72,0,0,0,.5,1,2.06,2.06,0,0,0,.76.56A2.52,2.52,0,0,0,593.46,516.08Z"/><line class="cls-4" x1="210" y1="67.5" x2="252" y2="67.5"/><circle class="cls-1" cx="210" cy="67.5" r="2.19"/><polygon class="cls-1" points="251.01 70.89 256.87 67.5 251.01 64.11 251.01 70.89"/><line class="cls-4" x1="280" y1="70" x2="312" y2="70"/><circle class="cls-1" cx="280" cy="70" r="2.19"/><polygon class="cls-1" points="311.01 73.39 316.87 70 311.01 66.61 311.01 73.39"/><line class="cls-4" x1="340" y1="70" x2="382" y2="70"/><circle class="cls-1" cx="340" cy="70" r="2.19"/><polygon class="cls-1" points="381.01 73.39 386.87 70 381.01 66.61 381.01 73.39"/><line class="cls-4" x1="410" y1="70" x2="452" y2="70"/><circle class="cls-1" cx="410" cy="70" r="2.19"/><polygon class="cls-1" points="451.01 73.39 456.87 70 451.01 66.61 451.01 73.39"/><line class="cls-4" x1="480" y1="70" x2="512" y2="70"/><circle class="cls-1" cx="480" cy="70" r="2.19"/><polygon class="cls-1" points="511.01 73.39 516.87 70 511.01 66.61 511.01 73.39"/><line class="cls-4" x1="540" y1="70" x2="582" y2="70"/><circle class="cls-1" cx="540" cy="70" r="2.19"/><polygon class="cls-1" points="581.01 73.39 586.87 70 581.01 66.61 581.01 73.39"/><g class="cls-7"><line class="cls-10" x1="240.25" y1="200.5" x2="310.74" y2="200.5"/><polygon class="cls-3" points="310.49 201.37 312 200.5 310.49 199.63 310.49 201.37"/></g><line class="cls-4" x1="240.25" y1="200.5" x2="312" y2="200.5"/><circle class="cls-1" cx="240.25" cy="200.5" r="2.19"/><polygon class="cls-1" points="311.01 203.89 316.87 200.5 311.01 197.11 311.01 203.89"/><g class="cls-7"><line class="cls-10" x1="249.25" y1="350.5" x2="279.99" y2="350.5"/><polygon class="cls-3" points="279.74 351.37 281.25 350.5 279.74 349.63 279.74 351.37"/></g><line class="cls-4" x1="249.25" y1="350.5" x2="281.25" y2="350.5"/><circle class="cls-1" cx="249.25" cy="350.5" r="2.19"/><polygon class="cls-1" points="280.26 353.89 286.12 350.5 280.26 347.11 280.26 353.89"/></g></svg>