<?xml version="1.0" encoding="UTF-8" standalone="no"?>
<!DOCTYPE svg PUBLIC "-//W3C//DTD SVG 1.1//EN"
 "http://www.w3.org/Graphics/SVG/1.1/DTD/svg11.dtd">
<!-- Generated by graphviz version 2.43.0 (0)
 -->
<!-- Title: snakemake_dag Pages: 1 -->
<svg width="164pt" height="620pt"
 viewBox="0.00 0.00 164.00 620.00" xmlns="http://www.w3.org/2000/svg" xmlns:xlink="http://www.w3.org/1999/xlink">
<g id="graph0" class="graph" transform="scale(1 1) rotate(0) translate(4 616)">
<title>snakemake_dag</title>
<polygon fill="white" stroke="transparent" points="-4,4 -4,-616 160,-616 160,4 -4,4"/>
<!-- 0 -->
<g id="node1" class="node">
<title>0</title>
<path fill="none" stroke="#d85656" stroke-width="2" d="M93,-36C93,-36 63,-36 63,-36 57,-36 51,-30 51,-24 51,-24 51,-12 51,-12 51,-6 57,0 63,0 63,0 93,0 93,0 99,0 105,-6 105,-12 105,-12 105,-24 105,-24 105,-30 99,-36 93,-36"/>
<text text-anchor="middle" x="78" y="-15.5" font-family="sans" font-size="10.00">all</text>
</g>
<!-- 1 -->
<g id="node2" class="node">
<title>1</title>
<path fill="none" stroke="#5692d8" stroke-width="2" d="M98.5,-108C98.5,-108 57.5,-108 57.5,-108 51.5,-108 45.5,-102 45.5,-96 45.5,-96 45.5,-84 45.5,-84 45.5,-78 51.5,-72 57.5,-72 57.5,-72 98.5,-72 98.5,-72 104.5,-72 110.5,-78 110.5,-84 110.5,-84 110.5,-96 110.5,-96 110.5,-102 104.5,-108 98.5,-108"/>
<text text-anchor="middle" x="78" y="-87.5" font-family="sans" font-size="10.00">validation</text>
</g>
<!-- 1&#45;&gt;0 -->
<g id="edge1" class="edge">
<title>1&#45;&gt;0</title>
<path fill="none" stroke="grey" stroke-width="2" d="M78,-71.7C78,-63.98 78,-54.71 78,-46.11"/>
<polygon fill="grey" stroke="grey" stroke-width="2" points="81.5,-46.1 78,-36.1 74.5,-46.1 81.5,-46.1"/>
</g>
<!-- 2 -->
<g id="node3" class="node">
<title>2</title>
<path fill="none" stroke="#56d873" stroke-width="2" d="M109,-180C109,-180 47,-180 47,-180 41,-180 35,-174 35,-168 35,-168 35,-156 35,-156 35,-150 41,-144 47,-144 47,-144 109,-144 109,-144 115,-144 121,-150 121,-156 121,-156 121,-168 121,-168 121,-174 115,-180 109,-180"/>
<text text-anchor="middle" x="78" y="-159.5" font-family="sans" font-size="10.00">pre_validation</text>
</g>
<!-- 2&#45;&gt;1 -->
<g id="edge2" class="edge">
<title>2&#45;&gt;1</title>
<path fill="none" stroke="grey" stroke-width="2" d="M78,-143.7C78,-135.98 78,-126.71 78,-118.11"/>
<polygon fill="grey" stroke="grey" stroke-width="2" points="81.5,-118.1 78,-108.1 74.5,-118.1 81.5,-118.1"/>
</g>
<!-- 3 -->
<g id="node4" class="node">
<title>3</title>
<path fill="none" stroke="#afd856" stroke-width="2" d="M125,-252C125,-252 31,-252 31,-252 25,-252 19,-246 19,-240 19,-240 19,-228 19,-228 19,-222 25,-216 31,-216 31,-216 125,-216 125,-216 131,-216 137,-222 137,-228 137,-228 137,-240 137,-240 137,-246 131,-252 125,-252"/>
<text text-anchor="middle" x="78" y="-231.5" font-family="sans" font-size="10.00">dvc_commit_models</text>
</g>
<!-- 3&#45;&gt;2 -->
<g id="edge3" class="edge">
<title>3&#45;&gt;2</title>
<path fill="none" stroke="grey" stroke-width="2" d="M78,-215.7C78,-207.98 78,-198.71 78,-190.11"/>
<polygon fill="grey" stroke="grey" stroke-width="2" points="81.5,-190.1 78,-180.1 74.5,-190.1 81.5,-190.1"/>
</g>
<!-- 4 -->
<g id="node5" class="node">
<title>4</title>
<path fill="none" stroke="#56c9d8" stroke-width="2" d="M93,-324C93,-324 63,-324 63,-324 57,-324 51,-318 51,-312 51,-312 51,-300 51,-300 51,-294 57,-288 63,-288 63,-288 93,-288 93,-288 99,-288 105,-294 105,-300 105,-300 105,-312 105,-312 105,-318 99,-324 93,-324"/>
<text text-anchor="middle" x="78" y="-303.5" font-family="sans" font-size="10.00">train</text>
</g>
<!-- 4&#45;&gt;3 -->
<g id="edge4" class="edge">
<title>4&#45;&gt;3</title>
<path fill="none" stroke="grey" stroke-width="2" d="M78,-287.7C78,-279.98 78,-270.71 78,-262.11"/>
<polygon fill="grey" stroke="grey" stroke-width="2" points="81.5,-262.1 78,-252.1 74.5,-262.1 81.5,-262.1"/>
</g>
<!-- 5 -->
<g id="node6" class="node">
<title>5</title>
<path fill="none" stroke="#d88d56" stroke-width="2" d="M144,-396C144,-396 12,-396 12,-396 6,-396 0,-390 0,-384 0,-384 0,-372 0,-372 0,-366 6,-360 12,-360 12,-360 144,-360 144,-360 150,-360 156,-366 156,-372 156,-372 156,-384 156,-384 156,-390 150,-396 144,-396"/>
<text text-anchor="middle" x="78" y="-375.5" font-family="sans" font-size="10.00">dvc_commit_and_push_spec</text>
</g>
<!-- 5&#45;&gt;4 -->
<g id="edge5" class="edge">
<title>5&#45;&gt;4</title>
<path fill="none" stroke="grey" stroke-width="2" d="M78,-359.7C78,-351.98 78,-342.71 78,-334.11"/>
<polygon fill="grey" stroke="grey" stroke-width="2" points="81.5,-334.1 78,-324.1 74.5,-334.1 81.5,-334.1"/>
</g>
<!-- 6 -->
<g id="node7" class="node">
<title>6</title>
<path fill="none" stroke="#70d856" stroke-width="2" d="M121,-468C121,-468 35,-468 35,-468 29,-468 23,-462 23,-456 23,-456 23,-444 23,-444 23,-438 29,-432 35,-432 35,-432 121,-432 121,-432 127,-432 133,-438 133,-444 133,-444 133,-456 133,-456 133,-462 127,-468 121,-468"/>
<text text-anchor="middle" x="78" y="-447.5" font-family="sans" font-size="10.00">make_spectrogram</text>
</g>
<!-- 6&#45;&gt;5 -->
<g id="edge6" class="edge">
<title>6&#45;&gt;5</title>
<path fill="none" stroke="grey" stroke-width="2" d="M78,-431.7C78,-423.98 78,-414.71 78,-406.11"/>
<polygon fill="grey" stroke="grey" stroke-width="2" points="81.5,-406.1 78,-396.1 74.5,-406.1 81.5,-406.1"/>
</g>
<!-- 7 -->
<g id="node8" class="node">
<title>7</title>
<path fill="none" stroke="#d8cb56" stroke-width="2" d="M143,-540C143,-540 13,-540 13,-540 7,-540 1,-534 1,-528 1,-528 1,-516 1,-516 1,-510 7,-504 13,-504 13,-504 143,-504 143,-504 149,-504 155,-510 155,-516 155,-516 155,-528 155,-528 155,-534 149,-540 143,-540"/>
<text text-anchor="middle" x="78" y="-519.5" font-family="sans" font-size="10.00">dvc_commit_and_push_wav</text>
</g>
<!-- 7&#45;&gt;6 -->
<g id="edge7" class="edge">
<title>7&#45;&gt;6</title>
<path fill="none" stroke="grey" stroke-width="2" d="M78,-503.7C78,-495.98 78,-486.71 78,-478.11"/>
<polygon fill="grey" stroke="grey" stroke-width="2" points="81.5,-478.1 78,-468.1 74.5,-478.1 81.5,-478.1"/>
</g>
<!-- 8 -->
<g id="node9" class="node">
<title>8</title>
<path fill="none" stroke="#56d8a9" stroke-width="2" d="M108.5,-612C108.5,-612 47.5,-612 47.5,-612 41.5,-612 35.5,-606 35.5,-600 35.5,-600 35.5,-588 35.5,-588 35.5,-582 41.5,-576 47.5,-576 47.5,-576 108.5,-576 108.5,-576 114.5,-576 120.5,-582 120.5,-588 120.5,-588 120.5,-600 120.5,-600 120.5,-606 114.5,-612 108.5,-612"/>
<text text-anchor="middle" x="78" y="-591.5" font-family="sans" font-size="10.00">preprocessing</text>
</g>
<!-- 8&#45;&gt;7 -->
<g id="edge8" class="edge">
<title>8&#45;&gt;7</title>
<path fill="none" stroke="grey" stroke-width="2" d="M78,-575.7C78,-567.98 78,-558.71 78,-550.11"/>
<polygon fill="grey" stroke="grey" stroke-width="2" points="81.5,-550.1 78,-540.1 74.5,-550.1 81.5,-550.1"/>
</g>
</g>
</svg>
