<?xml version="1.0" encoding="UTF-8" standalone="no"?>
<!DOCTYPE svg PUBLIC "-//W3C//DTD SVG 1.1//EN"
 "http://www.w3.org/Graphics/SVG/1.1/DTD/svg11.dtd">
<!-- Generated by graphviz version 2.43.0 (0)
 -->
<!-- Title: snakemake_dag Pages: 1 -->
<svg width="322pt" height="260pt"
 viewBox="0.00 0.00 322.00 260.00" xmlns="http://www.w3.org/2000/svg" xmlns:xlink="http://www.w3.org/1999/xlink">
<g id="graph0" class="graph" transform="scale(1 1) rotate(0) translate(4 256)">
<title>snakemake_dag</title>
<polygon fill="white" stroke="transparent" points="-4,4 -4,-256 318,-256 318,4 -4,4"/>
<!-- 0 -->
<g id="node1" class="node">
<title>0</title>
<path fill="none" stroke="#d85656" stroke-width="2" d="M180.5,-36C180.5,-36 150.5,-36 150.5,-36 144.5,-36 138.5,-30 138.5,-24 138.5,-24 138.5,-12 138.5,-12 138.5,-6 144.5,0 150.5,0 150.5,0 180.5,0 180.5,0 186.5,0 192.5,-6 192.5,-12 192.5,-12 192.5,-24 192.5,-24 192.5,-30 186.5,-36 180.5,-36"/>
<text text-anchor="middle" x="165.5" y="-15.5" font-family="sans" font-size="10.00">all</text>
</g>
<!-- 1 -->
<g id="node2" class="node">
<title>1</title>
<path fill="none" stroke="#56d88a" stroke-width="2" d="M196.5,-108C196.5,-108 134.5,-108 134.5,-108 128.5,-108 122.5,-102 122.5,-96 122.5,-96 122.5,-84 122.5,-84 122.5,-78 128.5,-72 134.5,-72 134.5,-72 196.5,-72 196.5,-72 202.5,-72 208.5,-78 208.5,-84 208.5,-84 208.5,-96 208.5,-96 208.5,-102 202.5,-108 196.5,-108"/>
<text text-anchor="middle" x="165.5" y="-87.5" font-family="sans" font-size="10.00">generate_wav</text>
</g>
<!-- 1&#45;&gt;0 -->
<g id="edge1" class="edge">
<title>1&#45;&gt;0</title>
<path fill="none" stroke="grey" stroke-width="2" d="M165.5,-71.7C165.5,-63.98 165.5,-54.71 165.5,-46.11"/>
<polygon fill="grey" stroke="grey" stroke-width="2" points="169,-46.1 165.5,-36.1 162,-46.1 169,-46.1"/>
</g>
<!-- 2 -->
<g id="node3" class="node">
<title>2</title>
<path fill="none" stroke="#d8bc56" stroke-width="2" d="M227.5,-180C227.5,-180 103.5,-180 103.5,-180 97.5,-180 91.5,-174 91.5,-168 91.5,-168 91.5,-156 91.5,-156 91.5,-150 97.5,-144 103.5,-144 103.5,-144 227.5,-144 227.5,-144 233.5,-144 239.5,-150 239.5,-156 239.5,-156 239.5,-168 239.5,-168 239.5,-174 233.5,-180 227.5,-180"/>
<text text-anchor="middle" x="165.5" y="-159.5" font-family="sans" font-size="10.00">generate_global_audio_list</text>
</g>
<!-- 2&#45;&gt;1 -->
<g id="edge2" class="edge">
<title>2&#45;&gt;1</title>
<path fill="none" stroke="grey" stroke-width="2" d="M165.5,-143.7C165.5,-135.98 165.5,-126.71 165.5,-118.11"/>
<polygon fill="grey" stroke="grey" stroke-width="2" points="169,-118.1 165.5,-108.1 162,-118.1 169,-118.1"/>
</g>
<!-- 3 -->
<g id="node4" class="node">
<title>3</title>
<path fill="none" stroke="#56c1d8" stroke-width="2" d="M153,-252C153,-252 12,-252 12,-252 6,-252 0,-246 0,-240 0,-240 0,-228 0,-228 0,-222 6,-216 12,-216 12,-216 153,-216 153,-216 159,-216 165,-222 165,-228 165,-228 165,-240 165,-240 165,-246 159,-252 153,-252"/>
<text text-anchor="middle" x="82.5" y="-231.5" font-family="sans" font-size="10.00">generate_whatsapp_audio_list</text>
</g>
<!-- 3&#45;&gt;2 -->
<g id="edge3" class="edge">
<title>3&#45;&gt;2</title>
<path fill="none" stroke="grey" stroke-width="2" d="M103.02,-215.7C113.37,-206.97 126.09,-196.24 137.34,-186.75"/>
<polygon fill="grey" stroke="grey" stroke-width="2" points="139.83,-189.23 145.22,-180.1 135.32,-183.88 139.83,-189.23"/>
</g>
<!-- 4 -->
<g id="node5" class="node">
<title>4</title>
<path fill="none" stroke="#88d856" stroke-width="2" d="M302,-252C302,-252 195,-252 195,-252 189,-252 183,-246 183,-240 183,-240 183,-228 183,-228 183,-222 189,-216 195,-216 195,-216 302,-216 302,-216 308,-216 314,-222 314,-228 314,-228 314,-240 314,-240 314,-246 308,-252 302,-252"/>
<text text-anchor="middle" x="248.5" y="-231.5" font-family="sans" font-size="10.00">generate_ml_audio_list</text>
</g>
<!-- 4&#45;&gt;2 -->
<g id="edge4" class="edge">
<title>4&#45;&gt;2</title>
<path fill="none" stroke="grey" stroke-width="2" d="M227.98,-215.7C217.63,-206.97 204.91,-196.24 193.66,-186.75"/>
<polygon fill="grey" stroke="grey" stroke-width="2" points="195.68,-183.88 185.78,-180.1 191.17,-189.23 195.68,-183.88"/>
</g>
</g>
</svg>
