<?xml version="1.0" encoding="UTF-8" standalone="no"?>
<!DOCTYPE svg PUBLIC "-//W3C//DTD SVG 1.1//EN"
 "http://www.w3.org/Graphics/SVG/1.1/DTD/svg11.dtd">
<!-- Generated by graphviz version 2.43.0 (0)
 -->
<!-- Title: snakemake_dag Pages: 1 -->
<svg width="216pt" height="620pt"
 viewBox="0.00 0.00 216.00 620.00" xmlns="http://www.w3.org/2000/svg" xmlns:xlink="http://www.w3.org/1999/xlink">
<g id="graph0" class="graph" transform="scale(1 1) rotate(0) translate(4 616)">
<title>snakemake_dag</title>
<polygon fill="white" stroke="transparent" points="-4,4 -4,-616 212,-616 212,4 -4,4"/>
<!-- 0 -->
<g id="node1" class="node">
<title>0</title>
<path fill="none" stroke="#d85656" stroke-width="2" d="M74,-36C74,-36 44,-36 44,-36 38,-36 32,-30 32,-24 32,-24 32,-12 32,-12 32,-6 38,0 44,0 44,0 74,0 74,0 80,0 86,-6 86,-12 86,-12 86,-24 86,-24 86,-30 80,-36 74,-36"/>
<text text-anchor="middle" x="59" y="-15.5" font-family="sans" font-size="10.00">all</text>
</g>
<!-- 1 -->
<g id="node2" class="node">
<title>1</title>
<path fill="none" stroke="#5692d8" stroke-width="2" d="M79.5,-108C79.5,-108 38.5,-108 38.5,-108 32.5,-108 26.5,-102 26.5,-96 26.5,-96 26.5,-84 26.5,-84 26.5,-78 32.5,-72 38.5,-72 38.5,-72 79.5,-72 79.5,-72 85.5,-72 91.5,-78 91.5,-84 91.5,-84 91.5,-96 91.5,-96 91.5,-102 85.5,-108 79.5,-108"/>
<text text-anchor="middle" x="59" y="-87.5" font-family="sans" font-size="10.00">validation</text>
</g>
<!-- 1&#45;&gt;0 -->
<g id="edge1" class="edge">
<title>1&#45;&gt;0</title>
<path fill="none" stroke="grey" stroke-width="2" d="M59,-71.7C59,-63.98 59,-54.71 59,-46.11"/>
<polygon fill="grey" stroke="grey" stroke-width="2" points="62.5,-46.1 59,-36.1 55.5,-46.1 62.5,-46.1"/>
</g>
<!-- 2 -->
<g id="node3" class="node">
<title>2</title>
<path fill="none" stroke="#70d856" stroke-width="2" d="M120,-468C120,-468 34,-468 34,-468 28,-468 22,-462 22,-456 22,-456 22,-444 22,-444 22,-438 28,-432 34,-432 34,-432 120,-432 120,-432 126,-432 132,-438 132,-444 132,-444 132,-456 132,-456 132,-462 126,-468 120,-468"/>
<text text-anchor="middle" x="77" y="-447.5" font-family="sans" font-size="10.00">make_spectrogram</text>
</g>
<!-- 2&#45;&gt;1 -->
<g id="edge3" class="edge">
<title>2&#45;&gt;1</title>
<path fill="none" stroke="grey" stroke-width="2" d="M63.66,-431.73C56.56,-421.78 48.24,-408.74 43,-396 27.61,-358.6 24,-347.45 24,-307 24,-307 24,-307 24,-233 24,-191.84 38.03,-145.88 48.33,-117.69"/>
<polygon fill="grey" stroke="grey" stroke-width="2" points="51.67,-118.74 51.92,-108.15 45.12,-116.28 51.67,-118.74"/>
</g>
<!-- 8 -->
<g id="node9" class="node">
<title>8</title>
<path fill="none" stroke="#d88d56" stroke-width="2" d="M196,-396C196,-396 64,-396 64,-396 58,-396 52,-390 52,-384 52,-384 52,-372 52,-372 52,-366 58,-360 64,-360 64,-360 196,-360 196,-360 202,-360 208,-366 208,-372 208,-372 208,-384 208,-384 208,-390 202,-396 196,-396"/>
<text text-anchor="middle" x="130" y="-375.5" font-family="sans" font-size="10.00">dvc_commit_and_push_spec</text>
</g>
<!-- 2&#45;&gt;8 -->
<g id="edge9" class="edge">
<title>2&#45;&gt;8</title>
<path fill="none" stroke="grey" stroke-width="2" d="M90.1,-431.7C96.39,-423.39 104.05,-413.28 110.96,-404.14"/>
<polygon fill="grey" stroke="grey" stroke-width="2" points="113.8,-406.19 117.05,-396.1 108.22,-401.96 113.8,-406.19"/>
</g>
<!-- 3 -->
<g id="node4" class="node">
<title>3</title>
<path fill="none" stroke="#d8cb56" stroke-width="2" d="M142,-540C142,-540 12,-540 12,-540 6,-540 0,-534 0,-528 0,-528 0,-516 0,-516 0,-510 6,-504 12,-504 12,-504 142,-504 142,-504 148,-504 154,-510 154,-516 154,-516 154,-528 154,-528 154,-534 148,-540 142,-540"/>
<text text-anchor="middle" x="77" y="-519.5" font-family="sans" font-size="10.00">dvc_commit_and_push_wav</text>
</g>
<!-- 3&#45;&gt;2 -->
<g id="edge4" class="edge">
<title>3&#45;&gt;2</title>
<path fill="none" stroke="grey" stroke-width="2" d="M77,-503.7C77,-495.98 77,-486.71 77,-478.11"/>
<polygon fill="grey" stroke="grey" stroke-width="2" points="80.5,-478.1 77,-468.1 73.5,-478.1 80.5,-478.1"/>
</g>
<!-- 4 -->
<g id="node5" class="node">
<title>4</title>
<path fill="none" stroke="#56d8a9" stroke-width="2" d="M107.5,-612C107.5,-612 46.5,-612 46.5,-612 40.5,-612 34.5,-606 34.5,-600 34.5,-600 34.5,-588 34.5,-588 34.5,-582 40.5,-576 46.5,-576 46.5,-576 107.5,-576 107.5,-576 113.5,-576 119.5,-582 119.5,-588 119.5,-588 119.5,-600 119.5,-600 119.5,-606 113.5,-612 107.5,-612"/>
<text text-anchor="middle" x="77" y="-591.5" font-family="sans" font-size="10.00">preprocessing</text>
</g>
<!-- 4&#45;&gt;3 -->
<g id="edge5" class="edge">
<title>4&#45;&gt;3</title>
<path fill="none" stroke="grey" stroke-width="2" d="M77,-575.7C77,-567.98 77,-558.71 77,-550.11"/>
<polygon fill="grey" stroke="grey" stroke-width="2" points="80.5,-550.1 77,-540.1 73.5,-550.1 80.5,-550.1"/>
</g>
<!-- 5 -->
<g id="node6" class="node">
<title>5</title>
<path fill="none" stroke="#56d873" stroke-width="2" d="M134,-180C134,-180 72,-180 72,-180 66,-180 60,-174 60,-168 60,-168 60,-156 60,-156 60,-150 66,-144 72,-144 72,-144 134,-144 134,-144 140,-144 146,-150 146,-156 146,-156 146,-168 146,-168 146,-174 140,-180 134,-180"/>
<text text-anchor="middle" x="103" y="-159.5" font-family="sans" font-size="10.00">pre_validation</text>
</g>
<!-- 5&#45;&gt;1 -->
<g id="edge2" class="edge">
<title>5&#45;&gt;1</title>
<path fill="none" stroke="grey" stroke-width="2" d="M92.12,-143.7C87.01,-135.56 80.8,-125.69 75.16,-116.7"/>
<polygon fill="grey" stroke="grey" stroke-width="2" points="78.04,-114.71 69.75,-108.1 72.11,-118.43 78.04,-114.71"/>
</g>
<!-- 6 -->
<g id="node7" class="node">
<title>6</title>
<path fill="none" stroke="#afd856" stroke-width="2" d="M167,-252C167,-252 73,-252 73,-252 67,-252 61,-246 61,-240 61,-240 61,-228 61,-228 61,-222 67,-216 73,-216 73,-216 167,-216 167,-216 173,-216 179,-222 179,-228 179,-228 179,-240 179,-240 179,-246 173,-252 167,-252"/>
<text text-anchor="middle" x="120" y="-231.5" font-family="sans" font-size="10.00">dvc_commit_models</text>
</g>
<!-- 6&#45;&gt;5 -->
<g id="edge6" class="edge">
<title>6&#45;&gt;5</title>
<path fill="none" stroke="grey" stroke-width="2" d="M115.8,-215.7C113.9,-207.9 111.62,-198.51 109.52,-189.83"/>
<polygon fill="grey" stroke="grey" stroke-width="2" points="112.92,-189 107.15,-180.1 106.11,-190.65 112.92,-189"/>
</g>
<!-- 7 -->
<g id="node8" class="node">
<title>7</title>
<path fill="none" stroke="#56c9d8" stroke-width="2" d="M140,-324C140,-324 110,-324 110,-324 104,-324 98,-318 98,-312 98,-312 98,-300 98,-300 98,-294 104,-288 110,-288 110,-288 140,-288 140,-288 146,-288 152,-294 152,-300 152,-300 152,-312 152,-312 152,-318 146,-324 140,-324"/>
<text text-anchor="middle" x="125" y="-303.5" font-family="sans" font-size="10.00">train</text>
</g>
<!-- 7&#45;&gt;6 -->
<g id="edge7" class="edge">
<title>7&#45;&gt;6</title>
<path fill="none" stroke="grey" stroke-width="2" d="M123.76,-287.7C123.21,-279.98 122.55,-270.71 121.94,-262.11"/>
<polygon fill="grey" stroke="grey" stroke-width="2" points="125.43,-261.83 121.22,-252.1 118.44,-262.33 125.43,-261.83"/>
</g>
<!-- 8&#45;&gt;7 -->
<g id="edge8" class="edge">
<title>8&#45;&gt;7</title>
<path fill="none" stroke="grey" stroke-width="2" d="M128.76,-359.7C128.21,-351.98 127.55,-342.71 126.94,-334.11"/>
<polygon fill="grey" stroke="grey" stroke-width="2" points="130.43,-333.83 126.22,-324.1 123.44,-334.33 130.43,-333.83"/>
</g>
</g>
</svg>
