<?xml version="1.0" encoding="UTF-8" standalone="no"?>
<!DOCTYPE svg PUBLIC "-//W3C//DTD SVG 1.1//EN"
 "http://www.w3.org/Graphics/SVG/1.1/DTD/svg11.dtd">
<!-- Generated by graphviz version 2.43.0 (0)
 -->
<!-- Title: snakemake_dag Pages: 1 -->
<svg width="264pt" height="548pt"
 viewBox="0.00 0.00 263.50 548.00" xmlns="http://www.w3.org/2000/svg" xmlns:xlink="http://www.w3.org/1999/xlink">
<g id="graph0" class="graph" transform="scale(1 1) rotate(0) translate(4 544)">
<title>snakemake_dag</title>
<polygon fill="white" stroke="transparent" points="-4,4 -4,-544 259.5,-544 259.5,4 -4,4"/>
<!-- 0 -->
<g id="node1" class="node">
<title>0</title>
<path fill="none" stroke="#d85656" stroke-width="2" d="M100.5,-36C100.5,-36 70.5,-36 70.5,-36 64.5,-36 58.5,-30 58.5,-24 58.5,-24 58.5,-12 58.5,-12 58.5,-6 64.5,0 70.5,0 70.5,0 100.5,0 100.5,0 106.5,0 112.5,-6 112.5,-12 112.5,-12 112.5,-24 112.5,-24 112.5,-30 106.5,-36 100.5,-36"/>
<text text-anchor="middle" x="85.5" y="-15.5" font-family="sans" font-size="10.00">all</text>
</g>
<!-- 1 -->
<g id="node2" class="node">
<title>1</title>
<path fill="none" stroke="#569ad8" stroke-width="2" d="M106,-108C106,-108 65,-108 65,-108 59,-108 53,-102 53,-96 53,-96 53,-84 53,-84 53,-78 59,-72 65,-72 65,-72 106,-72 106,-72 112,-72 118,-78 118,-84 118,-84 118,-96 118,-96 118,-102 112,-108 106,-108"/>
<text text-anchor="middle" x="85.5" y="-87.5" font-family="sans" font-size="10.00">validation</text>
</g>
<!-- 1&#45;&gt;0 -->
<g id="edge1" class="edge">
<title>1&#45;&gt;0</title>
<path fill="none" stroke="grey" stroke-width="2" d="M85.5,-71.7C85.5,-63.98 85.5,-54.71 85.5,-46.11"/>
<polygon fill="grey" stroke="grey" stroke-width="2" points="89,-46.1 85.5,-36.1 82,-46.1 89,-46.1"/>
</g>
<!-- 2 -->
<g id="node3" class="node">
<title>2</title>
<path fill="none" stroke="#59d856" stroke-width="2" d="M125.5,-396C125.5,-396 39.5,-396 39.5,-396 33.5,-396 27.5,-390 27.5,-384 27.5,-384 27.5,-372 27.5,-372 27.5,-366 33.5,-360 39.5,-360 39.5,-360 125.5,-360 125.5,-360 131.5,-360 137.5,-366 137.5,-372 137.5,-372 137.5,-384 137.5,-384 137.5,-390 131.5,-396 125.5,-396"/>
<text text-anchor="middle" x="82.5" y="-375.5" font-family="sans" font-size="10.00">make_spectrogram</text>
</g>
<!-- 2&#45;&gt;1 -->
<g id="edge2" class="edge">
<title>2&#45;&gt;1</title>
<path fill="none" stroke="grey" stroke-width="2" d="M73.19,-359.81C68.09,-349.67 62.09,-336.42 58.5,-324 36.27,-247.14 31.4,-220.29 55.5,-144 58.45,-134.67 63.18,-125.16 68.03,-116.82"/>
<polygon fill="grey" stroke="grey" stroke-width="2" points="71.01,-118.65 73.25,-108.29 65.05,-114.99 71.01,-118.65"/>
</g>
<!-- 7 -->
<g id="node8" class="node">
<title>7</title>
<path fill="none" stroke="#97d856" stroke-width="2" d="M211.5,-324C211.5,-324 79.5,-324 79.5,-324 73.5,-324 67.5,-318 67.5,-312 67.5,-312 67.5,-300 67.5,-300 67.5,-294 73.5,-288 79.5,-288 79.5,-288 211.5,-288 211.5,-288 217.5,-288 223.5,-294 223.5,-300 223.5,-300 223.5,-312 223.5,-312 223.5,-318 217.5,-324 211.5,-324"/>
<text text-anchor="middle" x="145.5" y="-303.5" font-family="sans" font-size="10.00">dvc_commit_and_push_spec</text>
</g>
<!-- 2&#45;&gt;7 -->
<g id="edge10" class="edge">
<title>2&#45;&gt;7</title>
<path fill="none" stroke="grey" stroke-width="2" d="M98.07,-359.7C105.7,-351.22 115.02,-340.86 123.38,-331.58"/>
<polygon fill="grey" stroke="grey" stroke-width="2" points="126.02,-333.88 130.11,-324.1 120.81,-329.2 126.02,-333.88"/>
</g>
<!-- 3 -->
<g id="node4" class="node">
<title>3</title>
<path fill="none" stroke="#d6d856" stroke-width="2" d="M153,-468C153,-468 12,-468 12,-468 6,-468 0,-462 0,-456 0,-456 0,-444 0,-444 0,-438 6,-432 12,-432 12,-432 153,-432 153,-432 159,-432 165,-438 165,-444 165,-444 165,-456 165,-456 165,-462 159,-468 153,-468"/>
<text text-anchor="middle" x="82.5" y="-447.5" font-family="sans" font-size="10.00">dvc_commit_and_push_output</text>
</g>
<!-- 3&#45;&gt;2 -->
<g id="edge4" class="edge">
<title>3&#45;&gt;2</title>
<path fill="none" stroke="grey" stroke-width="2" d="M82.5,-431.7C82.5,-423.98 82.5,-414.71 82.5,-406.11"/>
<polygon fill="grey" stroke="grey" stroke-width="2" points="86,-406.1 82.5,-396.1 79,-406.1 86,-406.1"/>
</g>
<!-- 4 -->
<g id="node5" class="node">
<title>4</title>
<path fill="none" stroke="#56d89a" stroke-width="2" d="M113,-540C113,-540 52,-540 52,-540 46,-540 40,-534 40,-528 40,-528 40,-516 40,-516 40,-510 46,-504 52,-504 52,-504 113,-504 113,-504 119,-504 125,-510 125,-516 125,-516 125,-528 125,-528 125,-534 119,-540 113,-540"/>
<text text-anchor="middle" x="82.5" y="-519.5" font-family="sans" font-size="10.00">preprocessing</text>
</g>
<!-- 4&#45;&gt;3 -->
<g id="edge5" class="edge">
<title>4&#45;&gt;3</title>
<path fill="none" stroke="grey" stroke-width="2" d="M82.5,-503.7C82.5,-495.98 82.5,-486.71 82.5,-478.11"/>
<polygon fill="grey" stroke="grey" stroke-width="2" points="86,-478.1 82.5,-468.1 79,-478.1 86,-478.1"/>
</g>
<!-- 5 -->
<g id="node6" class="node">
<title>5</title>
<path fill="none" stroke="#d89556" stroke-width="2" d="M222.5,-180C222.5,-180 76.5,-180 76.5,-180 70.5,-180 64.5,-174 64.5,-168 64.5,-168 64.5,-156 64.5,-156 64.5,-150 70.5,-144 76.5,-144 76.5,-144 222.5,-144 222.5,-144 228.5,-144 234.5,-150 234.5,-156 234.5,-156 234.5,-168 234.5,-168 234.5,-174 228.5,-180 222.5,-180"/>
<text text-anchor="middle" x="149.5" y="-159.5" font-family="sans" font-size="10.00">dvc_commit_and_push_models</text>
</g>
<!-- 5&#45;&gt;1 -->
<g id="edge3" class="edge">
<title>5&#45;&gt;1</title>
<path fill="none" stroke="grey" stroke-width="2" d="M133.68,-143.7C125.93,-135.22 116.46,-124.86 107.98,-115.58"/>
<polygon fill="grey" stroke="grey" stroke-width="2" points="110.47,-113.12 101.14,-108.1 105.3,-117.85 110.47,-113.12"/>
</g>
<!-- 6 -->
<g id="node7" class="node">
<title>6</title>
<path fill="none" stroke="#56d8d8" stroke-width="2" d="M99.5,-252C99.5,-252 69.5,-252 69.5,-252 63.5,-252 57.5,-246 57.5,-240 57.5,-240 57.5,-228 57.5,-228 57.5,-222 63.5,-216 69.5,-216 69.5,-216 99.5,-216 99.5,-216 105.5,-216 111.5,-222 111.5,-228 111.5,-228 111.5,-240 111.5,-240 111.5,-246 105.5,-252 99.5,-252"/>
<text text-anchor="middle" x="84.5" y="-237" font-family="sans" font-size="10.00">train</text>
<text text-anchor="middle" x="84.5" y="-226" font-family="sans" font-size="10.00">bs: 16</text>
</g>
<!-- 6&#45;&gt;5 -->
<g id="edge6" class="edge">
<title>6&#45;&gt;5</title>
<path fill="none" stroke="grey" stroke-width="2" d="M100.57,-215.7C108.44,-207.22 118.06,-196.86 126.67,-187.58"/>
<polygon fill="grey" stroke="grey" stroke-width="2" points="129.38,-189.81 133.62,-180.1 124.25,-185.05 129.38,-189.81"/>
</g>
<!-- 7&#45;&gt;6 -->
<g id="edge9" class="edge">
<title>7&#45;&gt;6</title>
<path fill="none" stroke="grey" stroke-width="2" d="M130.42,-287.7C123.11,-279.3 114.19,-269.07 106.16,-259.86"/>
<polygon fill="grey" stroke="grey" stroke-width="2" points="108.61,-257.34 99.41,-252.1 103.34,-261.94 108.61,-257.34"/>
</g>
<!-- 8 -->
<g id="node9" class="node">
<title>8</title>
<path fill="none" stroke="#56d8d8" stroke-width="2" d="M171.5,-252C171.5,-252 141.5,-252 141.5,-252 135.5,-252 129.5,-246 129.5,-240 129.5,-240 129.5,-228 129.5,-228 129.5,-222 135.5,-216 141.5,-216 141.5,-216 171.5,-216 171.5,-216 177.5,-216 183.5,-222 183.5,-228 183.5,-228 183.5,-240 183.5,-240 183.5,-246 177.5,-252 171.5,-252"/>
<text text-anchor="middle" x="156.5" y="-237" font-family="sans" font-size="10.00">train</text>
<text text-anchor="middle" x="156.5" y="-226" font-family="sans" font-size="10.00">bs: 32</text>
</g>
<!-- 7&#45;&gt;8 -->
<g id="edge11" class="edge">
<title>7&#45;&gt;8</title>
<path fill="none" stroke="grey" stroke-width="2" d="M148.22,-287.7C149.43,-279.98 150.89,-270.71 152.24,-262.11"/>
<polygon fill="grey" stroke="grey" stroke-width="2" points="155.72,-262.53 153.81,-252.1 148.8,-261.44 155.72,-262.53"/>
</g>
<!-- 9 -->
<g id="node10" class="node">
<title>9</title>
<path fill="none" stroke="#56d8d8" stroke-width="2" d="M243.5,-252C243.5,-252 213.5,-252 213.5,-252 207.5,-252 201.5,-246 201.5,-240 201.5,-240 201.5,-228 201.5,-228 201.5,-222 207.5,-216 213.5,-216 213.5,-216 243.5,-216 243.5,-216 249.5,-216 255.5,-222 255.5,-228 255.5,-228 255.5,-240 255.5,-240 255.5,-246 249.5,-252 243.5,-252"/>
<text text-anchor="middle" x="228.5" y="-237" font-family="sans" font-size="10.00">train</text>
<text text-anchor="middle" x="228.5" y="-226" font-family="sans" font-size="10.00">bs: 64</text>
</g>
<!-- 7&#45;&gt;9 -->
<g id="edge12" class="edge">
<title>7&#45;&gt;9</title>
<path fill="none" stroke="grey" stroke-width="2" d="M166.02,-287.7C176.37,-278.97 189.09,-268.24 200.34,-258.75"/>
<polygon fill="grey" stroke="grey" stroke-width="2" points="202.83,-261.23 208.22,-252.1 198.32,-255.88 202.83,-261.23"/>
</g>
<!-- 8&#45;&gt;5 -->
<g id="edge7" class="edge">
<title>8&#45;&gt;5</title>
<path fill="none" stroke="grey" stroke-width="2" d="M154.77,-215.7C154,-207.98 153.07,-198.71 152.21,-190.11"/>
<polygon fill="grey" stroke="grey" stroke-width="2" points="155.69,-189.71 151.21,-180.1 148.72,-190.4 155.69,-189.71"/>
</g>
<!-- 9&#45;&gt;5 -->
<g id="edge8" class="edge">
<title>9&#45;&gt;5</title>
<path fill="none" stroke="grey" stroke-width="2" d="M208.97,-215.7C199.12,-206.97 187.01,-196.24 176.3,-186.75"/>
<polygon fill="grey" stroke="grey" stroke-width="2" points="178.61,-184.12 168.8,-180.1 173.97,-189.36 178.61,-184.12"/>
</g>
</g>
</svg>
