<?xml version="1.0" encoding="UTF-8" standalone="no"?>
<!DOCTYPE svg PUBLIC "-//W3C//DTD SVG 1.1//EN"
 "http://www.w3.org/Graphics/SVG/1.1/DTD/svg11.dtd">
<!-- Generated by graphviz version 2.43.0 (0)
 -->
<!-- Title: snakemake_dag Pages: 1 -->
<svg width="126pt" height="260pt"
 viewBox="0.00 0.00 126.00 260.00" xmlns="http://www.w3.org/2000/svg" xmlns:xlink="http://www.w3.org/1999/xlink">
<g id="graph0" class="graph" transform="scale(1 1) rotate(0) translate(4 256)">
<title>snakemake_dag</title>
<polygon fill="white" stroke="transparent" points="-4,4 -4,-256 122,-256 122,4 -4,4"/>
<!-- 0 -->
<g id="node1" class="node">
<title>0</title>
<path fill="none" stroke="#d85656" stroke-width="2" d="M74,-36C74,-36 44,-36 44,-36 38,-36 32,-30 32,-24 32,-24 32,-12 32,-12 32,-6 38,0 44,0 44,0 74,0 74,0 80,0 86,-6 86,-12 86,-12 86,-24 86,-24 86,-30 80,-36 74,-36"/>
<text text-anchor="middle" x="59" y="-15.5" font-family="sans" font-size="10.00">all</text>
</g>
<!-- 1 -->
<g id="node2" class="node">
<title>1</title>
<path fill="none" stroke="#56d8d8" stroke-width="2" d="M79.5,-108C79.5,-108 38.5,-108 38.5,-108 32.5,-108 26.5,-102 26.5,-96 26.5,-96 26.5,-84 26.5,-84 26.5,-78 32.5,-72 38.5,-72 38.5,-72 79.5,-72 79.5,-72 85.5,-72 91.5,-78 91.5,-84 91.5,-84 91.5,-96 91.5,-96 91.5,-102 85.5,-108 79.5,-108"/>
<text text-anchor="middle" x="59" y="-87.5" font-family="sans" font-size="10.00">validation</text>
</g>
<!-- 1&#45;&gt;0 -->
<g id="edge1" class="edge">
<title>1&#45;&gt;0</title>
<path fill="none" stroke="grey" stroke-width="2" d="M59,-71.7C59,-63.98 59,-54.71 59,-46.11"/>
<polygon fill="grey" stroke="grey" stroke-width="2" points="62.5,-46.1 59,-36.1 55.5,-46.1 62.5,-46.1"/>
</g>
<!-- 2 -->
<g id="node3" class="node">
<title>2</title>
<path fill="none" stroke="#59d856" stroke-width="2" d="M90,-180C90,-180 28,-180 28,-180 22,-180 16,-174 16,-168 16,-168 16,-156 16,-156 16,-150 22,-144 28,-144 28,-144 90,-144 90,-144 96,-144 102,-150 102,-156 102,-156 102,-168 102,-168 102,-174 96,-180 90,-180"/>
<text text-anchor="middle" x="59" y="-159.5" font-family="sans" font-size="10.00">pre_validation</text>
</g>
<!-- 2&#45;&gt;1 -->
<g id="edge2" class="edge">
<title>2&#45;&gt;1</title>
<path fill="none" stroke="grey" stroke-width="2" d="M59,-143.7C59,-135.98 59,-126.71 59,-118.11"/>
<polygon fill="grey" stroke="grey" stroke-width="2" points="62.5,-118.1 59,-108.1 55.5,-118.1 62.5,-118.1"/>
</g>
<!-- 3 -->
<g id="node4" class="node">
<title>3</title>
<path fill="none" stroke="#d6d856" stroke-width="2" d="M106,-252C106,-252 12,-252 12,-252 6,-252 0,-246 0,-240 0,-240 0,-228 0,-228 0,-222 6,-216 12,-216 12,-216 106,-216 106,-216 112,-216 118,-222 118,-228 118,-228 118,-240 118,-240 118,-246 112,-252 106,-252"/>
<text text-anchor="middle" x="59" y="-231.5" font-family="sans" font-size="10.00">dvc_commit_models</text>
</g>
<!-- 3&#45;&gt;2 -->
<g id="edge3" class="edge">
<title>3&#45;&gt;2</title>
<path fill="none" stroke="grey" stroke-width="2" d="M59,-215.7C59,-207.98 59,-198.71 59,-190.11"/>
<polygon fill="grey" stroke="grey" stroke-width="2" points="62.5,-190.1 59,-180.1 55.5,-190.1 62.5,-190.1"/>
</g>
</g>
</svg>
