<?xml version="1.0" encoding="UTF-8" standalone="no"?>
<!DOCTYPE svg PUBLIC "-//W3C//DTD SVG 1.1//EN"
 "http://www.w3.org/Graphics/SVG/1.1/DTD/svg11.dtd">
<!-- Generated by graphviz version 2.43.0 (0)
 -->
<!-- Title: snakemake_dag Pages: 1 -->
<svg width="236pt" height="548pt"
 viewBox="0.00 0.00 235.50 548.00" xmlns="http://www.w3.org/2000/svg" xmlns:xlink="http://www.w3.org/1999/xlink">
<g id="graph0" class="graph" transform="scale(1 1) rotate(0) translate(4 544)">
<title>snakemake_dag</title>
<polygon fill="white" stroke="transparent" points="-4,4 -4,-544 231.5,-544 231.5,4 -4,4"/>
<!-- 0 -->
<g id="node1" class="node">
<title>0</title>
<path fill="none" stroke="#d85656" stroke-width="2" d="M100.5,-36C100.5,-36 70.5,-36 70.5,-36 64.5,-36 58.5,-30 58.5,-24 58.5,-24 58.5,-12 58.5,-12 58.5,-6 64.5,0 70.5,0 70.5,0 100.5,0 100.5,0 106.5,0 112.5,-6 112.5,-12 112.5,-12 112.5,-24 112.5,-24 112.5,-30 106.5,-36 100.5,-36"/>
<text text-anchor="middle" x="85.5" y="-15.5" font-family="sans" font-size="10.00">all</text>
</g>
<!-- 1 -->
<g id="node2" class="node">
<title>1</title>
<path fill="none" stroke="#569ad8" stroke-width="2" d="M106,-108C106,-108 65,-108 65,-108 59,-108 53,-102 53,-96 53,-96 53,-84 53,-84 53,-78 59,-72 65,-72 65,-72 106,-72 106,-72 112,-72 118,-78 118,-84 118,-84 118,-96 118,-96 118,-102 112,-108 106,-108"/>
<text text-anchor="middle" x="85.5" y="-87.5" font-family="sans" font-size="10.00">validation</text>
</g>
<!-- 1&#45;&gt;0 -->
<g id="edge1" class="edge">
<title>1&#45;&gt;0</title>
<path fill="none" stroke="grey" stroke-width="2" d="M85.5,-71.7C85.5,-63.98 85.5,-54.71 85.5,-46.11"/>
<polygon fill="grey" stroke="grey" stroke-width="2" points="89,-46.1 85.5,-36.1 82,-46.1 89,-46.1"/>
</g>
<!-- 2 -->
<g id="node3" class="node">
<title>2</title>
<path fill="none" stroke="#59d856" stroke-width="2" d="M125.5,-396C125.5,-396 39.5,-396 39.5,-396 33.5,-396 27.5,-390 27.5,-384 27.5,-384 27.5,-372 27.5,-372 27.5,-366 33.5,-360 39.5,-360 39.5,-360 125.5,-360 125.5,-360 131.5,-360 137.5,-366 137.5,-372 137.5,-372 137.5,-384 137.5,-384 137.5,-390 131.5,-396 125.5,-396"/>
<text text-anchor="middle" x="82.5" y="-375.5" font-family="sans" font-size="10.00">make_spectrogram</text>
</g>
<!-- 2&#45;&gt;1 -->
<g id="edge3" class="edge">
<title>2&#45;&gt;1</title>
<path fill="none" stroke="grey" stroke-width="2" d="M69.01,-359.95C62.03,-350.06 54.22,-337.02 50.5,-324 28.5,-247.08 24.5,-220.32 48.5,-144 51.6,-134.15 57.25,-124.53 63.22,-116.25"/>
<polygon fill="grey" stroke="grey" stroke-width="2" points="66.13,-118.21 69.46,-108.15 60.59,-113.94 66.13,-118.21"/>
</g>
<!-- 7 -->
<g id="node8" class="node">
<title>7</title>
<path fill="none" stroke="#97d856" stroke-width="2" d="M203.5,-324C203.5,-324 71.5,-324 71.5,-324 65.5,-324 59.5,-318 59.5,-312 59.5,-312 59.5,-300 59.5,-300 59.5,-294 65.5,-288 71.5,-288 71.5,-288 203.5,-288 203.5,-288 209.5,-288 215.5,-294 215.5,-300 215.5,-300 215.5,-312 215.5,-312 215.5,-318 209.5,-324 203.5,-324"/>
<text text-anchor="middle" x="137.5" y="-303.5" font-family="sans" font-size="10.00">dvc_commit_and_push_spec</text>
</g>
<!-- 2&#45;&gt;7 -->
<g id="edge8" class="edge">
<title>2&#45;&gt;7</title>
<path fill="none" stroke="grey" stroke-width="2" d="M96.1,-359.7C102.62,-351.39 110.57,-341.28 117.75,-332.14"/>
<polygon fill="grey" stroke="grey" stroke-width="2" points="120.63,-334.13 124.06,-324.1 115.13,-329.81 120.63,-334.13"/>
</g>
<!-- 3 -->
<g id="node4" class="node">
<title>3</title>
<path fill="none" stroke="#d6d856" stroke-width="2" d="M153,-468C153,-468 12,-468 12,-468 6,-468 0,-462 0,-456 0,-456 0,-444 0,-444 0,-438 6,-432 12,-432 12,-432 153,-432 153,-432 159,-432 165,-438 165,-444 165,-444 165,-456 165,-456 165,-462 159,-468 153,-468"/>
<text text-anchor="middle" x="82.5" y="-447.5" font-family="sans" font-size="10.00">dvc_commit_and_push_output</text>
</g>
<!-- 3&#45;&gt;2 -->
<g id="edge4" class="edge">
<title>3&#45;&gt;2</title>
<path fill="none" stroke="grey" stroke-width="2" d="M82.5,-431.7C82.5,-423.98 82.5,-414.71 82.5,-406.11"/>
<polygon fill="grey" stroke="grey" stroke-width="2" points="86,-406.1 82.5,-396.1 79,-406.1 86,-406.1"/>
</g>
<!-- 4 -->
<g id="node5" class="node">
<title>4</title>
<path fill="none" stroke="#56d89a" stroke-width="2" d="M113,-540C113,-540 52,-540 52,-540 46,-540 40,-534 40,-528 40,-528 40,-516 40,-516 40,-510 46,-504 52,-504 52,-504 113,-504 113,-504 119,-504 125,-510 125,-516 125,-516 125,-528 125,-528 125,-534 119,-540 113,-540"/>
<text text-anchor="middle" x="82.5" y="-519.5" font-family="sans" font-size="10.00">preprocessing</text>
</g>
<!-- 4&#45;&gt;3 -->
<g id="edge5" class="edge">
<title>4&#45;&gt;3</title>
<path fill="none" stroke="grey" stroke-width="2" d="M82.5,-503.7C82.5,-495.98 82.5,-486.71 82.5,-478.11"/>
<polygon fill="grey" stroke="grey" stroke-width="2" points="86,-478.1 82.5,-468.1 79,-478.1 86,-478.1"/>
</g>
<!-- 5 -->
<g id="node6" class="node">
<title>5</title>
<path fill="none" stroke="#d89556" stroke-width="2" d="M215.5,-180C215.5,-180 69.5,-180 69.5,-180 63.5,-180 57.5,-174 57.5,-168 57.5,-168 57.5,-156 57.5,-156 57.5,-150 63.5,-144 69.5,-144 69.5,-144 215.5,-144 215.5,-144 221.5,-144 227.5,-150 227.5,-156 227.5,-156 227.5,-168 227.5,-168 227.5,-174 221.5,-180 215.5,-180"/>
<text text-anchor="middle" x="142.5" y="-159.5" font-family="sans" font-size="10.00">dvc_commit_and_push_models</text>
</g>
<!-- 5&#45;&gt;1 -->
<g id="edge2" class="edge">
<title>5&#45;&gt;1</title>
<path fill="none" stroke="grey" stroke-width="2" d="M128.41,-143.7C121.58,-135.3 113.24,-125.07 105.74,-115.86"/>
<polygon fill="grey" stroke="grey" stroke-width="2" points="108.46,-113.65 99.43,-108.1 103.03,-118.07 108.46,-113.65"/>
</g>
<!-- 6 -->
<g id="node7" class="node">
<title>6</title>
<path fill="none" stroke="#56d8d8" stroke-width="2" d="M155.5,-252C155.5,-252 125.5,-252 125.5,-252 119.5,-252 113.5,-246 113.5,-240 113.5,-240 113.5,-228 113.5,-228 113.5,-222 119.5,-216 125.5,-216 125.5,-216 155.5,-216 155.5,-216 161.5,-216 167.5,-222 167.5,-228 167.5,-228 167.5,-240 167.5,-240 167.5,-246 161.5,-252 155.5,-252"/>
<text text-anchor="middle" x="140.5" y="-231.5" font-family="sans" font-size="10.00">train</text>
</g>
<!-- 6&#45;&gt;5 -->
<g id="edge6" class="edge">
<title>6&#45;&gt;5</title>
<path fill="none" stroke="grey" stroke-width="2" d="M140.99,-215.7C141.21,-207.98 141.48,-198.71 141.73,-190.11"/>
<polygon fill="grey" stroke="grey" stroke-width="2" points="145.22,-190.2 142.01,-180.1 138.23,-190 145.22,-190.2"/>
</g>
<!-- 7&#45;&gt;6 -->
<g id="edge7" class="edge">
<title>7&#45;&gt;6</title>
<path fill="none" stroke="grey" stroke-width="2" d="M138.24,-287.7C138.57,-279.98 138.97,-270.71 139.34,-262.11"/>
<polygon fill="grey" stroke="grey" stroke-width="2" points="142.84,-262.25 139.77,-252.1 135.84,-261.95 142.84,-262.25"/>
</g>
</g>
</svg>
