<?xml version="1.0" encoding="UTF-8" standalone="no"?>
<!DOCTYPE svg PUBLIC "-//W3C//DTD SVG 1.1//EN"
 "http://www.w3.org/Graphics/SVG/1.1/DTD/svg11.dtd">
<!-- Generated by graphviz version 2.43.0 (0)
 -->
<!-- Title: snakemake_dag Pages: 1 -->
<svg width="194pt" height="476pt"
 viewBox="0.00 0.00 194.00 476.00" xmlns="http://www.w3.org/2000/svg" xmlns:xlink="http://www.w3.org/1999/xlink">
<g id="graph0" class="graph" transform="scale(1 1) rotate(0) translate(4 472)">
<title>snakemake_dag</title>
<polygon fill="white" stroke="transparent" points="-4,4 -4,-472 190,-472 190,4 -4,4"/>
<!-- 0 -->
<g id="node1" class="node">
<title>0</title>
<path fill="none" stroke="#d85656" stroke-width="2" d="M52,-36C52,-36 22,-36 22,-36 16,-36 10,-30 10,-24 10,-24 10,-12 10,-12 10,-6 16,0 22,0 22,0 52,0 52,0 58,0 64,-6 64,-12 64,-12 64,-24 64,-24 64,-30 58,-36 52,-36"/>
<text text-anchor="middle" x="37" y="-15.5" font-family="sans" font-size="10.00">all</text>
</g>
<!-- 1 -->
<g id="node2" class="node">
<title>1</title>
<path fill="none" stroke="#569ad8" stroke-width="2" d="M57.5,-108C57.5,-108 16.5,-108 16.5,-108 10.5,-108 4.5,-102 4.5,-96 4.5,-96 4.5,-84 4.5,-84 4.5,-78 10.5,-72 16.5,-72 16.5,-72 57.5,-72 57.5,-72 63.5,-72 69.5,-78 69.5,-84 69.5,-84 69.5,-96 69.5,-96 69.5,-102 63.5,-108 57.5,-108"/>
<text text-anchor="middle" x="37" y="-87.5" font-family="sans" font-size="10.00">validation</text>
</g>
<!-- 1&#45;&gt;0 -->
<g id="edge1" class="edge">
<title>1&#45;&gt;0</title>
<path fill="none" stroke="grey" stroke-width="2" d="M37,-71.7C37,-63.98 37,-54.71 37,-46.11"/>
<polygon fill="grey" stroke="grey" stroke-width="2" points="40.5,-46.1 37,-36.1 33.5,-46.1 40.5,-46.1"/>
</g>
<!-- 2 -->
<g id="node3" class="node">
<title>2</title>
<path fill="none" stroke="#59d856" stroke-width="2" d="M98,-468C98,-468 12,-468 12,-468 6,-468 0,-462 0,-456 0,-456 0,-444 0,-444 0,-438 6,-432 12,-432 12,-432 98,-432 98,-432 104,-432 110,-438 110,-444 110,-444 110,-456 110,-456 110,-462 104,-468 98,-468"/>
<text text-anchor="middle" x="55" y="-447.5" font-family="sans" font-size="10.00">make_spectrogram</text>
</g>
<!-- 2&#45;&gt;1 -->
<g id="edge3" class="edge">
<title>2&#45;&gt;1</title>
<path fill="none" stroke="grey" stroke-width="2" d="M41.66,-431.73C34.56,-421.78 26.24,-408.74 21,-396 5.61,-358.6 2,-347.45 2,-307 2,-307 2,-307 2,-233 2,-191.84 16.03,-145.88 26.33,-117.69"/>
<polygon fill="grey" stroke="grey" stroke-width="2" points="29.67,-118.74 29.92,-108.15 23.12,-116.28 29.67,-118.74"/>
</g>
<!-- 6 -->
<g id="node7" class="node">
<title>6</title>
<path fill="none" stroke="#d89556" stroke-width="2" d="M174,-396C174,-396 42,-396 42,-396 36,-396 30,-390 30,-384 30,-384 30,-372 30,-372 30,-366 36,-360 42,-360 42,-360 174,-360 174,-360 180,-360 186,-366 186,-372 186,-372 186,-384 186,-384 186,-390 180,-396 174,-396"/>
<text text-anchor="middle" x="108" y="-375.5" font-family="sans" font-size="10.00">dvc_commit_and_push_spec</text>
</g>
<!-- 2&#45;&gt;6 -->
<g id="edge7" class="edge">
<title>2&#45;&gt;6</title>
<path fill="none" stroke="grey" stroke-width="2" d="M68.1,-431.7C74.39,-423.39 82.05,-413.28 88.96,-404.14"/>
<polygon fill="grey" stroke="grey" stroke-width="2" points="91.8,-406.19 95.05,-396.1 86.22,-401.96 91.8,-406.19"/>
</g>
<!-- 3 -->
<g id="node4" class="node">
<title>3</title>
<path fill="none" stroke="#56d89a" stroke-width="2" d="M114,-180C114,-180 52,-180 52,-180 46,-180 40,-174 40,-168 40,-168 40,-156 40,-156 40,-150 46,-144 52,-144 52,-144 114,-144 114,-144 120,-144 126,-150 126,-156 126,-156 126,-168 126,-168 126,-174 120,-180 114,-180"/>
<text text-anchor="middle" x="83" y="-159.5" font-family="sans" font-size="10.00">pre_validation</text>
</g>
<!-- 3&#45;&gt;1 -->
<g id="edge2" class="edge">
<title>3&#45;&gt;1</title>
<path fill="none" stroke="grey" stroke-width="2" d="M71.63,-143.7C66.28,-135.56 59.8,-125.69 53.89,-116.7"/>
<polygon fill="grey" stroke="grey" stroke-width="2" points="56.66,-114.54 48.24,-108.1 50.81,-118.38 56.66,-114.54"/>
</g>
<!-- 4 -->
<g id="node5" class="node">
<title>4</title>
<path fill="none" stroke="#97d856" stroke-width="2" d="M141,-252C141,-252 47,-252 47,-252 41,-252 35,-246 35,-240 35,-240 35,-228 35,-228 35,-222 41,-216 47,-216 47,-216 141,-216 141,-216 147,-216 153,-222 153,-228 153,-228 153,-240 153,-240 153,-246 147,-252 141,-252"/>
<text text-anchor="middle" x="94" y="-231.5" font-family="sans" font-size="10.00">dvc_commit_models</text>
</g>
<!-- 4&#45;&gt;3 -->
<g id="edge4" class="edge">
<title>4&#45;&gt;3</title>
<path fill="none" stroke="grey" stroke-width="2" d="M91.28,-215.7C90.07,-207.98 88.61,-198.71 87.26,-190.11"/>
<polygon fill="grey" stroke="grey" stroke-width="2" points="90.7,-189.44 85.69,-180.1 83.78,-190.53 90.7,-189.44"/>
</g>
<!-- 5 -->
<g id="node6" class="node">
<title>5</title>
<path fill="none" stroke="#56d8d8" stroke-width="2" d="M118,-324C118,-324 88,-324 88,-324 82,-324 76,-318 76,-312 76,-312 76,-300 76,-300 76,-294 82,-288 88,-288 88,-288 118,-288 118,-288 124,-288 130,-294 130,-300 130,-300 130,-312 130,-312 130,-318 124,-324 118,-324"/>
<text text-anchor="middle" x="103" y="-303.5" font-family="sans" font-size="10.00">train</text>
</g>
<!-- 5&#45;&gt;4 -->
<g id="edge5" class="edge">
<title>5&#45;&gt;4</title>
<path fill="none" stroke="grey" stroke-width="2" d="M100.78,-287.7C99.78,-279.98 98.59,-270.71 97.49,-262.11"/>
<polygon fill="grey" stroke="grey" stroke-width="2" points="100.95,-261.58 96.2,-252.1 94,-262.47 100.95,-261.58"/>
</g>
<!-- 6&#45;&gt;5 -->
<g id="edge6" class="edge">
<title>6&#45;&gt;5</title>
<path fill="none" stroke="grey" stroke-width="2" d="M106.76,-359.7C106.21,-351.98 105.55,-342.71 104.94,-334.11"/>
<polygon fill="grey" stroke="grey" stroke-width="2" points="108.43,-333.83 104.22,-324.1 101.44,-334.33 108.43,-333.83"/>
</g>
</g>
</svg>
