<?xml version="1.0" encoding="UTF-8" standalone="no"?>
<!DOCTYPE svg PUBLIC "-//W3C//DTD SVG 1.1//EN"
 "http://www.w3.org/Graphics/SVG/1.1/DTD/svg11.dtd">
<!-- Generated by graphviz version 2.43.0 (0)
 -->
<!-- Title: snakemake_dag Pages: 1 -->
<svg width="222pt" height="620pt"
 viewBox="0.00 0.00 221.50 620.00" xmlns="http://www.w3.org/2000/svg" xmlns:xlink="http://www.w3.org/1999/xlink">
<g id="graph0" class="graph" transform="scale(1 1) rotate(0) translate(4 616)">
<title>snakemake_dag</title>
<polygon fill="white" stroke="transparent" points="-4,4 -4,-616 217.5,-616 217.5,4 -4,4"/>
<!-- 0 -->
<g id="node1" class="node">
<title>0</title>
<path fill="none" stroke="#d85656" stroke-width="2" d="M79.5,-36C79.5,-36 49.5,-36 49.5,-36 43.5,-36 37.5,-30 37.5,-24 37.5,-24 37.5,-12 37.5,-12 37.5,-6 43.5,0 49.5,0 49.5,0 79.5,0 79.5,0 85.5,0 91.5,-6 91.5,-12 91.5,-12 91.5,-24 91.5,-24 91.5,-30 85.5,-36 79.5,-36"/>
<text text-anchor="middle" x="64.5" y="-15.5" font-family="sans" font-size="10.00">all</text>
</g>
<!-- 1 -->
<g id="node2" class="node">
<title>1</title>
<path fill="none" stroke="#5692d8" stroke-width="2" d="M85,-108C85,-108 44,-108 44,-108 38,-108 32,-102 32,-96 32,-96 32,-84 32,-84 32,-78 38,-72 44,-72 44,-72 85,-72 85,-72 91,-72 97,-78 97,-84 97,-84 97,-96 97,-96 97,-102 91,-108 85,-108"/>
<text text-anchor="middle" x="64.5" y="-87.5" font-family="sans" font-size="10.00">validation</text>
</g>
<!-- 1&#45;&gt;0 -->
<g id="edge1" class="edge">
<title>1&#45;&gt;0</title>
<path fill="none" stroke="grey" stroke-width="2" d="M64.5,-71.7C64.5,-63.98 64.5,-54.71 64.5,-46.11"/>
<polygon fill="grey" stroke="grey" stroke-width="2" points="68,-46.1 64.5,-36.1 61,-46.1 68,-46.1"/>
</g>
<!-- 2 -->
<g id="node3" class="node">
<title>2</title>
<path fill="none" stroke="#70d856" stroke-width="2" d="M125.5,-468C125.5,-468 39.5,-468 39.5,-468 33.5,-468 27.5,-462 27.5,-456 27.5,-456 27.5,-444 27.5,-444 27.5,-438 33.5,-432 39.5,-432 39.5,-432 125.5,-432 125.5,-432 131.5,-432 137.5,-438 137.5,-444 137.5,-444 137.5,-456 137.5,-456 137.5,-462 131.5,-468 125.5,-468"/>
<text text-anchor="middle" x="82.5" y="-447.5" font-family="sans" font-size="10.00">make_spectrogram</text>
</g>
<!-- 2&#45;&gt;1 -->
<g id="edge2" class="edge">
<title>2&#45;&gt;1</title>
<path fill="none" stroke="grey" stroke-width="2" d="M69.16,-431.73C62.06,-421.78 53.74,-408.74 48.5,-396 33.11,-358.6 29.5,-347.45 29.5,-307 29.5,-307 29.5,-307 29.5,-233 29.5,-191.84 43.53,-145.88 53.83,-117.69"/>
<polygon fill="grey" stroke="grey" stroke-width="2" points="57.17,-118.74 57.42,-108.15 50.62,-116.28 57.17,-118.74"/>
</g>
<!-- 8 -->
<g id="node9" class="node">
<title>8</title>
<path fill="none" stroke="#d8cb56" stroke-width="2" d="M201.5,-396C201.5,-396 69.5,-396 69.5,-396 63.5,-396 57.5,-390 57.5,-384 57.5,-384 57.5,-372 57.5,-372 57.5,-366 63.5,-360 69.5,-360 69.5,-360 201.5,-360 201.5,-360 207.5,-360 213.5,-366 213.5,-372 213.5,-372 213.5,-384 213.5,-384 213.5,-390 207.5,-396 201.5,-396"/>
<text text-anchor="middle" x="135.5" y="-375.5" font-family="sans" font-size="10.00">dvc_commit_and_push_spec</text>
</g>
<!-- 2&#45;&gt;8 -->
<g id="edge9" class="edge">
<title>2&#45;&gt;8</title>
<path fill="none" stroke="grey" stroke-width="2" d="M95.6,-431.7C101.89,-423.39 109.55,-413.28 116.46,-404.14"/>
<polygon fill="grey" stroke="grey" stroke-width="2" points="119.3,-406.19 122.55,-396.1 113.72,-401.96 119.3,-406.19"/>
</g>
<!-- 3 -->
<g id="node4" class="node">
<title>3</title>
<path fill="none" stroke="#d88d56" stroke-width="2" d="M153,-540C153,-540 12,-540 12,-540 6,-540 0,-534 0,-528 0,-528 0,-516 0,-516 0,-510 6,-504 12,-504 12,-504 153,-504 153,-504 159,-504 165,-510 165,-516 165,-516 165,-528 165,-528 165,-534 159,-540 153,-540"/>
<text text-anchor="middle" x="82.5" y="-519.5" font-family="sans" font-size="10.00">dvc_commit_and_push_output</text>
</g>
<!-- 3&#45;&gt;2 -->
<g id="edge4" class="edge">
<title>3&#45;&gt;2</title>
<path fill="none" stroke="grey" stroke-width="2" d="M82.5,-503.7C82.5,-495.98 82.5,-486.71 82.5,-478.11"/>
<polygon fill="grey" stroke="grey" stroke-width="2" points="86,-478.1 82.5,-468.1 79,-478.1 86,-478.1"/>
</g>
<!-- 4 -->
<g id="node5" class="node">
<title>4</title>
<path fill="none" stroke="#56d8a9" stroke-width="2" d="M113,-612C113,-612 52,-612 52,-612 46,-612 40,-606 40,-600 40,-600 40,-588 40,-588 40,-582 46,-576 52,-576 52,-576 113,-576 113,-576 119,-576 125,-582 125,-588 125,-588 125,-600 125,-600 125,-606 119,-612 113,-612"/>
<text text-anchor="middle" x="82.5" y="-591.5" font-family="sans" font-size="10.00">preprocessing</text>
</g>
<!-- 4&#45;&gt;3 -->
<g id="edge5" class="edge">
<title>4&#45;&gt;3</title>
<path fill="none" stroke="grey" stroke-width="2" d="M82.5,-575.7C82.5,-567.98 82.5,-558.71 82.5,-550.11"/>
<polygon fill="grey" stroke="grey" stroke-width="2" points="86,-550.1 82.5,-540.1 79,-550.1 86,-550.1"/>
</g>
<!-- 5 -->
<g id="node6" class="node">
<title>5</title>
<path fill="none" stroke="#56d873" stroke-width="2" d="M139.5,-180C139.5,-180 77.5,-180 77.5,-180 71.5,-180 65.5,-174 65.5,-168 65.5,-168 65.5,-156 65.5,-156 65.5,-150 71.5,-144 77.5,-144 77.5,-144 139.5,-144 139.5,-144 145.5,-144 151.5,-150 151.5,-156 151.5,-156 151.5,-168 151.5,-168 151.5,-174 145.5,-180 139.5,-180"/>
<text text-anchor="middle" x="108.5" y="-159.5" font-family="sans" font-size="10.00">pre_validation</text>
</g>
<!-- 5&#45;&gt;1 -->
<g id="edge3" class="edge">
<title>5&#45;&gt;1</title>
<path fill="none" stroke="grey" stroke-width="2" d="M97.62,-143.7C92.51,-135.56 86.3,-125.69 80.66,-116.7"/>
<polygon fill="grey" stroke="grey" stroke-width="2" points="83.54,-114.71 75.25,-108.1 77.61,-118.43 83.54,-114.71"/>
</g>
<!-- 6 -->
<g id="node7" class="node">
<title>6</title>
<path fill="none" stroke="#afd856" stroke-width="2" d="M172.5,-252C172.5,-252 78.5,-252 78.5,-252 72.5,-252 66.5,-246 66.5,-240 66.5,-240 66.5,-228 66.5,-228 66.5,-222 72.5,-216 78.5,-216 78.5,-216 172.5,-216 172.5,-216 178.5,-216 184.5,-222 184.5,-228 184.5,-228 184.5,-240 184.5,-240 184.5,-246 178.5,-252 172.5,-252"/>
<text text-anchor="middle" x="125.5" y="-231.5" font-family="sans" font-size="10.00">dvc_commit_models</text>
</g>
<!-- 6&#45;&gt;5 -->
<g id="edge6" class="edge">
<title>6&#45;&gt;5</title>
<path fill="none" stroke="grey" stroke-width="2" d="M121.3,-215.7C119.4,-207.9 117.12,-198.51 115.02,-189.83"/>
<polygon fill="grey" stroke="grey" stroke-width="2" points="118.42,-189 112.65,-180.1 111.61,-190.65 118.42,-189"/>
</g>
<!-- 7 -->
<g id="node8" class="node">
<title>7</title>
<path fill="none" stroke="#56c9d8" stroke-width="2" d="M145.5,-324C145.5,-324 115.5,-324 115.5,-324 109.5,-324 103.5,-318 103.5,-312 103.5,-312 103.5,-300 103.5,-300 103.5,-294 109.5,-288 115.5,-288 115.5,-288 145.5,-288 145.5,-288 151.5,-288 157.5,-294 157.5,-300 157.5,-300 157.5,-312 157.5,-312 157.5,-318 151.5,-324 145.5,-324"/>
<text text-anchor="middle" x="130.5" y="-303.5" font-family="sans" font-size="10.00">train</text>
</g>
<!-- 7&#45;&gt;6 -->
<g id="edge7" class="edge">
<title>7&#45;&gt;6</title>
<path fill="none" stroke="grey" stroke-width="2" d="M129.26,-287.7C128.71,-279.98 128.05,-270.71 127.44,-262.11"/>
<polygon fill="grey" stroke="grey" stroke-width="2" points="130.93,-261.83 126.72,-252.1 123.94,-262.33 130.93,-261.83"/>
</g>
<!-- 8&#45;&gt;7 -->
<g id="edge8" class="edge">
<title>8&#45;&gt;7</title>
<path fill="none" stroke="grey" stroke-width="2" d="M134.26,-359.7C133.71,-351.98 133.05,-342.71 132.44,-334.11"/>
<polygon fill="grey" stroke="grey" stroke-width="2" points="135.93,-333.83 131.72,-324.1 128.94,-334.33 135.93,-333.83"/>
</g>
</g>
</svg>
